# Blender 5.0.1
# www.blender.org
mtllib 2f.mtl
o Claw
v -1.817361 0.059424 1.061034
v -1.945117 0.180426 0.725569
v -2.025986 0.020416 0.923647
v -1.752844 0.252979 0.821909
v -1.661858 0.024768 1.010614
v -1.614467 0.203690 0.789741
v -1.346275 0.267796 0.887026
v -1.376637 0.056733 1.147212
v -1.223011 -0.002375 1.037760
v -1.218473 0.179200 0.814235
v -1.038450 -0.063928 0.928937
v -1.055817 0.087577 0.742730
v -1.438290 -0.853556 0.099669
v -1.622962 -0.837060 0.063855
v -1.632139 -0.911220 0.138010
v -1.447463 -0.927715 0.173825
v -1.317209 -0.923092 0.182619
v -1.308036 -0.848933 0.108465
v -2.002636 -0.685734 0.616415
v -1.991003 -0.591721 0.522407
v -1.856665 -0.643209 0.491905
v -1.868293 -0.737224 0.585914
v -1.814027 -0.628156 0.569186
v -1.825658 -0.722168 0.663194
v -1.710350 -0.673322 0.722630
v -1.698719 -0.579309 0.628623
v -1.629880 -0.494863 0.687192
v -1.639052 -0.569023 0.761346
v -1.552730 -0.540856 0.684829
v -1.561902 -0.615015 0.758982
v -1.486135 -0.531651 0.800602
v -1.189048 -0.287741 0.867698
v -1.476960 -0.457490 0.726447
v -1.179875 -0.213582 0.793541
v -1.461000 -0.509723 0.812445
v -1.243842 -0.258366 0.799767
v -1.451823 -0.435564 0.738289
v -1.253015 -0.332525 0.873923
v -1.304927 -0.355541 0.864562
v -1.272236 -0.270336 0.793980
v -1.295754 -0.281383 0.790408
v -1.281411 -0.344496 0.868134
v -1.247905 -0.696684 0.745997
v -1.085397 -0.346800 0.786609
v -1.254232 -0.345910 0.867280
v -1.059043 -0.638271 0.687590
v -0.873188 -0.516519 0.565847
v -1.304927 -0.355541 0.864562
v -1.281411 -0.344496 0.868134
v -1.461000 -0.509723 0.812445
v -1.469085 -0.697316 0.746626
v -1.486135 -0.531651 0.800602
v -1.561902 -0.615015 0.758982
v -1.686754 -0.669543 0.718852
v -1.639052 -0.569023 0.761346
v -1.668989 -0.500255 0.779119
v -1.710350 -0.673322 0.722630
v -1.825651 -0.613818 0.771406
v -1.831943 -0.605594 0.776112
v -1.702917 -0.438711 0.811084
v -1.791688 -0.317440 0.879531
v -1.742399 -0.318826 0.866726
v -1.868001 -0.534224 0.784151
v -2.114950 -0.287558 0.765201
v -2.002053 -0.562409 0.730340
v -2.082090 -0.638470 0.687776
v -2.258806 -0.596594 0.645899
v -2.114945 -0.715878 0.336856
v -1.868293 -0.737224 0.585914
v -2.002636 -0.685734 0.616415
v -2.082090 -0.638470 0.687776
v -2.258806 -0.596594 0.645899
v -1.791681 -0.830203 0.366736
v -1.831941 -0.726803 0.654898
v -1.702809 -0.760922 0.487173
v -1.742392 -0.817399 0.368127
v -1.668985 -0.729801 0.549561
v -1.825658 -0.722168 0.663194
v -1.710350 -0.673322 0.722630
v -1.686754 -0.669543 0.718852
v -1.639016 -0.711764 0.618059
v -1.561864 -0.709390 0.664044
v -1.469085 -0.697316 0.746626
v -1.486110 -0.751115 0.580785
v -1.460996 -0.763123 0.559029
v -1.247905 -0.696684 0.745997
v -1.304928 -0.815286 0.404899
v -1.254225 -0.817947 0.395217
v -1.281405 -0.818803 0.393802
v -1.085392 -0.737273 0.396113
v -1.059043 -0.638271 0.687590
v -0.873188 -0.516519 0.565847
v -2.025986 0.020416 0.923647
v -2.114950 -0.287558 0.765201
v -1.791688 -0.317440 0.879531
v -1.817361 0.059424 1.061034
v -1.771698 -0.236701 0.912126
v -1.742399 -0.318826 0.866726
v -1.657330 -0.109976 0.945289
v -1.661858 0.024768 1.010614
v -1.632126 -0.088539 0.960389
v -1.447474 -0.124526 0.977059
v -1.376637 0.056733 1.147212
v -1.317284 -0.133840 0.972953
v -1.223011 -0.002375 1.037760
v -1.244083 -0.234248 0.922693
v -1.038450 -0.063928 0.928937
v -1.189048 -0.287741 0.867698
v -1.085397 -0.346800 0.786609
v -0.860772 -0.170233 0.711360
v -0.920704 -0.338827 0.623590
v -1.254232 -0.345910 0.867280
v -1.253015 -0.332525 0.873923
v -1.281411 -0.344496 0.868134
v -2.025975 -0.874303 0.028876
v -1.791681 -0.830203 0.366736
v -2.114945 -0.715878 0.336856
v -1.817347 -1.011688 -0.010136
v -1.771749 -0.863265 0.286466
v -1.742392 -0.817399 0.368127
v -1.657321 -0.895949 0.159272
v -1.661844 -0.961266 0.024522
v -1.632139 -0.911220 0.138010
v -1.447463 -0.927715 0.173825
v -1.376622 -1.097858 -0.007446
v -1.317209 -0.923092 0.182619
v -1.222998 -0.988409 0.051668
v -1.244075 -0.873353 0.283550
v -1.038439 -0.879588 0.113231
v -1.189245 -0.819994 0.338683
v -1.085392 -0.737273 0.396113
v -0.860765 -0.662013 0.219553
v -0.920702 -0.574253 0.388150
v -1.254225 -0.817947 0.395217
v -1.253008 -0.824591 0.381829
v -1.281405 -0.818803 0.393802
v -1.038439 -0.879588 0.113231
v -1.055807 -0.693370 -0.038261
v -0.860765 -0.662013 0.219553
v -0.902864 -0.547781 0.126256
v -0.801736 -0.318612 0.367952
v -1.038450 -0.063928 0.928937
v -1.055817 0.087577 0.742730
v -0.860772 -0.170233 0.711360
v -0.902871 -0.076930 0.597135
v -0.801736 -0.318612 0.367952
v -1.622962 -0.837060 0.063855
v -1.632139 -0.911220 0.138010
v -1.648144 -0.821790 0.085116
v -1.657321 -0.895949 0.159272
v -1.762573 -0.789106 0.212309
v -1.771749 -0.863265 0.286466
v -1.733220 -0.743239 0.293971
v -1.742392 -0.817399 0.368127
v -1.693635 -0.686762 0.413017
v -1.702809 -0.760922 0.487173
v -1.659812 -0.655641 0.475406
v -1.668985 -0.729801 0.549561
v -1.629844 -0.637604 0.543903
v -1.639016 -0.711764 0.618059
v -1.085397 -0.346800 0.786609
v -0.873188 -0.516519 0.565847
v -0.920704 -0.338827 0.623590
v -0.801736 -0.318612 0.367952
v -1.085392 -0.737273 0.396113
v -0.873188 -0.516519 0.565847
v -0.920702 -0.574253 0.388150
v -0.801736 -0.318612 0.367952
v -0.860772 -0.170233 0.711360
v -0.920704 -0.338827 0.623590
v -0.801736 -0.318612 0.367952
v -0.860765 -0.662013 0.219553
v -0.920702 -0.574253 0.388150
v -0.801736 -0.318612 0.367952
v -2.002053 -0.562409 0.730340
v -1.990425 -0.468396 0.636332
v -2.070459 -0.544457 0.593768
v -2.082090 -0.638470 0.687776
v -2.002636 -0.685734 0.616415
v -1.991003 -0.591721 0.522407
v -1.733225 -0.244666 0.792571
v -1.762523 -0.162540 0.837971
v -1.771698 -0.236701 0.912126
v -1.657330 -0.109976 0.945289
v -1.742399 -0.318826 0.866726
v -1.648155 -0.035815 0.871135
v -1.693744 -0.364552 0.736930
v -1.632126 -0.088539 0.960389
v -1.702917 -0.438711 0.811084
v -1.622954 -0.014380 0.886232
v -1.659815 -0.426095 0.704964
v -1.668989 -0.500255 0.779119
v -1.629880 -0.494863 0.687192
v -1.639052 -0.569023 0.761346
v -1.218461 -0.764874 -0.129890
v -1.222998 -0.988409 0.051668
v -1.346260 -0.837660 -0.218494
v -1.376622 -1.097858 -0.007446
v -1.038439 -0.879588 0.113231
v -1.661844 -0.961266 0.024522
v -1.055807 -0.693370 -0.038261
v -1.614453 -0.740381 -0.154385
v -1.752831 -0.772548 -0.203677
v -1.817347 -1.011688 -0.010136
v -1.945106 -0.676216 -0.131121
v -2.025975 -0.874303 0.028876
v -1.180071 -0.745834 0.264528
v -1.189245 -0.819994 0.338683
v -1.243835 -0.750431 0.307674
v -1.253008 -0.824591 0.381829
v -1.272232 -0.744643 0.319646
v -1.629844 -0.637604 0.543903
v -1.281405 -0.818803 0.393802
v -1.639016 -0.711764 0.618059
v -1.295755 -0.741126 0.330743
v -1.552692 -0.635230 0.589889
v -1.304928 -0.815286 0.404899
v -1.561864 -0.709390 0.664044
v -1.451821 -0.688964 0.484874
v -1.486110 -0.751115 0.580785
v -1.460996 -0.763123 0.559029
v -1.476938 -0.676957 0.506631
v -1.814023 -0.519804 0.677400
v -1.710350 -0.673322 0.722630
v -1.825651 -0.613818 0.771406
v -1.698719 -0.579309 0.628623
v -1.868001 -0.534224 0.784151
v -1.856370 -0.440207 0.690140
v -2.002053 -0.562409 0.730340
v -1.990425 -0.468396 0.636332
v -1.632126 -0.088539 0.960389
v -1.622954 -0.014380 0.886232
v -1.438302 -0.050367 0.902902
v -1.447474 -0.124526 0.977059
v -1.317284 -0.133840 0.972953
v -1.308109 -0.059680 0.898797
v -2.114950 -0.287558 0.765201
v -2.114945 -0.715878 0.336856
v -2.258806 -0.596594 0.645899
v -1.614453 -0.740381 -0.154385
v -1.614467 0.203690 0.789741
v -0.902864 -0.547781 0.126256
v -1.055807 -0.693370 -0.038261
v -1.218461 -0.764874 -0.129890
v -1.346260 -0.837660 -0.218494
v -0.902871 -0.076930 0.597135
v -0.801736 -0.318612 0.367952
v -1.055817 0.087577 0.742730
v -1.218473 0.179200 0.814235
v -1.346275 0.267796 0.887026
v -1.945106 -0.676216 -0.131121
v -1.752831 -0.772548 -0.203677
v -1.945117 0.180426 0.725569
v -1.752844 0.252979 0.821909
v -1.945106 -0.676216 -0.131121
v -2.114950 -0.287558 0.765201
v -1.945117 0.180426 0.725569
v -2.025986 0.020416 0.923647
v -2.114945 -0.715878 0.336856
v -2.025975 -0.874303 0.028876
v -1.317209 -0.923092 0.182619
v -1.308036 -0.848933 0.108465
v -1.234902 -0.799193 0.209395
v -1.244075 -0.873353 0.283550
v -1.180071 -0.745834 0.264528
v -1.189245 -0.819994 0.338683
v -1.552692 -0.635230 0.589889
v -1.561864 -0.709390 0.664044
v -1.486110 -0.751115 0.580785
v -1.476938 -0.676957 0.506631
v -1.814023 -0.519804 0.677400
v -1.825651 -0.613818 0.771406
v -1.831943 -0.605594 0.776112
v -1.820312 -0.511580 0.682106
v -1.868001 -0.534224 0.784151
v -1.856370 -0.440207 0.690140
v -1.856665 -0.643209 0.491905
v -1.868293 -0.737224 0.585914
v -1.820310 -0.632789 0.560889
v -1.831941 -0.726803 0.654898
v -1.814027 -0.628156 0.569186
v -1.825658 -0.722168 0.663194
v -1.317284 -0.133840 0.972953
v -1.308109 -0.059680 0.898797
v -1.552730 -0.540856 0.684829
v -1.234910 -0.160089 0.848537
v -1.561902 -0.615015 0.758982
v -1.244083 -0.234248 0.922693
v -1.486135 -0.531651 0.800602
v -1.189048 -0.287741 0.867698
v -1.476960 -0.457490 0.726447
v -1.179875 -0.213582 0.793541
v -1.830715 0.473562 0.602082
v -1.830675 -0.456312 0.602059
v -1.573310 -0.456302 0.602072
v -1.573350 0.473573 0.602094
v -1.830662 -0.594226 0.464138
v -1.573296 -0.594216 0.464151
v -1.573348 0.611493 0.464180
v -1.830713 0.611483 0.464168
v -1.830715 0.473562 0.602082
v -1.573350 0.473573 0.602094
v -1.573292 0.380612 -0.483045
v -1.830657 0.380601 -0.483059
v -1.573260 -0.363288 -0.483063
v -1.830626 -0.363299 -0.483077
v -1.573251 -0.594193 -0.465723
v -1.830617 -0.594205 -0.465734
v -1.830662 -0.594226 0.464138
v -1.573296 -0.594216 0.464151
v -1.830704 0.490914 0.371178
v -1.830668 0.490931 -0.372722
v -1.573303 0.490941 -0.372709
v -1.573292 0.380612 -0.483045
v -1.573339 0.490925 0.371190
v -1.830704 0.380578 0.481508
v -1.573339 0.380588 0.481520
v -1.830657 0.380601 -0.483059
v -1.573303 0.490941 -0.372709
v -1.573292 0.380612 -0.483045
v -1.573289 0.473602 -0.603614
v -1.573303 0.611515 -0.465694
v -1.573249 -0.456273 -0.603637
v -1.573348 0.611493 0.464180
v -1.573260 -0.363288 -0.483063
v -1.573339 0.490925 0.371190
v -1.573350 0.473573 0.602094
v -1.573339 0.380588 0.481520
v -1.573260 -0.473624 -0.372733
v -1.573251 -0.594193 -0.465723
v -1.573298 -0.473642 0.371167
v -1.573296 -0.594216 0.464151
v -1.573307 -0.363312 0.481504
v -1.573339 0.380588 0.481520
v -1.573350 0.473573 0.602094
v -1.573310 -0.456302 0.602072
v -1.573298 -0.473642 0.371167
v -1.573296 -0.594216 0.464151
v -1.830615 -0.456283 -0.603649
v -1.830655 0.473591 -0.603628
v -1.573289 0.473602 -0.603614
v -1.830668 0.611505 -0.465707
v -1.573249 -0.456273 -0.603637
v -1.573303 0.611515 -0.465694
v -1.573251 -0.594193 -0.465723
v -1.830617 -0.594205 -0.465734
v -1.573307 -0.363312 0.481504
v -1.830673 -0.363322 0.481490
v -1.573339 0.380588 0.481520
v -1.830704 0.380578 0.481508
v -1.830668 0.611505 -0.465707
v -1.573303 0.611515 -0.465694
v -1.573348 0.611493 0.464180
v -1.830713 0.611483 0.464168
v -1.573260 -0.363288 -0.483063
v -1.830626 -0.363299 -0.483077
v -1.573260 -0.473624 -0.372733
v -1.830626 -0.473636 -0.372745
v -1.573298 -0.473642 0.371167
v -1.830664 -0.473654 0.371155
v -1.573307 -0.363312 0.481504
v -1.830664 -0.473654 0.371155
v -1.830673 -0.363322 0.481490
v -1.573298 -0.473642 0.371167
v -1.830668 0.611505 -0.465707
v -1.830704 0.490914 0.371178
v -1.830713 0.611483 0.464168
v -1.830715 0.473562 0.602082
v -1.830704 0.380578 0.481508
v -1.830668 0.490931 -0.372722
v -1.830655 0.473591 -0.603628
v -1.830657 0.380601 -0.483059
v -1.830626 -0.363299 -0.483077
v -1.830615 -0.456283 -0.603649
v -1.830626 -0.473636 -0.372745
v -1.830617 -0.594205 -0.465734
v -1.830662 -0.594226 0.464138
v -1.830664 -0.473654 0.371155
v -1.830704 0.380578 0.481508
v -1.830673 -0.363322 0.481490
v -1.830675 -0.456312 0.602059
v -1.830715 0.473562 0.602082
v -1.830664 -0.473654 0.371155
v -1.830662 -0.594226 0.464138
v 1.981014 0.510671 0.503144
v 1.981037 -0.494086 0.503135
v 1.981037 0.510679 -0.501614
v 1.981059 -0.494079 -0.501622
v -2.037992 -0.494187 0.503037
v 1.981037 -0.494086 0.503135
v -2.038017 0.510570 0.503045
v 1.981014 0.510671 0.503144
v 1.981037 -0.494086 0.503135
v -2.037992 -0.494187 0.503037
v 1.981059 -0.494079 -0.501622
v -2.037967 -0.494178 -0.501719
v -2.037992 -0.494187 0.503037
v -2.038017 0.510570 0.503045
v -2.037967 -0.494178 -0.501719
v -2.037992 0.510577 -0.501711
v -2.037992 0.510577 -0.501711
v 1.981037 0.510679 -0.501614
v -2.037967 -0.494178 -0.501719
v 1.981059 -0.494079 -0.501622
v -2.038017 0.510570 0.503045
v 1.981014 0.510671 0.503144
v -2.037992 0.510577 -0.501711
v 1.981037 0.510679 -0.501614
v -2.070415 -0.544647 0.593716
v -1.832729 -0.600971 0.650039
v -1.990380 -0.468586 0.636280
v -1.990960 -0.591911 0.522355
v -1.820268 -0.511770 0.682053
v -1.856327 -0.440399 0.690089
v -1.813978 -0.519996 0.677348
v -1.698674 -0.579501 0.628572
v -1.813982 -0.628346 0.569134
v -1.820266 -0.632979 0.560836
v -1.856620 -0.643399 0.491853
v -1.444272 -0.261570 0.799348
v -1.308065 -0.059871 0.898744
v -1.438257 -0.050559 0.902851
v -1.234866 -0.160279 0.848484
v -1.648111 -0.036008 0.871083
v -1.622909 -0.014572 0.886181
v -1.243798 -0.258555 0.799716
v -1.179831 -0.213773 0.793489
v -1.272192 -0.270526 0.793927
v -1.295710 -0.281575 0.790357
v -1.451781 -0.435754 0.738236
v -1.641006 -0.247451 0.768577
v -1.762479 -0.162733 0.837920
v -1.733182 -0.244858 0.792520
v -1.693700 -0.364743 0.736878
v -1.476915 -0.457681 0.726395
v -1.659772 -0.426285 0.704912
v -1.629835 -0.495053 0.687139
v -1.552685 -0.541047 0.684776
v -1.476893 -0.677147 0.506578
v -1.659768 -0.655831 0.475353
v -1.640999 -0.719486 0.296513
v -1.629799 -0.637794 0.543851
v -1.552647 -0.635422 0.589838
v -1.693590 -0.686952 0.412965
v -1.733176 -0.743429 0.293919
v -1.762530 -0.789295 0.212258
v -1.451776 -0.689154 0.484822
v -1.648101 -0.821980 0.085066
v -1.444265 -0.750257 0.310633
v -1.295711 -0.741318 0.330692
v -1.272188 -0.744833 0.319594
v -1.438246 -0.853746 0.099616
v -1.622920 -0.837251 0.063803
v -1.307992 -0.849126 0.108414
v -1.234858 -0.799385 0.209344
v -1.243791 -0.750621 0.307621
v -1.180027 -0.746026 0.264477
v -2.187966 -0.053805 0.845665
v -2.016358 0.072522 0.885850
v -2.110556 0.063757 0.819042
v -2.104378 -0.106424 0.938923
v -1.893050 -0.126205 0.908873
v -2.261917 -0.369866 0.839099
v -2.095598 -0.238919 0.810974
v -2.261921 -0.189587 0.767003
v -3.778499 -0.181572 0.542743
v -2.191126 -0.439376 0.897569
v -1.921802 -0.461476 0.806587
v -0.825773 -0.192068 0.494555
v -0.742936 -0.289845 0.509576
v -0.738917 -0.210125 0.476489
v -0.672080 -0.202638 0.483982
v -0.835708 -0.290335 0.535168
v -0.882264 -0.157131 0.529503
v -0.895308 -0.284313 0.581025
v -0.672241 -0.309913 0.532442
v -0.536197 -0.163203 0.523416
v -0.518265 -0.248557 0.568745
v -0.489884 -0.251161 0.545895
v -0.504022 -0.180163 0.506454
v -2.261914 -0.617611 0.504801
v -2.082362 -0.558125 0.366575
v -2.261917 -0.545219 0.324693
v -3.786270 -0.517900 0.313355
v -2.168325 -0.655140 0.566586
v -1.916332 -0.754301 0.488901
v -2.069139 -0.675105 0.069990
v -2.068126 -0.738831 0.267191
v -1.980102 -0.685747 0.088252
v -1.893041 -0.859400 0.175643
v -2.146553 -0.701735 0.187547
v -2.196047 -0.643820 0.037095
v -2.174956 -0.524394 0.700186
v -2.261917 -0.369866 0.839099
v -2.261917 -0.466987 0.659336
v -3.778499 -0.181572 0.542743
v -2.191126 -0.439376 0.897569
v -1.921802 -0.461476 0.806587
v -2.261914 -0.617611 0.504801
v -2.261912 -0.776605 0.422716
v -2.184903 -0.848822 0.473496
v -3.786270 -0.517900 0.313355
v -2.168325 -0.655140 0.566586
v -1.916332 -0.754301 0.488901
v -2.068132 -0.217751 0.788299
v -2.104378 -0.106424 0.938923
v -1.893050 -0.126205 0.908873
v -2.068126 -0.738831 0.267191
v -2.104368 -0.889449 0.155852
v -1.893041 -0.859400 0.175643
v -0.840212 -0.404198 0.494105
v -0.738656 -0.424223 0.388046
v -0.742829 -0.382179 0.476592
v -0.658871 -0.427646 0.492310
v -0.836642 -0.456079 0.384537
v -0.901216 -0.433753 0.527135
v -0.896532 -0.501839 0.383337
v -0.639803 -0.480957 0.381172
v -0.553896 -0.365401 0.458817
v -0.521804 -0.330863 0.540542
v -0.517975 -0.343286 0.459222
v -0.492673 -0.316050 0.523652
v -0.835708 -0.290335 0.535168
v -0.840212 -0.404198 0.494105
v -0.742936 -0.289845 0.509576
v -0.901216 -0.433753 0.527135
v -0.895308 -0.284313 0.581025
v -0.742829 -0.382179 0.476592
v -0.672241 -0.309913 0.532442
v -0.658871 -0.427646 0.492310
v -0.521804 -0.330863 0.540542
v -0.518265 -0.248557 0.568745
v -0.489884 -0.251161 0.545895
v -0.492673 -0.316050 0.523652
v -0.504022 -0.180163 0.506454
v -0.517975 -0.343286 0.459222
v -0.508792 -0.306590 0.380021
v -0.489884 -0.251161 0.545895
v -0.492673 -0.316050 0.523652
v -0.626203 -0.430544 0.256067
v -0.639803 -0.480957 0.381172
v -0.542243 -0.323554 0.363062
v -0.553896 -0.365401 0.458817
v -2.098941 -0.751807 0.273483
v -2.082362 -0.558125 0.366575
v -1.916332 -0.754301 0.488901
v -2.016345 -0.836363 -0.023088
v -1.980102 -0.685747 0.088252
v -1.893041 -0.859400 0.175643
v -2.016358 0.072522 0.885850
v -1.980111 -0.038808 0.735225
v -1.893050 -0.126205 0.908873
v -2.095598 -0.238919 0.810974
v -2.079428 -0.323937 0.613588
v -1.921802 -0.461476 0.806587
v -2.110544 -0.769558 -0.014319
v -2.016345 -0.836363 -0.023088
v -2.187955 -0.796184 0.103235
v -2.104368 -0.889449 0.155852
v -1.893041 -0.859400 0.175643
v -2.261912 -0.776605 0.422716
v -2.261914 -0.704213 0.242607
v -2.098941 -0.751807 0.273483
v -3.786270 -0.517900 0.313355
v -2.184903 -0.848822 0.473496
v -1.916332 -0.754301 0.488901
v -0.836642 -0.456079 0.384537
v -0.827092 -0.415774 0.270838
v -0.738656 -0.424223 0.388046
v -0.883999 -0.450715 0.235893
v -0.896532 -0.501839 0.383337
v -0.732857 -0.391074 0.295530
v -0.626203 -0.430544 0.256067
v -0.639803 -0.480957 0.381172
v -0.542243 -0.323554 0.363062
v -0.553896 -0.365401 0.458817
v -0.517975 -0.343286 0.459222
v -0.508792 -0.306590 0.380021
v -2.079428 -0.323937 0.613588
v -2.261917 -0.466987 0.659336
v -2.261919 -0.286715 0.587241
v -3.778499 -0.181572 0.542743
v -2.174956 -0.524394 0.700186
v -1.921802 -0.461476 0.806587
v -2.069149 -0.020543 0.724581
v -1.980111 -0.038808 0.735225
v -2.068132 -0.217751 0.788299
v -1.893050 -0.126205 0.908873
v -2.146557 -0.138105 0.751204
v -2.196054 0.012354 0.693298
v -0.732857 -0.391074 0.295530
v -0.672080 -0.202638 0.483982
v -0.542243 -0.323554 0.363062
v -0.626203 -0.430544 0.256067
v -0.508792 -0.306590 0.380021
v -0.504022 -0.180163 0.506454
v -0.536197 -0.163203 0.523416
v -0.738917 -0.210125 0.476489
v -0.825773 -0.192068 0.494555
v -0.827092 -0.415774 0.270838
v -0.882264 -0.157131 0.529503
v -0.883999 -0.450715 0.235893
v -2.261917 -0.545219 0.324693
v -2.098941 -0.751807 0.273483
v -2.261914 -0.704213 0.242607
v -3.786270 -0.517900 0.313355
v -2.082362 -0.558125 0.366575
v -2.069139 -0.675105 0.069990
v -2.016345 -0.836363 -0.023088
v -2.110544 -0.769558 -0.014319
v -2.196047 -0.643820 0.037095
v -1.980102 -0.685747 0.088252
v -2.069149 -0.020543 0.724581
v -2.016358 0.072522 0.885850
v -1.980111 -0.038808 0.735225
v -2.110556 0.063757 0.819042
v -2.196054 0.012354 0.693298
v -2.261919 -0.286715 0.587241
v -2.095598 -0.238919 0.810974
v -2.079428 -0.323937 0.613588
v -2.261921 -0.189587 0.767003
v -3.778499 -0.181572 0.542743
v -2.110544 -0.769558 -0.014319
v -2.187955 -0.796184 0.103235
v -2.196047 -0.643820 0.037095
v -2.187966 -0.053805 0.845665
v -2.110556 0.063757 0.819042
v -2.196054 0.012354 0.693298
v -2.174956 -0.524394 0.700186
v -2.261917 -0.369866 0.839099
v -2.191126 -0.439376 0.897569
v -2.261914 -0.617611 0.504801
v -2.261912 -0.776605 0.422716
v -2.184903 -0.848822 0.473496
v -2.068132 -0.217751 0.788299
v -2.187966 -0.053805 0.845665
v -2.146557 -0.138105 0.751204
v -2.196054 0.012354 0.693298
v -2.104378 -0.106424 0.938923
v -2.068126 -0.738831 0.267191
v -2.187955 -0.796184 0.103235
v -2.104368 -0.889449 0.155852
v -2.146553 -0.701735 0.187547
v -2.196047 -0.643820 0.037095
vn -0.0868 0.7989 0.5951
vn -0.4726 0.7543 0.4558
vn -0.4725 0.7543 0.4558
vn -0.0316 0.7909 0.6111
vn 0.0236 0.7691 0.6387
vn -0.0158 0.7692 0.6388
vn 0.1652 0.7669 0.6202
vn 0.1262 0.7759 0.6180
vn 0.6016 0.6091 0.5167
vn 0.5968 0.6149 0.5154
vn 0.6613 0.6181 0.4250
vn 0.6771 0.6102 0.4114
vn -0.0709 0.7123 0.6983
vn 0.3465 0.6410 0.6849
vn 0.3697 0.6362 0.6772
vn -0.5049 0.6425 0.5764
vn -0.4652 0.6540 0.5966
vn 0.5651 0.5469 0.6177
vn 0.5834 0.5336 0.6123
vn -0.1176 0.7092 0.6952
vn -0.3795 0.6754 0.6323
vn -0.5501 0.6215 0.5577
vn -0.7012 0.5464 0.4579
vn -0.6857 0.5544 0.4717
vn 0.7254 0.4415 0.5281
vn 0.6070 0.5200 0.6010
vn -0.2448 0.6983 0.6726
vn -0.2282 0.6997 0.6770
vn -0.6935 0.5504 0.4648
vn -0.7253 0.5281 0.4416
vn -0.7400 0.5194 0.4273
vn -0.4088 0.6678 0.6221
vn -0.9075 0.3466 0.2372
vn -0.9955 0.0861 -0.0406
vn -0.5907 0.6070 0.5316
vn -0.5289 0.6350 0.5631
vn 0.1890 -0.3076 0.9326
vn 0.5043 -0.2289 0.8327
vn 0.1880 -0.3126 0.9311
vn 0.5125 -0.2222 0.8294
vn 0.7782 -0.0470 0.6262
vn 0.0080 -0.3281 0.9446
vn 0.0079 -0.3281 0.9446
vn -0.0315 -0.3279 0.9442
vn -0.0786 -0.3270 0.9417
vn -0.1660 -0.3194 0.9330
vn 0.0395 -0.3440 0.9381
vn 0.1502 -0.3517 0.9240
vn 0.2120 -0.3534 0.9112
vn 0.2120 -0.3534 0.9111
vn 0.1023 -0.3425 0.9339
vn -0.0394 -0.3173 0.9475
vn 0.2120 -0.3533 0.9112
vn -0.3070 -0.2517 0.9178
vn -0.3069 -0.2517 0.9178
vn -0.3161 -0.9162 0.2462
vn -0.3161 -0.9163 0.2462
vn -0.3160 -0.9163 0.2462
vn -0.0394 -0.9495 0.3114
vn 0.1027 -0.9351 0.3392
vn 0.2120 -0.9110 0.3537
vn 0.1573 -0.9230 0.3513
vn 0.0394 -0.9389 0.3421
vn -0.1653 -0.9327 0.3204
vn -0.0790 -0.9423 0.3253
vn -0.0315 -0.9443 0.3276
vn 0.1892 -0.9316 0.3103
vn 0.0078 -0.9447 0.3277
vn 0.1893 -0.9316 0.3103
vn 0.0079 -0.9447 0.3277
vn 0.5041 -0.8334 0.2265
vn 0.5133 -0.8287 0.2231
vn 0.7776 -0.6272 0.0447
vn -0.3935 -0.3799 0.8372
vn -0.3934 -0.3798 0.8372
vn -0.0790 -0.4161 0.9059
vn -0.1025 -0.4153 0.9039
vn 0.2048 -0.4161 0.8860
vn 0.0864 -0.4610 0.8832
vn -0.0236 -0.4969 0.8675
vn -0.2599 -0.5524 0.7920
vn -0.0947 -0.5805 0.8087
vn -0.0473 -0.5909 0.8054
vn 0.1105 -0.5995 0.7927
vn 0.2047 -0.5510 0.8090
vn 0.3061 -0.4889 0.8169
vn 0.4405 -0.4649 0.7680
vn 0.3541 -0.4551 0.8170
vn 0.4894 -0.4686 0.7354
vn 0.6671 -0.4754 0.5735
vn 0.7251 -0.4788 0.4949
vn 0.1892 -0.4528 0.8713
vn 0.2435 -0.4589 0.8545
vn 0.0078 -0.4471 0.8944
vn -0.3944 -0.8357 0.3823
vn -0.0788 -0.9067 0.4143
vn -0.3943 -0.8357 0.3823
vn -0.1022 -0.9048 0.4135
vn 0.2045 -0.8877 0.4126
vn 0.0869 -0.8855 0.4565
vn -0.0236 -0.8697 0.4930
vn -0.2603 -0.7939 0.5494
vn -0.0943 -0.8065 0.5836
vn -0.0473 -0.8092 0.5856
vn 0.1104 -0.7907 0.6022
vn 0.2047 -0.8100 0.5495
vn 0.3067 -0.8163 0.4894
vn 0.4408 -0.7694 0.4623
vn 0.3537 -0.8178 0.4540
vn 0.4873 -0.7359 0.4702
vn 0.6693 -0.5712 0.4752
vn 0.7244 -0.4970 0.4778
vn 0.1884 -0.8695 0.4567
vn 0.2443 -0.8551 0.4573
vn 0.0078 -0.8957 0.4446
vn 0.6740 -0.4158 -0.6106
vn 0.8495 -0.1778 -0.4968
vn 0.6611 -0.4283 -0.6160
vn 0.8605 -0.1529 -0.4860
vn 0.9173 0.0148 -0.3979
vn 0.6771 0.6102 0.4113
vn 0.6614 0.6181 0.4250
vn 0.8485 0.4997 0.1741
vn 0.8610 0.4866 0.1477
vn 0.9167 0.3994 -0.0134
vn 0.7178 0.4455 0.5351
vn 0.9404 0.1768 0.2904
vn 0.9935 -0.0073 0.1135
vn 0.9394 -0.2936 -0.1769
vn 0.9168 -0.3352 -0.2171
vn 0.9075 -0.3466 -0.2373
vn 0.8753 -0.3915 -0.2838
vn 0.8753 -0.3915 -0.2839
vn 0.7254 -0.5281 -0.4416
vn 0.6080 -0.6006 -0.5193
vn 0.7783 -0.0469 0.6262
vn 0.7698 -0.0498 0.6364
vn 0.8995 0.0998 0.4253
vn 0.7776 -0.6272 0.0446
vn 0.5042 -0.8334 0.2265
vn 0.7710 -0.6350 0.0487
vn 0.9001 -0.4235 -0.1019
vn 0.7252 -0.4788 0.4949
vn 0.8142 -0.4681 0.3433
vn 0.7244 -0.4969 0.4778
vn 0.6693 -0.5711 0.4752
vn 0.8143 -0.3401 0.4703
vn 0.9962 -0.0708 0.0499
vn 0.5591 -0.6187 -0.5519
vn 0.5820 -0.6101 -0.5377
vn 0.9961 -0.0487 0.0737
vn 0.5836 0.5349 0.6110
vn 0.9405 0.1768 0.2904
vn 0.9394 -0.2936 -0.1770
vn 0.9936 -0.1125 0.0103
vn 0.7179 -0.5323 -0.4486
vn 0.9405 0.1768 0.2903
vn 0.7179 -0.5323 -0.4487
vn 0.9152 0.2217 0.3366
vn 0.3700 -0.6766 -0.6366
vn 0.9047 0.2397 0.3522
vn 0.3469 -0.6815 -0.6443
vn 0.8754 0.2815 0.3930
vn 0.6070 0.5199 0.6010
vn 0.5990 -0.5169 -0.6116
vn 0.1651 -0.6168 -0.7696
vn 0.1255 -0.6195 -0.7749
vn 0.6611 -0.4284 -0.6160
vn 0.0236 -0.6424 -0.7660
vn 0.6740 -0.4159 -0.6106
vn -0.0158 -0.6365 -0.7711
vn -0.0315 -0.6110 -0.7910
vn -0.0864 -0.5967 -0.7978
vn -0.4722 -0.4543 -0.7554
vn -0.4721 -0.4543 -0.7554
vn -0.9077 -0.2365 -0.3465
vn -0.4092 -0.6218 -0.6678
vn -0.9953 0.0407 -0.0874
vn -0.5263 -0.5659 -0.6346
vn -0.2436 -0.6687 -0.7025
vn 0.6079 -0.6007 -0.5193
vn 0.7253 -0.5281 -0.4416
vn -0.5924 -0.5318 -0.6052
vn -0.2283 -0.6768 -0.6999
vn -0.6935 -0.4639 -0.5512
vn -0.6935 -0.4638 -0.5512
vn -0.7254 -0.4415 -0.5281
vn -0.7411 -0.4267 -0.5184
vn -0.7014 -0.4600 -0.5445
vn -0.5500 -0.5582 -0.6212
vn -0.6855 -0.4677 -0.5580
vn 0.5819 -0.6101 -0.5377
vn -0.0947 -0.7002 -0.7076
vn -0.3932 -0.6253 -0.6741
vn 0.5590 -0.6187 -0.5520
vn -0.0707 -0.7002 -0.7104
vn 0.3469 -0.6816 -0.6443
vn -0.0706 -0.7002 -0.7105
vn -0.5048 -0.5791 -0.6402
vn -0.4642 -0.5962 -0.6550
vn -0.8944 0.3149 -0.3177
vn 0.0867 0.7028 -0.7061
vn -0.8944 0.3148 -0.3177
vn -0.8944 0.3149 -0.3176
vn -0.8104 0.4622 0.3600
vn -0.9953 0.0408 -0.0874
vn -0.2282 -0.6767 -0.7000
vn -0.2435 -0.6687 -0.7026
vn -0.7411 -0.4267 -0.5183
vn -0.8133 -0.3566 -0.4597
vn -0.7015 -0.4599 -0.5444
vn -0.6855 -0.4677 -0.5579
vn -0.1176 0.7092 0.6951
vn -0.3794 0.6754 0.6323
vn -0.7013 0.5464 0.4579
vn -0.6857 0.5544 0.4716
vn -0.8096 -0.3589 -0.4644
vn -0.2281 0.6998 0.6770
vn -0.9075 0.3466 0.2373
vn -0.9955 0.0861 -0.0405
vn -0.0000 0.3797 0.9251
vn -0.0000 -0.3855 0.9227
vn -0.0000 -0.9251 0.3797
vn -0.0000 0.9227 0.3856
vn -0.0001 0.3797 0.9251
vn -0.0000 -0.9227 -0.3855
vn -0.0000 -0.3856 0.9227
vn 0.0001 -0.3798 -0.9251
vn -0.0000 -0.3798 -0.9251
vn 1.0000 -0.0000 0.0001
vn 1.0000 -0.0000 -0.0000
vn 1.0000 0.0001 0.0001
vn 1.0000 0.0001 -0.0000
vn -0.0000 0.3855 -0.9227
vn -0.0000 0.9251 -0.3797
vn -0.0000 -0.3797 -0.9251
vn -0.0000 -0.9227 -0.3856
vn 0.0001 -0.9227 -0.3856
vn 0.0001 -0.3797 -0.9251
vn -0.0001 0.9227 0.3855
vn -0.0000 0.9227 0.3855
vn -0.0000 0.3798 0.9251
vn -0.0000 0.3856 -0.9227
vn -0.0000 0.9251 -0.3798
vn -1.0000 -0.0000 -0.0001
vn -1.0000 -0.0000 -0.0000
vn -1.0000 -0.0001 -0.0001
vn -1.0000 -0.0001 -0.0000
vn -0.0000 -0.0033 1.0000
vn -0.0000 -1.0000 -0.0033
vn -0.0000 0.0033 -1.0000
vn -0.0000 0.0034 -1.0000
vn -0.0000 1.0000 0.0033
vn -0.3305 -0.6500 0.6843
vn -0.0709 -0.6983 0.7123
vn -0.2998 -0.2523 0.9200
vn -0.2834 -0.9137 0.2912
vn -0.1893 -0.2863 0.9393
vn 0.2045 -0.3539 0.9126
vn 0.2199 -0.6906 0.6890
vn 0.2045 -0.9125 0.3543
vn -0.1816 -0.9330 0.3107
vn -0.2834 -0.9137 0.2911
vn -0.0785 -0.3844 0.9198
vn -0.0000 -0.4472 0.8945
vn -0.0868 -0.4415 0.8930
vn 0.0945 -0.4510 0.8875
vn -0.0709 -0.4362 0.8970
vn -0.1652 -0.4332 0.8860
vn 0.1255 -0.4494 0.8844
vn 0.3859 -0.4418 0.8098
vn -0.0000 -0.4216 0.9068
vn 0.0158 -0.3281 0.9445
vn -0.1258 -0.3207 0.9388
vn 0.0158 -0.3855 0.9226
vn 0.2123 -0.4155 0.8845
vn 0.2206 -0.3947 0.8919
vn 0.2282 -0.3474 0.9095
vn -0.1652 -0.3138 0.9350
vn -0.0941 -0.3266 0.9404
vn -0.1652 -0.3139 0.9350
vn -0.1653 -0.9328 0.3204
vn -0.1024 -0.9403 0.3246
vn 0.0158 -0.9220 0.3869
vn 0.2195 -0.9095 0.3531
vn 0.2133 -0.8928 0.3969
vn 0.2121 -0.8829 0.4190
vn -0.1257 -0.9378 0.3237
vn -0.0711 -0.8972 0.4359
vn -0.0785 -0.9193 0.3857
vn 0.0157 -0.9421 0.3350
vn 0.0078 -0.9059 0.4234
vn -0.0867 -0.8960 0.4354
vn -0.1653 -0.8873 0.4305
vn -0.0000 -0.8957 0.4446
vn 0.0868 -0.8891 0.4495
vn 0.1180 -0.8862 0.4480
vn 0.3535 -0.8254 0.4402
vn -0.5825 0.5106 0.6324
vn -0.3698 0.4370 0.8199
vn -0.6869 0.5487 0.4765
vn -0.0552 0.3112 0.9487
vn 0.1581 0.2102 0.9648
vn -0.1648 0.4022 0.9006
vn -0.0393 0.3794 0.9244
vn -0.1491 0.3817 0.9122
vn -0.1335 0.3681 0.9201
vn 0.1648 0.3059 0.9377
vn 0.3295 0.2376 0.9137
vn 0.4480 0.3040 0.8408
vn 0.0236 0.3868 0.9219
vn 0.0550 0.3791 0.9237
vn -0.2597 0.3915 0.8828
vn 0.4882 0.2928 0.8221
vn 0.6142 0.2426 0.7510
vn -0.2836 0.3880 0.8769
vn 0.0707 0.4851 0.8716
vn -0.0157 0.4724 0.8812
vn 0.5850 0.4785 0.6549
vn 0.5850 0.4785 0.6548
vn 0.0157 0.9183 0.3957
vn 0.1178 0.8853 0.4499
vn 0.0157 0.9226 0.3855
vn 0.0158 0.9268 0.3753
vn 0.3073 0.8037 0.5095
vn 0.4477 0.7116 0.5414
vn 0.1259 0.9423 0.3101
vn 0.4968 0.7376 0.4574
vn 0.2366 0.9014 0.3627
vn 0.6522 0.5753 0.4936
vn 0.1020 0.9467 0.3054
vn 0.1498 0.9373 0.3146
vn -0.4164 -0.8334 0.3633
vn -0.4962 -0.7779 0.3855
vn -0.3628 -0.8296 0.4244
vn -0.1975 -0.8643 0.4625
vn -0.4163 -0.8335 0.3632
vn 0.0630 -0.9141 0.4005
vn -0.2521 -0.8877 0.3852
vn -0.4328 -0.3956 0.8100
vn -0.3166 -0.4244 0.8483
vn -0.1416 -0.4543 0.8795
vn -0.3167 -0.4243 0.8483
vn -0.1968 -0.4267 0.8827
vn -0.3231 -0.4077 0.8541
vn 0.1025 -0.4409 0.8917
vn -0.3929 -0.7884 0.4733
vn 0.0079 -0.8008 0.5989
vn -0.2827 -0.8061 0.5198
vn -0.3629 -0.4897 0.7928
vn -0.2981 -0.5142 0.8042
vn 0.0079 -0.5999 0.8001
vn 0.4495 -0.8032 0.3909
vn -0.0631 -0.9077 0.4148
vn -0.0709 -0.9072 0.4146
vn 0.1258 -0.9181 0.3757
vn 0.3950 -0.8253 0.4035
vn 0.5595 -0.7403 0.3728
vn -0.0471 -0.9241 0.3793
vn 0.5437 -0.8003 0.2528
vn 0.5421 -0.8058 0.2384
vn 0.5197 -0.8412 0.1493
vn 0.3770 -0.3244 0.8675
vn 0.4418 -0.3173 0.8391
vn -0.0000 -0.3490 0.9371
vn 0.5592 -0.2994 0.7731
vn -0.0710 -0.3434 0.9365
vn -0.2287 -0.3266 0.9171
vn -0.2124 -0.3326 0.9188
vn 0.0790 -0.3327 0.9397
vn 0.2988 -0.3266 0.8967
vn 0.5832 -0.2899 0.7589
vn 0.9903 -0.0328 -0.1354
vn 0.9903 -0.0328 -0.1353
vn 0.9902 -0.0328 -0.1354
vn 0.7171 -0.6655 -0.2071
vn 0.3865 -0.8730 -0.2975
vn 0.2124 -0.9188 -0.3326
vn 0.7395 -0.6458 -0.1903
vn 0.5187 0.3474 -0.7812
vn 0.4084 0.3830 -0.8286
vn 0.7406 0.2376 -0.6285
vn 0.5505 0.4181 -0.7226
vn 0.4982 0.4479 -0.7425
vn 0.8439 0.1709 -0.5085
vn 0.5798 0.7095 -0.4006
vn 0.8466 0.5037 -0.1720
vn 0.4815 0.7469 -0.4586
vn 0.5748 0.7574 -0.3100
vn 0.7715 0.6055 -0.1951
vn 0.4262 0.8265 -0.3678
vn -0.6841 -0.4804 -0.5489
vn -0.3777 -0.8160 -0.4375
vn -0.5825 -0.6369 -0.5049
vn -0.0551 -0.9468 -0.3171
vn 0.1576 -0.9656 -0.2069
vn -0.2282 -0.8785 -0.4198
vn -0.1807 -0.9001 -0.3965
vn -0.1263 -0.8987 -0.4199
vn -0.1259 -0.9213 -0.3679
vn 0.1261 -0.9253 -0.3576
vn 0.3312 -0.8971 -0.2923
vn 0.4981 -0.8299 -0.2513
vn 0.4729 -0.8418 -0.2602
vn -0.0944 -0.9308 -0.3531
vn 0.5981 -0.7712 -0.2181
vn 0.5981 -0.7711 -0.2182
vn -0.0710 -0.9326 -0.3538
vn 0.2125 -0.9188 -0.3326
vn 0.3865 -0.8730 -0.2974
vn 0.7170 -0.6655 -0.2072
vn 0.5274 -0.7971 -0.2942
vn 0.7394 -0.6458 -0.1903
vn 0.5274 -0.7970 -0.2942
vn 0.1654 -0.4376 -0.8838
vn 0.0629 -0.3934 -0.9172
vn 0.0315 -0.3867 -0.9217
vn -0.0000 -0.3725 -0.9280
vn 0.3303 -0.4922 -0.8054
vn 0.4392 -0.5218 -0.7313
vn 0.1262 -0.3076 -0.9431
vn 0.2292 -0.3657 -0.9021
vn 0.4968 -0.4542 -0.7395
vn 0.6552 -0.4940 -0.5716
vn 0.1021 -0.3100 -0.9452
vn 0.1497 -0.3139 -0.9376
vn -0.0000 0.7069 -0.7073
vn -0.0000 0.7068 -0.7074
vn -0.0001 0.7071 -0.7071
vn -0.0000 0.7071 -0.7071
vn 0.1264 0.4455 -0.8863
vn 0.5186 0.3474 -0.7813
vn 0.1495 0.4441 -0.8834
vn 0.0157 0.4568 -0.8895
vn 0.4083 0.3830 -0.8286
vn 0.2981 0.5434 -0.7848
vn 0.5504 0.4181 -0.7227
vn 0.2910 0.5446 -0.7866
vn 0.3305 0.5462 -0.7697
vn 0.4981 0.4479 -0.7425
vn 0.2987 0.7844 -0.5436
vn 0.5797 0.7095 -0.4006
vn 0.2915 0.7862 -0.5449
vn 0.3316 0.7701 -0.5449
vn 0.1655 0.8767 -0.4516
vn 0.5747 0.7574 -0.3100
vn 0.4261 0.8265 -0.3678
vn 0.2049 0.8739 -0.4408
vn 0.0707 0.8791 -0.4713
vn -0.6841 -0.4803 -0.5489
vn -0.7702 -0.2842 -0.5710
vn -0.6870 0.5487 0.4765
vn -0.7708 0.5672 0.2902
vn -0.4963 -0.7779 0.3855
vn -0.4164 -0.8335 0.3632
vn -0.4329 -0.3956 0.8100
vn -0.3930 -0.7884 0.4733
vn -0.8358 -0.5324 0.1344
vn -0.8429 -0.5262 0.1128
vn -0.9318 -0.3491 -0.0993
vn -0.3629 -0.4896 0.7928
vn -0.8442 -0.1171 0.5231
vn -0.2982 -0.5142 0.8042
vn -0.8343 -0.1265 0.5366
vn -0.9344 0.0980 0.3424
vt 32.016102 -20.999701
vt 32.023201 -21.017799
vt 32.027802 -21.003599
vt 32.012501 -21.016800
vt 32.007401 -21.000299
vt 32.004700 -21.016199
vt 31.989700 -21.014900
vt 31.991400 -20.996201
vt 31.982800 -20.998199
vt 31.982500 -21.014200
vt 31.972500 -21.000099
vt 31.973400 -21.013399
vt 31.994900 -21.001600
vt 32.005199 -21.003700
vt 32.005699 -20.997801
vt 31.995399 -20.995800
vt 31.988100 -20.995600
vt 31.987600 -21.001499
vt 32.025799 -20.995300
vt 32.026402 -20.987801
vt 32.018299 -20.994400
vt 32.018902 -20.987000
vt 32.010101 -20.984100
vt 32.015900 -20.992001
vt 32.016499 -20.984501
vt 32.009399 -20.991600
vt 32.005600 -20.992599
vt 32.006100 -20.986700
vt 32.001301 -20.990801
vt 32.001801 -20.985001
vt 31.996099 -20.987000
vt 31.997000 -20.992500
vt 31.997499 -20.986601
vt 31.983999 -20.997499
vt 31.980900 -20.993601
vt 31.980400 -20.999500
vt 31.995600 -20.992901
vt 31.984501 -20.991600
vt 31.987400 -20.991100
vt 31.985600 -20.997200
vt 31.986900 -20.996901
vt 31.986099 -20.991400
vt 32.000000 -20.984200
vt 31.984501 -20.975100
vt 31.981300 -20.984501
vt 32.000000 -20.973600
vt 32.000000 -20.963200
vt 31.981800 -20.987400
vt 31.981199 -20.986099
vt 31.990000 -20.996099
vt 32.000000 -20.996599
vt 31.991301 -20.997499
vt 31.996300 -21.001801
vt 32.000000 -21.008801
vt 31.994301 -21.006100
vt 31.990900 -21.007799
vt 32.000000 -21.010099
vt 31.995701 -21.016500
vt 31.995199 -21.016899
vt 31.987200 -21.009701
vt 31.979700 -21.014601
vt 31.980301 -21.011900
vt 31.992100 -21.018900
vt 31.983000 -21.032700
vt 31.995300 -21.026400
vt 32.000000 -21.030899
vt 32.000000 -21.040800
vt 32.016998 -21.032700
vt 32.007900 -21.018900
vt 32.004700 -21.026400
vt 32.020302 -21.014601
vt 32.004799 -21.016899
vt 32.012798 -21.009701
vt 32.019699 -21.011900
vt 32.009102 -21.007799
vt 32.004299 -21.016500
vt 32.005699 -21.006100
vt 32.003700 -21.001801
vt 32.008701 -20.997499
vt 32.009998 -20.996099
vt 32.018200 -20.987400
vt 32.018700 -20.984501
vt 32.018799 -20.986099
vt 32.015499 -20.975100
vt 31.964600 -21.027800
vt 31.957600 -21.016100
vt 31.975201 -21.013500
vt 31.968901 -21.007099
vt 31.961000 -21.007401
vt 31.967400 -21.005699
vt 31.968201 -20.995399
vt 31.954300 -20.991400
vt 31.968700 -20.988100
vt 31.961000 -20.982800
vt 31.974701 -20.983999
vt 31.967699 -20.972500
vt 31.979000 -20.980900
vt 31.980499 -20.962500
vt 31.990700 -20.965900
vt 31.980499 -20.984501
vt 32.035400 -21.027800
vt 32.042400 -21.016100
vt 32.024799 -21.013500
vt 32.031101 -21.007099
vt 32.039001 -21.007401
vt 32.032600 -21.005699
vt 32.031799 -20.995399
vt 32.045700 -20.991400
vt 32.031300 -20.988100
vt 32.039001 -20.982800
vt 32.025299 -20.983999
vt 32.032299 -20.972500
vt 32.021000 -20.980900
vt 32.019501 -20.962500
vt 32.009300 -20.965900
vt 32.019501 -20.984501
vt 31.969101 -21.013399
vt 31.980499 -21.004499
vt 31.967699 -21.000099
vt 31.981400 -21.012699
vt 32.000000 -21.012199
vt 32.030899 -21.013399
vt 32.032299 -21.000099
vt 32.019501 -21.004499
vt 32.018600 -21.012699
vt 31.968901 -21.003500
vt 31.967400 -20.997801
vt 31.967400 -21.003700
vt 31.968901 -20.997601
vt 31.975201 -20.999701
vt 31.975201 -20.993900
vt 31.980301 -20.998301
vt 31.980301 -20.992399
vt 31.987200 -20.995800
vt 31.987200 -20.990000
vt 31.990900 -20.994600
vt 31.990900 -20.988701
vt 31.994301 -20.992599
vt 31.994301 -20.986700
vt 32.015499 -20.994499
vt 32.000000 -20.996500
vt 32.009300 -21.001301
vt 31.984501 -20.994499
vt 31.990700 -21.001301
vt 32.000000 -20.994301
vt 32.004700 -20.995600
vt 32.004700 -20.988199
vt 32.000000 -20.986900
vt 31.995300 -20.987801
vt 31.995300 -20.995300
vt 32.019699 -20.998301
vt 32.024799 -20.999800
vt 32.024799 -20.993900
vt 32.031101 -20.997601
vt 32.019699 -20.992399
vt 32.031101 -21.003500
vt 32.012798 -20.995800
vt 32.032600 -20.997801
vt 32.012798 -20.989901
vt 32.032600 -21.003700
vt 32.009102 -20.994600
vt 32.009102 -20.988701
vt 32.005699 -20.992599
vt 32.005699 -20.986700
vt 32.017502 -21.014200
vt 32.017200 -20.998199
vt 32.010300 -21.014900
vt 32.008598 -20.996201
vt 32.027500 -21.000099
vt 31.992599 -21.000299
vt 32.026600 -21.013399
vt 31.995300 -21.016199
vt 31.987499 -21.016800
vt 31.983900 -20.999701
vt 31.976801 -21.017799
vt 31.972200 -21.003599
vt 32.019100 -20.993500
vt 32.015999 -20.997499
vt 32.019600 -20.999399
vt 32.015499 -20.991600
vt 32.014400 -20.997200
vt 32.013901 -20.991400
vt 32.013100 -20.996901
vt 31.998699 -20.990900
vt 31.993900 -20.986700
vt 31.994400 -20.992599
vt 32.012600 -20.991100
vt 31.998199 -20.985001
vt 32.004398 -20.992901
vt 32.003899 -20.987000
vt 32.002998 -20.992500
vt 32.002499 -20.986601
vt 31.984100 -20.992001
vt 31.989901 -20.984100
vt 31.983500 -20.984501
vt 31.990601 -20.991600
vt 31.973600 -20.988199
vt 31.981701 -20.994600
vt 31.981100 -20.987200
vt 31.974199 -20.995600
vt 32.005100 -21.001600
vt 31.994301 -20.997801
vt 31.994801 -21.003700
vt 32.004601 -20.995800
vt 32.011902 -20.995600
vt 32.012402 -21.001400
vt 31.962601 -21.004700
vt 32.037399 -21.004700
vt 31.981400 -20.964899
vt 31.969101 -20.973400
vt 31.962601 -20.982500
vt 31.956200 -20.989700
vt 32.018600 -20.964899
vt 32.000000 -20.959200
vt 32.030899 -20.973400
vt 32.037399 -20.982500
vt 32.043800 -20.989700
vt 31.966101 -21.023199
vt 31.959400 -21.012501
vt 32.033901 -21.023199
vt 32.040600 -21.012501
vt 32.033901 -21.017799
vt 31.983000 -20.997700
vt 31.966101 -21.017799
vt 31.964600 -21.003599
vt 32.016998 -20.997700
vt 32.035400 -21.003599
vt 32.031300 -20.995600
vt 32.025299 -20.999399
vt 32.031300 -21.001499
vt 32.025299 -20.993601
vt 32.021000 -20.999399
vt 32.021000 -20.993500
vt 32.003700 -20.985001
vt 32.003700 -20.990900
vt 32.008701 -20.986601
vt 32.008701 -20.992500
vt 31.995199 -20.984699
vt 31.995701 -20.992001
vt 31.995701 -20.984501
vt 31.995199 -20.992100
vt 31.992100 -20.987200
vt 31.992100 -20.994600
vt 32.007900 -20.994400
vt 32.007900 -20.987000
vt 32.004799 -20.992100
vt 32.004799 -20.984699
vt 32.004299 -20.992001
vt 32.004299 -20.984501
vt 31.974701 -20.999399
vt 31.968700 -20.995600
vt 31.968700 -21.001400
vt 31.974701 -20.993601
vt 31.991301 -20.986601
vt 31.996300 -20.990801
vt 31.996300 -20.985001
vt 31.979000 -20.993601
vt 31.991301 -20.992500
vt 31.979000 -20.999500
vt 20.007200 0.973971
vt 20.007200 1.026030
vt 19.992800 1.026030
vt 19.992800 0.973971
vt 20.007200 1.033750
vt 19.992800 1.033750
vt 19.992800 0.966250
vt 20.007200 0.966250
vt 20.007200 0.979177
vt 19.992800 1.020820
vt 19.992800 0.979177
vt 20.007200 1.020820
vt 19.974001 0.992796
vt 20.025999 0.992796
vt 20.025999 1.007200
vt 19.974001 1.007200
vt 19.979200 0.992796
vt 20.020800 0.992796
vt 20.020800 1.007200
vt 20.027000 1.007200
vt 19.979200 1.007200
vt 19.973000 0.992796
vt 19.973000 1.007200
vt 20.027000 0.992796
vt 19.979200 0.973000
vt 19.973000 0.979177
vt 19.966200 0.973971
vt 19.974001 0.966250
vt 19.966200 1.026030
vt 20.025999 0.966250
vt 19.973000 1.020820
vt 20.020800 0.973000
vt 20.033800 0.973971
vt 20.027000 0.979177
vt 19.979200 1.027000
vt 19.974001 1.033750
vt 20.020800 1.027000
vt 20.025999 1.033750
vt 20.027000 1.020820
vt 20.033800 1.026030
vt 3.806250 0.250000
vt 3.750000 0.250000
vt 3.806250 0.193750
vt 3.750000 0.193750
vt 3.975000 0.250000
vt 3.975000 0.193750
vt 0.502616 0.733280
vt 0.502616 0.746587
vt 0.497920 0.737761
vt 0.507312 0.737728
vt 0.497818 0.747284
vt 0.494675 0.745266
vt 0.498330 0.747637
vt 0.502616 0.754092
vt 0.506903 0.747636
vt 0.507415 0.747284
vt 0.510558 0.745249
vt 0.483270 0.768334
vt 0.471351 0.775960
vt 0.470820 0.768671
vt 0.477316 0.780058
vt 0.471502 0.756923
vt 0.470055 0.758334
vt 0.483137 0.779558
vt 0.481610 0.783139
vt 0.483840 0.777968
vt 0.484418 0.776651
vt 0.492585 0.767914
vt 0.483930 0.757320
vt 0.477831 0.750520
vt 0.482879 0.752160
vt 0.489827 0.754370
vt 0.493922 0.766507
vt 0.493529 0.756270
vt 0.496955 0.757946
vt 0.498869 0.762265
vt 0.511311 0.766508
vt 0.511703 0.756270
vt 0.521303 0.757320
vt 0.508278 0.757947
vt 0.506363 0.762267
vt 0.515405 0.754376
vt 0.522354 0.752160
vt 0.527402 0.750517
vt 0.512648 0.767914
vt 0.533731 0.756923
vt 0.521962 0.768334
vt 0.520814 0.776651
vt 0.521393 0.777968
vt 0.534413 0.768671
vt 0.535177 0.758333
vt 0.533881 0.775963
vt 0.527917 0.780058
vt 0.522096 0.779558
vt 0.523622 0.783127
vt 22.002800 -3.004330
vt 21.993200 -3.007740
vt 21.998501 -3.010040
vt 21.998100 -2.998560
vt 21.986300 -2.998970
vt 22.006901 -2.992080
vt 21.997601 -2.998380
vt 22.006901 -3.002070
vt 22.091801 -3.011270
vt 22.003000 -2.987020
vt 21.987900 -2.989740
vt 21.926500 -3.012760
vt 21.921900 -3.008290
vt 21.921700 -3.012760
vt 21.917900 -3.012760
vt 21.927099 -3.007260
vt 21.929701 -3.012760
vt 21.930401 -3.005680
vt 21.917900 -3.006590
vt 21.910299 -3.012760
vt 21.909300 -3.007590
vt 21.907700 -3.008390
vt 21.908501 -3.012760
vt 22.006901 -2.995510
vt 21.996901 -3.003330
vt 22.006901 -3.005500
vt 22.092300 -3.007030
vt 22.001699 -2.991580
vt 21.987600 -2.990730
vt 21.996099 -3.010440
vt 21.996099 -3.000110
vt 21.991199 -3.009300
vt 22.000500 -3.004740
vt 22.003201 -3.012980
vt 21.995001 -3.002060
vt 21.983400 -3.006930
vt 21.994301 -3.006930
vt 21.987700 -3.091840
vt 21.988300 -2.987890
vt 21.983801 -3.002970
vt 22.016001 -3.006930
vt 22.006399 -3.006930
vt 22.010099 -3.092270
vt 22.016800 -3.002620
vt 22.005501 -3.001690
vt 22.012501 -2.987590
vt 21.979401 -2.996080
vt 21.971001 -2.986280
vt 21.969000 -2.998110
vt 22.020599 -2.996080
vt 22.031000 -2.998110
vt 22.028999 -2.986280
vt 21.998400 -2.927340
vt 22.003401 -2.921660
vt 21.998199 -2.921890
vt 21.999399 -2.917190
vt 22.004801 -2.927140
vt 21.998301 -2.930760
vt 22.006599 -2.930490
vt 22.005899 -2.916120
vt 21.998301 -2.911310
vt 21.993700 -2.909520
vt 21.997400 -2.909300
vt 21.993700 -2.907880
vt 21.992300 -2.927090
vt 21.993299 -2.921890
vt 21.990200 -2.930430
vt 21.993099 -2.917940
vt 21.989300 -2.909320
vt 21.990299 -2.907730
vt 22.011000 -3.012760
vt 22.002600 -3.008170
vt 22.000900 -3.012760
vt 22.009701 -3.008390
vt 22.006300 -3.006700
vt 21.999599 -3.012760
vt 21.994101 -3.005810
vt 21.991100 -3.012760
vt 22.001699 -3.007310
vt 21.979099 -2.999350
vt 21.990499 -3.003330
vt 21.987499 -2.990730
vt 21.964001 -3.007740
vt 21.974400 -3.009300
vt 21.971001 -2.998970
vt 22.035999 -3.007740
vt 22.028999 -2.998970
vt 22.025600 -3.009300
vt 22.020700 -2.998380
vt 22.011700 -2.989740
vt 22.009501 -3.002830
vt 22.001499 -3.010040
vt 22.006800 -3.007740
vt 21.997200 -3.004330
vt 22.001900 -2.998560
vt 22.013700 -2.998970
vt 21.993099 -2.992460
vt 21.993099 -3.002460
vt 22.002199 -2.999350
vt 21.907700 -3.007030
vt 21.997400 -2.987590
vt 22.012400 -2.990730
vt 22.072901 -3.006660
vt 22.073400 -3.012760
vt 22.078300 -3.007780
vt 22.070200 -3.012760
vt 22.069500 -3.004900
vt 22.078699 -3.012760
vt 22.084600 -3.012760
vt 22.083900 -3.005810
vt 22.089300 -3.012760
vt 22.090700 -3.008170
vt 22.088699 -3.007310
vt 22.091200 -3.012760
vt 22.003300 -3.002830
vt 21.993099 -2.995350
vt 21.993099 -3.005340
vt 21.908199 -3.011270
vt 21.997900 -2.991460
vt 22.012100 -2.989740
vt 22.003901 -3.010440
vt 22.008801 -3.009300
vt 22.003901 -3.000110
vt 21.999500 -3.004740
vt 21.996799 -3.012980
vt 21.994301 -2.921330
vt 22.009199 -2.917930
vt 21.999599 -2.910660
vt 21.991100 -2.915360
vt 22.000900 -2.908790
vt 22.011000 -2.908520
vt 22.012300 -2.910320
vt 22.008600 -2.921670
vt 22.010000 -2.926530
vt 21.992300 -2.926610
vt 22.012800 -2.929690
vt 21.989500 -2.929790
vt 21.989300 -3.006930
vt 21.979099 -2.997810
vt 21.979799 -3.006930
vt 21.989901 -3.092270
vt 21.990499 -2.996880
vt 21.974100 -2.996140
vt 21.964001 -2.993190
vt 21.966999 -2.998460
vt 21.974001 -3.003250
vt 21.974400 -2.991160
vt 22.025900 -2.996140
vt 22.035999 -2.993190
vt 22.025600 -2.991160
vt 22.033001 -2.998460
vt 22.025999 -3.003250
vt 22.009899 -3.006930
vt 22.020700 -2.997620
vt 22.009501 -2.996720
vt 22.020901 -3.006930
vt 22.012300 -3.091840
vt 22.033001 -3.010040
vt 22.029400 -3.004330
vt 22.025999 -3.012980
vt 21.966999 -3.010040
vt 21.974001 -3.012980
vt 21.970600 -3.004330
vt 21.983400 -2.992080
vt 21.995001 -2.991460
vt 21.983801 -2.987020
vt 22.006399 -2.995510
vt 22.016001 -2.992460
vt 22.016800 -2.987590
vt 21.979401 -3.000110
vt 21.977699 -3.004740
vt 21.969000 -2.998560
vt 22.020599 -3.000110
vt 22.031000 -2.998560
vt 22.022301 -3.004740
s 1
usemtl Meshpart1Mtl.001
f 1/1/1 2/2/2 3/3/3
f 2/2/2 1/1/1 4/4/4
f 4/4/4 1/1/1 5/5/5
f 4/4/4 5/5/5 6/6/6
f 6/6/6 5/5/5 7/7/7
f 5/5/5 8/8/8 7/7/7
f 9/9/9 7/7/7 8/8/8
f 7/7/7 9/9/9 10/10/10
f 9/9/9 11/11/11 10/10/10
f 10/10/10 11/11/11 12/12/12
f 13/13/13 14/14/14 15/15/15
f 15/15/15 16/16/13 13/13/13
f 17/17/16 13/13/13 16/16/13
f 13/13/13 17/17/16 18/18/17
f 20/19/18 19/20/19 21/21/20
f 19/20/19 22/22/21 21/21/20
f 25/23/22 23/24/23 24/25/24
f 23/24/23 25/23/22 26/26/22
f 27/27/25 28/28/26 29/29/27
f 28/28/26 30/30/28 29/29/27
f 35/31/29 33/32/30 31/33/31
f 36/34/32 32/35/33 34/36/34
f 33/32/30 35/31/29 37/37/29
f 32/35/33 36/34/32 38/38/32
f 39/39/35 37/37/29 35/31/29
f 40/40/32 38/38/32 36/34/32
f 37/37/29 39/39/35 41/41/36
f 38/38/32 40/40/32 42/42/32
f 42/42/32 41/41/36 39/39/35
f 41/41/36 42/42/32 40/40/32
f 43/43/37 44/44/38 45/45/39
f 44/44/38 43/43/37 46/46/40
f 47/47/41 44/44/38 46/46/40
f 45/45/39 48/48/42 43/43/37
f 48/48/42 45/45/39 49/49/43
f 43/43/37 48/48/42 50/50/44
f 51/51/45 43/43/37 50/50/44
f 51/51/45 50/50/44 52/52/46
f 51/51/45 52/52/46 53/53/46
f 53/53/46 54/54/47 51/51/45
f 54/54/47 53/53/46 55/55/46
f 56/56/48 54/54/47 55/55/46
f 56/56/48 57/57/49 54/54/47
f 57/57/49 56/56/48 58/58/50
f 58/58/50 56/56/48 59/59/51
f 59/59/51 56/56/48 60/60/50
f 60/60/50 61/61/52 59/59/51
f 61/61/52 60/60/50 62/62/53
f 59/59/51 61/61/52 63/63/54
f 64/64/54 63/63/54 61/61/52
f 63/63/54 64/64/54 65/65/54
f 65/65/54 64/64/54 66/66/55
f 64/64/54 67/67/55 66/66/55
f 68/68/56 69/69/56 70/70/56
f 71/66/57 68/68/56 70/70/56
f 68/68/56 71/66/57 72/67/58
f 69/69/56 68/68/56 73/71/59
f 73/71/59 74/72/60 69/69/56
f 73/71/59 75/73/61 74/72/60
f 75/73/61 73/71/59 76/74/61
f 77/75/62 74/72/60 75/73/61
f 74/72/60 77/75/62 78/76/61
f 77/75/62 79/57/61 78/76/61
f 79/57/61 77/75/62 80/54/63
f 80/54/63 77/75/62 81/77/64
f 82/78/64 80/54/63 81/77/64
f 80/54/63 82/78/64 83/51/65
f 83/51/65 82/78/64 84/79/64
f 83/51/65 84/79/64 85/80/66
f 85/80/66 86/43/67 83/51/65
f 87/81/68 86/43/67 85/80/66
f 86/43/67 87/81/68 88/82/69
f 88/82/69 87/81/68 89/83/70
f 88/82/69 90/84/71 86/43/67
f 86/43/67 90/84/71 91/46/72
f 90/84/71 92/47/73 91/46/72
f 93/85/74 94/64/75 95/61/76
f 95/61/76 96/86/77 93/85/74
f 96/86/77 95/61/76 97/87/78
f 98/62/78 97/87/78 95/61/76
f 99/88/79 96/86/77 97/87/78
f 96/86/77 99/88/79 100/89/80
f 100/89/80 99/88/79 101/90/81
f 102/91/82 100/89/80 101/90/81
f 100/89/80 102/91/82 103/92/83
f 104/93/84 103/92/83 102/91/82
f 103/92/83 104/93/84 105/94/85
f 104/93/84 106/95/86 105/94/85
f 106/95/86 107/96/87 105/94/85
f 107/96/87 106/95/86 108/97/88
f 107/96/87 108/97/88 109/44/89
f 109/44/89 110/98/90 107/96/87
f 110/98/90 109/44/89 111/99/91
f 108/97/88 112/45/92 109/44/89
f 112/45/92 108/97/88 113/100/93
f 113/100/93 114/49/94 112/45/92
f 115/101/95 116/71/96 117/68/97
f 116/71/96 115/101/95 118/102/98
f 116/71/96 118/102/98 119/103/99
f 116/71/96 119/103/99 120/74/99
f 119/103/99 118/102/98 121/104/100
f 118/102/98 122/105/101 121/104/100
f 121/104/100 122/105/101 123/106/102
f 123/106/102 122/105/101 124/107/103
f 122/105/101 125/108/104 124/107/103
f 124/107/103 125/108/104 126/109/105
f 127/110/106 126/109/105 125/108/104
f 126/109/105 127/110/106 128/111/107
f 128/111/107 127/110/106 129/112/108
f 130/113/109 128/111/107 129/112/108
f 130/113/109 129/112/108 131/84/110
f 132/114/111 131/84/110 129/112/108
f 131/84/110 132/114/111 133/115/112
f 131/84/110 134/82/113 130/113/109
f 135/116/114 130/113/109 134/82/113
f 136/83/115 135/116/114 134/82/113
f 138/117/116 139/118/117 137/119/118
f 139/118/117 138/117/116 140/120/119
f 139/118/117 140/120/119 141/121/120
f 143/122/121 142/123/122 144/124/123
f 145/125/124 143/122/121 144/124/123
f 145/125/124 144/124/123 146/121/125
f 149/126/126 148/127/15 147/128/14
f 148/127/15 149/126/126 150/129/126
f 151/130/127 150/129/126 149/126/126
f 150/129/126 151/130/127 152/131/128
f 153/132/129 152/131/128 151/130/127
f 152/131/128 153/132/129 154/133/129
f 155/134/130 154/133/129 153/132/129
f 154/133/129 155/134/130 156/135/131
f 157/136/132 156/135/131 155/134/130
f 156/135/131 157/136/132 158/137/133
f 159/138/134 158/137/133 157/136/132
f 158/137/133 159/138/134 160/139/135
f 161/140/38 162/141/136 163/142/137
f 163/142/137 162/141/136 164/121/138
f 166/141/139 165/143/140 167/144/141
f 166/141/139 167/144/141 168/121/142
f 169/124/90 170/142/143 171/121/144
f 173/144/145 172/118/146 174/121/147
f 177/145/148 176/146/149 175/147/150
f 177/145/148 175/147/150 178/148/151
f 179/149/152 177/145/148 178/148/151
f 177/145/148 179/149/152 180/150/18
f 181/151/153 182/152/154 183/153/155
f 182/152/154 184/154/156 183/153/155
f 181/151/153 183/153/155 185/155/157
f 182/152/154 186/156/158 184/154/156
f 187/157/159 181/151/153 185/155/157
f 186/156/158 188/158/160 184/154/156
f 187/157/159 185/155/157 189/159/161
f 190/160/162 188/158/160 186/156/158
f 191/161/163 187/157/159 189/159/161
f 191/161/163 189/159/161 192/162/163
f 193/163/25 191/161/163 192/162/163
f 193/163/25 192/162/163 194/164/164
f 195/165/165 196/166/165 197/167/166
f 198/168/167 197/167/166 196/166/165
f 195/165/165 199/169/168 196/166/165
f 200/170/169 197/167/166 198/168/167
f 199/169/168 195/165/165 201/171/170
f 197/167/166 200/170/169 202/172/171
f 200/170/169 203/173/172 202/172/171
f 203/173/172 200/170/169 204/174/173
f 204/174/173 205/175/174 203/173/172
f 205/175/174 204/174/173 206/176/175
f 208/177/176 209/178/177 207/179/178
f 210/180/177 209/178/177 208/177/176
f 210/180/177 211/181/177 209/178/177
f 211/181/177 210/180/177 213/182/177
f 213/182/177 215/183/179 211/181/177
f 216/184/180 214/185/181 212/186/182
f 215/183/179 213/182/177 217/187/183
f 214/185/181 216/184/180 218/188/184
f 217/187/183 219/189/185 215/183/179
f 219/189/185 217/187/183 221/190/186
f 221/190/186 222/191/187 219/189/185
f 222/191/187 221/190/186 220/192/188
f 223/193/189 224/194/190 225/195/191
f 224/194/190 223/193/189 226/196/190
f 229/197/192 228/198/193 227/199/194
f 228/198/193 229/197/192 230/200/195
f 233/201/196 231/202/160 232/203/197
f 231/202/160 233/201/196 234/204/198
f 233/201/196 235/205/199 234/204/198
f 235/205/199 233/201/196 236/206/200
f 237/68/201 238/64/201 239/67/201
f 240/207/202 241/208/202 242/209/202
f 243/210/202 240/207/202 242/209/202
f 240/207/202 243/210/202 244/211/202
f 244/211/202 245/212/202 240/207/202
f 242/209/202 246/213/202 247/214/202
f 242/209/202 241/208/202 246/213/202
f 246/213/202 241/208/202 248/215/202
f 248/215/202 241/208/202 249/216/202
f 241/208/202 250/217/202 249/216/202
f 241/208/202 240/207/202 251/218/202
f 240/207/202 252/219/202 251/218/202
f 241/208/202 251/218/202 253/220/202
f 253/220/202 254/221/202 241/208/202
f 255/222/203 256/223/201 257/224/201
f 257/224/201 256/223/201 258/225/204
f 259/226/203 256/223/201 255/222/203
f 255/222/203 260/227/203 259/226/203
f 261/228/16 263/229/205 262/230/17
f 264/231/205 263/229/205 261/228/16
f 264/231/205 265/232/206 263/229/205
f 266/233/176 265/232/206 264/231/205
f 268/234/207 267/235/208 269/236/209
f 269/236/209 267/235/208 270/237/187
f 273/238/210 271/239/211 272/240/212
f 271/239/211 273/238/210 274/241/210
f 275/242/194 274/241/210 273/238/210
f 274/241/210 275/242/194 276/243/193
f 277/244/213 278/245/214 279/246/205
f 280/247/205 279/246/205 278/245/214
f 280/247/205 281/248/215 279/246/205
f 282/249/216 281/248/215 280/247/205
f 286/250/217 283/251/199 284/252/200
f 283/251/199 286/250/217 288/253/217
f 289/254/31 285/255/27 287/256/218
f 288/253/217 286/250/217 290/257/219
f 285/255/27 289/254/31 291/258/30
f 290/257/219 286/250/217 292/259/220
usemtl Meshpart2Mtl
f 293/260/221 294/261/222 295/262/222
f 293/260/221 295/262/222 296/263/221
f 295/262/222 294/261/222 297/264/223
f 297/264/223 298/265/223 295/262/222
f 301/260/221 299/266/224 300/267/224
f 299/266/224 301/260/221 302/263/225
f 304/268/222 305/269/225 303/270/222
f 305/269/225 304/268/222 306/271/221
f 309/272/223 308/273/226 307/274/226
f 309/272/223 307/274/226 310/275/223
f 311/276/226 312/277/223 313/278/223
f 312/277/223 314/279/227 313/278/223
f 311/276/226 313/278/223 315/280/226
f 311/276/226 315/280/226 316/281/228
f 316/281/228 315/280/226 317/282/229
f 318/283/227 314/279/227 312/277/223
f 319/284/230 320/285/230 321/286/230
f 321/286/230 322/287/230 319/284/230
f 320/285/230 323/288/230 321/286/230
f 324/289/230 319/284/230 322/287/230
f 323/288/230 320/285/230 325/290/230
f 319/284/230 324/289/230 326/291/231
f 327/292/230 326/291/231 324/289/230
f 326/291/231 327/292/230 328/293/232
f 329/294/230 323/288/230 325/290/230
f 323/288/230 329/294/230 330/295/230
f 331/296/233 330/295/230 329/294/230
f 330/295/230 331/296/233 332/297/233
f 333/298/231 334/293/230 335/292/230
f 335/292/230 336/299/231 333/298/231
f 336/299/231 337/296/231 333/298/231
f 337/296/231 336/299/231 338/297/233
f 339/262/229 340/263/234 341/260/234
f 341/260/234 340/263/234 342/266/235
f 339/262/229 341/260/234 343/261/236
f 342/266/235 344/267/235 341/260/234
f 345/264/237 339/262/229 343/261/236
f 339/262/229 345/264/237 346/265/238
f 348/269/234 349/268/239 347/271/234
f 349/268/239 348/269/234 350/270/236
f 351/272/235 353/274/240 352/275/235
f 351/272/235 354/273/241 353/274/240
f 356/281/225 357/280/241 355/282/242
f 358/276/241 357/280/241 356/281/225
f 358/276/241 359/278/235 357/280/241
f 358/276/241 360/277/235 359/278/235
f 361/279/243 362/277/235 363/283/243
f 362/277/235 361/279/243 364/278/244
f 365/289/245 366/284/246 367/287/246
f 366/284/246 368/286/245 367/287/246
f 368/286/245 366/284/246 369/285/247
f 366/284/246 365/289/245 370/291/245
f 371/292/245 370/291/245 365/289/245
f 370/291/245 371/292/245 372/293/245
f 371/292/245 373/298/245 372/293/245
f 373/298/245 371/292/245 374/299/245
f 375/296/246 373/298/245 374/299/245
f 374/299/245 376/297/246 375/296/246
f 377/295/247 375/296/246 376/297/246
f 375/296/246 377/295/247 378/294/247
f 379/285/245 380/290/246 381/288/246
f 381/288/246 382/286/245 379/285/245
f 383/294/246 381/288/246 380/290/246
f 381/288/246 383/294/246 384/295/248
usemtl Primary1Mtl
f 385/300/231 386/301/231 387/302/231
f 387/302/231 386/301/231 388/303/231
f 389/304/249 390/301/249 391/305/249
f 391/305/249 390/301/249 392/303/249
f 393/304/250 394/301/250 395/305/250
f 395/305/250 394/301/250 396/303/250
f 397/300/246 398/301/246 399/302/246
f 399/302/246 398/301/246 400/303/246
f 401/304/251 402/301/251 403/305/252
f 403/305/252 402/301/251 404/303/252
f 405/304/253 406/301/253 407/305/253
f 407/305/253 406/301/253 408/303/253
usemtl Meshpart3Mtl
f 409/306/254 410/307/255 411/308/256
f 412/309/257 410/307/255 409/306/254
f 411/308/256 413/310/258 414/311/256
f 413/310/258 411/308/256 410/307/255
f 413/310/258 410/307/255 415/312/259
f 415/312/259 410/307/255 416/313/260
f 410/307/255 417/314/261 416/313/260
f 410/307/255 418/315/262 417/314/261
f 410/307/255 412/309/257 418/315/262
f 418/315/262 412/309/257 419/316/263
f 420/317/264 421/318/265 422/319/266
f 421/318/265 420/317/264 423/320/267
f 424/321/268 422/319/266 425/322/269
f 422/319/266 424/321/268 420/317/264
f 426/323/270 427/324/271 423/320/267
f 423/320/267 428/325/272 426/323/270
f 423/320/267 420/317/264 428/325/272
f 428/325/272 420/317/264 429/326/273
f 420/317/264 430/327/274 429/326/273
f 420/317/264 424/321/268 431/328/275
f 431/328/275 430/327/274 420/317/264
f 431/328/275 424/321/268 432/329/276
f 431/328/275 432/329/276 433/330/277
f 433/330/277 434/331/278 431/328/275
f 430/327/274 431/328/275 435/332/279
f 436/333/280 431/328/275 434/331/278
f 435/332/279 431/328/275 436/333/280
f 437/334/281 435/332/279 436/333/280
f 435/332/279 437/334/281 438/335/281
f 439/336/282 440/337/283 441/338/284
f 440/337/283 439/336/282 442/339/64
f 442/339/64 439/336/282 443/340/64
f 441/338/284 440/337/283 444/341/285
f 444/341/285 445/342/286 441/338/284
f 446/343/287 441/338/284 445/342/286
f 439/336/282 441/338/284 447/344/288
f 441/338/284 446/343/287 448/345/289
f 447/344/288 441/338/284 449/346/290
f 441/338/284 448/345/289 449/346/290
f 450/347/291 447/344/288 449/346/290
f 449/346/290 451/348/292 450/347/291
f 448/345/289 452/349/293 449/346/290
f 452/349/293 448/345/289 453/350/294
f 454/351/295 449/346/290 452/349/293
f 455/352/296 449/346/290 454/351/295
f 455/352/296 451/348/292 449/346/290
f 451/348/292 455/352/296 456/353/297
f 455/352/296 457/354/298 456/353/297
usemtl Meshpart4Mtl
f 458/355/299 459/356/300 460/357/301
f 459/356/300 458/355/299 461/358/302
f 461/358/302 462/359/303 459/356/300
f 463/360/304 464/361/305 465/362/306
f 465/362/306 466/363/307 463/360/304
f 467/364/308 464/361/305 463/360/304
f 467/364/308 468/365/309 464/361/305
f 469/366/310 470/367/311 471/368/312
f 470/367/311 472/369/313 471/368/312
f 470/367/311 469/366/310 473/370/314
f 474/371/315 473/370/314 469/366/310
f 474/371/315 475/372/315 473/370/314
f 472/369/313 470/367/311 476/373/316
f 476/373/316 477/374/317 472/369/313
f 477/374/317 476/373/316 478/375/318
f 479/376/319 477/374/317 478/375/318
f 477/374/317 479/376/319 480/377/320
f 481/378/321 482/379/322 483/380/323
f 481/378/321 483/380/323 484/381/324
f 482/379/322 481/378/321 485/382/325
f 482/379/322 485/382/325 486/383/326
f 487/384/327 488/385/328 489/386/329
f 489/386/329 488/385/328 490/359/330
f 488/385/328 487/384/327 491/387/331
f 491/387/331 487/384/327 492/388/332
f 493/389/333 494/390/334 495/391/335
f 494/390/334 496/392/336 495/391/335
f 493/389/337 498/393/338 497/394/339
f 500/395/340 499/396/341 502/397/342
f 499/396/343 501/398/344 503/399/345
f 503/399/345 501/398/344 504/400/346
f 505/401/347 507/402/348 506/403/349
f 508/404/350 509/405/351 510/406/352
f 511/407/353 512/408/354 513/409/355
f 512/408/354 514/410/356 513/409/355
f 512/408/354 511/407/353 515/411/357
f 516/412/358 515/411/357 511/407/353
f 516/412/358 517/413/358 515/411/357
f 514/410/356 512/408/354 518/414/359
f 519/415/360 514/410/356 518/414/359
f 514/410/356 519/415/360 520/416/361
f 520/416/361 519/415/360 521/417/362
f 520/416/361 521/417/362 522/418/362
f 523/419/363 524/407/364 525/420/365
f 523/419/363 526/412/366 524/407/364
f 526/412/366 523/419/363 527/421/366
f 524/407/364 528/409/367 525/420/365
f 528/409/367 529/422/368 525/420/365
f 529/422/368 528/409/367 530/410/369
f 531/416/370 529/422/368 530/410/369
f 529/422/368 531/416/370 532/423/371
f 531/416/370 533/424/372 532/423/371
f 533/424/372 531/416/370 534/418/372
f 535/425/373 536/426/374 537/427/374
f 536/426/374 535/425/373 538/428/375
f 536/426/374 538/428/375 539/429/375
f 542/430/376 541/431/377 540/432/378
f 541/431/377 542/430/376 543/433/379
f 544/434/380 545/435/381 546/436/382
f 547/437/383 548/438/384 549/439/385
f 550/440/386 552/441/387 551/442/388
f 553/443/389 555/444/390 554/445/391
f 556/446/392 557/447/393 558/448/394
f 557/447/393 559/449/395 558/448/394
f 559/449/395 557/447/393 560/450/396
f 561/451/397 562/452/398 563/453/399
f 562/452/398 561/451/397 564/454/400
f 563/453/399 565/455/401 561/451/397
f 565/455/401 563/453/399 566/456/402
f 567/457/403 568/458/404 569/459/405
f 567/457/403 570/460/406 568/458/404
f 570/460/406 567/457/403 571/461/407
f 568/458/404 572/462/408 569/459/405
f 573/463/409 569/459/405 572/462/408
f 569/459/405 573/463/409 574/464/410
f 575/465/411 577/466/412 576/467/413
f 577/466/412 575/465/411 578/468/414
f 579/469/415 580/470/416 581/471/417
f 580/470/416 582/472/418 581/471/417
f 580/470/416 579/469/415 583/473/419
f 579/469/415 584/474/420 583/473/419
f 585/475/421 586/476/422 587/477/423
f 586/476/422 588/450/424 587/477/423
f 587/477/423 589/478/425 585/475/421
f 589/478/425 590/479/426 585/475/421
f 591/480/427 592/481/428 593/482/427
f 591/480/427 593/482/427 594/483/428
f 592/481/428 595/484/429 593/482/427
f 595/484/429 592/481/428 596/485/427
f 596/485/427 592/481/428 597/486/428
f 592/481/428 591/480/427 598/487/430
f 591/480/427 599/488/428 598/487/430
f 599/488/428 591/480/427 600/489/427
f 600/489/427 601/490/427 599/488/428
f 602/491/428 601/490/427 600/489/427
f 603/492/431 604/493/432 605/494/433
f 603/492/431 605/494/433 606/495/434
f 604/493/432 603/492/431 607/496/435
f 608/497/436 609/498/437 610/499/438
f 608/497/436 610/499/438 611/500/439
f 609/498/437 608/497/436 612/501/440
f 613/502/441 614/503/442 615/504/388
f 614/503/442 613/502/441 616/505/443
f 613/502/441 617/506/444 616/505/443
f 618/507/445 619/508/446 620/509/447
f 619/508/446 618/507/445 621/510/448
f 618/507/445 622/511/449 621/510/448
f 623/512/450 624/513/394 625/514/451
f 627/515/452 628/516/453 626/517/299
f 630/518/454 629/519/455 631/520/339
f 632/521/343 633/522/456 634/523/344
f 635/524/457 636/517/458 637/525/459
f 636/517/458 638/516/460 637/525/459
f 636/517/458 635/524/457 639/526/349
f 640/527/461 641/513/462 642/528/463
f 641/513/462 640/527/461 643/529/464
f 641/513/462 643/529/464 644/514/465
