# Converted from Roblox mesh format
# Vertices: 198, Faces: 232

v -0.794840 -0.333990 0.000000 1.000000 1.000000 1.000000
v -0.742270 -0.615550 -0.305730 1.000000 1.000000 1.000000
v -0.794840 -0.728590 0.000000 1.000000 1.000000 1.000000
v -0.742270 -0.416960 -0.305730 1.000000 1.000000 1.000000
v -0.742270 -0.615550 0.305730 1.000000 1.000000 1.000000
v -0.742270 -0.416960 0.305730 1.000000 1.000000 1.000000
v -0.775430 -1.366960 0.000000 1.000000 1.000000 1.000000
v -0.722870 -1.128110 -0.305730 1.000000 1.000000 1.000000
v -0.722870 -1.303500 -0.305730 1.000000 1.000000 1.000000
v -0.775430 -1.015830 0.000000 1.000000 1.000000 1.000000
v -0.722870 -1.128110 0.305730 1.000000 1.000000 1.000000
v -0.722870 -1.303500 0.305730 1.000000 1.000000 1.000000
v -0.340720 -0.137650 0.000000 1.000000 1.000000 1.000000
v -0.576300 0.108640 0.305730 1.000000 1.000000 1.000000
v -0.681460 0.003490 0.000000 1.000000 1.000000 1.000000
v -0.288150 -0.010720 0.305730 1.000000 1.000000 1.000000
v -0.576300 0.108640 -0.305730 1.000000 1.000000 1.000000
v -0.288150 -0.010720 -0.305730 1.000000 1.000000 1.000000
v -0.288150 -0.315720 0.305730 1.000000 1.000000 1.000000
v -0.288150 -0.315720 -0.305730 1.000000 1.000000 1.000000
v -0.340720 -0.232750 0.000000 1.000000 1.000000 1.000000
v -0.528150 -0.315720 0.305730 1.000000 1.000000 1.000000
v -0.528150 -0.315720 -0.305730 1.000000 1.000000 1.000000
v -0.580720 -0.232750 0.000000 1.000000 1.000000 1.000000
v -0.742270 -0.416960 0.305730 1.000000 1.000000 1.000000
v -0.742270 -0.416960 -0.305730 1.000000 1.000000 1.000000
v -0.794840 -0.333990 0.000000 1.000000 1.000000 1.000000
v 0.000010 -1.029840 -0.305730 1.000000 1.000000 1.000000
v -0.288150 -1.380610 -0.305730 1.000000 1.000000 1.000000
v -0.288150 -1.029840 -0.305730 1.000000 1.000000 1.000000
v -0.528150 -1.380610 -0.305730 1.000000 1.000000 1.000000
v 0.000010 -1.499970 -0.305730 1.000000 1.000000 1.000000
v -0.528150 -1.029840 -0.305730 1.000000 1.000000 1.000000
v -0.722870 -1.128110 -0.305730 1.000000 1.000000 1.000000
v -0.722870 -1.303500 -0.305730 1.000000 1.000000 1.000000
v 0.288160 -1.380610 -0.305730 1.000000 1.000000 1.000000
v -0.288150 -0.716790 -0.305730 1.000000 1.000000 1.000000
v 0.288160 -1.029840 -0.305730 1.000000 1.000000 1.000000
v 0.000010 -0.716790 -0.305730 1.000000 1.000000 1.000000
v 0.288160 -0.716790 -0.305730 1.000000 1.000000 1.000000
v -0.288150 -0.315720 -0.305730 1.000000 1.000000 1.000000
v 0.000010 -0.315720 -0.305730 1.000000 1.000000 1.000000
v 0.288160 -0.315720 -0.305730 1.000000 1.000000 1.000000
v -0.528150 -0.716790 -0.305730 1.000000 1.000000 1.000000
v 0.000010 -0.130070 -0.305730 1.000000 1.000000 1.000000
v -0.528150 -0.315720 -0.305730 1.000000 1.000000 1.000000
v -0.742270 -0.416960 -0.305730 1.000000 1.000000 1.000000
v -0.742270 -0.615550 -0.305730 1.000000 1.000000 1.000000
v -0.288150 -0.010720 -0.305730 1.000000 1.000000 1.000000
v 0.288160 -0.010720 -0.305730 1.000000 1.000000 1.000000
v 0.000010 0.114430 -0.305730 1.000000 1.000000 1.000000
v -0.201700 0.197980 -0.305730 1.000000 1.000000 1.000000
v 0.201720 0.197980 -0.305730 1.000000 1.000000 1.000000
v -0.403410 0.281520 -0.305730 1.000000 1.000000 1.000000
v 0.403420 0.281520 -0.305730 1.000000 1.000000 1.000000
v -0.576300 0.108640 -0.305730 1.000000 1.000000 1.000000
v 0.576320 0.108640 -0.305730 1.000000 1.000000 1.000000
v -0.815010 0.684940 -0.305730 1.000000 1.000000 1.000000
v 0.570520 0.684940 -0.305730 1.000000 1.000000 1.000000
v -0.570510 0.684940 -0.305730 1.000000 1.000000 1.000000
v 0.815030 0.684940 -0.305730 1.000000 1.000000 1.000000
v -0.403410 1.088370 -0.305730 1.000000 1.000000 1.000000
v 0.576320 1.261260 -0.305730 1.000000 1.000000 1.000000
v -0.576300 1.261260 -0.305730 1.000000 1.000000 1.000000
v 0.403420 1.088370 -0.305730 1.000000 1.000000 1.000000
v 0.000010 1.499970 -0.305730 1.000000 1.000000 1.000000
v 0.000010 1.255470 -0.305730 1.000000 1.000000 1.000000
v 0.403420 0.281520 0.305730 1.000000 1.000000 1.000000
v 0.288160 -0.010720 0.305730 1.000000 1.000000 1.000000
v 0.576320 0.108640 0.305730 1.000000 1.000000 1.000000
v 0.201720 0.197980 0.305730 1.000000 1.000000 1.000000
v 0.570520 0.684940 0.305730 1.000000 1.000000 1.000000
v 0.815030 0.684940 0.305730 1.000000 1.000000 1.000000
v 0.576320 1.261260 0.305730 1.000000 1.000000 1.000000
v 0.403420 1.088370 0.305730 1.000000 1.000000 1.000000
v 0.000010 1.499970 0.305730 1.000000 1.000000 1.000000
v 0.000010 1.255470 0.305730 1.000000 1.000000 1.000000
v -0.403410 1.088370 0.305730 1.000000 1.000000 1.000000
v -0.576300 1.261260 0.305730 1.000000 1.000000 1.000000
v -0.815010 0.684940 0.305730 1.000000 1.000000 1.000000
v -0.570510 0.684940 0.305730 1.000000 1.000000 1.000000
v -0.403410 0.281520 0.305730 1.000000 1.000000 1.000000
v -0.576300 0.108640 0.305730 1.000000 1.000000 1.000000
v -0.288150 -0.010720 0.305730 1.000000 1.000000 1.000000
v -0.201700 0.197980 0.305730 1.000000 1.000000 1.000000
v 0.000010 0.114430 0.305730 1.000000 1.000000 1.000000
v 0.000010 -0.130070 0.305730 1.000000 1.000000 1.000000
v -0.288150 -0.315720 0.305730 1.000000 1.000000 1.000000
v 0.288160 -0.315720 0.305730 1.000000 1.000000 1.000000
v 0.000010 -0.315720 0.305730 1.000000 1.000000 1.000000
v -0.288150 -0.716790 0.305730 1.000000 1.000000 1.000000
v 0.000010 -0.716790 0.305730 1.000000 1.000000 1.000000
v 0.288160 -0.716790 0.305730 1.000000 1.000000 1.000000
v -0.528150 -0.315720 0.305730 1.000000 1.000000 1.000000
v 0.000010 -1.029840 0.305730 1.000000 1.000000 1.000000
v 0.288160 -1.029840 0.305730 1.000000 1.000000 1.000000
v 0.288160 -1.380610 0.305730 1.000000 1.000000 1.000000
v 0.000010 -1.499970 0.305730 1.000000 1.000000 1.000000
v -0.288150 -1.380610 0.305730 1.000000 1.000000 1.000000
v -0.288150 -1.029840 0.305730 1.000000 1.000000 1.000000
v -0.528150 -1.029840 0.305730 1.000000 1.000000 1.000000
v -0.528150 -1.380610 0.305730 1.000000 1.000000 1.000000
v -0.722870 -1.128110 0.305730 1.000000 1.000000 1.000000
v -0.722870 -1.303500 0.305730 1.000000 1.000000 1.000000
v -0.528150 -0.716790 0.305730 1.000000 1.000000 1.000000
v -0.742270 -0.416960 0.305730 1.000000 1.000000 1.000000
v -0.742270 -0.615550 0.305730 1.000000 1.000000 1.000000
v -0.340720 -0.955170 0.000000 1.000000 1.000000 1.000000
v -0.528150 -1.029840 0.305730 1.000000 1.000000 1.000000
v -0.340720 -0.791080 0.000000 1.000000 1.000000 1.000000
v -0.528150 -0.716790 0.305730 1.000000 1.000000 1.000000
v -0.580720 -0.955170 0.000000 1.000000 1.000000 1.000000
v -0.722870 -1.128110 0.305730 1.000000 1.000000 1.000000
v -0.775430 -1.015830 0.000000 1.000000 1.000000 1.000000
v -0.722870 -1.128110 -0.305730 1.000000 1.000000 1.000000
v -0.528150 -1.029840 -0.305730 1.000000 1.000000 1.000000
v -0.288150 -1.029840 -0.305730 1.000000 1.000000 1.000000
v -0.288150 -0.716790 -0.305730 1.000000 1.000000 1.000000
v -0.528150 -0.716790 -0.305730 1.000000 1.000000 1.000000
v -0.580720 -0.791080 0.000000 1.000000 1.000000 1.000000
v -0.742270 -0.615550 -0.305730 1.000000 1.000000 1.000000
v -0.742270 -0.615550 0.305730 1.000000 1.000000 1.000000
v -0.794840 -0.728590 0.000000 1.000000 1.000000 1.000000
v 0.451860 0.684940 0.000000 1.000000 1.000000 1.000000
v 0.570520 0.684940 0.305730 1.000000 1.000000 1.000000
v 0.319510 1.004460 0.000000 1.000000 1.000000 1.000000
v 0.403420 1.088370 0.305730 1.000000 1.000000 1.000000
v 0.000010 1.255470 0.305730 1.000000 1.000000 1.000000
v 0.319510 0.365450 0.000000 1.000000 1.000000 1.000000
v 0.403420 0.281520 0.305730 1.000000 1.000000 1.000000
v 0.201720 0.197980 0.305730 1.000000 1.000000 1.000000
v 0.570520 0.684940 -0.305730 1.000000 1.000000 1.000000
v 0.403420 0.281520 -0.305730 1.000000 1.000000 1.000000
v 0.403420 1.088370 -0.305730 1.000000 1.000000 1.000000
v 0.201720 0.197980 -0.305730 1.000000 1.000000 1.000000
v 0.000010 1.255470 -0.305730 1.000000 1.000000 1.000000
v 0.159760 0.299270 0.000000 1.000000 1.000000 1.000000
v 0.000010 0.114430 -0.305730 1.000000 1.000000 1.000000
v 0.000010 0.114430 0.305730 1.000000 1.000000 1.000000
v 0.000010 1.136790 0.000000 1.000000 1.000000 1.000000
v 0.000010 0.233090 0.000000 1.000000 1.000000 1.000000
v -0.159740 0.299270 0.000000 1.000000 1.000000 1.000000
v -0.201700 0.197980 -0.305730 1.000000 1.000000 1.000000
v -0.201700 0.197980 0.305730 1.000000 1.000000 1.000000
v -0.319500 1.004460 0.000000 1.000000 1.000000 1.000000
v -0.403410 1.088370 0.305730 1.000000 1.000000 1.000000
v -0.403410 1.088370 -0.305730 1.000000 1.000000 1.000000
v -0.570510 0.684940 0.305730 1.000000 1.000000 1.000000
v -0.570510 0.684940 -0.305730 1.000000 1.000000 1.000000
v -0.451840 0.684940 0.000000 1.000000 1.000000 1.000000
v -0.319500 0.365450 0.000000 1.000000 1.000000 1.000000
v -0.403410 0.281520 0.305730 1.000000 1.000000 1.000000
v -0.403410 0.281520 -0.305730 1.000000 1.000000 1.000000
v -0.576300 1.261260 -0.305730 1.000000 1.000000 1.000000
v 0.000010 1.648690 0.000000 1.000000 1.000000 1.000000
v 0.000010 1.499970 -0.305730 1.000000 1.000000 1.000000
v 0.576320 1.261260 -0.305730 1.000000 1.000000 1.000000
v -0.681460 1.366410 0.000000 1.000000 1.000000 1.000000
v -0.963730 0.684940 0.000000 1.000000 1.000000 1.000000
v -0.815010 0.684940 -0.305730 1.000000 1.000000 1.000000
v -0.576300 1.261260 0.305730 1.000000 1.000000 1.000000
v 0.000010 1.499970 0.305730 1.000000 1.000000 1.000000
v -0.815010 0.684940 0.305730 1.000000 1.000000 1.000000
v 0.576320 1.261260 0.305730 1.000000 1.000000 1.000000
v 0.681470 1.366410 0.000000 1.000000 1.000000 1.000000
v 0.963730 0.684940 0.000000 1.000000 1.000000 1.000000
v 0.815030 0.684940 0.305730 1.000000 1.000000 1.000000
v 0.815030 0.684940 -0.305730 1.000000 1.000000 1.000000
v 0.576320 0.108640 0.305730 1.000000 1.000000 1.000000
v 0.576320 0.108640 -0.305730 1.000000 1.000000 1.000000
v 0.681470 0.003490 0.000000 1.000000 1.000000 1.000000
v 0.340740 -0.137650 0.000000 1.000000 1.000000 1.000000
v 0.288160 -0.010720 0.305730 1.000000 1.000000 1.000000
v 0.288160 -0.010720 -0.305730 1.000000 1.000000 1.000000
v 0.288160 -0.315720 0.305730 1.000000 1.000000 1.000000
v 0.288160 -0.315720 -0.305730 1.000000 1.000000 1.000000
v 0.340740 -0.315720 0.000000 1.000000 1.000000 1.000000
v 0.288160 -0.716790 0.305730 1.000000 1.000000 1.000000
v 0.340740 -0.716790 0.000000 1.000000 1.000000 1.000000
v 0.288160 -0.716790 -0.305730 1.000000 1.000000 1.000000
v 0.288160 -1.029840 0.305730 1.000000 1.000000 1.000000
v 0.340740 -1.029840 0.000000 1.000000 1.000000 1.000000
v 0.288160 -1.029840 -0.305730 1.000000 1.000000 1.000000
v 0.288160 -1.380610 0.305730 1.000000 1.000000 1.000000
v 0.288160 -1.380610 -0.305730 1.000000 1.000000 1.000000
v 0.340740 -1.507550 0.000000 1.000000 1.000000 1.000000
v 0.000010 -1.648680 0.000000 1.000000 1.000000 1.000000
v 0.000010 -1.499970 0.305730 1.000000 1.000000 1.000000
v 0.000010 -1.499970 -0.305730 1.000000 1.000000 1.000000
v -0.288150 -1.380610 0.305730 1.000000 1.000000 1.000000
v -0.288150 -1.380610 -0.305730 1.000000 1.000000 1.000000
v -0.340720 -1.507550 0.000000 1.000000 1.000000 1.000000
v -0.528150 -1.380610 0.305730 1.000000 1.000000 1.000000
v -0.528150 -1.380610 -0.305730 1.000000 1.000000 1.000000
v -0.580720 -1.507550 0.000000 1.000000 1.000000 1.000000
v -0.722870 -1.303500 0.305730 1.000000 1.000000 1.000000
v -0.722870 -1.303500 -0.305730 1.000000 1.000000 1.000000
v -0.775430 -1.366960 0.000000 1.000000 1.000000 1.000000

vn -1.000000 0.000489 0.000489
vn -0.985344 0.000489 -0.169516
vn -1.000000 0.000489 0.000489
vn -0.985344 0.000489 -0.169516
vn -0.985344 0.000489 0.169516
vn -0.985344 0.000489 0.169516
vn -1.000000 0.000489 0.000489
vn -0.985344 0.000489 -0.169516
vn -0.985344 0.000489 -0.169516
vn -1.000000 0.000489 0.000489
vn -0.985344 0.000489 0.169516
vn -0.985344 0.000489 0.169516
vn -0.881778 -0.471422 0.000489
vn -0.635564 -0.635564 0.437225
vn -0.706888 -0.706888 0.000489
vn -0.737176 -0.569126 0.362970
vn -0.635564 -0.635564 -0.437225
vn -0.737176 -0.569126 -0.362970
vn -0.657059 0.691255 0.300440
vn -0.657059 0.691255 -0.300440
vn -0.733268 0.679531 0.000489
vn -0.194919 0.937469 0.287738
vn -0.194919 0.937469 -0.287738
vn -0.232047 0.972643 0.000489
vn -0.406937 0.861260 0.303371
vn -0.406937 0.861260 -0.303371
vn -0.427455 0.904250 0.000489
vn 0.000489 0.000489 -1.000000
vn 0.000489 0.000489 -1.000000
vn 0.000489 0.000489 -1.000000
vn 0.000489 0.000489 -1.000000
vn 0.000489 0.000489 -1.000000
vn 0.000489 0.000489 -1.000000
vn 0.000489 0.000489 -1.000000
vn 0.000489 0.000489 -1.000000
vn 0.000489 0.000489 -1.000000
vn 0.000489 0.000489 -1.000000
vn 0.000489 0.000489 -1.000000
vn 0.000489 0.000489 -1.000000
vn 0.000489 0.000489 -1.000000
vn 0.000489 0.000489 -1.000000
vn 0.000489 0.000489 -1.000000
vn 0.000489 0.000489 -1.000000
vn 0.000489 0.000489 -1.000000
vn 0.000489 0.000489 -1.000000
vn 0.000489 0.000489 -1.000000
vn 0.000489 0.000489 -1.000000
vn 0.000489 0.000489 -1.000000
vn 0.000489 0.000489 -1.000000
vn 0.000489 0.000489 -1.000000
vn 0.000489 0.000489 -1.000000
vn 0.000489 0.000489 -1.000000
vn 0.000489 0.000489 -1.000000
vn 0.000489 0.000489 -1.000000
vn 0.000489 0.000489 -1.000000
vn 0.000489 0.000489 -1.000000
vn 0.000489 0.000489 -1.000000
vn 0.000489 0.000489 -1.000000
vn 0.000489 0.000489 -1.000000
vn 0.000489 0.000489 -1.000000
vn 0.000489 0.000489 -1.000000
vn 0.000489 0.000489 -1.000000
vn 0.000489 0.000489 -1.000000
vn 0.000489 0.000489 -1.000000
vn 0.000489 0.000489 -1.000000
vn 0.000489 0.000489 -1.000000
vn 0.000489 0.000489 1.000000
vn 0.000489 0.000489 1.000000
vn 0.000489 0.000489 1.000000
vn 0.000489 0.000489 1.000000
vn 0.000489 0.000489 1.000000
vn 0.000489 0.000489 1.000000
vn 0.000489 0.000489 1.000000
vn 0.000489 0.000489 1.000000
vn 0.000489 0.000489 1.000000
vn 0.000489 0.000489 1.000000
vn 0.000489 0.000489 1.000000
vn 0.000489 0.000489 1.000000
vn 0.000489 0.000489 1.000000
vn 0.000489 0.000489 1.000000
vn 0.000489 0.000489 1.000000
vn 0.000489 0.000489 1.000000
vn 0.000489 0.000489 1.000000
vn 0.000489 0.000489 1.000000
vn 0.000489 0.000489 1.000000
vn 0.000489 0.000489 1.000000
vn 0.000489 0.000489 1.000000
vn 0.000489 0.000489 1.000000
vn 0.000489 0.000489 1.000000
vn -0.234978 -0.243771 0.941378
vn 0.000489 0.000489 1.000000
vn 0.000489 0.000489 1.000000
vn 0.000489 0.000489 1.000000
vn 0.000489 0.000489 1.000000
vn 0.000489 0.000489 1.000000
vn 0.000489 0.000489 1.000000
vn 0.000489 0.000489 1.000000
vn 0.000489 0.000489 1.000000
vn -0.234978 0.243771 0.941378
vn 0.000489 0.000489 1.000000
vn 0.000489 0.000489 1.000000
vn 0.000489 0.000489 1.000000
vn 0.000489 0.000489 1.000000
vn 0.000489 0.000489 1.000000
vn 0.000489 0.000489 1.000000
vn 0.000489 0.000489 1.000000
vn -0.726429 0.687347 0.000489
vn -0.170493 0.943332 0.285784
vn -0.725452 -0.688324 0.000489
vn -0.159746 -0.945286 0.283830
vn -0.205667 0.978505 0.000489
vn -0.357108 0.873962 0.328774
vn -0.377626 0.925745 0.000489
vn -0.357108 0.873962 -0.328774
vn -0.170493 0.943332 -0.285784
vn -0.665852 0.690278 -0.282853
vn -0.665852 -0.690278 -0.281876
vn -0.159746 -0.945286 -0.283830
vn -0.193942 -0.980459 0.000489
vn -0.337567 -0.882755 -0.328774
vn -0.337567 -0.882755 0.328774
vn -0.357108 -0.934538 0.000489
vn -1.000000 0.000489 0.000489
vn -0.932584 0.000489 0.361993
vn -0.706888 -0.706888 0.000489
vn -0.659013 -0.659013 0.361993
vn 0.000489 -0.932584 0.361993
vn -0.706888 0.706888 0.000489
vn -0.659013 0.659013 0.361993
vn -0.360039 0.870054 0.337567
vn -0.932584 0.000489 -0.361993
vn -0.659013 0.659013 -0.361993
vn -0.659013 -0.659013 -0.361993
vn -0.360039 0.870054 -0.337567
vn 0.000489 -0.932584 -0.361993
vn -0.382511 0.923791 0.000489
vn 0.000489 0.932584 -0.361993
vn 0.000489 0.932584 0.361993
vn 0.000489 -1.000000 0.000489
vn 0.000489 1.000000 0.000489
vn 0.382511 0.923791 0.000489
vn 0.360039 0.870054 -0.337567
vn 0.360039 0.870054 0.337567
vn 0.706888 -0.706888 0.000489
vn 0.659013 -0.659013 0.361993
vn 0.659013 -0.659013 -0.361993
vn 0.932584 0.000489 0.361993
vn 0.932584 0.000489 -0.361993
vn 1.000000 0.000489 0.000489
vn 0.706888 0.706888 0.000489
vn 0.659013 0.659013 0.361993
vn 0.659013 0.659013 -0.361993
vn -0.635564 0.635564 -0.437225
vn 0.000489 1.000000 0.000489
vn 0.000489 0.899365 -0.437225
vn 0.635564 0.635564 -0.437225
vn -0.706888 0.706888 0.000489
vn -1.000000 0.000489 0.000489
vn -0.899365 0.000489 -0.437225
vn -0.635564 0.635564 0.437225
vn 0.000489 0.899365 0.437225
vn -0.899365 0.000489 0.437225
vn 0.635564 0.635564 0.437225
vn 0.706888 0.706888 0.000489
vn 1.000000 0.000489 0.000489
vn 0.899365 0.000489 0.437225
vn 0.899365 0.000489 -0.437225
vn 0.635564 -0.635564 0.437225
vn 0.635564 -0.635564 -0.437225
vn 0.706888 -0.706888 0.000489
vn 0.881778 -0.471422 0.000489
vn 0.737176 -0.569126 0.362970
vn 0.737176 -0.569126 -0.362970
vn 0.985344 0.000489 0.169516
vn 0.985344 0.000489 -0.169516
vn 1.000000 0.000489 0.000489
vn 0.985344 0.000489 0.169516
vn 1.000000 0.000489 0.000489
vn 0.985344 0.000489 -0.169516
vn 0.985344 0.000489 0.169516
vn 1.000000 0.000489 0.000489
vn 0.985344 0.000489 -0.169516
vn 0.832926 -0.445042 0.327797
vn 0.832926 -0.445042 -0.327797
vn 0.790914 -0.611138 0.000489
vn 0.000489 -1.000000 0.000489
vn 0.000489 -0.899365 0.437225
vn 0.000489 -0.899365 -0.437225
vn -0.187103 -0.895457 0.404006
vn -0.187103 -0.895457 -0.404006
vn -0.184172 -0.982413 0.000489
vn -0.225208 -0.901319 0.370787
vn -0.225208 -0.901319 -0.370786
vn -0.260381 -0.965804 0.000489
vn -0.459697 -0.822179 0.334636
vn -0.459697 -0.822179 -0.334636
vn -0.488031 -0.872985 0.000489

vt 0.000000 0.000000 0.0
vt 0.000000 0.000000 0.0
vt 0.000000 0.000000 0.0
vt 0.000000 0.000000 0.0
vt 0.000000 0.000000 0.0
vt 0.000000 0.000000 0.0
vt 0.000000 0.000000 0.0
vt 0.000000 0.000000 0.0
vt 0.000000 0.000000 0.0
vt 0.000000 0.000000 0.0
vt 0.000000 0.000000 0.0
vt 0.000000 0.000000 0.0
vt 0.000000 0.000000 0.0
vt 0.000000 0.000000 0.0
vt 0.000000 0.000000 0.0
vt 0.000000 0.000000 0.0
vt 0.000000 0.000000 0.0
vt 0.000000 0.000000 0.0
vt 0.000000 0.000000 0.0
vt 0.000000 0.000000 0.0
vt 0.000000 0.000000 0.0
vt 0.000000 0.000000 0.0
vt 0.000000 0.000000 0.0
vt 0.000000 0.000000 0.0
vt 0.000000 0.000000 0.0
vt 0.000000 0.000000 0.0
vt 0.000000 0.000000 0.0
vt 0.000000 0.000000 0.0
vt 0.000000 0.000000 0.0
vt 0.000000 0.000000 0.0
vt 0.000000 0.000000 0.0
vt 0.000000 0.000000 0.0
vt 0.000000 0.000000 0.0
vt 0.000000 0.000000 0.0
vt 0.000000 0.000000 0.0
vt 0.000000 0.000000 0.0
vt 0.000000 0.000000 0.0
vt 0.000000 0.000000 0.0
vt 0.000000 0.000000 0.0
vt 0.000000 0.000000 0.0
vt 0.000000 0.000000 0.0
vt 0.000000 0.000000 0.0
vt 0.000000 0.000000 0.0
vt 0.000000 0.000000 0.0
vt 0.000000 0.000000 0.0
vt 0.000000 0.000000 0.0
vt 0.000000 0.000000 0.0
vt 0.000000 0.000000 0.0
vt 0.000000 0.000000 0.0
vt 0.000000 0.000000 0.0
vt 0.000000 0.000000 0.0
vt 0.000000 0.000000 0.0
vt 0.000000 0.000000 0.0
vt 0.000000 0.000000 0.0
vt 0.000000 0.000000 0.0
vt 0.000000 0.000000 0.0
vt 0.000000 0.000000 0.0
vt 0.000000 0.000000 0.0
vt 0.000000 0.000000 0.0
vt 0.000000 0.000000 0.0
vt 0.000000 0.000000 0.0
vt 0.000000 0.000000 0.0
vt 0.000000 0.000000 0.0
vt 0.000000 0.000000 0.0
vt 0.000000 0.000000 0.0
vt 0.000000 0.000000 0.0
vt 0.000000 0.000000 0.0
vt 0.000000 0.000000 0.0
vt 0.000000 0.000000 0.0
vt 0.000000 0.000000 0.0
vt 0.000000 0.000000 0.0
vt 0.000000 0.000000 0.0
vt 0.000000 0.000000 0.0
vt 0.000000 0.000000 0.0
vt 0.000000 0.000000 0.0
vt 0.000000 0.000000 0.0
vt 0.000000 0.000000 0.0
vt 0.000000 0.000000 0.0
vt 0.000000 0.000000 0.0
vt 0.000000 0.000000 0.0
vt 0.000000 0.000000 0.0
vt 0.000000 0.000000 0.0
vt 0.000000 0.000000 0.0
vt 0.000000 0.000000 0.0
vt 0.000000 0.000000 0.0
vt 0.000000 0.000000 0.0
vt 0.000000 0.000000 0.0
vt 0.000000 0.000000 0.0
vt 0.000000 0.000000 0.0
vt 0.000000 0.000000 0.0
vt 0.000000 0.000000 0.0
vt 0.000000 0.000000 0.0
vt 0.000000 0.000000 0.0
vt 0.000000 0.000000 0.0
vt 0.000000 0.000000 0.0
vt 0.000000 0.000000 0.0
vt 0.000000 0.000000 0.0
vt 0.000000 0.000000 0.0
vt 0.000000 0.000000 0.0
vt 0.000000 0.000000 0.0
vt 0.000000 0.000000 0.0
vt 0.000000 0.000000 0.0
vt 0.000000 0.000000 0.0
vt 0.000000 0.000000 0.0
vt 0.000000 0.000000 0.0
vt 0.000000 0.000000 0.0
vt 0.000000 0.000000 0.0
vt 0.000000 0.000000 0.0
vt 0.000000 0.000000 0.0
vt 0.000000 0.000000 0.0
vt 0.000000 0.000000 0.0
vt 0.000000 0.000000 0.0
vt 0.000000 0.000000 0.0
vt 0.000000 0.000000 0.0
vt 0.000000 0.000000 0.0
vt 0.000000 0.000000 0.0
vt 0.000000 0.000000 0.0
vt 0.000000 0.000000 0.0
vt 0.000000 0.000000 0.0
vt 0.000000 0.000000 0.0
vt 0.000000 0.000000 0.0
vt 0.000000 0.000000 0.0
vt 0.000000 0.000000 0.0
vt 0.000000 0.000000 0.0
vt 0.000000 0.000000 0.0
vt 0.000000 0.000000 0.0
vt 0.000000 0.000000 0.0
vt 0.000000 0.000000 0.0
vt 0.000000 0.000000 0.0
vt 0.000000 0.000000 0.0
vt 0.000000 0.000000 0.0
vt 0.000000 0.000000 0.0
vt 0.000000 0.000000 0.0
vt 0.000000 0.000000 0.0
vt 0.000000 0.000000 0.0
vt 0.000000 0.000000 0.0
vt 0.000000 0.000000 0.0
vt 0.000000 0.000000 0.0
vt 0.000000 0.000000 0.0
vt 0.000000 0.000000 0.0
vt 0.000000 0.000000 0.0
vt 0.000000 0.000000 0.0
vt 0.000000 0.000000 0.0
vt 0.000000 0.000000 0.0
vt 0.000000 0.000000 0.0
vt 0.000000 0.000000 0.0
vt 0.000000 0.000000 0.0
vt 0.000000 0.000000 0.0
vt 0.000000 0.000000 0.0
vt 0.000000 0.000000 0.0
vt 0.000000 0.000000 0.0
vt 0.000000 0.000000 0.0
vt 0.000000 0.000000 0.0
vt 0.000000 0.000000 0.0
vt 0.000000 0.000000 0.0
vt 0.000000 0.000000 0.0
vt 0.000000 0.000000 0.0
vt 0.000000 0.000000 0.0
vt 0.000000 0.000000 0.0
vt 0.000000 0.000000 0.0
vt 0.000000 0.000000 0.0
vt 0.000000 0.000000 0.0
vt 0.000000 0.000000 0.0
vt 0.000000 0.000000 0.0
vt 0.000000 0.000000 0.0
vt 0.000000 0.000000 0.0
vt 0.000000 0.000000 0.0
vt 0.000000 0.000000 0.0
vt 0.000000 0.000000 0.0
vt 0.000000 0.000000 0.0
vt 0.000000 0.000000 0.0
vt 0.000000 0.000000 0.0
vt 0.000000 0.000000 0.0
vt 0.000000 0.000000 0.0
vt 0.000000 0.000000 0.0
vt 0.000000 0.000000 0.0
vt 0.000000 0.000000 0.0
vt 0.000000 0.000000 0.0
vt 0.000000 0.000000 0.0
vt 0.000000 0.000000 0.0
vt 0.000000 0.000000 0.0
vt 0.000000 0.000000 0.0
vt 0.000000 0.000000 0.0
vt 0.000000 0.000000 0.0
vt 0.000000 0.000000 0.0
vt 0.000000 0.000000 0.0
vt 0.000000 0.000000 0.0
vt 0.000000 0.000000 0.0
vt 0.000000 0.000000 0.0
vt 0.000000 0.000000 0.0
vt 0.000000 0.000000 0.0
vt 0.000000 0.000000 0.0
vt 0.000000 0.000000 0.0
vt 0.000000 0.000000 0.0
vt 0.000000 0.000000 0.0
vt 0.000000 0.000000 0.0
vt 0.000000 0.000000 0.0
vt 0.000000 0.000000 0.0
vt 0.000000 0.000000 0.0
vt 0.000000 0.000000 0.0
vt 0.000000 0.000000 0.0
vt 0.000000 0.000000 0.0
vt 0.000000 0.000000 0.0
vt 0.000000 0.000000 0.0
vt 0.000000 0.000000 0.0
vt 0.000000 0.000000 0.0

f 1/1/1 2/2/2 3/3/3
f 2/2/2 1/1/1 4/4/4
f 5/5/5 1/1/1 3/3/3
f 1/1/1 5/5/5 6/6/6
f 7/7/7 8/8/8 9/9/9
f 8/8/8 7/7/7 10/10/10
f 7/7/7 11/11/11 10/10/10
f 11/11/11 7/7/7 12/12/12
f 13/13/13 14/14/14 15/15/15
f 14/14/14 13/13/13 16/16/16
f 17/17/17 13/13/13 15/15/15
f 13/13/13 17/17/17 18/18/18
f 13/13/13 19/19/19 16/16/16
f 20/20/20 13/13/13 18/18/18
f 19/19/19 13/13/13 21/21/21
f 13/13/13 20/20/20 21/21/21
f 21/21/21 22/22/22 19/19/19
f 23/23/23 21/21/21 20/20/20
f 22/22/22 21/21/21 24/24/24
f 21/21/21 23/23/23 24/24/24
f 24/24/24 25/25/25 22/22/22
f 26/26/26 24/24/24 23/23/23
f 25/25/25 24/24/24 27/27/27
f 24/24/24 26/26/26 27/27/27
f 28/28/28 29/29/29 30/30/30
f 30/30/30 29/29/29 31/31/31
f 29/29/29 28/28/28 32/32/32
f 33/33/33 30/30/30 31/31/31
f 31/31/31 34/34/34 33/33/33
f 34/34/34 31/31/31 35/35/35
f 32/32/32 28/28/28 36/36/36
f 37/37/37 28/28/28 30/30/30
f 38/38/38 36/36/36 28/28/28
f 39/39/39 38/38/38 28/28/28
f 28/28/28 37/37/37 39/39/39
f 40/40/40 38/38/38 39/39/39
f 41/41/41 39/39/39 37/37/37
f 42/42/42 40/40/40 39/39/39
f 39/39/39 41/41/41 42/42/42
f 43/43/43 40/40/40 42/42/42
f 41/41/41 37/37/37 44/44/44
f 45/45/45 43/43/43 42/42/42
f 41/41/41 45/45/45 42/42/42
f 46/46/46 41/41/41 44/44/44
f 44/44/44 47/47/47 46/46/46
f 47/47/47 44/44/44 48/48/48
f 45/45/45 41/41/41 49/49/49
f 50/50/50 43/43/43 45/45/45
f 49/49/49 51/51/51 45/45/45
f 51/51/51 50/50/50 45/45/45
f 51/51/51 49/49/49 52/52/52
f 50/50/50 51/51/51 53/53/53
f 52/52/52 49/49/49 54/54/54
f 55/55/55 50/50/50 53/53/53
f 49/49/49 56/56/56 54/54/54
f 50/50/50 55/55/55 57/57/57
f 58/58/58 54/54/54 56/56/56
f 59/59/59 57/57/57 55/55/55
f 54/54/54 58/58/58 60/60/60
f 57/57/57 59/59/59 61/61/61
f 58/58/58 62/62/62 60/60/60
f 63/63/63 61/61/61 59/59/59
f 58/58/58 64/64/64 62/62/62
f 63/63/63 59/59/59 65/65/65
f 66/66/66 62/62/62 64/64/64
f 65/65/65 66/66/66 63/63/63
f 62/62/62 66/66/66 67/67/67
f 66/66/66 65/65/65 67/67/67
f 68/68/68 69/69/69 70/70/70
f 69/69/69 68/68/68 71/71/71
f 70/70/70 72/72/72 68/68/68
f 70/70/70 73/73/73 72/72/72
f 74/74/74 72/72/72 73/73/73
f 72/72/72 74/74/74 75/75/75
f 76/76/76 75/75/75 74/74/74
f 75/75/75 76/76/76 77/77/77
f 78/78/78 77/77/77 76/76/76
f 76/76/76 79/79/79 78/78/78
f 80/80/80 78/78/78 79/79/79
f 78/78/78 80/80/80 81/81/81
f 80/80/80 82/82/82 81/81/81
f 80/80/80 83/83/83 82/82/82
f 84/84/84 82/82/82 83/83/83
f 82/82/82 84/84/84 85/85/85
f 85/85/85 84/84/84 86/86/86
f 84/84/84 87/87/87 86/86/86
f 88/88/88 87/87/87 84/84/84
f 69/69/69 86/86/86 87/87/87
f 86/86/86 69/69/69 71/71/71
f 87/87/87 89/89/89 69/69/69
f 88/88/88 90/90/90 87/87/87
f 89/89/89 87/87/87 90/90/90
f 91/91/91 90/90/90 88/88/88
f 92/92/92 89/89/89 90/90/90
f 91/91/91 92/92/92 90/90/90
f 92/92/92 93/93/93 89/89/89
f 91/91/91 88/88/88 94/94/94
f 95/95/95 93/93/93 92/92/92
f 95/95/95 96/96/96 93/93/93
f 95/95/95 97/97/97 96/96/96
f 97/97/97 95/95/95 98/98/98
f 99/99/99 98/98/98 95/95/95
f 100/100/100 95/95/95 92/92/92
f 99/99/99 95/95/95 100/100/100
f 100/100/100 92/92/92 91/91/91
f 99/99/99 100/100/100 101/101/101
f 102/102/102 99/99/99 101/101/101
f 102/102/102 101/101/101 103/103/103
f 104/104/104 102/102/102 103/103/103
f 105/105/105 91/91/91 94/94/94
f 105/105/105 94/94/94 106/106/106
f 107/107/107 105/105/105 106/106/106
f 91/91/91 108/108/108 100/100/100
f 108/108/108 109/109/109 100/100/100
f 108/108/108 91/91/91 110/110/110
f 110/110/110 91/91/91 111/111/111
f 109/109/109 108/108/108 112/112/112
f 112/112/112 113/113/113 109/109/109
f 113/113/113 112/112/112 114/114/114
f 112/112/112 115/115/115 114/114/114
f 115/115/115 112/112/112 116/116/116
f 108/108/108 116/116/116 112/112/112
f 116/116/116 108/108/108 117/117/117
f 108/108/108 118/118/118 117/117/117
f 118/118/118 108/108/108 110/110/110
f 110/110/110 119/119/119 118/118/118
f 119/119/119 110/110/110 120/120/120
f 120/120/120 110/110/110 111/111/111
f 120/120/120 121/121/121 119/119/119
f 120/120/120 111/111/111 122/122/122
f 121/121/121 120/120/120 123/123/123
f 122/122/122 123/123/123 120/120/120
f 124/124/124 125/125/125 126/126/126
f 126/126/126 125/125/125 127/127/127
f 128/128/128 126/126/126 127/127/127
f 129/129/129 125/125/125 124/124/124
f 125/125/125 129/129/129 130/130/130
f 129/129/129 131/131/131 130/130/130
f 132/132/132 129/129/129 124/124/124
f 126/126/126 132/132/132 124/124/124
f 133/133/133 129/129/129 132/132/132
f 132/132/132 126/126/126 134/134/134
f 135/135/135 129/129/129 133/133/133
f 134/134/134 126/126/126 136/136/136
f 129/129/129 135/135/135 137/137/137
f 137/137/137 131/131/131 129/129/129
f 138/138/138 137/137/137 135/135/135
f 137/137/137 139/139/139 131/131/131
f 136/136/136 126/126/126 140/140/140
f 126/126/126 128/128/128 140/140/140
f 137/137/137 138/138/138 141/141/141
f 141/141/141 139/139/139 137/137/137
f 138/138/138 142/142/142 141/141/141
f 142/142/142 139/139/139 141/141/141
f 142/142/142 138/138/138 143/143/143
f 139/139/139 142/142/142 144/144/144
f 140/140/140 128/128/128 145/145/145
f 145/145/145 136/136/136 140/140/140
f 145/145/145 128/128/128 146/146/146
f 136/136/136 145/145/145 147/147/147
f 148/148/148 145/145/145 146/146/146
f 145/145/145 149/149/149 147/147/147
f 145/145/145 148/148/148 150/150/150
f 149/149/149 145/145/145 150/150/150
f 150/150/150 148/148/148 151/151/151
f 151/151/151 149/149/149 150/150/150
f 151/151/151 148/148/148 152/152/152
f 144/144/144 151/151/151 152/152/152
f 151/151/151 144/144/144 142/142/142
f 143/143/143 151/151/151 142/142/142
f 149/149/149 151/151/151 153/153/153
f 153/153/153 151/151/151 143/143/143
f 154/154/154 155/155/155 156/156/156
f 155/155/155 157/157/157 156/156/156
f 155/155/155 154/154/154 158/158/158
f 154/154/154 159/159/159 158/158/158
f 159/159/159 154/154/154 160/160/160
f 161/161/161 155/155/155 158/158/158
f 159/159/159 161/161/161 158/158/158
f 155/155/155 161/161/161 162/162/162
f 161/161/161 159/159/159 163/163/163
f 164/164/164 155/155/155 162/162/162
f 17/17/17 159/159/159 160/160/160
f 159/159/159 14/14/14 163/163/163
f 159/159/159 17/17/17 15/15/15
f 14/14/14 159/159/159 15/15/15
f 155/155/155 164/164/164 165/165/165
f 157/157/157 155/155/155 165/165/165
f 164/164/164 166/166/166 165/165/165
f 166/166/166 157/157/157 165/165/165
f 166/166/166 164/164/164 167/167/167
f 157/157/157 166/166/166 168/168/168
f 169/169/169 166/166/166 167/167/167
f 166/166/166 170/170/170 168/168/168
f 166/166/166 169/169/169 171/171/171
f 170/170/170 166/166/166 171/171/171
f 169/169/169 172/172/172 171/171/171
f 172/172/172 170/170/170 171/171/171
f 172/172/172 169/169/169 173/173/173
f 170/170/170 172/172/172 174/174/174
f 172/172/172 173/173/173 175/175/175
f 172/172/172 176/176/176 174/174/174
f 175/175/175 177/177/177 172/172/172
f 176/176/176 172/172/172 177/177/177
f 177/177/177 175/175/175 178/178/178
f 176/176/176 177/177/177 179/179/179
f 179/179/179 177/177/177 178/178/178
f 180/180/180 176/176/176 179/179/179
f 179/179/179 178/178/178 181/181/181
f 180/180/180 179/179/179 182/182/182
f 182/182/182 179/179/179 181/181/181
f 183/183/183 180/180/180 182/182/182
f 182/182/182 181/181/181 184/184/184
f 182/182/182 185/185/185 183/183/183
f 186/186/186 182/182/182 184/184/184
f 185/185/185 182/182/182 186/186/186
f 184/184/184 187/187/187 186/186/186
f 187/187/187 185/185/185 186/186/186
f 187/187/187 184/184/184 188/188/188
f 185/185/185 187/187/187 189/189/189
f 190/190/190 187/187/187 188/188/188
f 187/187/187 191/191/191 189/189/189
f 187/187/187 190/190/190 192/192/192
f 191/191/191 187/187/187 192/192/192
f 192/192/192 190/190/190 193/193/193
f 192/192/192 194/194/194 191/191/191
f 195/195/195 192/192/192 193/193/193
f 194/194/194 192/192/192 195/195/195
f 195/195/195 193/193/193 196/196/196
f 195/195/195 197/197/197 194/194/194
f 196/196/196 198/198/198 195/195/195
f 197/197/197 195/195/195 198/198/198
