# Blender 5.0.1
# www.blender.org
mtllib cryst.mtl
o crysta
v -0.183154 -1.748240 0.079608
v -0.356030 -1.871730 0.242107
v -0.330906 -2.031490 -0.007402
v -0.247325 -1.356680 -0.081260
v -0.316618 -1.463130 -0.061341
v -0.299421 -1.383340 -0.146235
v -0.215068 -1.378060 -0.006430
v -0.316618 -1.463130 -0.061341
v -0.247325 -1.356680 -0.081260
v 0.745550 1.135360 -0.008286
v 0.685672 1.270310 -0.007531
v 0.639124 1.322570 0.069359
v 0.582559 1.573490 0.104505
v 0.631596 1.418710 0.143249
v 0.639124 1.322570 0.069359
v -0.330906 -2.031490 -0.007402
v -0.356030 -1.871730 0.242107
v -0.465755 -2.406490 0.002636
v 0.853630 2.256350 -0.015684
v 0.816830 2.010370 0.006884
v 0.772860 1.905750 -0.097725
v 0.585222 1.059800 -0.001093
v 0.588651 0.989389 -0.018859
v 0.562102 1.204150 -0.113533
v -0.161754 -0.934795 -0.043072
v -0.282270 -1.188360 0.083607
v -0.223220 -1.118770 -0.033545
v 0.685672 1.270310 -0.007531
v 0.562102 1.204150 -0.113533
v 0.580433 1.306060 -0.125539
v 0.534680 1.138860 0.093758
v 0.639124 1.322570 0.069359
v 0.631596 1.418710 0.143249
v -0.191146 -0.715105 -0.018038
v -0.167670 -0.578421 0.036916
v -0.277861 -0.789958 0.089445
v 0.397275 0.881884 0.018732
v 0.323919 0.808209 -0.067094
v 0.396125 0.898044 -0.051399
v 0.379867 0.777195 -0.006847
v -0.181898 -1.205820 0.004850
v -0.307689 -1.266130 0.124067
v -0.297347 -1.450970 0.049988
v -0.127941 -0.206337 -0.095064
v -0.121364 -0.116340 -0.135171
v -0.068698 -0.257732 -0.002130
v -0.167670 -0.578421 0.036916
v -0.191146 -0.715105 -0.018038
v -0.113928 -0.468901 -0.017382
v -0.121364 -0.116340 -0.135171
v -0.011425 -0.224289 0.007459
v 0.013564 -0.108606 0.002679
v 0.323919 0.808209 -0.067094
v 0.282615 0.837263 -0.154425
v 0.396125 0.898044 -0.051399
v 0.397275 0.881884 0.018732
v 0.253147 0.812577 0.149765
v 0.379867 0.777195 -0.006847
v 0.139104 0.577952 0.064675
v 0.238675 0.652006 -0.006964
v 0.205981 0.711222 0.089105
v 0.157653 0.638213 -0.081660
v 0.282615 0.837263 -0.154425
v 0.323919 0.808209 -0.067094
v 0.238675 0.652006 -0.006964
v 0.253147 0.812577 0.149765
v 0.407762 0.690714 -0.009591
v 0.379867 0.777195 -0.006847
v 0.323919 0.808209 -0.067094
v 0.379867 0.777195 -0.006847
v 0.407762 0.690714 -0.009591
v 0.238675 0.652006 -0.006964
v 0.139104 0.577952 0.064675
v 0.150969 0.461787 -0.009331
v 0.157653 0.638213 -0.081660
v 0.150969 0.461787 -0.009331
v 0.110534 0.591544 -0.119722
v -0.191146 -0.715105 -0.018038
v -0.193060 -0.549340 -0.081338
v -0.113928 -0.468901 -0.017382
v -0.068698 -0.257732 -0.002130
v -0.167670 -0.578421 0.036916
v -0.113928 -0.468901 -0.017382
v 0.150969 0.461787 -0.009331
v 0.088847 0.556171 0.087151
v 0.001495 0.108278 0.031897
v 0.009758 0.007584 -0.008828
v -0.057333 0.220527 -0.094389
v -0.078395 0.024217 -0.105368
v 0.150969 0.461787 -0.009331
v -0.057333 0.220527 -0.094389
v 0.110534 0.591544 -0.119722
v -0.127941 -0.206337 -0.095064
v -0.068698 -0.257732 -0.002130
v -0.113928 -0.468901 -0.017382
v -0.191146 -0.715105 -0.018038
v -0.257241 -0.935528 -0.096213
v -0.193060 -0.549340 -0.081338
v -0.121364 -0.116340 -0.135171
v 0.009758 0.007584 -0.008828
v 0.013564 -0.108606 0.002679
v -0.078395 0.024217 -0.105368
v 0.001495 0.108278 0.031897
v 0.013564 -0.108606 0.002679
v 0.009758 0.007584 -0.008828
v -0.247325 -1.356680 -0.081260
v -0.223220 -1.118770 -0.033545
v -0.215068 -1.378060 -0.006430
v -0.191146 -0.715105 -0.018038
v -0.277861 -0.789958 0.089445
v -0.161754 -0.934795 -0.043072
v -0.316354 -1.110310 -0.102749
v -0.247325 -1.356680 -0.081260
v -0.299421 -1.383340 -0.146235
v -0.297347 -1.450970 0.049988
v -0.306003 -1.547990 0.087027
v -0.213299 -1.579930 -0.025304
v -0.213299 -1.579930 -0.025304
v -0.136487 -1.885370 -0.000644
v -0.242222 -1.806150 -0.163997
v -0.183154 -1.748240 0.079608
v -0.136487 -1.885370 -0.000644
v -0.213299 -1.579930 -0.025304
v -1.124917 1.833630 0.121358
v -1.085602 1.689030 0.033578
v -1.091754 1.765740 0.062257
v -0.316618 -1.463130 -0.061341
v -0.242222 -1.806150 -0.163997
v -0.330774 -1.703610 -0.242106
v -1.372200 1.525320 0.003314
v -1.454250 1.420810 -0.002790
v -1.451870 1.581850 -0.124104
v -1.555630 1.459080 -0.124343
v -1.611560 1.295540 -0.010902
v -1.719130 1.240850 -0.068556
v -1.368740 1.696480 -0.122216
v -1.370470 1.636110 -0.073253
v -1.451870 1.581850 -0.124104
v -1.454250 1.420810 -0.002790
v -1.509710 1.525850 -0.159681
v -1.451870 1.581850 -0.124104
v -0.213299 -1.579930 -0.025304
v -0.306003 -1.547990 0.087027
v -0.183154 -1.748240 0.079608
v -1.538940 1.432810 0.079372
v -1.730570 1.095010 0.003356
v -1.611560 1.295540 -0.010902
v -1.479660 1.668690 -0.066713
v -1.555690 1.589940 -0.099883
v -1.546960 1.651010 0.010974
v 0.614648 1.913740 -0.111629
v 0.426688 2.097660 -0.117173
v 0.563978 1.960000 -0.069024
v -1.438570 1.734590 -0.015416
v -1.270910 1.846240 -0.012628
v -1.159490 1.880960 -0.084698
v -1.388080 1.803360 0.036175
v 0.360644 2.033930 0.123704
v 0.236930 2.128180 0.062554
v 0.080764 2.190240 0.098781
v -1.438570 1.734590 -0.015416
v -1.403570 1.674870 0.101939
v -1.246931 1.759560 0.098108
v -1.368740 1.696480 -0.122216
v -1.159490 1.880960 -0.084698
v -1.438570 1.734590 -0.015416
v -0.678285 2.079700 0.034737
v -0.871124 2.098300 -0.007909
v -0.710426 2.045550 0.114565
v -0.611479 2.073230 -0.069391
v -0.671583 2.005110 -0.148979
v -0.808530 2.015830 -0.087463
v -1.519650 1.721840 0.006772
v -1.438570 1.734590 -0.015416
v -1.368740 1.696480 -0.122216
v 0.135779 2.180760 -0.105959
v -0.042455 2.154950 -0.122901
v -0.045564 2.261860 0.005583
v -0.101791 2.141160 0.128464
v -0.045564 2.261860 0.005583
v -0.229045 2.135260 0.072646
v -0.678285 2.079700 0.034737
v -0.710426 2.045550 0.114565
v -0.531924 2.005670 0.120296
v -0.045564 2.261860 0.005583
v -0.042455 2.154950 -0.122901
v -0.180736 2.167590 -0.036952
v -0.045564 2.261860 0.005583
v 0.080764 2.190240 0.098781
v -0.101791 2.141160 0.128464
v -0.982830 2.096450 -0.022853
v -0.871124 2.098300 -0.007909
v -0.808530 2.015830 -0.087463
v -1.270910 1.846240 -0.012628
v -1.388080 1.803360 0.036175
v -1.246931 1.759560 0.098108
v -1.546960 1.651010 0.010974
v -1.555690 1.589940 -0.099883
v -1.612180 1.645220 0.012556
v -1.403570 1.674870 0.101939
v -1.438570 1.734590 -0.015416
v -1.519650 1.721840 0.006772
v 0.772860 1.905750 -0.097725
v 0.816830 2.010370 0.006884
v 1.136710 2.026500 0.000062
v -1.555630 1.459080 -0.124343
v -1.614650 1.441900 -0.134332
v -1.642060 1.529960 -0.008602
v 0.096521 0.903478 0.005048
v 0.210622 0.865449 0.085726
v 0.259422 0.964394 -0.009956
v 0.096521 0.903478 0.005048
v 0.259422 0.964394 -0.009956
v 0.282615 0.837263 -0.154425
v 0.210622 0.865449 0.085726
v 0.322707 0.940070 0.074892
v 0.259422 0.964394 -0.009956
v 0.087671 0.718056 0.018478
v 0.157653 0.638213 -0.081660
v 0.110534 0.591544 -0.119722
v -0.136487 -1.885370 -0.000644
v -0.183154 -1.748240 0.079608
v -0.330906 -2.031490 -0.007402
v -1.403570 1.674870 0.101939
v -1.546960 1.651010 0.010974
v -1.530500 1.513490 0.128038
v -1.044407 2.027440 0.007173
v -1.246931 1.759560 0.098108
v -1.124917 1.833630 0.121358
v -0.307689 -1.266130 0.124067
v -0.363994 -1.403840 0.038814
v -0.297347 -1.450970 0.049988
v -1.403570 1.674870 0.101939
v -1.519650 1.721840 0.006772
v -1.546960 1.651010 0.010974
v -0.871124 2.098300 -0.007909
v -0.889336 1.899960 0.136355
v -0.710426 2.045550 0.114565
v -0.356030 -1.871730 0.242107
v -0.507543 -1.851620 0.131223
v -0.465755 -2.406490 0.002636
v 0.612640 2.140710 -0.016020
v 0.482439 2.197140 0.033408
v 0.531892 1.902500 0.146200
v -0.011425 -0.224289 0.007459
v -0.171145 -0.210467 0.083167
v -0.068698 -0.257732 -0.002130
v -0.177638 2.067810 0.138129
v -0.229045 2.135260 0.072646
v -0.531924 2.005670 0.120296
v 0.217538 2.406490 -0.006422
v -0.045564 2.261860 0.005583
v 0.080764 2.190240 0.098781
v -0.229045 2.135260 0.072646
v -0.495911 2.094080 0.055889
v -0.531924 2.005670 0.120296
v -0.495911 2.094080 0.055889
v -0.678285 2.079700 0.034737
v -0.531924 2.005670 0.120296
v -0.889336 1.899960 0.136355
v -1.044407 2.027440 0.007173
v -1.124917 1.833630 0.121358
v -0.889336 1.899960 0.136355
v -0.982830 2.096450 -0.022853
v -1.044407 2.027440 0.007173
v -0.871124 2.098300 -0.007909
v -1.722340 1.396320 -0.007888
v -1.821680 1.138200 0.020476
v -1.741220 1.221610 0.035082
v -0.045564 2.261860 0.005583
v -0.212227 2.233440 0.008612
v -0.229045 2.135260 0.072646
v -0.212227 2.233440 0.008612
v -0.354574 2.255060 -0.005207
v -0.229045 2.135260 0.072646
v 0.285436 2.240790 -0.015888
v 0.080764 2.190240 0.098781
v 0.236930 2.128180 0.062554
v 0.602990 1.817820 0.144131
v 0.678904 1.790550 0.083507
v 0.654670 1.907120 0.090173
v -0.678285 2.079700 0.034737
v -0.488182 2.199850 -0.005269
v -0.871124 2.098300 -0.007909
v -0.495911 2.094080 0.055889
v -0.488182 2.199850 -0.005269
v -0.678285 2.079700 0.034737
v -0.177638 2.067810 0.138129
v -0.101791 2.141160 0.128464
v -0.229045 2.135260 0.072646
v 0.360644 2.033930 0.123704
v 0.482439 2.197140 0.033408
v 0.236930 2.128180 0.062554
v 0.654670 1.907120 0.090173
v 0.534487 1.825580 0.150179
v 0.602990 1.817820 0.144131
v -0.354574 2.255060 -0.005207
v -0.495911 2.094080 0.055889
v -0.229045 2.135260 0.072646
v -0.488182 2.199850 -0.005269
v 0.360644 2.033930 0.123704
v 0.531892 1.902500 0.146200
v 0.482439 2.197140 0.033408
v -0.011425 -0.224289 0.007459
v -0.135675 -0.144034 0.104971
v -0.171145 -0.210467 0.083167
v -1.044407 2.027440 0.007173
v -1.180799 1.978140 0.007426
v -1.246931 1.759560 0.098108
v 0.056828 2.066260 0.150692
v 0.360644 2.033930 0.123704
v 0.080764 2.190240 0.098781
v 0.080764 2.190240 0.098781
v -0.101791 2.141160 0.128464
v 0.056828 2.066260 0.150692
v 0.559755 2.333010 -0.012015
v 0.285436 2.240790 -0.015888
v 0.482439 2.197140 0.033408
v 0.236930 2.128180 0.062554
v 0.728660 1.689860 0.088696
v 0.678904 1.790550 0.083507
v 0.587371 1.745020 0.130173
v 0.678904 1.790550 0.083507
v 0.728660 1.689860 0.088696
v 0.898720 1.821280 -0.009081
v 1.216530 1.684400 -0.004211
v 0.898720 1.821280 -0.009081
v 0.728660 1.689860 0.088696
v -0.332514 -1.086840 0.093622
v -0.402611 -1.277740 0.032609
v -0.282270 -1.188360 0.083607
v -0.402611 -1.277740 0.032609
v -0.363994 -1.403840 0.038814
v -0.307689 -1.266130 0.124067
v -1.530500 1.513490 0.128038
v -1.546960 1.651010 0.010974
v -1.612180 1.645220 0.012556
v 0.654670 1.907120 0.090173
v 0.531892 1.902500 0.146200
v 0.534487 1.825580 0.150179
v 0.678904 1.790550 0.083507
v 0.816830 2.010370 0.006884
v 0.654670 1.907120 0.090173
v 0.612640 2.140710 -0.016020
v 0.531892 1.902500 0.146200
v 0.853630 2.256350 -0.015684
v 0.416132 0.969656 0.123466
v 0.585222 1.059800 -0.001093
v 0.458527 1.077500 0.116430
v 0.816830 2.010370 0.006884
v 0.853630 2.256350 -0.015684
v 0.654670 1.907120 0.090173
v 0.416132 0.969656 0.123466
v 0.588651 0.989389 -0.018859
v 0.585222 1.059800 -0.001093
v 0.654670 1.907120 0.090173
v 0.853630 2.256350 -0.015684
v 0.531892 1.902500 0.146200
v 0.416132 0.969656 0.123466
v 0.427317 0.915064 0.081763
v 0.588651 0.989389 -0.018859
v 0.933880 1.548140 -0.000447
v 0.582559 1.573490 0.104505
v 0.730120 1.500310 0.072315
v 0.612640 2.140710 -0.016020
v 0.559755 2.333010 -0.012015
v 0.482439 2.197140 0.033408
v 0.253147 0.812577 0.149765
v 0.397275 0.881884 0.018732
v 0.322707 0.940070 0.074892
v 0.285436 2.240790 -0.015888
v 0.217538 2.406490 -0.006422
v 0.080764 2.190240 0.098781
v -0.297347 -1.450970 0.049988
v -0.215068 -1.378060 -0.006430
v -0.181898 -1.205820 0.004850
v 0.585222 1.059800 -0.001093
v 0.534680 1.138860 0.093758
v 0.458527 1.077500 0.116430
v 0.773910 1.327110 -0.017920
v 0.730120 1.500310 0.072315
v 0.639124 1.322570 0.069359
v 0.745550 1.135360 -0.008286
v 0.639124 1.322570 0.069359
v 0.534680 1.138860 0.093758
v 0.150969 0.461787 -0.009331
v 0.139104 0.577952 0.064675
v 0.088847 0.556171 0.087151
v 0.001495 0.108278 0.031897
v 0.009758 0.007584 -0.008828
v 0.147725 0.128634 -0.014807
v 0.678904 1.790550 0.083507
v 1.136710 2.026500 0.000062
v 0.816830 2.010370 0.006884
v 0.056828 2.066260 0.150692
v -0.101791 2.141160 0.128464
v -0.177638 2.067810 0.138129
v -0.068698 -0.257732 -0.002130
v -0.171145 -0.210467 0.083167
v -0.236174 -0.399736 0.076488
v -1.246931 1.759560 0.098108
v -1.388080 1.803360 0.036175
v -1.438570 1.734590 -0.015416
v 0.407762 0.690714 -0.009591
v 0.253147 0.812577 0.149765
v 0.205981 0.711222 0.089105
v 0.602990 1.817820 0.144131
v 0.587371 1.745020 0.130173
v 0.678904 1.790550 0.083507
v -0.710426 2.045550 0.114565
v -0.889336 1.899960 0.136355
v -0.531924 2.005670 0.120296
v -1.821730 0.963541 0.015517
v -1.741220 1.221610 0.035082
v -1.821680 1.138200 0.020476
v -0.402611 -1.277740 0.032609
v -0.444811 -1.449530 0.004105
v -0.363994 -1.403840 0.038814
v 0.773910 1.327110 -0.017920
v 0.933880 1.548140 -0.000447
v 0.730120 1.500310 0.072315
v -0.135675 -0.144034 0.104971
v -0.011425 -0.224289 0.007459
v 0.013564 -0.108606 0.002679
v -0.161754 -0.934795 -0.043072
v -0.277861 -0.789958 0.089445
v -0.332514 -1.086840 0.093622
v -0.063191 0.123870 0.079257
v -0.135675 -0.144034 0.104971
v 0.013564 -0.108606 0.002679
v -0.063191 0.123870 0.079257
v 0.013564 -0.108606 0.002679
v 0.001495 0.108278 0.031897
v -0.029488 0.358063 0.076767
v -0.063191 0.123870 0.079257
v 0.001495 0.108278 0.031897
v 0.685672 1.270310 -0.007531
v 0.773910 1.327110 -0.017920
v 0.639124 1.322570 0.069359
v 0.088847 0.556171 0.087151
v -0.029488 0.358063 0.076767
v 0.001495 0.108278 0.031897
v 0.728660 1.689860 0.088696
v 0.587371 1.745020 0.130173
v 0.582559 1.573490 0.104505
v 0.933880 1.548140 -0.000447
v 0.728660 1.689860 0.088696
v 0.582559 1.573490 0.104505
v 0.585222 1.059800 -0.001093
v 0.745550 1.135360 -0.008286
v 0.534680 1.138860 0.093758
v 0.534680 1.138860 0.093758
v 0.521259 1.238500 0.058528
v 0.458527 1.077500 0.116430
v 0.730120 1.500310 0.072315
v 0.582559 1.573490 0.104505
v 0.639124 1.322570 0.069359
v 0.126086 0.655110 0.062425
v 0.088847 0.556171 0.087151
v 0.139104 0.577952 0.064675
v -0.215068 -1.378060 -0.006430
v -0.297347 -1.450970 0.049988
v -0.213299 -1.579930 -0.025304
v -0.236174 -0.399736 0.076488
v -0.422350 -0.545899 -0.023134
v -0.385915 -0.679715 -0.008748
v 0.150969 0.461787 -0.009331
v 0.001495 0.108278 0.031897
v 0.147725 0.128634 -0.014807
v -0.167670 -0.578421 0.036916
v -0.068698 -0.257732 -0.002130
v -0.236174 -0.399736 0.076488
v -0.236174 -0.399736 0.076488
v -0.277861 -0.789958 0.089445
v -0.167670 -0.578421 0.036916
v -0.287471 -0.098485 -0.009269
v -0.171145 -0.210467 0.083167
v -0.135675 -0.144034 0.104971
v 0.933880 1.548140 -0.000447
v 1.216530 1.684400 -0.004211
v 0.728660 1.689860 0.088696
v -0.047674 1.878830 0.120776
v 0.056828 2.066260 0.150692
v -0.177638 2.067810 0.138129
v 0.678904 1.790550 0.083507
v 0.898720 1.821280 -0.009081
v 1.136710 2.026500 0.000062
v 0.205981 0.711222 0.089105
v 0.126086 0.655110 0.062425
v 0.139104 0.577952 0.064675
v -0.063191 0.123870 0.079257
v -0.029488 0.358063 0.076767
v -0.145591 -0.001689 0.053107
v -0.236174 -0.399736 0.076488
v -0.385915 -0.679715 -0.008748
v -0.277861 -0.789958 0.089445
v 0.458527 1.077500 0.116430
v 0.441028 1.277090 -0.038262
v 0.332986 1.171130 -0.008449
v 0.427317 0.915064 0.081763
v 0.416132 0.969656 0.123466
v 0.322707 0.940070 0.074892
v -0.385915 -0.679715 -0.008748
v -0.441038 -1.036190 -0.006197
v -0.277861 -0.789958 0.089445
v -1.538940 1.432810 0.079372
v -1.741220 1.221610 0.035082
v -1.730570 1.095010 0.003356
v -0.277861 -0.789958 0.089445
v -0.441038 -1.036190 -0.006197
v -0.332514 -1.086840 0.093622
v 0.582559 1.573490 0.104505
v 0.587371 1.745020 0.130173
v 0.445375 1.552480 0.080742
v 0.375952 1.805990 0.067179
v 0.360644 2.033930 0.123704
v 0.056828 2.066260 0.150692
v 0.534487 1.825580 0.150179
v 0.375952 1.805990 0.067179
v 0.311168 1.603480 0.059491
v 0.253147 0.812577 0.149765
v 0.322707 0.940070 0.074892
v 0.210622 0.865449 0.085726
v 0.587371 1.745020 0.130173
v 0.602990 1.817820 0.144131
v 0.311168 1.603480 0.059491
v 0.122153 0.791370 -0.015366
v 0.210622 0.865449 0.085726
v 0.096521 0.903478 0.005048
v 0.445375 1.552480 0.080742
v 0.587371 1.745020 0.130173
v 0.356417 1.598150 -0.022015
v 0.205981 0.711222 0.089105
v 0.087671 0.718056 0.018478
v 0.126086 0.655110 0.062425
v 0.534487 1.825580 0.150179
v 0.531892 1.902500 0.146200
v 0.375952 1.805990 0.067179
v -0.011652 0.587732 -0.006261
v 0.126086 0.655110 0.062425
v 0.087671 0.718056 0.018478
v -0.363994 -1.403840 0.038814
v -0.384900 -1.616690 0.060115
v -0.297347 -1.450970 0.049988
v -0.363994 -1.403840 0.038814
v -0.444811 -1.449530 0.004105
v -0.384900 -1.616690 0.060115
v 0.534487 1.825580 0.150179
v 0.311168 1.603480 0.059491
v 0.602990 1.817820 0.144131
v 0.582559 1.573490 0.104505
v 0.445375 1.552480 0.080742
v 0.531494 1.470730 0.060867
v -0.135675 -0.144034 0.104971
v -0.063191 0.123870 0.079257
v -0.145591 -0.001689 0.053107
v 0.416132 0.969656 0.123466
v 0.323607 1.066220 -0.005101
v 0.322707 0.940070 0.074892
v 0.087671 0.718056 0.018478
v 0.205981 0.711222 0.089105
v 0.122153 0.791370 -0.015366
v -0.011652 0.587732 -0.006261
v -0.029488 0.358063 0.076767
v 0.088847 0.556171 0.087151
v -0.029488 0.358063 0.076767
v -0.011652 0.587732 -0.006261
v -0.098572 0.389829 -0.004123
v 0.441028 1.277090 -0.038262
v 0.458527 1.077500 0.116430
v 0.521259 1.238500 0.058528
v 0.088847 0.556171 0.087151
v 0.126086 0.655110 0.062425
v -0.011652 0.587732 -0.006261
v -0.036078 1.713610 -0.004631
v 0.056828 2.066260 0.150692
v -0.047674 1.878830 0.120776
v -0.047674 1.878830 0.120776
v -0.177638 2.067810 0.138129
v -0.187161 1.962660 0.093818
v -0.444811 -1.449530 0.004105
v -0.577106 -1.795390 0.005825
v -0.384900 -1.616690 0.060115
v -0.180502 0.059279 -0.004376
v -0.287471 -0.098485 -0.009269
v -0.135675 -0.144034 0.104971
v 0.056828 2.066260 0.150692
v -0.036078 1.713610 -0.004631
v 0.079774 1.817830 -0.000353
v 0.416132 0.969656 0.123466
v 0.458527 1.077500 0.116430
v 0.323607 1.066220 -0.005101
v 0.375952 1.805990 0.067179
v 0.531892 1.902500 0.146200
v 0.360644 2.033930 0.123704
v -0.161754 -0.934795 -0.043072
v -0.332514 -1.086840 0.093622
v -0.282270 -1.188360 0.083607
v 0.269614 1.649460 -0.005833
v 0.225409 1.877130 0.061973
v 0.079774 1.817830 -0.000353
v 0.375952 1.805990 0.067179
v 0.323607 1.066220 -0.005101
v 0.458527 1.077500 0.116430
v 0.332986 1.171130 -0.008449
v -0.221150 -0.181387 -0.008557
v -0.422350 -0.545899 -0.023134
v -0.236174 -0.399736 0.076488
v -0.307689 -1.266130 0.124067
v -0.181898 -1.205820 0.004850
v -0.282270 -1.188360 0.083607
v 0.631596 1.418710 0.143249
v 0.531494 1.470730 0.060867
v 0.521259 1.238500 0.058528
v 0.582559 1.573490 0.104505
v 0.531494 1.470730 0.060867
v 0.631596 1.418710 0.143249
v -1.085602 1.689030 0.033578
v -1.246931 1.759560 0.098108
v -1.269182 1.660470 0.015012
v -1.124917 1.833630 0.121358
v 0.079774 1.817830 -0.000353
v 0.225409 1.877130 0.061973
v 0.056828 2.066260 0.150692
v -0.177638 2.067810 0.138129
v -0.249778 1.910500 0.002862
v -0.376858 1.895180 -0.018435
v 0.531494 1.470730 0.060867
v 0.445375 1.552480 0.080742
v 0.411006 1.472070 -0.006019
v -1.124917 1.833630 0.121358
v -1.091754 1.765740 0.062257
v -0.889336 1.899960 0.136355
v -0.531924 2.005670 0.120296
v -0.492987 1.869930 0.011827
v -0.376858 1.895180 -0.018435
v -1.730570 1.095010 0.003356
v -1.741220 1.221610 0.035082
v -1.821730 0.963541 0.015517
v -0.700706 1.835800 0.012949
v -0.492987 1.869930 0.011827
v -0.531924 2.005670 0.120296
v -0.889336 1.899960 0.136355
v -1.091754 1.765740 0.062257
v -1.085602 1.689030 0.033578
v -0.903782 1.798350 -0.069275
v -1.538940 1.432810 0.079372
v -1.635160 1.419410 0.114983
v -1.741220 1.221610 0.035082
v -1.538940 1.432810 0.079372
v -1.530500 1.513490 0.128038
v -1.635160 1.419410 0.114983
v 0.375952 1.805990 0.067179
v 0.056828 2.066260 0.150692
v 0.225409 1.877130 0.061973
v -0.384900 -1.616690 0.060115
v -0.306003 -1.547990 0.087027
v -0.297347 -1.450970 0.049988
v -0.306003 -1.547990 0.087027
v -0.356030 -1.871730 0.242107
v -0.183154 -1.748240 0.079608
v -1.403570 1.674870 0.101939
v -1.269182 1.660470 0.015012
v -1.246931 1.759560 0.098108
v -1.292742 1.563810 -0.010330
v -1.530500 1.513490 0.128038
v -1.372200 1.525320 0.003314
v -1.403570 1.674870 0.101939
v -1.292742 1.563810 -0.010330
v -1.372200 1.525320 0.003314
v -1.530500 1.513490 0.128038
v -1.454250 1.420810 -0.002790
v -1.538940 1.432810 0.079372
v -1.454250 1.420810 -0.002790
v -1.530500 1.513490 0.128038
v -0.356030 -1.871730 0.242107
v -0.306003 -1.547990 0.087027
v -0.507543 -1.851620 0.131223
v -0.181898 -1.205820 0.004850
v -0.223220 -1.118770 -0.033545
v -0.282270 -1.188360 0.083607
v -1.722340 1.396320 -0.007888
v -1.774710 1.172950 -0.049173
v -1.821680 1.138200 0.020476
v -1.642060 1.529960 -0.008602
v -1.722340 1.396320 -0.007888
v -1.635160 1.419410 0.114983
v -1.722340 1.396320 -0.007888
v -1.642060 1.529960 -0.008602
v -1.614650 1.441900 -0.134332
v -1.722340 1.396320 -0.007888
v -1.741220 1.221610 0.035082
v -1.635160 1.419410 0.114983
v -1.821680 1.138200 0.020476
v -1.774710 1.172950 -0.049173
v -1.821730 0.963541 0.015517
v -0.507543 -1.851620 0.131223
v -0.577106 -1.795390 0.005825
v -0.448320 -2.126750 -0.017984
v -1.555690 1.589940 -0.099883
v -1.642060 1.529960 -0.008602
v -1.612180 1.645220 0.012556
v -1.614650 1.441900 -0.134332
v -1.719130 1.240850 -0.068556
v -1.722340 1.396320 -0.007888
v -0.982830 2.096450 -0.022853
v -1.116165 1.849500 -0.136686
v -1.044407 2.027440 0.007173
v -1.642060 1.529960 -0.008602
v -1.635160 1.419410 0.114983
v -1.530500 1.513490 0.128038
v -1.479660 1.668690 -0.066713
v -1.546960 1.651010 0.010974
v -1.519650 1.721840 0.006772
v -1.180799 1.978140 0.007426
v -1.270910 1.846240 -0.012628
v -1.246931 1.759560 0.098108
v -1.555690 1.589940 -0.099883
v -1.555630 1.459080 -0.124343
v -1.642060 1.529960 -0.008602
v -1.612180 1.645220 0.012556
v -1.642060 1.529960 -0.008602
v -1.530500 1.513490 0.128038
v -1.555690 1.589940 -0.099883
v -1.509710 1.525850 -0.159681
v -1.555630 1.459080 -0.124343
v -0.577106 -1.795390 0.005825
v -0.428259 -1.772040 -0.152298
v -0.448320 -2.126750 -0.017984
v -0.332514 -1.086840 0.093622
v -0.441038 -1.036190 -0.006197
v -0.399524 -1.185430 -0.022026
v -0.221150 -0.181387 -0.008557
v -0.171145 -0.210467 0.083167
v -0.287471 -0.098485 -0.009269
v -0.373308 -1.205650 -0.074599
v -0.316618 -1.463130 -0.061341
v -0.399524 -1.185430 -0.022026
v -0.373308 -1.205650 -0.074599
v -0.299421 -1.383340 -0.146235
v -0.316618 -1.463130 -0.061341
v -0.422350 -0.545899 -0.023134
v -0.357434 -0.913404 -0.085068
v -0.385915 -0.679715 -0.008748
v -0.121364 -0.116340 -0.135171
v -0.127941 -0.206337 -0.095064
v -0.221150 -0.181387 -0.008557
v -0.465755 -2.406490 0.002636
v -0.507543 -1.851620 0.131223
v -0.448320 -2.126750 -0.017984
v -0.357434 -0.913404 -0.085068
v -0.373308 -1.205650 -0.074599
v -0.399524 -1.185430 -0.022026
v -0.385915 -0.679715 -0.008748
v -0.357434 -0.913404 -0.085068
v -0.441038 -1.036190 -0.006197
v -0.098572 0.389829 -0.004123
v -0.057333 0.220527 -0.094389
v -0.180502 0.059279 -0.004376
v -0.145591 -0.001689 0.053107
v -0.180502 0.059279 -0.004376
v -0.135675 -0.144034 0.104971
v -0.145591 -0.001689 0.053107
v -0.029488 0.358063 0.076767
v -0.180502 0.059279 -0.004376
v -0.098572 0.389829 -0.004123
v 0.311168 1.603480 0.059491
v 0.375952 1.805990 0.067179
v 0.269614 1.649460 -0.005833
v -0.399524 -1.185430 -0.022026
v -0.444811 -1.449530 0.004105
v -0.402611 -1.277740 0.032609
v 0.308355 1.595330 -0.063057
v 0.269614 1.649460 -0.005833
v 0.384706 1.877120 -0.079880
v 0.087671 0.718056 0.018478
v 0.122153 0.791370 -0.015366
v 0.157653 0.638213 -0.081660
v 0.122153 0.791370 -0.015366
v 0.205981 0.711222 0.089105
v 0.210622 0.865449 0.085726
v -0.171145 -0.210467 0.083167
v -0.221150 -0.181387 -0.008557
v -0.236174 -0.399736 0.076488
v 0.096521 0.903478 0.005048
v 0.157653 0.638213 -0.081660
v 0.122153 0.791370 -0.015366
v 0.205981 0.711222 0.089105
v 0.253147 0.812577 0.149765
v 0.210622 0.865449 0.085726
v 0.322707 0.940070 0.074892
v 0.323607 1.066220 -0.005101
v 0.259422 0.964394 -0.009956
v -0.332514 -1.086840 0.093622
v -0.399524 -1.185430 -0.022026
v -0.402611 -1.277740 0.032609
v 0.417985 0.982143 -0.146504
v 0.483559 1.149080 -0.052062
v 0.562102 1.204150 -0.113533
v 0.521259 1.238500 0.058528
v 0.478021 1.415890 -0.036795
v 0.441028 1.277090 -0.038262
v 0.417985 0.982143 -0.146504
v 0.323607 1.066220 -0.005101
v 0.332986 1.171130 -0.008449
v -0.047674 1.878830 0.120776
v -0.092679 1.839500 -0.005519
v -0.036078 1.713610 -0.004631
v 0.534680 1.138860 0.093758
v 0.631596 1.418710 0.143249
v 0.521259 1.238500 0.058528
v -0.577106 -1.795390 0.005825
v -0.444811 -1.449530 0.004105
v -0.428259 -1.772040 -0.152298
v -0.177638 2.067810 0.138129
v -0.249778 1.910500 0.002862
v -0.187161 1.962660 0.093818
v 0.521259 1.238500 0.058528
v 0.531494 1.470730 0.060867
v 0.478021 1.415890 -0.036795
v 0.411006 1.472070 -0.006019
v 0.445375 1.552480 0.080742
v 0.356417 1.598150 -0.022015
v 0.384706 1.877120 -0.079880
v 0.357504 2.008680 -0.156034
v 0.468614 1.812050 -0.161225
v -0.316618 -1.463130 -0.061341
v -0.330774 -1.703610 -0.242106
v -0.428259 -1.772040 -0.152298
v -0.282270 -1.188360 0.083607
v -0.402611 -1.277740 0.032609
v -0.307689 -1.266130 0.124067
v -0.577106 -1.795390 0.005825
v -0.507543 -1.851620 0.131223
v -0.384900 -1.616690 0.060115
v -0.384900 -1.616690 0.060115
v -0.507543 -1.851620 0.131223
v -0.306003 -1.547990 0.087027
v -0.330906 -2.031490 -0.007402
v -0.242222 -1.806150 -0.163997
v -0.136487 -1.885370 -0.000644
v -0.448320 -2.126750 -0.017984
v -0.242222 -1.806150 -0.163997
v -0.330906 -2.031490 -0.007402
v 0.397275 0.881884 0.018732
v 0.588651 0.989389 -0.018859
v 0.427317 0.915064 0.081763
v 0.205981 0.711222 0.089105
v 0.238675 0.652006 -0.006964
v 0.407762 0.690714 -0.009591
v 0.588651 0.989389 -0.018859
v 0.396125 0.898044 -0.051399
v 0.417985 0.982143 -0.146504
v 0.397275 0.881884 0.018732
v 0.396125 0.898044 -0.051399
v 0.588651 0.989389 -0.018859
v 0.685672 1.270310 -0.007531
v 0.580433 1.306060 -0.125539
v 0.773910 1.327110 -0.017920
v 0.397275 0.881884 0.018732
v 0.427317 0.915064 0.081763
v 0.322707 0.940070 0.074892
v 0.396125 0.898044 -0.051399
v 0.345478 0.953350 -0.090186
v 0.417985 0.982143 -0.146504
v 0.356417 1.598150 -0.022015
v 0.308355 1.595330 -0.063057
v 0.468614 1.812050 -0.161225
v 0.356417 1.598150 -0.022015
v 0.587371 1.745020 0.130173
v 0.311168 1.603480 0.059491
v 0.478021 1.415890 -0.036795
v 0.531494 1.470730 0.060867
v 0.411006 1.472070 -0.006019
v -0.092679 1.839500 -0.005519
v -0.187161 1.962660 0.093818
v -0.249778 1.910500 0.002862
v -1.193292 1.639200 -0.066796
v -1.269182 1.660470 0.015012
v -1.370470 1.636110 -0.073253
v -0.889336 1.899960 0.136355
v -1.091754 1.765740 0.062257
v -0.700706 1.835800 0.012949
v -0.531924 2.005670 0.120296
v -0.376858 1.895180 -0.018435
v -0.177638 2.067810 0.138129
v -0.047674 1.878830 0.120776
v -0.187161 1.962660 0.093818
v -0.092679 1.839500 -0.005519
v 0.356417 1.598150 -0.022015
v 0.269614 1.649460 -0.005833
v 0.308355 1.595330 -0.063057
v -1.085602 1.689030 0.033578
v -1.269182 1.660470 0.015012
v -1.193292 1.639200 -0.066796
v -1.292742 1.563810 -0.010330
v -1.372200 1.525320 0.003314
v -1.451870 1.581850 -0.124104
v 0.356417 1.598150 -0.022015
v 0.311168 1.603480 0.059491
v 0.269614 1.649460 -0.005833
v -0.650821 1.914930 -0.108304
v -0.492987 1.869930 0.011827
v -0.700706 1.835800 0.012949
v -0.886143 1.879810 -0.159990
v -0.671583 2.005110 -0.148979
v -0.903782 1.798350 -0.069275
v -1.454250 1.420810 -0.002790
v -1.555630 1.459080 -0.124343
v -1.509710 1.525850 -0.159681
v -1.454250 1.420810 -0.002790
v -1.538940 1.432810 0.079372
v -1.611560 1.295540 -0.010902
v -0.650821 1.914930 -0.108304
v -0.700706 1.835800 0.012949
v -0.903782 1.798350 -0.069275
v -0.903782 1.798350 -0.069275
v -0.700706 1.835800 0.012949
v -1.091754 1.765740 0.062257
v -1.193292 1.639200 -0.066796
v -0.903782 1.798350 -0.069275
v -1.085602 1.689030 0.033578
v -0.886143 1.879810 -0.159990
v -1.611560 1.295540 -0.010902
v -1.774710 1.172950 -0.049173
v -1.719130 1.240850 -0.068556
v -0.330774 -1.703610 -0.242106
v -0.242222 -1.806150 -0.163997
v -0.448320 -2.126750 -0.017984
v -1.368740 1.696480 -0.122216
v -1.159490 1.880960 -0.084698
v -1.116165 1.849500 -0.136686
v -1.159490 1.880960 -0.084698
v -1.270910 1.846240 -0.012628
v -1.180799 1.978140 0.007426
v -1.519650 1.721840 0.006772
v -1.368740 1.696480 -0.122216
v -1.479660 1.668690 -0.066713
v -1.719130 1.240850 -0.068556
v -1.774710 1.172950 -0.049173
v -1.722340 1.396320 -0.007888
v -1.159490 1.880960 -0.084698
v -1.044407 2.027440 0.007173
v -1.116165 1.849500 -0.136686
v -0.428259 -1.772040 -0.152298
v -0.330774 -1.703610 -0.242106
v -0.448320 -2.126750 -0.017984
v -1.368740 1.696480 -0.122216
v -1.451870 1.581850 -0.124104
v -1.479660 1.668690 -0.066713
v -1.044407 2.027440 0.007173
v -1.159490 1.880960 -0.084698
v -1.180799 1.978140 0.007426
v -0.808530 2.015830 -0.087463
v -0.671583 2.005110 -0.148979
v -0.886143 1.879810 -0.159990
v -0.488182 2.199850 -0.005269
v -0.354574 2.255060 -0.005207
v -0.611479 2.073230 -0.069391
v 0.285436 2.240790 -0.015888
v 0.357504 2.008680 -0.156034
v 0.135779 2.180760 -0.105959
v 0.650471 1.579650 -0.057842
v 0.637607 1.487130 -0.151711
v 0.544419 1.565600 -0.150964
v -0.808530 2.015830 -0.087463
v -0.871124 2.098300 -0.007909
v -0.611479 2.073230 -0.069391
v -0.180736 2.167590 -0.036952
v -0.106248 2.089230 -0.139279
v -0.266580 2.048720 -0.104142
v -0.671583 2.005110 -0.148979
v -0.611479 2.073230 -0.069391
v -0.524916 2.007130 -0.118798
v -0.212227 2.233440 0.008612
v -0.180736 2.167590 -0.036952
v -0.354574 2.255060 -0.005207
v -0.871124 2.098300 -0.007909
v -0.488182 2.199850 -0.005269
v -0.611479 2.073230 -0.069391
v -0.180736 2.167590 -0.036952
v -0.042455 2.154950 -0.122901
v -0.106248 2.089230 -0.139279
v -0.886143 1.879810 -0.159990
v -1.116165 1.849500 -0.136686
v -0.982830 2.096450 -0.022853
v -0.045564 2.261860 0.005583
v -0.180736 2.167590 -0.036952
v -0.212227 2.233440 0.008612
v -0.808530 2.015830 -0.087463
v -0.886143 1.879810 -0.159990
v -0.982830 2.096450 -0.022853
v 0.637607 1.487130 -0.151711
v 0.650471 1.579650 -0.057842
v 0.933880 1.548140 -0.000447
v -0.354574 2.255060 -0.005207
v -0.524916 2.007130 -0.118798
v -0.611479 2.073230 -0.069391
v -1.555690 1.589940 -0.099883
v -1.451870 1.581850 -0.124104
v -1.509710 1.525850 -0.159681
v -1.479660 1.668690 -0.066713
v -0.354574 2.255060 -0.005207
v -0.406405 2.026870 -0.118562
v -0.524916 2.007130 -0.118798
v -0.354574 2.255060 -0.005207
v -0.180736 2.167590 -0.036952
v -0.266580 2.048720 -0.104142
v -0.354574 2.255060 -0.005207
v -0.266580 2.048720 -0.104142
v -0.406405 2.026870 -0.118562
v 0.426688 2.097660 -0.117173
v 0.357504 2.008680 -0.156034
v 0.285436 2.240790 -0.015888
v -0.045564 2.261860 0.005583
v 0.217538 2.406490 -0.006422
v 0.135779 2.180760 -0.105959
v 0.745550 1.135360 -0.008286
v 0.562102 1.204150 -0.113533
v 0.685672 1.270310 -0.007531
v 0.426688 2.097660 -0.117173
v 0.285436 2.240790 -0.015888
v 0.559755 2.333010 -0.012015
v 0.563978 1.960000 -0.069024
v 0.426688 2.097660 -0.117173
v 0.559755 2.333010 -0.012015
v 0.559755 2.333010 -0.012015
v 0.612640 2.140710 -0.016020
v 0.563978 1.960000 -0.069024
v 0.898720 1.821280 -0.009081
v 1.216530 1.684400 -0.004211
v 0.607885 1.667330 -0.130930
v -0.121364 -0.116340 -0.135171
v -0.221150 -0.181387 -0.008557
v -0.287471 -0.098485 -0.009269
v 0.285436 2.240790 -0.015888
v 0.135779 2.180760 -0.105959
v 0.217538 2.406490 -0.006422
v 0.468614 1.812050 -0.161225
v 0.614648 1.913740 -0.111629
v 0.612546 1.803580 -0.140391
v -0.121364 -0.116340 -0.135171
v -0.011425 -0.224289 0.007459
v -0.068698 -0.257732 -0.002130
v 0.468614 1.812050 -0.161225
v 0.357504 2.008680 -0.156034
v 0.614648 1.913740 -0.111629
v 0.426688 2.097660 -0.117173
v 0.562102 1.204150 -0.113533
v 0.588651 0.989389 -0.018859
v 0.417985 0.982143 -0.146504
v 0.772860 1.905750 -0.097725
v 0.612546 1.803580 -0.140391
v 0.614648 1.913740 -0.111629
v 0.396125 0.898044 -0.051399
v 0.282615 0.837263 -0.154425
v 0.345478 0.953350 -0.090186
v 0.650471 1.579650 -0.057842
v 0.544419 1.565600 -0.150964
v 0.607885 1.667330 -0.130930
v -0.113928 -0.468901 -0.017382
v -0.186717 -0.266823 -0.075232
v -0.127941 -0.206337 -0.095064
v 0.607885 1.667330 -0.130930
v 0.612546 1.803580 -0.140391
v 0.898720 1.821280 -0.009081
v -0.161754 -0.934795 -0.043072
v -0.223220 -1.118770 -0.033545
v -0.257241 -0.935528 -0.096213
v -0.316354 -1.110310 -0.102749
v 0.772860 1.905750 -0.097725
v 0.614648 1.913740 -0.111629
v 0.853630 2.256350 -0.015684
v 0.238675 0.652006 -0.006964
v 0.150969 0.461787 -0.009331
v 0.157653 0.638213 -0.081660
v 0.580433 1.306060 -0.125539
v 0.637607 1.487130 -0.151711
v 0.773910 1.327110 -0.017920
v 0.773910 1.327110 -0.017920
v 0.637607 1.487130 -0.151711
v 0.933880 1.548140 -0.000447
v 0.614648 1.913740 -0.111629
v 0.612640 2.140710 -0.016020
v 0.853630 2.256350 -0.015684
v -0.357434 -0.913404 -0.085068
v -0.399524 -1.185430 -0.022026
v -0.441038 -1.036190 -0.006197
v 0.009758 0.007584 -0.008828
v -0.057333 0.220527 -0.094389
v 0.147725 0.128634 -0.014807
v -0.042455 2.154950 -0.122901
v 0.135779 2.180760 -0.105959
v 0.015028 1.995190 -0.134261
v 0.357504 2.008680 -0.156034
v 0.015028 1.995190 -0.134261
v -0.106248 2.089230 -0.139279
v -0.042455 2.154950 -0.122901
v 0.150969 0.461787 -0.009331
v 0.147725 0.128634 -0.014807
v -0.057333 0.220527 -0.094389
v -0.448320 -2.126750 -0.017984
v -0.330906 -2.031490 -0.007402
v -0.465755 -2.406490 0.002636
v 0.898720 1.821280 -0.009081
v 0.612546 1.803580 -0.140391
v 0.772860 1.905750 -0.097725
v 0.407762 0.690714 -0.009591
v 0.238675 0.652006 -0.006964
v 0.323919 0.808209 -0.067094
v -0.223220 -1.118770 -0.033545
v -0.181898 -1.205820 0.004850
v -0.215068 -1.378060 -0.006430
v -0.316618 -1.463130 -0.061341
v -0.444811 -1.449530 0.004105
v -0.399524 -1.185430 -0.022026
v 0.612640 2.140710 -0.016020
v 0.614648 1.913740 -0.111629
v 0.563978 1.960000 -0.069024
v 0.745550 1.135360 -0.008286
v 0.585222 1.059800 -0.001093
v 0.562102 1.204150 -0.113533
v -0.113928 -0.468901 -0.017382
v -0.193060 -0.549340 -0.081338
v -0.186717 -0.266823 -0.075232
v 0.898720 1.821280 -0.009081
v 0.772860 1.905750 -0.097725
v 1.136710 2.026500 0.000062
v 0.544419 1.565600 -0.150964
v 0.356417 1.598150 -0.022015
v 0.607885 1.667330 -0.130930
v -0.257241 -0.935528 -0.096213
v -0.316354 -1.110310 -0.102749
v -0.357434 -0.913404 -0.085068
v -0.373308 -1.205650 -0.074599
v -0.186717 -0.266823 -0.075232
v -0.193060 -0.549340 -0.081338
v -0.257241 -0.935528 -0.096213
v 0.417985 0.982143 -0.146504
v 0.332986 1.171130 -0.008449
v 0.483559 1.149080 -0.052062
v -0.186717 -0.266823 -0.075232
v -0.257241 -0.935528 -0.096213
v -0.357434 -0.913404 -0.085068
v 0.933880 1.548140 -0.000447
v 0.650471 1.579650 -0.057842
v 1.216530 1.684400 -0.004211
v -0.316354 -1.110310 -0.102749
v -0.299421 -1.383340 -0.146235
v -0.373308 -1.205650 -0.074599
v -0.186717 -0.266823 -0.075232
v -0.357434 -0.913404 -0.085068
v -0.422350 -0.545899 -0.023134
v -1.116165 1.849500 -0.136686
v -0.886143 1.879810 -0.159990
v -1.193292 1.639200 -0.066796
v -0.057333 0.220527 -0.094389
v -0.078395 0.024217 -0.105368
v -0.180502 0.059279 -0.004376
v 0.332986 1.171130 -0.008449
v 0.441028 1.277090 -0.038262
v 0.483559 1.149080 -0.052062
v -0.106248 2.089230 -0.139279
v 0.015028 1.995190 -0.134261
v -0.266580 2.048720 -0.104142
v 0.650471 1.579650 -0.057842
v 0.607885 1.667330 -0.130930
v 1.216530 1.684400 -0.004211
v 0.021753 1.906110 -0.058550
v -0.036078 1.713610 -0.004631
v -0.092679 1.839500 -0.005519
v -0.223220 -1.118770 -0.033545
v -0.247325 -1.356680 -0.081260
v -0.316354 -1.110310 -0.102749
v 0.282615 0.837263 -0.154425
v 0.157653 0.638213 -0.081660
v 0.096521 0.903478 0.005048
v 0.468614 1.812050 -0.161225
v 0.308355 1.595330 -0.063057
v 0.384706 1.877120 -0.079880
v -0.011652 0.587732 -0.006261
v -0.057333 0.220527 -0.094389
v -0.098572 0.389829 -0.004123
v 0.282615 0.837263 -0.154425
v 0.259422 0.964394 -0.009956
v 0.345478 0.953350 -0.090186
v -0.316618 -1.463130 -0.061341
v -0.215068 -1.378060 -0.006430
v -0.213299 -1.579930 -0.025304
v -0.011652 0.587732 -0.006261
v 0.110534 0.591544 -0.119722
v -0.057333 0.220527 -0.094389
v 0.079774 1.817830 -0.000353
v -0.036078 1.713610 -0.004631
v 0.021753 1.906110 -0.058550
v 0.269614 1.649460 -0.005833
v 0.228776 1.919820 -0.084891
v 0.384706 1.877120 -0.079880
v 0.607885 1.667330 -0.130930
v 0.356417 1.598150 -0.022015
v 0.612546 1.803580 -0.140391
v -0.191146 -0.715105 -0.018038
v -0.161754 -0.934795 -0.043072
v -0.257241 -0.935528 -0.096213
v 0.345478 0.953350 -0.090186
v 0.259422 0.964394 -0.009956
v 0.323607 1.066220 -0.005101
v 0.441028 1.277090 -0.038262
v 0.478021 1.415890 -0.036795
v 0.580433 1.306060 -0.125539
v 0.345478 0.953350 -0.090186
v 0.323607 1.066220 -0.005101
v 0.417985 0.982143 -0.146504
v 0.087671 0.718056 0.018478
v 0.110534 0.591544 -0.119722
v -0.011652 0.587732 -0.006261
v -0.671583 2.005110 -0.148979
v -0.650821 1.914930 -0.108304
v -0.903782 1.798350 -0.069275
v 0.356417 1.598150 -0.022015
v 0.468614 1.812050 -0.161225
v 0.612546 1.803580 -0.140391
v -0.121364 -0.116340 -0.135171
v -0.180502 0.059279 -0.004376
v -0.078395 0.024217 -0.105368
v -0.287471 -0.098485 -0.009269
v 0.441028 1.277090 -0.038262
v 0.580433 1.306060 -0.125539
v 0.483559 1.149080 -0.052062
v 0.580433 1.306060 -0.125539
v 0.478021 1.415890 -0.036795
v 0.637607 1.487130 -0.151711
v -0.524916 2.007130 -0.118798
v -0.650821 1.914930 -0.108304
v -0.671583 2.005110 -0.148979
v -0.221150 -0.181387 -0.008557
v -0.127941 -0.206337 -0.095064
v -0.186717 -0.266823 -0.075232
v 0.228776 1.919820 -0.084891
v 0.269614 1.649460 -0.005833
v 0.079774 1.817830 -0.000353
v -1.193292 1.639200 -0.066796
v -1.368740 1.696480 -0.122216
v -1.116165 1.849500 -0.136686
v -0.186717 -0.266823 -0.075232
v -0.422350 -0.545899 -0.023134
v -0.221150 -0.181387 -0.008557
v 0.562102 1.204150 -0.113533
v 0.483559 1.149080 -0.052062
v 0.580433 1.306060 -0.125539
v 0.411006 1.472070 -0.006019
v 0.637607 1.487130 -0.151711
v 0.478021 1.415890 -0.036795
v -1.370470 1.636110 -0.073253
v -1.368740 1.696480 -0.122216
v -1.193292 1.639200 -0.066796
v -0.249778 1.910500 0.002862
v 0.015028 1.995190 -0.134261
v -0.092679 1.839500 -0.005519
v -1.555630 1.459080 -0.124343
v -1.719130 1.240850 -0.068556
v -1.614650 1.441900 -0.134332
v 0.384706 1.877120 -0.079880
v 0.228776 1.919820 -0.084891
v 0.357504 2.008680 -0.156034
v 0.228776 1.919820 -0.084891
v 0.021753 1.906110 -0.058550
v 0.357504 2.008680 -0.156034
v 0.411006 1.472070 -0.006019
v 0.356417 1.598150 -0.022015
v 0.544419 1.565600 -0.150964
v 0.228776 1.919820 -0.084891
v 0.079774 1.817830 -0.000353
v 0.021753 1.906110 -0.058550
v 0.411006 1.472070 -0.006019
v 0.544419 1.565600 -0.150964
v 0.637607 1.487130 -0.151711
v -0.376858 1.895180 -0.018435
v -0.492987 1.869930 0.011827
v -0.406405 2.026870 -0.118562
v -0.266580 2.048720 -0.104142
v -0.376858 1.895180 -0.018435
v -0.406405 2.026870 -0.118562
v 0.021753 1.906110 -0.058550
v -0.092679 1.839500 -0.005519
v 0.015028 1.995190 -0.134261
v -0.266580 2.048720 -0.104142
v -0.249778 1.910500 0.002862
v -0.376858 1.895180 -0.018435
v 0.021753 1.906110 -0.058550
v 0.015028 1.995190 -0.134261
v 0.357504 2.008680 -0.156034
v 0.015028 1.995190 -0.134261
v -0.249778 1.910500 0.002862
v -0.266580 2.048720 -0.104142
v -1.774710 1.172950 -0.049173
v -1.730570 1.095010 0.003356
v -1.821730 0.963541 0.015517
v -0.524916 2.007130 -0.118798
v -0.406405 2.026870 -0.118562
v -0.492987 1.869930 0.011827
v -1.292742 1.563810 -0.010330
v -1.451870 1.581850 -0.124104
v -1.370470 1.636110 -0.073253
v -0.524916 2.007130 -0.118798
v -0.492987 1.869930 0.011827
v -0.650821 1.914930 -0.108304
v -1.269182 1.660470 0.015012
v -1.292742 1.563810 -0.010330
v -1.370470 1.636110 -0.073253
v -1.611560 1.295540 -0.010902
v -1.730570 1.095010 0.003356
v -1.774710 1.172950 -0.049173
v -0.316618 -1.463130 -0.061341
v -0.428259 -1.772040 -0.152298
v -0.444811 -1.449530 0.004105
v -0.213299 -1.579930 -0.025304
v -0.242222 -1.806150 -0.163997
v -0.316618 -1.463130 -0.061341
v -1.454250 1.420810 -0.002790
v -1.611560 1.295540 -0.010902
v -1.555630 1.459080 -0.124343
vn 0.7525 -0.5176 0.4072
vn 0.7479 -0.5511 -0.3700
vn 0.7026 -0.5447 -0.4579
vn 0.8826 0.3862 0.2680
vn 0.9444 0.2439 -0.2205
vn 0.9037 -0.3143 0.2907
vn 0.9578 -0.1649 -0.2356
vn 0.9908 0.0786 -0.1101
vn 0.9116 -0.2907 0.2907
vn 0.7000 -0.2045 -0.6843
vn 0.7568 -0.3626 0.5439
vn 0.8337 -0.3225 0.4483
vn 0.8346 -0.2835 -0.4724
vn 0.8346 -0.2834 -0.4724
vn 0.7242 -0.2204 0.6534
vn 0.7017 -0.3312 -0.6308
vn 0.9035 -0.2828 0.3221
vn 0.6222 -0.3150 -0.7167
vn 0.7145 -0.4868 -0.5025
vn 0.7179 -0.2761 0.6390
vn 0.7164 -0.4566 0.5275
vn 0.6310 -0.5679 -0.5285
vn 0.7784 0.2359 0.5818
vn 0.7726 0.2680 -0.5755
vn 0.7018 -0.3312 0.6308
vn 0.7539 -0.2748 -0.5968
vn 0.7413 -0.2287 -0.6309
vn 0.8770 -0.2212 0.4266
vn 0.7091 -0.2206 0.6697
vn 0.4465 -0.2115 -0.8694
vn 0.5191 -0.1495 -0.8415
vn 0.8022 -0.1337 -0.5820
vn 0.9129 -0.1338 -0.3856
vn 0.7212 -0.0627 -0.6898
vn 0.7212 -0.0627 -0.6899
vn 0.9947 0.0395 0.0947
vn 0.9153 -0.0158 -0.4024
vn 0.7672 0.0316 0.6406
vn 0.7411 0.1498 -0.6544
vn 0.7832 0.1583 0.6012
vn 0.8635 0.1805 -0.4710
vn 0.9596 0.2517 0.1259
vn 0.7637 -0.1732 0.6219
vn 0.8078 0.3216 -0.4940
vn 0.6409 -0.4669 -0.6093
vn 0.5929 -0.5850 -0.5533
vn 0.6693 -0.4803 -0.5669
vn 0.7334 -0.4179 -0.5363
vn 0.7480 0.4409 0.4960
vn 0.8597 -0.5048 0.0788
vn -0.5959 0.7214 -0.3528
vn 0.6981 0.7139 0.0549
vn -0.4884 0.7483 -0.4490
vn -0.4884 0.7483 -0.4489
vn 0.4174 0.8112 0.4095
vn -0.4019 0.7643 0.5043
vn -0.4583 0.6479 -0.6084
vn -0.0000 0.9196 0.3930
vn -0.0000 0.9196 0.3929
vn -0.1892 0.8121 -0.5519
vn -0.2598 0.8423 -0.4723
vn -0.0474 0.7667 -0.6402
vn -0.2981 0.7454 0.5963
vn 0.1813 0.8748 0.4492
vn -0.3148 0.7240 -0.6138
vn -0.2047 0.6220 0.7558
vn 0.0787 0.7243 -0.6849
vn -0.0314 0.7843 0.6196
vn -0.0868 0.8764 -0.4737
vn -0.0158 0.8896 0.4566
vn -0.0552 0.7178 -0.6941
vn -0.1339 0.7956 -0.5908
vn -0.2128 0.7329 0.6462
vn -0.3157 0.6865 -0.6550
vn -0.4333 0.7248 0.5357
vn -0.1577 0.7177 -0.6783
vn 0.2837 -0.4098 0.8669
vn -0.5173 0.5173 0.6818
vn -0.4809 0.5835 0.6544
vn -0.3945 -0.3629 0.8442
vn -0.5501 0.2594 0.7938
vn -0.5501 0.2593 0.7938
vn -0.3711 0.5685 0.7343
vn -0.5978 -0.2202 0.7708
vn 0.4652 0.3864 0.7964
vn 0.2765 -0.6635 0.6952
vn -0.1494 0.6291 0.7628
vn -0.1416 0.6213 0.7707
vn -0.1415 0.6213 0.7707
vn -0.2048 0.5592 0.8034
vn -0.1651 0.5740 0.8020
vn -0.4255 0.2600 0.8668
vn -0.0790 0.5529 0.8295
vn -0.0000 0.5455 0.8381
vn 0.3610 0.4233 0.8310
vn 0.6385 0.0867 0.7647
vn -0.1419 0.5046 0.8516
vn -0.3687 0.4863 0.7922
vn -0.0395 0.5059 0.8617
vn 0.1258 0.4562 0.8809
vn -0.1494 0.4641 0.8731
vn -0.1495 0.4641 0.8731
vn 0.1726 0.3766 0.9101
vn 0.3466 -0.4569 0.8192
vn -0.1495 0.4168 0.8966
vn 0.1185 0.3633 0.9241
vn 0.0474 0.3791 0.9241
vn -0.1102 0.4880 0.8659
vn -0.1102 0.4880 0.8658
vn -0.1102 0.4881 0.8658
vn 0.3554 0.2211 0.9082
vn 0.3528 0.2196 0.9096
vn 0.1736 0.4341 0.8840
vn -0.2444 -0.2129 0.9460
vn -0.6722 -0.1740 0.7196
vn -0.0394 0.6451 0.7631
vn 0.4112 0.0632 0.9094
vn 0.4343 0.0395 0.8999
vn -0.2913 0.6062 0.7401
vn 0.6473 -0.2052 0.7341
vn 0.4503 0.0158 0.8927
vn 0.6368 -0.1572 0.7548
vn 0.4153 0.0392 0.9089
vn 0.6137 -0.3934 0.6845
vn 0.2920 0.1815 0.9390
vn 0.3848 0.0864 0.9189
vn 0.6466 0.0946 0.7570
vn 0.4557 0.1336 0.8800
vn 0.6557 -0.1738 0.7347
vn 0.5671 -0.4569 0.6853
vn 0.5266 -0.2829 0.8017
vn 0.4311 -0.1254 0.8936
vn 0.5170 -0.4230 0.7442
vn 0.3313 -0.3313 0.8835
vn -0.0000 0.3304 0.9439
vn -0.0549 0.1807 0.9820
vn 0.5609 -0.2212 0.7978
vn -0.4560 -0.2909 0.8411
vn 0.3067 -0.5898 0.7471
vn 0.5435 -0.2678 0.7955
vn -0.0000 0.1491 0.9888
vn -0.1491 -0.0313 0.9883
vn -0.3625 -0.0630 0.9299
vn 0.3848 -0.3455 0.8559
vn 0.5756 -0.0946 0.8122
vn 0.6823 -0.1176 0.7215
vn 0.5764 -0.0789 0.8133
vn 0.5764 -0.0790 0.8133
vn 0.4576 -0.5838 0.6706
vn 0.1727 -0.1492 0.9736
vn 0.2211 -0.1501 0.9636
vn 0.2669 -0.2041 0.9419
vn 0.3311 -0.6308 0.7017
vn 0.0078 0.3303 0.9438
vn 0.0079 0.3303 0.9438
vn 0.1648 -0.1020 0.9810
vn 0.3714 0.0869 0.9244
vn 0.6048 -0.0707 0.7933
vn -0.4564 -0.0315 0.8892
vn 0.3067 -0.0158 0.9517
vn 0.4407 -0.0315 0.8971
vn 0.4628 -0.0157 0.8863
vn -0.5915 0.0552 0.8044
vn 0.1730 -0.3303 0.9279
vn -0.0550 -0.1258 0.9905
vn 0.3944 -0.4969 0.7730
vn -0.2996 -0.0236 0.9538
vn -0.3922 0.0628 0.9177
vn -0.6161 0.0947 0.7820
vn -0.3388 0.5594 0.7565
vn -0.1971 -0.6230 0.7570
vn -0.6118 0.1020 0.7844
vn 0.0395 -0.2368 0.9708
vn -0.6397 0.1263 0.7582
vn -0.6397 0.1263 0.7581
vn -0.1499 -0.1420 0.9784
vn 0.0630 -0.2365 0.9696
vn -0.4722 0.1180 0.8736
vn -0.3304 0.6058 0.7238
vn -0.1727 -0.1492 0.9736
vn -0.6140 -0.2754 0.7397
vn -0.6510 0.2981 0.6981
vn -0.4816 0.2842 0.8290
vn -0.4658 0.0316 0.8843
vn -0.5287 0.2446 0.8128
vn -0.0864 0.1100 0.9902
vn -0.4558 0.1336 0.8800
vn 0.0315 -0.4088 0.9121
vn -0.1100 -0.3378 0.9348
vn -0.5993 0.2365 0.7648
vn -0.5218 0.4585 0.7194
vn -0.4090 0.5348 0.7393
vn -0.5918 0.3156 0.7417
vn -0.6627 0.2998 0.6863
vn -0.5817 0.4638 0.6682
vn -0.5580 0.3930 0.7309
vn 0.6155 -0.4498 0.6471
vn -0.3707 -0.3313 0.8676
vn -0.4004 0.1570 0.9028
vn -0.5044 0.3153 0.8039
vn 0.3786 -0.4575 0.8046
vn -0.6546 0.2997 0.6940
vn -0.3132 -0.2505 0.9161
vn 0.5205 0.1735 0.8360
vn -0.2209 -0.3155 0.9229
vn -0.2208 -0.3155 0.9229
vn -0.6682 0.0865 0.7389
vn -0.6305 0.3152 0.7093
vn 0.6287 0.1886 0.7544
vn -0.6283 0.0236 0.7776
vn -0.6370 -0.0078 0.7708
vn 0.0788 -0.5674 0.8196
vn 0.0788 -0.5675 0.8196
vn 0.0788 -0.5674 0.8197
vn -0.1412 -0.5254 0.8391
vn -0.2683 -0.5525 0.7892
vn -0.3947 -0.5920 0.7026
vn 0.1259 -0.6140 0.7792
vn 0.3231 -0.5358 0.7801
vn 0.3944 -0.1893 0.8992
vn 0.1813 -0.6465 0.7411
vn 0.5843 -0.2448 0.7738
vn 0.3621 -0.5116 0.7792
vn 0.3620 -0.5116 0.7792
vn -0.3150 -0.6222 0.7167
vn -0.5540 0.3404 0.7598
vn 0.5332 0.2979 0.7918
vn 0.4247 -0.5112 0.7472
vn 0.5206 -0.3944 0.7572
vn 0.5206 -0.3944 0.7573
vn 0.5669 -0.4803 0.6693
vn 0.5817 -0.4638 0.6682
vn -0.4948 0.4320 0.7540
vn 0.5740 0.5425 0.6134
vn -0.8563 0.2828 -0.4321
vn -0.7636 0.4566 0.4566
vn -0.7546 0.4480 -0.4795
vn -0.8139 0.2212 0.5373
vn -0.8343 0.0157 -0.5510
vn -0.8743 -0.3624 0.3229
vn -0.7837 0.3056 -0.5408
vn -0.7789 0.2125 -0.5900
vn -0.7708 0.5584 -0.3067
vn -0.5929 0.5850 0.5534
vn -0.7570 0.2603 -0.5993
vn -0.7476 0.4329 0.5036
vn -0.7589 0.1187 -0.6402
vn -0.7652 0.0789 0.6390
vn -0.7170 0.1261 -0.6855
vn -0.6935 -0.2208 -0.6857
vn -0.7158 -0.2674 0.6451
vn -0.7640 -0.6064 0.2205
vn -0.9030 -0.2199 -0.3690
vn -0.8962 -0.2201 -0.3852
vn -0.9221 -0.2128 0.3231
vn -0.6921 -0.2517 -0.6764
vn -0.9123 0.0236 -0.4090
vn -0.8892 0.0314 -0.4565
vn -0.7660 0.1185 -0.6318
vn -0.7224 0.1806 -0.6675
vn -0.7411 0.1813 0.6465
vn -0.7224 0.1806 0.6674
vn -0.7224 0.1806 0.6675
vn -0.7475 0.2124 0.6294
vn -0.9448 0.1890 0.2677
vn -0.7393 0.1652 -0.6528
vn -0.7856 0.0864 -0.6127
vn -0.7631 0.0393 0.6451
vn -0.8096 0.2594 0.5266
vn -0.9753 -0.2202 -0.0157
vn -0.8179 0.0393 0.5741
vn -0.6770 0.3936 0.6219
vn -0.9129 0.2282 0.3384
vn -0.7185 0.5369 -0.4422
vn -0.7186 0.1816 0.6712
vn -0.8173 0.0550 -0.5736
vn -0.8341 -0.3699 0.4092
vn -0.7315 0.1337 0.6686
vn -0.7179 0.2761 -0.6390
vn -0.2683 -0.5524 0.7892
vn -0.8843 0.0316 0.4658
vn -0.7857 -0.2672 0.5579
vn -0.7779 -0.4243 -0.4636
vn -0.7561 0.4175 -0.5040
vn -0.6276 0.5099 0.5884
vn -0.6352 0.5097 0.5803
vn -0.6381 0.5120 0.5751
vn 0.4876 -0.6213 -0.6134
vn 0.5505 -0.6134 -0.5662
vn 0.5125 -0.8358 0.1971
vn 0.1896 -0.8059 0.5609
vn 0.4333 -0.7248 -0.5357
vn 0.4503 -0.8689 -0.2054
vn 0.3939 -0.7169 -0.5752
vn -0.2287 -0.8125 0.5363
vn -0.2443 -0.7013 -0.6698
vn 0.5201 -0.6383 -0.5674
vn 0.3862 -0.8827 0.2679
vn -0.3370 -0.7290 0.5958
vn -0.2990 -0.7240 0.6217
vn 0.0078 -0.9658 0.2591
vn 0.2120 -0.6988 0.6832
vn 0.0943 -0.7234 0.6840
vn -0.5275 -0.7401 0.4173
vn -0.3709 -0.7893 0.4893
vn 0.1105 -0.9312 0.3472
vn 0.2908 -0.7937 -0.5344
vn -0.5263 -0.8170 -0.2357
vn 0.1333 -0.8546 -0.5018
vn 0.4408 -0.7085 -0.5511
vn 0.4728 -0.6463 -0.5990
vn 0.4812 -0.6468 0.5916
vn 0.3226 -0.8497 -0.4170
vn 0.1809 -0.9835 0.0079
vn 0.4506 -0.8222 -0.3478
vn 0.4506 -0.8222 -0.3479
vn 0.5907 -0.6301 -0.5041
vn 0.1733 -0.4963 -0.8507
vn -0.4583 0.6479 -0.6085
vn -0.5738 0.4952 -0.6524
vn -0.4803 0.5669 -0.6693
vn -0.6004 0.2765 -0.7504
vn -0.3157 0.6709 -0.6709
vn -0.5435 -0.2678 -0.7955
vn -0.4863 0.3686 -0.7922
vn -0.2352 0.6428 -0.7290
vn -0.2987 0.5739 -0.7625
vn -0.2596 0.6213 -0.7393
vn 0.2509 0.5567 -0.7919
vn 0.4872 0.5894 -0.6444
vn -0.1180 0.6450 -0.7551
vn -0.3152 0.6305 -0.7093
vn 0.1339 0.7007 -0.7008
vn 0.1654 0.6142 -0.7716
vn -0.1420 0.5527 -0.8212
vn -0.3934 0.5666 -0.7240
vn -0.1493 0.4795 -0.8647
vn -0.1024 0.5279 -0.8431
vn -0.0867 0.5044 -0.8591
vn 0.2207 0.6778 -0.7014
vn -0.1262 0.4811 -0.8675
vn -0.1502 0.5611 -0.8140
vn -0.1501 0.5611 -0.8140
vn -0.0707 0.4555 -0.8874
vn 0.0629 0.4557 -0.8879
vn 0.0236 0.4408 -0.8973
vn -0.1339 0.4806 -0.8666
vn -0.2997 0.4733 -0.8283
vn 0.5512 0.2520 -0.7954
vn -0.1499 0.4734 -0.8680
vn 0.4490 0.1418 -0.8822
vn 0.4427 0.1423 -0.8853
vn 0.1815 0.3788 -0.9075
vn -0.5671 -0.4569 -0.6853
vn 0.4323 0.2279 -0.8724
vn 0.1493 0.2435 -0.9583
vn 0.6222 -0.3151 -0.7167
vn 0.2292 0.1818 -0.9563
vn 0.5843 -0.2684 -0.7659
vn 0.0947 0.2526 -0.9629
vn 0.6527 0.0629 -0.7550
vn 0.6532 -0.2676 -0.7083
vn -0.0314 -0.2829 -0.9586
vn 0.4173 -0.0787 -0.9054
vn 0.5282 -0.1892 -0.8278
vn 0.0943 0.2043 -0.9744
vn 0.6749 -0.2983 -0.6749
vn 0.4887 -0.2759 -0.8277
vn 0.4816 -0.2843 -0.8290
vn -0.1815 0.3788 -0.9075
vn -0.6128 -0.0865 -0.7855
vn 0.4464 -0.2115 -0.8695
vn -0.0236 0.1656 -0.9859
vn -0.0237 0.1656 -0.9859
vn 0.1337 0.1180 -0.9840
vn 0.5191 -0.1494 -0.8416
vn 0.1575 -0.0787 -0.9844
vn 0.4154 -0.2900 -0.8622
vn 0.0789 -0.3946 -0.9155
vn 0.6051 -0.0629 -0.7937
vn -0.4566 -0.0079 -0.8896
vn -0.3930 0.3537 -0.8488
vn 0.2355 -0.5731 -0.7850
vn 0.6285 -0.0000 -0.7778
vn 0.3545 -0.3703 -0.8586
vn -0.4570 0.4413 -0.7723
vn -0.2590 0.0314 -0.9654
vn 0.1182 0.0157 -0.9929
vn -0.1655 0.5361 -0.8278
vn -0.1026 0.0394 -0.9939
vn 0.1496 -0.3385 -0.9290
vn -0.5667 0.0944 -0.8185
vn -0.3311 0.1025 -0.9380
vn -0.0551 -0.2992 -0.9526
vn -0.6787 0.1105 -0.7261
vn -0.2757 0.0079 -0.9612
vn -0.1493 -0.2435 -0.9583
vn 0.1816 -0.5760 -0.7970
vn -0.3381 -0.1573 -0.9279
vn 0.5981 0.1023 -0.7949
vn -0.6238 0.1105 -0.7738
vn -0.6397 0.1264 -0.7582
vn -0.5993 0.2602 -0.7570
vn -0.4959 0.6140 -0.6140
vn 0.4170 0.0865 -0.9048
vn -0.6604 0.2516 -0.7076
vn 0.3458 -0.3458 -0.8723
vn -0.0471 -0.2827 -0.9580
vn -0.3859 -0.0472 -0.9213
vn 0.4784 0.1647 -0.8626
vn 0.4783 0.1647 -0.8626
vn -0.5916 0.4102 -0.6941
vn -0.5459 0.1582 -0.8228
vn -0.6531 0.3698 -0.6609
vn -0.5770 0.5533 -0.6008
vn 0.0473 -0.4020 -0.9144
vn 0.0868 -0.5761 -0.8128
vn -0.5566 0.3684 -0.7447
vn -0.5565 0.3684 -0.7447
vn -0.5198 -0.0788 -0.8506
vn -0.6044 0.0785 -0.7928
vn 0.1883 -0.3688 -0.9102
vn -0.5922 0.3317 -0.7344
vn -0.2987 -0.3065 -0.9038
vn 0.1731 -0.3698 -0.9128
vn -0.5753 0.3468 -0.7408
vn -0.6236 0.0237 -0.7814
vn -0.5270 -0.1651 -0.8337
vn 0.0395 -0.6319 -0.7741
vn -0.2676 -0.4957 -0.8262
vn 0.2674 -0.4246 -0.8650
vn -0.1104 -0.5125 -0.8516
vn -0.0708 -0.5588 -0.8263
vn -0.5735 -0.3378 -0.7463
vn -0.0630 -0.5823 -0.8105
vn -0.4426 -0.5137 -0.7350
vn -0.0708 -0.6135 -0.7865
vn 0.1728 -0.5733 -0.8010
vn 0.0236 -0.6454 -0.7634
vn 0.2046 -0.5823 -0.7868
vn -0.0236 -0.6455 -0.7634
vn -0.1969 -0.6144 -0.7640
vn 0.3930 -0.3537 -0.8488
vn 0.1104 -0.6705 -0.7336
vn 0.5757 -0.0946 -0.8122
vn 0.3702 -0.5908 -0.7168
vn 0.6535 0.0394 -0.7559
vn 0.4391 -0.3215 -0.8390
vn -0.3869 0.3870 -0.8370
vn 0.6309 0.3470 -0.6940
vn 0.5125 -0.5992 -0.6150
vt 49.990002 -5.218530
vt 49.969700 -5.233970
vt 50.000900 -5.253940
vt 50.010201 -5.169580
vt 50.007702 -5.182890
vt 50.018299 -5.172920
vt 50.000801 -5.172260
vt 50.000999 -4.858080
vt 50.000900 -4.841210
vt 49.991299 -4.834680
vt 49.986900 -4.803310
vt 49.982101 -4.822660
vt 49.999699 -5.300810
vt 50.001999 -4.717960
vt 49.999100 -4.748700
vt 50.012199 -4.761780
vt 50.000099 -4.867530
vt 50.002399 -4.876330
vt 50.014198 -4.849480
vt 50.005402 -5.116850
vt 49.989498 -5.148540
vt 50.004200 -5.139850
vt 50.015701 -4.836740
vt 49.988300 -4.857640
vt 50.002300 -5.089390
vt 49.995399 -5.072300
vt 49.988800 -5.098740
vt 49.997700 -4.889760
vt 50.008400 -4.898970
vt 50.006401 -4.887740
vt 50.000900 -4.902850
vt 49.999401 -5.150730
vt 49.984501 -5.158270
vt 49.993801 -5.181370
vt 50.011902 -5.025790
vt 50.016899 -5.014540
vt 50.000301 -5.032220
vt 50.002201 -5.058610
vt 49.999100 -5.028040
vt 49.999699 -5.013580
vt 50.019299 -4.895340
vt 49.981300 -4.898430
vt 49.991901 -4.927760
vt 50.000900 -4.918500
vt 49.988899 -4.911100
vt 50.010201 -4.920220
vt 50.001202 -4.913660
vt 50.001202 -4.942280
vt 50.014999 -4.926060
vt 50.010201 -5.068670
vt 49.989101 -4.930480
vt 49.995998 -4.986460
vt 50.011799 -4.972430
vt 50.001099 -4.999050
vt 50.013199 -4.996970
vt 50.012001 -5.116940
vt 50.012798 -5.138790
vt 49.989101 -5.193500
vt 50.003201 -5.197490
vt 50.000099 -5.235670
vt 50.020500 -5.225770
vt 49.984798 -4.770800
vt 49.995800 -4.788870
vt 49.992199 -4.779280
vt 50.030300 -5.212950
vt 49.999599 -4.809330
vt 50.000301 -4.822400
vt 50.015499 -4.802270
vt 50.015499 -4.817610
vt 50.001400 -4.838060
vt 50.008598 -4.844890
vt 50.015301 -4.787940
vt 50.009201 -4.795490
vt 50.020000 -4.809270
vt 49.990101 -4.820900
vt 49.999599 -4.863120
vt 50.147099 -5.008340
vt 50.156601 -5.012490
vt 50.155499 -4.998630
vt 49.885300 -5.013950
vt 49.908798 -5.014650
vt 49.891701 -5.008630
vt 50.141998 -5.001930
vt 50.120998 -5.001580
vt 50.107101 -5.010590
vt 50.135700 -4.995480
vt 49.917099 -4.984540
vt 49.932598 -4.992180
vt 49.952099 -4.987650
vt 50.137600 -4.987260
vt 50.118000 -4.987740
vt 50.133301 -5.015280
vt 50.047001 -4.995660
vt 50.071098 -5.000990
vt 50.050999 -4.985680
vt 50.038601 -5.008670
vt 50.046101 -5.018620
vt 50.063202 -5.010930
vt 50.152100 -4.999150
vt 49.945202 -5.013250
vt 49.967499 -5.015360
vt 49.967899 -4.999300
vt 49.974899 -4.983940
vt 49.990799 -4.990920
vt 50.028702 -4.984960
vt 49.984798 -5.004620
vt 50.084999 -5.002860
vt 50.163700 -4.998430
vt 49.865601 -5.012220
vt 49.860100 -4.999140
vt 49.820099 -4.999990
vt 50.156601 -5.015540
vt 50.164001 -5.016790
vt 50.167400 -5.001080
vt 49.950100 -4.999370
vt 49.935799 -4.989280
vt 49.929699 -5.001240
vt 49.926800 -5.019300
vt 49.921799 -4.990640
vt 49.951199 -4.997690
vt 49.942501 -5.010210
vt 49.948399 -5.014970
vt 50.020802 -5.235670
vt 50.014900 -5.218530
vt 49.996498 -5.253940
vt 49.862400 -4.790640
vt 49.844501 -4.793620
vt 49.846500 -4.810810
vt 49.907299 -4.746570
vt 49.882000 -4.780050
vt 49.897202 -4.770800
vt 49.999401 -5.158270
vt 49.992298 -5.175480
vt 50.000702 -5.181370
vt 49.847900 -4.784770
vt 49.928902 -4.737710
vt 49.926701 -4.762500
vt 49.949001 -4.744310
vt 49.993301 -5.233970
vt 49.974400 -5.231450
vt 49.979599 -5.300810
vt 50.114399 -4.732410
vt 50.098099 -4.725360
vt 50.104301 -4.762190
vt 50.036400 -5.028040
vt 50.016399 -5.026310
vt 50.029202 -5.032220
vt 50.015598 -4.741520
vt 50.009201 -4.733090
vt 49.971298 -4.749290
vt 50.064999 -4.699190
vt 50.032101 -4.717270
vt 50.047901 -4.726220
vt 49.975800 -4.738240
vt 49.952999 -4.740040
vt 49.915001 -4.737940
vt 49.822498 -4.825460
vt 49.810101 -4.857730
vt 49.820202 -4.847300
vt 50.011299 -4.720820
vt 49.993500 -4.718120
vt 50.073502 -4.719900
vt 50.067402 -4.733980
vt 50.113201 -4.772770
vt 50.122700 -4.776180
vt 50.119701 -4.761610
vt 49.976799 -4.725020
vt 50.025101 -4.732360
vt 50.082901 -4.745760
vt 50.104599 -4.771800
vt 50.020901 -5.018000
vt 49.890202 -4.752730
vt 50.044899 -4.741720
vt 50.107800 -4.708370
vt 50.128899 -4.788770
vt 50.111198 -4.781870
vt 50.150200 -4.772340
vt 50.189899 -4.789450
vt 49.996300 -5.135850
vt 49.987499 -5.159720
vt 50.002499 -5.148540
vt 49.836300 -4.794350
vt 50.139900 -4.748700
vt 50.144501 -4.717960
vt 50.089802 -4.878790
vt 50.111000 -4.867530
vt 50.095100 -4.865310
vt 50.111401 -4.876330
vt 50.091202 -4.885620
vt 50.154598 -4.806480
vt 50.110600 -4.803310
vt 50.129101 -4.812460
vt 50.069500 -4.898430
vt 50.087502 -4.889760
vt 50.078201 -4.882490
vt 50.010899 -5.172260
vt 50.015099 -5.150730
vt 50.104698 -4.857640
vt 50.134602 -4.834110
vt 50.117699 -4.834680
vt 50.131001 -4.858080
vt 50.056702 -4.942280
vt 50.055199 -4.927760
vt 50.048901 -4.930480
vt 50.037998 -4.986460
vt 50.039001 -4.999050
vt 50.056301 -4.983920
vt 50.179901 -4.746690
vt 50.008301 -5.049970
vt 49.864300 -4.774580
vt 49.858002 -4.783180
vt 50.088799 -4.913660
vt 50.063599 -4.911100
vt 49.810101 -4.879560
vt 49.982201 -5.181190
vt 50.039501 -5.013580
vt 50.017601 -5.116850
vt 50.003101 -5.098740
vt 50.029900 -4.984520
vt 50.034100 -4.955240
vt 50.123501 -4.841210
vt 50.103001 -4.845190
vt 50.053600 -4.918110
vt 50.011200 -5.197490
vt 49.985001 -5.068240
vt 49.989601 -5.084960
vt 50.016899 -5.072300
vt 50.001900 -5.012310
vt 50.031898 -4.765150
vt 50.019600 -5.000210
vt 50.092999 -4.840360
vt 50.079399 -4.853610
vt 49.982700 -5.129520
vt 49.845501 -4.820900
vt 49.821499 -4.863120
vt 50.093498 -4.805940
vt 50.084801 -4.774250
vt 50.076698 -4.799570
vt 50.064201 -4.891820
vt 50.053101 -4.901080
vt 50.049900 -4.887070
vt 50.082401 -4.800230
vt 50.048801 -4.910240
vt 50.036400 -4.926530
vt 49.989700 -5.202090
vt 50.104301 -4.816160
vt 50.078300 -4.866720
vt 50.025501 -4.951270
vt 50.033298 -4.785800
vt 50.014400 -4.754670
vt 49.965698 -5.224420
vt 50.015301 -4.992590
vt 50.047798 -4.772770
vt 50.071499 -4.793820
vt 50.066002 -4.765360
vt 50.010201 -5.022670
vt 50.116798 -4.822660
vt 49.902100 -4.788870
vt 49.879200 -4.792440
vt 50.006599 -4.761190
vt 49.990700 -4.763100
vt 50.089199 -4.815990
vt 49.901402 -4.779280
vt 49.976200 -4.766260
vt 49.950199 -4.770520
vt 49.924900 -4.775210
vt 49.833401 -4.822570
vt 49.999599 -5.193500
vt 49.876202 -4.804520
vt 49.866299 -4.809330
vt 49.855999 -4.822400
vt 50.009899 -5.139850
vt 49.999001 -4.825460
vt 49.993900 -4.853380
vt 50.002602 -4.857730
vt 49.998901 -4.808760
vt 50.014400 -4.822570
vt 49.983200 -4.819760
vt 50.004398 -4.847300
vt 50.001900 -4.879560
vt 50.016399 -5.231450
vt 50.000702 -5.224420
vt 49.997799 -5.265840
vt 49.987499 -4.801260
vt 50.001598 -4.794350
vt 49.991402 -4.844890
vt 49.997101 -4.737940
vt 49.982899 -4.768810
vt 50.000900 -4.746570
vt 50.015999 -4.810810
vt 49.991699 -4.791410
vt 50.001400 -4.793620
vt 50.000801 -4.784770
vt 50.000900 -4.752730
vt 49.998402 -4.769220
vt 50.012299 -4.780050
vt 49.984501 -4.817610
vt 49.980000 -4.809270
vt 49.980999 -5.221510
vt 50.011700 -5.135850
vt 49.999199 -5.129520
vt 49.997200 -5.148180
vt 49.998901 -5.022670
vt 50.010399 -5.026310
vt 49.998798 -5.012310
vt 49.990700 -5.150710
vt 49.992298 -5.182890
vt 49.981701 -5.172920
vt 49.997101 -5.068240
vt 49.989399 -5.114180
vt 49.998901 -5.084960
vt 49.983101 -5.014540
vt 49.988098 -5.025790
vt 50.000301 -5.300810
vt 49.999500 -4.951270
vt 49.988201 -4.972430
vt 49.999500 -4.992590
vt 50.006599 -5.000210
vt 50.013100 -5.018000
vt 50.009602 -4.955240
vt 50.007401 -4.799570
vt 50.008400 -4.774250
vt 49.999298 -4.793820
vt 50.000500 -5.181190
vt 50.004101 -5.159720
vt 49.992100 -4.800580
vt 49.990002 -4.765360
vt 50.002300 -4.910240
vt 49.998100 -4.901080
vt 49.989799 -4.920220
vt 50.011101 -4.911100
vt 50.010700 -4.891820
vt 50.009602 -5.049970
vt 50.000599 -4.887070
vt 50.018700 -4.898430
vt 50.009399 -4.882490
vt 49.999401 -4.866720
vt 49.998798 -4.879450
vt 49.981701 -4.877230
vt 49.993500 -4.856360
vt 49.985802 -4.849480
vt 50.007301 -4.845190
vt 49.995399 -4.823010
vt 49.995201 -4.840360
vt 49.998901 -4.853610
vt 50.015099 -4.765150
vt 49.999298 -4.770060
vt 49.999401 -4.785800
vt 50.011700 -4.857640
vt 50.017899 -4.822660
vt 50.017300 -4.741520
vt 50.000401 -4.761190
vt 50.011700 -4.754670
vt 50.007599 -4.816160
vt 49.999199 -4.815990
vt 50.010101 -4.805940
vt 49.997200 -4.800230
vt 49.980499 -4.748910
vt 49.979801 -4.773490
vt 49.969700 -5.212950
vt 50.010502 -5.148540
vt 50.015499 -5.158270
vt 50.007500 -5.202090
vt 50.010899 -5.193500
vt 49.996498 -5.000930
vt 50.007500 -5.020500
vt 50.020802 -5.000080
vt 49.981800 -5.002250
vt 50.087502 -4.997660
vt 50.111401 -5.002360
vt 50.091202 -4.989780
vt 50.063599 -4.988860
vt 50.067699 -5.000870
vt 50.088799 -5.001200
vt 50.087299 -5.006420
vt 50.090099 -5.018310
vt 50.123501 -5.000940
vt 50.110401 -5.015690
vt 50.134602 -5.002240
vt 50.078201 -4.990640
vt 50.081001 -5.011270
vt 50.082401 -5.002750
vt 50.076401 -5.007880
vt 50.096401 -5.020150
vt 50.111198 -4.983730
vt 50.076698 -4.992560
vt 50.097599 -5.004600
vt 50.104301 -4.992390
vt 50.089199 -5.000750
vt 50.026199 -5.000690
vt 50.014400 -4.988270
vt 50.006599 -4.999640
vt 49.888699 -5.008350
vt 49.879200 -4.998120
vt 49.866501 -5.009160
vt 49.926701 -4.982960
vt 49.901402 -4.992220
vt 49.950199 -4.998380
vt 49.971298 -4.984960
vt 49.990700 -5.002300
vt 50.015598 -4.982730
vt 50.031898 -4.984900
vt 50.071499 -5.000730
vt 49.902100 -4.995800
vt 49.876202 -5.001290
vt 49.866299 -4.999590
vt 49.856300 -5.015510
vt 49.956501 -5.013540
vt 49.976200 -4.998520
vt 49.927101 -5.020000
vt 49.953899 -5.018620
vt 49.924900 -5.008660
vt 49.855999 -5.000350
vt 49.843399 -5.015540
vt 49.849098 -5.019960
vt 49.845501 -4.990080
vt 49.836399 -5.001360
vt 49.816002 -5.006150
vt 49.822899 -5.008570
vt 50.003502 -5.212950
vt 49.992500 -5.225770
vt 50.018200 -5.265840
vt 50.133301 -4.787940
vt 50.107101 -4.764880
vt 50.101700 -4.768810
vt 50.120998 -4.769220
vt 50.109798 -4.752730
vt 50.152100 -4.784770
vt 50.147099 -4.791410
vt 50.177101 -4.844890
vt 50.183998 -4.853380
vt 50.177502 -4.825460
vt 50.092701 -4.746570
vt 50.015701 -5.221510
vt 50.143700 -4.802270
vt 50.063202 -4.748020
vt 50.046101 -4.749360
vt 50.072899 -4.765020
vt 50.023201 -4.725020
vt 50.006500 -4.718120
vt 50.038601 -4.740850
vt 49.926498 -4.719900
vt 49.917500 -4.748910
vt 49.945202 -4.727410
vt 49.880901 -4.802540
vt 49.882500 -4.814110
vt 49.894100 -4.804300
vt 50.071098 -4.737710
vt 49.984798 -4.729050
vt 49.975498 -4.738850
vt 49.995499 -4.743910
vt 50.027802 -4.749110
vt 49.988701 -4.720820
vt 49.967499 -4.730630
vt 50.084999 -4.737940
vt 49.967899 -4.717270
vt 49.845402 -4.806480
vt 50.156601 -4.801260
vt 50.150902 -4.809270
vt 50.013000 -4.746640
vt 49.908798 -4.737790
vt 49.935001 -4.699190
vt 49.868999 -4.858080
vt 49.891899 -4.849480
vt 49.876499 -4.841210
vt 49.892200 -4.708370
vt 49.891701 -4.755000
vt 49.885601 -4.732410
vt 49.849800 -4.772340
vt 49.810101 -4.789450
vt 49.886200 -4.791580
vt 49.977299 -5.014540
vt 49.989799 -5.022670
vt 49.998100 -5.012310
vt 49.903599 -4.773490
vt 49.885300 -4.760780
vt 49.885601 -4.774550
vt 49.963600 -5.028040
vt 49.970798 -5.032220
vt 49.888599 -4.876330
vt 49.909901 -4.877230
vt 49.865601 -4.761780
vt 49.912701 -4.887740
vt 49.926800 -4.895340
vt 49.918999 -4.880830
vt 49.976398 -5.058610
vt 49.985500 -5.033350
vt 49.978199 -5.025790
vt 49.982399 -5.116850
vt 49.990101 -5.139850
vt 49.994301 -5.116940
vt 50.001701 -5.138790
vt 49.855499 -4.717960
vt 49.932301 -4.918500
vt 49.943298 -4.942280
vt 49.942501 -4.920220
vt 49.889599 -4.836740
vt 49.865398 -4.834110
vt 50.006901 -5.114180
vt 50.012100 -5.148180
vt 50.017300 -5.129520
vt 49.960999 -4.999050
vt 49.969299 -4.972430
vt 49.943699 -4.983920
vt 49.960300 -4.750600
vt 50.003502 -5.253940
vt 50.020401 -5.300810
vt 49.911201 -4.913660
vt 49.921700 -4.898970
vt 49.984901 -5.150730
vt 49.989101 -5.172260
vt 50.001801 -5.182890
vt 50.017799 -5.181190
vt 49.889000 -4.867530
vt 49.986301 -5.068670
vt 49.820099 -4.746690
vt 49.917599 -4.800230
vt 50.008801 -5.150710
vt 49.920601 -4.853610
vt 49.901699 -4.856360
vt 49.999599 -5.172920
vt 50.014999 -5.068240
vt 50.111301 -4.795100
vt 49.972000 -4.996970
vt 49.984699 -4.992590
vt 49.907001 -4.840360
vt 49.959499 -4.761740
vt 49.966702 -4.785800
vt 49.973801 -4.770060
vt 49.993099 -5.169580
vt 49.950100 -4.887070
vt 49.923599 -4.800580
vt 49.914101 -4.765360
vt 49.963600 -4.926530
vt 49.974499 -4.951270
vt 49.929699 -4.879450
vt 49.988800 -5.197490
vt 49.948399 -4.926060
vt 49.952202 -4.772770
vt 49.928501 -4.793820
vt 49.933601 -4.760020
vt 49.986099 -5.089390
vt 49.921700 -4.866720
vt 49.902401 -4.823010
vt 49.951199 -4.910240
vt 50.043499 -4.760630
vt 50.075100 -4.775210
vt 49.910801 -4.815990
vt 50.133499 -4.795490
vt 49.993401 -4.761190
vt 50.156601 -4.817610
vt 50.164001 -4.819760
vt 50.009300 -4.763100
vt 50.023800 -4.766260
vt 50.178501 -4.863120
vt 50.189899 -4.879560
vt 50.123798 -4.804520
vt 50.120800 -4.792440
vt 50.163601 -4.838060
vt 50.144001 -4.822400
s 1
usemtl Meshpart1Mtl.001
f 1/1/1 2/2/1 3/3/1
f 4/4/2 5/5/2 6/6/2
f 7/7/3 8/5/3 9/4/3
f 10/8/4 11/9/4 12/10/4
f 13/11/5 14/12/5 15/10/5
f 16/3/6 17/2/6 18/13/6
f 19/14/7 20/15/7 21/16/7
f 22/17/8 23/18/8 24/19/8
f 25/20/9 26/21/9 27/22/9
f 28/9/10 29/19/10 30/23/10
f 31/24/11 32/10/11 33/12/11
f 34/25/12 35/26/12 36/27/12
f 37/28/13 38/29/14 39/30/13
f 38/29/14 37/28/13 40/31/14
f 41/32/15 42/33/15 43/34/15
f 44/35/16 45/36/16 46/37/16
f 47/26/17 48/25/17 49/38/17
f 51/39/18 50/36/18 52/40/18
f 53/29/19 54/41/19 55/30/19
f 56/28/20 57/42/20 58/31/20
f 59/43/21 60/44/21 61/45/21
f 62/46/22 63/41/22 64/29/22
f 62/46/22 64/29/22 65/44/22
f 66/42/23 67/47/23 68/31/23
f 69/29/24 70/31/24 71/47/24
f 72/44/25 73/43/25 74/48/25
f 75/46/26 76/48/26 77/49/26
f 78/25/27 79/50/27 80/38/27
f 81/37/28 82/26/28 83/38/28
f 84/48/29 85/51/29 86/52/29
f 88/53/30 87/54/30 89/55/30
f 90/48/31 91/53/31 92/49/31
f 93/35/32 94/37/32 95/38/32
f 96/25/33 97/56/33 98/50/33
f 99/36/34 100/54/35 101/40/35
f 100/54/35 99/36/34 102/55/35
f 103/52/36 104/40/36 105/54/36
f 106/4/37 107/22/37 108/7/37
f 109/25/38 110/27/38 111/20/38
f 112/57/39 113/4/39 114/6/39
f 115/34/40 116/58/40 117/59/40
f 118/59/41 119/60/41 120/61/41
f 121/1/42 122/60/42 123/59/42
f 124/62/43 125/63/43 126/64/43
f 127/5/44 128/61/44 129/65/44
f 130/66/45 131/67/45 132/68/45
f 133/69/46 134/70/46 135/71/46
f 136/72/47 137/73/47 138/68/47
f 139/67/48 140/74/48 141/68/48
f 142/59/49 143/58/49 144/1/49
f 145/75/50 146/76/50 147/70/50
f 148/77/51 149/78/51 150/79/51
f 151/80/52 152/81/52 153/82/52
f 154/83/53 155/84/53 156/85/54
f 155/84/53 154/83/53 157/86/53
f 158/87/55 159/88/55 160/89/55
f 161/83/56 162/90/56 163/91/56
f 165/85/57 164/92/57 166/83/57
f 167/93/58 168/94/59 169/95/59
f 170/96/60 171/97/60 172/98/60
f 173/99/61 174/83/61 175/92/61
f 176/100/62 177/101/62 178/102/62
f 179/103/63 180/102/63 181/104/63
f 182/93/64 183/95/64 184/105/64
f 185/102/65 186/101/65 187/106/65
f 190/103/66 189/89/66 188/102/66
f 191/107/67 192/94/67 193/98/67
f 194/84/68 195/86/68 196/91/68
f 197/79/69 198/78/69 199/108/69
f 200/90/70 201/83/70 202/99/70
f 203/109/71 204/110/71 205/111/71
f 206/112/72 207/113/72 208/114/72
f 209/115/73 210/116/73 211/117/73
f 212/115/74 213/117/74 214/118/74
f 215/116/75 216/119/75 217/117/75
f 218/120/76 219/121/76 220/122/76
f 221/123/77 222/124/77 223/125/77
f 224/126/78 225/127/78 226/128/78
f 227/129/79 228/130/79 229/131/79
f 230/132/80 231/133/80 232/134/80
f 233/126/81 234/135/82 235/127/82
f 236/136/83 237/137/83 238/138/83
f 239/139/84 240/140/84 241/141/84
f 242/142/85 243/143/85 244/144/85
f 245/145/86 246/146/86 247/147/86
f 248/148/87 249/149/87 250/150/87
f 251/151/66 252/152/66 253/153/66
f 254/149/88 255/154/88 256/150/88
f 257/154/89 258/155/89 259/150/89
f 260/137/90 261/129/90 262/131/90
f 263/137/91 264/156/91 265/129/91
f 264/156/91 263/137/91 266/136/91
f 267/157/92 268/158/92 269/159/92
f 270/152/93 271/160/93 272/149/93
f 273/160/94 274/161/94 275/149/94
f 276/162/95 277/153/95 278/163/95
f 279/164/96 280/165/96 281/166/96
f 282/155/97 283/167/97 284/136/97
f 285/154/97 286/167/97 287/155/97
f 288/148/98 289/168/98 290/149/98
f 291/169/99 292/143/99 293/163/99
f 294/166/100 295/170/100 296/164/100
f 297/161/101 298/154/102 299/149/101
f 298/154/102 297/161/101 300/167/102
f 301/169/103 302/144/103 303/143/103
f 304/145/104 305/171/104 306/146/104
f 307/129/105 308/172/105 309/130/105
f 310/173/106 311/169/106 312/153/106
f 313/153/107 314/168/107 315/173/107
f 316/174/108 317/162/109 318/143/108
f 319/163/110 318/143/108 317/162/109
f 320/175/111 321/165/111 322/176/111
f 323/165/112 324/175/112 325/177/112
f 326/178/113 327/177/113 328/175/113
f 329/179/114 330/180/114 331/181/114
f 332/180/115 333/133/115 334/132/115
f 335/128/116 336/127/116 337/182/116
f 338/166/117 339/144/117 340/170/117
f 341/165/118 342/183/118 343/166/118
f 344/142/119 345/144/119 346/184/119
f 347/185/120 348/186/120 349/187/120
f 350/183/121 351/184/121 352/166/121
f 353/185/122 354/188/122 355/186/122
f 356/166/123 357/184/123 358/144/123
f 359/185/124 360/189/124 361/188/124
f 362/190/125 363/191/125 364/192/125
f 365/142/126 366/174/126 367/143/126
f 368/193/127 369/194/127 370/195/127
f 371/162/128 372/151/128 373/153/128
f 374/134/129 375/196/129 376/197/129
f 377/186/130 378/198/130 379/187/130
f 380/199/131 381/192/131 382/200/131
f 383/201/132 384/200/132 385/198/132
f 386/202/133 387/203/133 388/204/133
f 389/205/134 390/206/134 391/207/134
f 392/165/135 393/208/135 394/183/135
f 395/173/136 396/168/136 397/148/136
f 398/147/137 399/146/137 400/209/137
f 401/130/138 402/210/138 403/211/138
f 404/212/139 405/193/139 406/213/139
f 407/164/140 408/176/140 409/165/140
f 410/138/141 411/137/141 412/150/141
f 413/214/142 414/159/142 415/158/142
f 416/180/143 417/215/143 418/133/143
f 419/199/144 420/190/144 421/192/144
f 422/171/145 423/145/145 424/216/145
f 425/217/146 426/218/146 427/179/146
f 428/219/147 429/171/147 430/216/147
f 431/219/148 432/216/148 433/205/148
f 434/220/147 435/219/147 436/205/147
f 437/221/149 438/199/149 439/200/149
f 440/204/150 441/220/150 442/205/150
f 443/175/151 444/176/151 445/191/151
f 446/190/152 447/175/152 448/191/152
f 449/186/153 450/201/153 451/198/153
f 452/198/154 453/222/155 454/187/155
f 455/192/156 456/191/156 457/200/156
f 458/223/157 459/204/157 460/203/157
f 461/196/158 462/134/158 463/224/158
f 464/209/159 465/225/159 466/226/159
f 467/202/160 468/205/160 469/207/160
f 470/227/161 471/147/161 472/209/161
f 473/209/162 474/218/162 475/227/162
f 476/228/163 477/146/163 478/171/163
f 479/190/164 480/178/164 481/175/164
f 482/229/165 483/173/165 484/148/165
f 485/165/166 486/177/166 487/208/166
f 488/213/167 489/223/167 490/203/167
f 491/219/168 492/220/168 493/230/168
f 494/209/169 495/226/169 496/218/169
f 497/187/170 498/231/170 499/232/170
f 500/189/171 501/185/171 502/195/171
f 503/226/172 504/233/172 505/218/172
f 506/234/173 507/159/173 508/235/173
f 509/218/174 510/233/175 511/179/174
f 512/191/176 513/176/176 514/236/176
f 515/237/177 516/169/177 517/173/177
f 518/170/178 519/237/178 520/238/178
f 521/193/179 522/195/179 523/239/179
f 524/176/180 525/164/180 526/238/180
f 527/240/181 528/239/181 529/241/181
f 530/236/182 531/176/182 532/242/182
f 533/213/183 534/243/183 535/223/183
f 536/170/184 537/144/184 538/237/184
f 539/244/185 540/223/185 541/243/185
f 542/133/186 543/245/186 544/134/186
f 545/133/187 546/215/187 547/245/187
f 548/170/188 549/238/188 550/164/188
f 551/191/189 552/236/189 553/246/189
f 554/171/190 555/219/190 556/230/190
f 557/185/191 558/247/191 559/195/191
f 560/243/192 561/213/192 562/240/192
f 563/244/193 564/220/193 565/204/193
f 566/220/194 567/244/194 568/248/194
f 569/231/195 570/187/195 571/222/195
f 572/204/196 573/223/196 574/244/196
f 575/249/197 576/173/197 577/229/197
f 578/229/198 579/148/198 580/250/198
f 581/215/199 582/251/199 583/245/199
f 584/252/200 585/228/200 586/171/200
f 587/173/201 588/249/201 589/253/201
f 590/185/202 591/187/202 592/247/202
f 593/237/203 594/144/203 595/169/203
f 596/217/204 597/179/204 598/181/204
f 599/254/205 600/255/206 601/253/205
f 600/255/206 599/254/205 602/237/205
f 603/247/207 604/187/207 605/232/207
f 606/256/208 607/225/208 608/209/208
f 609/132/209 610/197/209 611/181/209
f 612/257/210 613/246/210 614/222/210
f 615/191/211 616/246/211 617/257/211
f 618/258/212 619/130/212 620/259/213
f 619/130/212 618/258/212 621/131/214
f 622/253/215 623/255/215 624/173/215
f 626/260/216 625/148/216 627/261/216
f 628/246/217 629/236/217 630/262/217
f 631/131/218 632/263/218 633/137/218
f 634/150/219 635/264/219 636/261/219
f 637/235/220 638/159/220 639/214/220
f 640/265/221 641/264/221 642/150/221
f 642/150/221 643/137/221 640/265/221
f 644/263/222 645/258/222 646/266/222
f 647/234/223 648/267/223 649/159/223
f 650/234/224 651/128/224 652/267/224
f 653/237/225 654/173/225 655/255/225
f 656/245/226 657/268/226 658/134/226
f 659/268/227 660/139/227 661/124/227
f 662/126/228 663/259/228 664/130/228
f 663/259/228 662/126/228 665/269/228
f 666/128/229 667/270/230 668/126/229
f 669/269/230 668/126/229 667/270/230
f 670/270/231 671/128/231 672/271/231
f 673/234/232 674/271/232 675/128/232
f 676/139/233 677/268/233 678/140/233
f 679/197/234 680/272/234 681/181/234
f 682/273/235 683/274/235 684/275/235
f 685/276/236 686/273/236 687/277/236
f 688/273/237 689/276/237 690/278/237
f 691/273/238 692/279/238 693/277/238
f 694/275/239 695/274/239 696/280/239
f 697/281/240 698/282/240 699/283/240
f 700/284/241 701/276/241 702/285/241
f 703/278/242 704/286/242 705/273/242
f 706/287/243 707/288/243 708/289/243
f 709/276/244 710/277/244 711/290/244
f 712/291/245 713/292/245 714/293/245
f 715/294/246 716/295/246 717/296/246
f 718/284/247 719/297/247 720/276/247
f 721/285/248 722/276/248 723/290/248
f 724/284/249 725/298/249 726/297/249
f 727/282/250 728/299/250 729/283/250
f 730/300/251 731/301/251 732/302/251
f 733/303/252 734/304/252 735/305/252
f 736/306/253 737/307/253 738/302/253
f 739/306/254 740/308/254 741/307/254
f 742/309/255 743/310/255 744/311/255
f 745/312/256 746/313/256 747/303/256
f 748/314/257 749/281/257 750/283/257
f 751/310/258 752/306/258 753/302/258
f 754/311/259 755/310/259 756/301/259
f 757/315/260 758/316/260 759/317/260
f 760/318/261 761/317/261 762/319/261
f 763/318/262 764/320/263 765/317/263
f 766/315/262 765/317/263 764/320/263
f 767/321/264 768/322/264 769/323/264
f 770/302/265 771/324/265 772/325/265
f 773/326/266 774/323/266 775/327/266
f 776/328/267 777/329/267 778/330/267
f 779/329/268 780/331/268 781/332/268
f 782/304/269 783/303/269 784/333/269
f 785/334/270 786/330/270 787/329/270
f 788/331/271 789/335/271 790/332/271
f 791/336/272 792/337/272 793/338/272
f 794/300/273 795/302/273 796/325/273
f 797/339/274 798/340/274 799/341/274
f 800/342/275 801/343/275 802/344/275
f 803/339/276 804/337/276 805/345/276
f 806/346/277 807/347/277 808/348/277
f 809/349/278 810/350/278 811/342/278
f 812/282/279 813/324/279 814/299/279
f 815/351/280 816/352/280 817/353/216
f 818/342/281 819/354/281 820/343/281
f 821/355/282 822/356/282 823/357/282
f 824/327/283 825/358/283 826/359/283
f 827/307/284 828/360/284 829/299/284
f 830/361/285 831/325/285 832/362/285
f 833/282/286 834/281/286 835/363/286
f 836/363/287 837/281/287 838/364/287
f 839/365/288 840/366/288 841/367/288
f 842/368/289 843/366/289 844/365/289
f 845/369/290 846/370/290 847/371/290
f 848/372/291 849/373/291 850/374/291
f 851/370/292 852/375/292 853/376/292
f 854/369/293 855/375/293 856/370/293
f 857/377/294 858/378/294 859/379/294
f 860/369/295 861/371/295 862/380/295
f 863/375/296 864/381/296 865/376/296
f 866/382/297 867/383/297 868/384/297
f 869/382/298 870/385/298 871/386/298
f 872/387/299 873/388/299 874/389/299
f 875/390/300 876/391/300 877/392/300
f 878/393/301 879/394/301 880/395/301
f 881/396/302 882/397/302 883/398/302
f 884/399/303 885/400/303 886/401/303
f 887/402/304 888/391/304 889/390/304
f 890/382/305 891/403/305 892/383/305
f 893/404/306 894/394/306 895/393/306
f 896/405/307 897/406/307 898/407/307
f 899/382/308 900/386/308 901/403/308
f 902/408/309 903/409/309 904/398/309
f 905/410/310 906/411/310 907/412/310
f 908/413/311 909/414/311 910/415/311
f 911/413/312 912/416/312 913/417/312
f 914/408/313 915/398/313 916/412/313
f 917/412/314 918/398/314 919/397/314
f 920/393/315 921/412/316 922/404/315
f 920/393/315 923/410/316 921/412/316
f 924/417/317 925/418/317 926/419/317
f 927/420/318 928/421/318 929/422/318
f 930/423/319 931/424/319 932/425/319
f 933/424/320 934/426/320 935/427/320
f 936/428/321 937/423/321 938/429/321
f 939/430/322 940/431/322 941/432/322
f 942/424/323 943/433/323 944/425/323
f 945/434/324 946/420/324 947/422/324
f 948/423/325 949/435/325 950/429/325
f 951/433/326 952/424/326 953/427/326
f 954/436/327 955/437/327 956/438/327
f 957/439/328 958/440/328 959/441/328
f 960/442/329 961/443/329 962/444/329
f 963/445/330 964/446/330 965/447/330
f 966/436/331 967/448/331 968/441/331
f 969/449/332 970/450/332 971/451/332
f 972/437/333 973/441/333 974/452/333
f 975/453/334 976/449/334 977/440/334
f 978/448/335 979/439/335 980/441/335
f 981/449/336 982/454/336 983/450/336
f 984/438/337 985/425/337 986/455/337
f 987/456/338 988/449/338 989/453/338
f 990/436/339 991/438/339 992/455/339
f 993/446/340 994/445/340 995/457/340
f 996/440/341 997/452/341 998/441/341
f 999/458/342 1000/435/343 1001/459/343
f 1000/435/343 999/458/342 1002/429/342
f 1003/440/344 1004/460/344 1005/452/344
f 1006/440/345 1007/449/345 1008/451/345
f 1009/440/346 1010/451/346 1011/460/346
f 1012/461/347 1013/443/347 1014/442/347
f 1015/456/348 1016/462/348 1017/444/348
f 1018/463/349 1019/464/349 1020/465/349
f 1021/461/350 1022/442/350 1023/466/350
f 1024/467/351 1025/461/351 1026/466/351
f 1027/466/352 1028/468/352 1029/467/352
f 1030/469/353 1031/470/353 1032/471/353
f 1033/472/354 1034/473/354 1035/474/354
f 1036/442/355 1037/444/355 1038/462/355
f 1039/475/356 1040/476/356 1041/477/356
f 1042/472/357 1043/478/357 1044/479/357
f 1045/475/358 1046/443/358 1047/476/358
f 1046/443/358 1048/461/358 1047/476/358
f 1049/464/359 1050/480/359 1051/481/359
f 1052/482/360 1053/477/360 1054/476/360
f 1055/483/361 1056/484/361 1057/485/361
f 1058/445/362 1059/447/362 1060/471/362
f 1061/486/363 1062/487/363 1063/488/363
f 1064/471/364 1065/477/364 1066/469/364
f 1067/489/365 1068/490/365 1069/491/365
f 1068/490/365 1070/492/365 1069/491/365
f 1071/482/366 1072/476/366 1073/493/366
f 1074/494/367 1075/495/367 1076/496/367
f 1077/497/368 1078/446/368 1079/498/368
f 1080/498/369 1081/446/369 1082/457/369
f 1083/476/370 1084/468/370 1085/493/370
f 1086/499/371 1087/500/371 1088/501/371
f 1089/502/372 1090/503/372 1091/504/372
f 1092/454/373 1093/444/374 1094/505/374
f 1093/444/374 1095/443/374 1094/505/374
f 1096/505/375 1097/450/375 1098/454/375
f 1099/495/376 1100/504/376 1101/503/376
f 1102/422/377 1103/506/377 1104/507/377
f 1105/469/378 1106/477/378 1107/482/378
f 1108/508/379 1109/494/379 1110/509/379
f 1111/490/380 1112/510/380 1113/511/380
f 1114/512/381 1115/513/381 1116/500/381
f 1117/468/382 1118/476/382 1119/467/382
f 1120/463/383 1121/514/383 1122/464/383
f 1123/486/384 1124/515/384 1125/487/384
f 1126/469/385 1127/482/385 1128/516/385
f 1129/447/386 1130/517/386 1131/471/386
f 1132/491/387 1133/492/387 1134/499/387
f 1135/518/387 1134/499/387 1133/492/387
f 1136/487/388 1137/515/388 1138/491/388
f 1139/481/389 1140/519/389 1141/520/389
f 1142/487/390 1143/491/390 1144/499/390
f 1145/457/391 1146/445/391 1147/470/391
f 1148/492/392 1149/521/392 1150/518/392
f 1151/487/393 1152/499/393 1153/522/393
f 1154/425/394 1155/438/394 1156/523/394
f 1157/503/395 1158/524/395 1159/525/395
f 1160/519/396 1161/526/396 1162/520/396
f 1163/450/397 1164/505/397 1165/451/397
f 1166/445/398 1167/471/398 1168/470/398
f 1169/527/399 1170/528/399 1171/529/399
f 1172/490/400 1173/530/400 1174/492/400
f 1175/484/401 1176/496/401 1177/531/401
f 1178/475/402 1179/532/402 1180/533/402
f 1181/534/403 1182/503/403 1183/535/403
f 1184/484/404 1185/536/404 1186/485/404
f 1187/512/405 1188/511/405 1189/537/405
f 1190/534/406 1191/538/406 1192/503/406
f 1193/539/407 1194/528/407 1195/527/407
f 1196/540/408 1197/541/408 1198/533/408
f 1199/471/409 1200/517/409 1201/477/409
f 1202/542/410 1203/489/410 1204/491/411
f 1205/485/412 1206/536/412 1207/543/412
f 1208/526/413 1209/544/413 1210/497/413
f 1211/485/414 1212/543/414 1213/481/414
f 1214/545/415 1215/538/415 1216/534/415
f 1217/437/416 1218/546/416 1219/547/416
f 1220/517/417 1221/475/417 1222/477/417
f 1223/472/418 1224/525/418 1225/524/418
f 1224/525/418 1223/472/418 1226/474/419
f 1227/526/420 1228/497/420 1229/520/420
f 1230/497/421 1231/544/421 1232/446/421
f 1233/452/422 1234/546/422 1235/437/422
f 1236/473/423 1237/488/423 1238/487/423
f 1239/541/424 1240/540/424 1241/539/424
f 1242/523/425 1243/423/425 1244/425/425
f 1245/487/426 1246/522/426 1247/473/426
f 1248/464/427 1249/520/427 1250/497/427
f 1251/548/428 1252/446/428 1253/544/428
f 1254/549/429 1255/423/429 1256/523/429
f 1257/550/430 1258/505/430 1259/529/430
f 1260/551/431 1261/430/431 1262/552/431
f 1263/533/432 1264/541/432 1265/443/432
f 1266/541/433 1267/527/433 1268/443/433
f 1269/548/434 1270/517/434 1271/447/434
f 1272/541/435 1273/539/435 1274/527/435
f 1275/548/436 1276/447/436 1277/446/436
f 1278/553/437 1279/554/437 1280/460/437
f 1281/451/438 1282/553/438 1283/460/438
f 1284/527/439 1285/529/439 1286/505/439
f 1287/451/440 1288/550/440 1289/553/440
f 1290/527/441 1291/505/441 1292/443/441
f 1293/505/442 1294/550/442 1295/451/442
f 1296/431/443 1297/555/443 1298/556/443
f 1299/452/444 1300/460/444 1301/554/444
f 1302/557/445 1303/435/445 1304/549/445
f 1305/452/446 1306/554/446 1307/546/446
f 1308/558/447 1309/557/447 1310/549/447
f 1311/559/448 1312/555/448 1313/431/448
f 1314/512/449 1315/434/449 1316/513/449
f 1317/537/450 1318/421/450 1319/512/450
f 1320/560/451 1321/559/451 1322/551/451
