# Blender 5.0.1
# www.blender.org
mtllib notwip.mtl
o WIP
v -0.062524 -1.368177 -0.019172
v 0.000000 0.119750 0.043352
v -0.062524 0.119750 -0.019172
v 0.000000 -1.368177 0.043352
v -0.062524 -1.368177 -0.019172
v -0.062524 0.119750 -0.019172
v -0.000000 -1.368177 -0.081696
v -0.000000 0.119750 -0.081696
v -0.000000 -1.368177 -0.081696
v -0.000000 0.119750 -0.081696
v 0.062524 -1.368177 -0.019172
v 0.062524 0.119750 -0.019172
v 0.000000 0.119750 0.043352
v 0.000000 -1.368177 0.043352
v 0.062524 0.119750 -0.019172
v 0.062524 -1.368177 -0.019172
v -0.512475 0.834527 -0.075596
v -0.568062 0.824866 -0.019172
v -0.507334 0.969832 -0.075596
v -0.561955 0.983979 -0.019172
v -0.436819 1.191376 -0.062134
v -0.435720 1.402215 -0.019172
v -0.402540 1.403286 -0.052368
v -0.397939 1.431146 -0.052368
v -0.512475 0.834527 0.037253
v -0.568062 0.824866 -0.019172
v -0.507334 0.969832 0.037253
v -0.561955 0.983979 -0.019172
v -0.436819 1.191376 0.023791
v -0.435720 1.402215 -0.019172
v -0.402540 1.403286 0.014025
v -0.397939 1.431146 0.014025
v -0.037460 1.632551 -0.019172
v 0.000000 0.142325 0.068372
v 0.000000 1.632551 0.018289
v -0.087544 0.142325 -0.019172
v 0.456881 0.844188 -0.019172
v 0.512475 0.834527 0.037253
v 0.452714 0.955685 -0.019172
v 0.507335 0.969832 0.037253
v 0.394406 1.184516 -0.019172
v 0.402540 1.403286 0.014025
v 0.369361 1.404358 -0.019172
v 0.397939 1.431146 0.014025
v 0.366349 1.432218 -0.019172
v 0.456881 0.844188 -0.019172
v 0.512475 0.834527 -0.075596
v 0.452714 0.955685 -0.019172
v 0.507335 0.969832 -0.075596
v 0.394406 1.184516 -0.019172
v 0.402540 1.403286 -0.052368
v 0.369361 1.404358 -0.019172
v 0.397939 1.431146 -0.052368
v 0.366349 1.432218 -0.019172
v 0.397939 1.431146 -0.052368
v 0.366349 1.432218 -0.019172
v 0.368433 1.794953 -0.019172
v 0.366349 1.432218 -0.019172
v 0.397939 1.431146 0.014025
v 0.368433 1.794953 -0.019172
v -0.000000 -1.368300 -0.081696
v -0.000000 -1.398391 -0.100117
v -0.062524 -1.368300 -0.019172
v 0.000000 -1.398391 0.061774
v 0.000000 -1.368300 0.043352
v -0.080945 -1.398391 -0.019172
v -0.000000 -1.984120 -0.100117
v -0.080946 -1.984120 -0.019172
v 0.000000 -1.984120 0.061774
v -0.063507 -2.015643 -0.019172
v -0.000000 -2.015643 -0.082679
v 0.000000 -2.015643 0.044335
v 0.115977 0.545262 0.054735
v 0.158963 0.616398 -0.019172
v 0.158963 0.550995 0.046233
v 0.233365 0.620376 -0.019172
v 0.253531 0.558159 0.046233
v 0.115977 0.545262 -0.093079
v 0.158963 0.616398 -0.019172
v 0.158963 0.550995 -0.084576
v 0.233365 0.620376 -0.019172
v 0.253531 0.558159 -0.084576
v -0.115977 0.545262 0.054735
v -0.158963 0.616398 -0.019172
v -0.158963 0.550995 0.046233
v -0.233365 0.620376 -0.019172
v -0.253531 0.558159 0.046233
v -0.115977 0.545262 -0.093079
v -0.158963 0.616398 -0.019172
v -0.158963 0.550995 -0.084576
v -0.233365 0.620376 -0.019172
v -0.253531 0.558159 -0.084576
v -0.000000 1.664060 -0.128899
v -0.149792 1.597726 -0.019172
v -0.000000 2.015643 -0.019172
v 0.149793 1.597726 -0.019172
v -0.000000 1.664060 -0.128899
v -0.000000 2.015643 -0.019172
v 0.502362 1.396696 -0.019172
v 0.397939 1.431146 -0.052368
v 0.368433 1.794953 -0.019172
v -0.502362 1.396696 -0.019172
v -0.368433 1.794953 -0.019172
v -0.397939 1.431146 -0.052368
v 0.074424 0.545262 -0.102940
v 0.115977 0.456979 -0.019172
v 0.074424 0.416449 -0.019172
v -0.000000 0.545262 -0.134248
v -0.000000 0.390137 -0.019172
v 0.115977 0.545262 -0.093079
v 0.158963 0.485588 -0.019172
v 0.158963 0.550995 -0.084576
v 0.253531 0.558159 -0.084576
v 0.273696 0.495940 -0.019172
v 0.343800 0.596844 -0.084576
v 0.383515 0.544881 -0.019172
v 0.449741 0.687662 -0.075596
v 0.496805 0.656538 -0.019172
v 0.512475 0.834527 -0.075596
v 0.568062 0.824866 -0.019172
v 0.507335 0.969832 -0.075596
v 0.561955 0.983979 -0.019172
v 0.479229 1.198236 -0.019172
v 0.436819 1.191376 -0.062134
v 0.435720 1.402215 -0.019172
v -0.074424 0.545262 -0.102940
v -0.115977 0.456979 -0.019172
v -0.115977 0.545262 -0.093079
v -0.074424 0.416449 -0.019172
v -0.000000 0.545262 -0.134248
v -0.000000 0.390137 -0.019172
v -0.158963 0.485588 -0.019172
v -0.158963 0.550995 -0.084576
v -0.253531 0.558159 -0.084576
v -0.273696 0.495940 -0.019172
v -0.343801 0.596844 -0.084576
v -0.383515 0.544881 -0.019172
v -0.449741 0.687662 -0.075596
v -0.496805 0.656538 -0.019172
v -0.512475 0.834527 -0.075596
v -0.568062 0.824866 -0.019172
v -0.507334 0.969832 -0.075596
v -0.561955 0.983979 -0.019172
v -0.479229 1.198236 -0.019172
v -0.436819 1.191376 -0.062134
v -0.435720 1.402215 -0.019172
v 0.037460 1.632551 -0.019172
v -0.000000 1.632551 -0.056632
v -0.000000 0.142325 -0.106715
v 0.087543 0.142325 -0.019172
v -0.000000 0.142325 -0.106715
v -0.037460 1.632551 -0.019172
v -0.000000 1.632551 -0.056632
v -0.087544 0.142325 -0.019172
v -0.000000 -1.368300 -0.081696
v 0.062524 -1.368300 -0.019172
v 0.000000 -1.368300 0.043352
v -0.062524 -1.368300 -0.019172
v 0.074424 0.545262 -0.102940
v -0.000000 0.545262 -0.134248
v 0.074424 0.674075 -0.019172
v -0.000000 0.700388 -0.019172
v 0.115977 0.633546 -0.019172
v 0.115977 0.545262 -0.093079
v 0.158963 0.616398 -0.019172
v 0.233365 0.620376 -0.019172
v 0.253531 0.558159 -0.084576
v 0.304087 0.648810 -0.019172
v 0.343800 0.596844 -0.084576
v 0.402677 0.718786 -0.019172
v 0.449741 0.687662 -0.075596
v 0.456881 0.844188 -0.019172
v 0.512475 0.834527 -0.075596
v 0.452714 0.955685 -0.019172
v 0.507335 0.969832 -0.075596
v 0.436819 1.191376 -0.062134
v 0.394406 1.184516 -0.019172
v 0.402540 1.403286 -0.052368
v -0.074424 0.674075 -0.019172
v -0.000000 0.545262 -0.134248
v -0.074424 0.545262 -0.102940
v -0.000000 0.700388 -0.019172
v -0.115977 0.633546 -0.019172
v -0.115977 0.545262 -0.093079
v -0.158963 0.616398 -0.019172
v -0.233365 0.620376 -0.019172
v -0.253531 0.558159 -0.084576
v -0.304087 0.648810 -0.019172
v -0.343801 0.596844 -0.084576
v -0.402677 0.718786 -0.019172
v -0.449741 0.687662 -0.075596
v -0.456881 0.844188 -0.019172
v -0.512475 0.834527 -0.075596
v -0.452714 0.955685 -0.019172
v -0.507334 0.969832 -0.075596
v -0.436819 1.191376 -0.062134
v -0.394406 1.184516 -0.019172
v -0.402540 1.403286 -0.052368
v 0.512475 0.834527 -0.075596
v 0.568062 0.824866 -0.019172
v 0.507335 0.969832 -0.075596
v 0.561955 0.983979 -0.019172
v 0.436819 1.191376 -0.062134
v 0.435720 1.402215 -0.019172
v 0.402540 1.403286 -0.052368
v 0.397939 1.431146 -0.052368
v 0.512475 0.834527 0.037253
v 0.568062 0.824866 -0.019172
v 0.507335 0.969832 0.037253
v 0.561955 0.983979 -0.019172
v 0.436819 1.191376 0.023791
v 0.435720 1.402215 -0.019172
v 0.402540 1.403286 0.014025
v 0.397939 1.431146 0.014025
v -0.456881 0.844188 -0.019172
v -0.512475 0.834527 0.037253
v -0.452714 0.955685 -0.019172
v -0.507334 0.969832 0.037253
v -0.394406 1.184516 -0.019172
v -0.402540 1.403286 0.014025
v -0.369361 1.404358 -0.019172
v -0.397939 1.431146 0.014025
v -0.366349 1.432218 -0.019172
v -0.456881 0.844188 -0.019172
v -0.512475 0.834527 -0.075596
v -0.452714 0.955685 -0.019172
v -0.507334 0.969832 -0.075596
v -0.394406 1.184516 -0.019172
v -0.402540 1.403286 -0.052368
v -0.369361 1.404358 -0.019172
v -0.397939 1.431146 -0.052368
v -0.366349 1.432218 -0.019172
v -0.397939 1.431146 -0.052368
v -0.368433 1.794953 -0.019172
v -0.366349 1.432218 -0.019172
v -0.366349 1.432218 -0.019172
v -0.368433 1.794953 -0.019172
v -0.397939 1.431146 0.014025
v 0.080945 -1.398391 -0.019172
v -0.000000 -1.368300 -0.081696
v 0.062524 -1.368300 -0.019172
v -0.000000 -1.398391 -0.100117
v 0.000000 -1.398391 0.061774
v 0.000000 -1.368300 0.043352
v -0.000000 -1.984120 -0.100117
v 0.000000 -1.984120 0.061774
v 0.080945 -1.984120 -0.019172
v -0.000000 -2.015643 -0.082679
v 0.000000 -2.015643 0.044335
v 0.063507 -2.015643 -0.019172
v 0.063507 -2.015643 -0.019172
v -0.063507 -2.015643 -0.019172
v -0.000000 -2.015643 -0.082679
v 0.000000 -2.015643 0.044335
v 0.158963 0.485588 -0.019172
v 0.253531 0.558159 -0.084576
v 0.273696 0.495940 -0.019172
v 0.435720 1.402215 -0.019172
v 0.397939 1.431146 -0.052368
v 0.502362 1.396696 -0.019172
v 0.158963 0.485588 -0.019172
v 0.253531 0.558159 0.046233
v 0.273696 0.495940 -0.019172
v 0.435720 1.402215 -0.019172
v 0.397939 1.431146 0.014025
v 0.502362 1.396696 -0.019172
v -0.158963 0.485588 -0.019172
v -0.253531 0.558159 -0.084576
v -0.273696 0.495940 -0.019172
v -0.435720 1.402215 -0.019172
v -0.397939 1.431146 -0.052368
v -0.502362 1.396696 -0.019172
v -0.158963 0.485588 -0.019172
v -0.253531 0.558159 0.046233
v -0.273696 0.495940 -0.019172
v -0.435720 1.402215 -0.019172
v -0.397939 1.431146 0.014025
v -0.502362 1.396696 -0.019172
v -0.037460 1.632551 -0.019172
v 0.000000 0.142325 0.068372
v 0.000000 1.632551 0.018289
v 0.000000 1.664060 0.090556
v -0.149792 1.597726 -0.019172
v -0.087544 0.142325 -0.019172
v -0.062524 0.119628 -0.019172
v 0.000000 0.119628 0.043352
v -0.000000 1.664060 -0.128899
v 0.149793 1.597726 -0.019172
v 0.037460 1.632551 -0.019172
v -0.000000 1.632551 -0.056632
v -0.000000 0.142325 -0.106715
v 0.087543 0.142325 -0.019172
v 0.062524 0.119628 -0.019172
v -0.000000 0.119628 -0.081696
v 0.087543 0.142325 -0.019172
v 0.000000 0.142325 0.068372
v 0.000000 0.119628 0.043352
v 0.062524 0.119628 -0.019172
v 0.037460 1.632551 -0.019172
v 0.000000 1.632551 0.018289
v 0.000000 1.664060 0.090556
v 0.149793 1.597726 -0.019172
v -0.000000 0.142325 -0.106715
v -0.037460 1.632551 -0.019172
v -0.000000 1.632551 -0.056632
v -0.000000 1.664060 -0.128899
v -0.149792 1.597726 -0.019172
v -0.087544 0.142325 -0.019172
v -0.000000 0.119628 -0.081696
v -0.062524 0.119628 -0.019172
v -0.149792 1.597726 -0.019172
v 0.000000 1.664060 0.090556
v -0.000000 2.015643 -0.019172
v 0.000000 1.664060 0.090556
v 0.149793 1.597726 -0.019172
v -0.000000 2.015643 -0.019172
v 0.397939 1.431146 0.014025
v 0.502362 1.396696 -0.019172
v 0.368433 1.794953 -0.019172
v -0.397939 1.431146 0.014025
v -0.368433 1.794953 -0.019172
v -0.502362 1.396696 -0.019172
v 0.115977 0.456979 -0.019172
v 0.115977 0.545262 0.054735
v 0.074424 0.545262 0.064597
v 0.074424 0.416449 -0.019172
v 0.000000 0.545262 0.095905
v -0.000000 0.390137 -0.019172
v 0.158963 0.485588 -0.019172
v 0.158963 0.550995 0.046233
v 0.253531 0.558159 0.046233
v 0.273696 0.495940 -0.019172
v 0.343800 0.596844 0.046233
v 0.383515 0.544881 -0.019172
v 0.449741 0.687662 0.037253
v 0.496805 0.656538 -0.019172
v 0.512475 0.834527 0.037253
v 0.568062 0.824866 -0.019172
v 0.507335 0.969832 0.037253
v 0.561955 0.983979 -0.019172
v 0.479229 1.198236 -0.019172
v 0.436819 1.191376 0.023791
v 0.435720 1.402215 -0.019172
v -0.115977 0.456979 -0.019172
v -0.074424 0.545262 0.064597
v -0.115977 0.545262 0.054735
v -0.074424 0.416449 -0.019172
v 0.000000 0.545262 0.095905
v -0.000000 0.390137 -0.019172
v -0.158963 0.485588 -0.019172
v -0.158963 0.550995 0.046233
v -0.253531 0.558159 0.046233
v -0.273696 0.495940 -0.019172
v -0.343801 0.596844 0.046233
v -0.383515 0.544881 -0.019172
v -0.449741 0.687662 0.037253
v -0.496805 0.656538 -0.019172
v -0.512475 0.834527 0.037253
v -0.568062 0.824866 -0.019172
v -0.507334 0.969832 0.037253
v -0.561955 0.983979 -0.019172
v -0.479229 1.198236 -0.019172
v -0.436819 1.191376 0.023791
v -0.435720 1.402215 -0.019172
v 0.087543 0.142325 -0.019172
v 0.000000 0.142325 0.068372
v 0.037460 1.632551 -0.019172
v 0.000000 1.632551 0.018289
v 0.074424 0.545262 0.064597
v 0.115977 0.633546 -0.019172
v 0.074424 0.674075 -0.019172
v 0.000000 0.545262 0.095905
v -0.000000 0.700388 -0.019172
v 0.115977 0.545262 0.054735
v 0.158963 0.616398 -0.019172
v 0.233365 0.620376 -0.019172
v 0.253531 0.558159 0.046233
v 0.304087 0.648810 -0.019172
v 0.343800 0.596844 0.046233
v 0.402677 0.718786 -0.019172
v 0.449741 0.687662 0.037253
v 0.456881 0.844188 -0.019172
v 0.512475 0.834527 0.037253
v 0.452714 0.955685 -0.019172
v 0.507335 0.969832 0.037253
v 0.436819 1.191376 0.023791
v 0.394406 1.184516 -0.019172
v 0.402540 1.403286 0.014025
v -0.074424 0.545262 0.064597
v -0.115977 0.633546 -0.019172
v -0.115977 0.545262 0.054735
v -0.158963 0.616398 -0.019172
v -0.074424 0.674075 -0.019172
v 0.000000 0.545262 0.095905
v -0.000000 0.700388 -0.019172
v -0.233365 0.620376 -0.019172
v -0.253531 0.558159 0.046233
v -0.304087 0.648810 -0.019172
v -0.343801 0.596844 0.046233
v -0.402677 0.718786 -0.019172
v -0.449741 0.687662 0.037253
v -0.456881 0.844188 -0.019172
v -0.512475 0.834527 0.037253
v -0.452714 0.955685 -0.019172
v -0.507334 0.969832 0.037253
v -0.436819 1.191376 0.023791
v -0.394406 1.184516 -0.019172
v -0.402540 1.403286 0.014025
v -0.076232 -1.046062 -0.023505
v -0.057453 -1.038394 -0.023541
v -0.057763 -1.041692 -0.024783
v -0.073927 -1.048370 -0.024782
v -0.058126 -1.044868 -0.023423
v -0.083863 -1.064485 -0.023505
v -0.071703 -1.050594 -0.023392
v -0.080603 -1.064485 -0.024782
v -0.077456 -1.064485 -0.023392
v -0.071703 -1.078377 -0.023392
v -0.073927 -1.080601 -0.024782
v -0.058126 -1.084102 -0.023423
v -0.057763 -1.087278 -0.024783
v -0.076232 -1.082908 -0.023505
v -0.057453 -1.090577 -0.023541
v -0.076232 -1.046062 -0.017008
v -0.057348 -1.036968 -0.020257
v -0.077204 -1.045093 -0.020257
v -0.057453 -1.038394 -0.016972
v -0.076232 -1.046062 -0.023505
v -0.057453 -1.038394 -0.023541
v -0.070812 -1.077487 -0.020257
v -0.071703 -1.078377 -0.023392
v -0.058126 -1.084102 -0.023423
v -0.058272 -1.082782 -0.020257
v -0.058126 -1.084102 -0.017090
v -0.071703 -1.078377 -0.017121
v -0.071703 -1.050594 -0.017121
v -0.071703 -1.050594 -0.023392
v -0.070812 -1.051483 -0.020257
v -0.077456 -1.064485 -0.023392
v -0.076197 -1.064485 -0.020257
v -0.077456 -1.064485 -0.017121
v -0.070812 -1.077487 -0.020257
v -0.071703 -1.078377 -0.023392
v -0.071703 -1.078377 -0.017121
v -0.076232 -1.046062 -0.017008
v -0.057453 -1.038394 -0.016972
v -0.057763 -1.041692 -0.015730
v -0.073927 -1.048370 -0.015731
v -0.058126 -1.044868 -0.017090
v -0.083863 -1.064485 -0.017008
v -0.071703 -1.050594 -0.017121
v -0.077456 -1.064485 -0.017121
v -0.058126 -1.084102 -0.017090
v -0.076232 -1.082908 -0.017008
v -0.057453 -1.090577 -0.016972
v -0.057763 -1.087278 -0.015730
v -0.073927 -1.080601 -0.015731
v -0.080603 -1.064485 -0.015731
v -0.071703 -1.078377 -0.017121
v -0.058126 -1.044868 -0.017090
v -0.071703 -1.050594 -0.017121
v -0.058126 -1.044868 -0.023423
v -0.071703 -1.050594 -0.023392
v -0.070812 -1.051483 -0.020257
v -0.058272 -1.046189 -0.020257
v -0.076232 -1.082908 -0.023505
v -0.057453 -1.090577 -0.023541
v -0.057348 -1.092002 -0.020257
v -0.077204 -1.083878 -0.020257
v -0.076232 -1.082908 -0.017008
v -0.057453 -1.090577 -0.016972
v -0.076232 -1.046062 -0.017008
v -0.077204 -1.045093 -0.020257
v -0.076232 -1.046062 -0.023505
v -0.085237 -1.064485 -0.020257
v -0.083863 -1.064485 -0.017008
v -0.083863 -1.064485 -0.023505
v -0.076232 -1.082908 -0.023505
v -0.077204 -1.083878 -0.020257
v -0.076232 -1.082908 -0.017008
vn -0.7071 -0.0000 0.7071
vn -0.7071 -0.0000 -0.7071
vn 0.7071 -0.0000 -0.7071
vn 0.7071 -0.0000 0.7071
vn -0.6935 -0.1261 -0.7093
vn -0.6928 0.1338 -0.7086
vn -0.6921 0.1415 -0.7078
vn -0.6853 0.1969 -0.7011
vn -0.4649 -0.3152 -0.8274
vn -0.4876 -0.2831 -0.8259
vn -0.2127 -0.5988 -0.7722
vn -0.6928 0.1338 0.7086
vn -0.6935 -0.1261 0.7093
vn -0.6921 0.1415 0.7078
vn -0.4649 -0.3152 0.8273
vn -0.6853 0.1969 0.7011
vn -0.4876 -0.2831 0.8259
vn -0.2127 -0.5988 0.7721
vn -0.2607 -0.7742 0.5767
vn -0.6857 -0.2443 0.6857
vn -0.2668 -0.7691 0.5808
vn -0.6935 0.1261 0.7093
vn -0.7039 -0.0949 0.7039
vn -0.6995 -0.1021 0.7073
vn -0.7084 -0.0866 0.7005
vn -0.7157 -0.0943 0.6920
vn -0.7156 -0.0944 0.6921
vn -0.7039 -0.0949 -0.7039
vn -0.6935 0.1261 -0.7093
vn -0.6995 -0.1021 -0.7073
vn -0.7084 -0.0866 -0.7005
vn -0.7156 -0.0944 -0.6921
vn -0.7226 0.0079 -0.6912
vn -0.7226 0.0079 0.6912
vn -0.0000 0.2444 -0.9697
vn -0.8532 0.5215 -0.0000
vn 0.0001 0.5214 -0.8533
vn -0.0000 0.5215 0.8533
vn -0.9697 0.2443 -0.0000
vn 0.0001 0.2444 0.9697
vn -0.0000 -0.2277 -0.9737
vn -0.9737 -0.2277 -0.0000
vn -0.0000 -0.2277 0.9737
vn -0.8764 -0.4816 -0.0000
vn -0.0000 -0.4816 -0.8764
vn -0.0000 -0.4816 0.8764
vn 0.0627 0.6899 0.7212
vn 0.2751 0.6054 0.7469
vn -0.1569 0.6905 0.7061
vn -0.1654 0.6855 0.7091
vn 0.0630 0.6857 -0.7251
vn 0.2752 0.6054 -0.7469
vn 0.0627 0.6899 -0.7212
vn -0.1569 0.6905 -0.7062
vn -0.1654 0.6855 -0.7091
vn -0.2751 0.6054 0.7469
vn -0.0627 0.6899 0.7212
vn 0.1569 0.6905 0.7062
vn 0.1654 0.6855 0.7091
vn -0.0627 0.6899 -0.7212
vn -0.2751 0.6054 -0.7469
vn -0.0630 0.6857 -0.7251
vn 0.1569 0.6905 -0.7061
vn 0.1654 0.6855 -0.7091
vn -0.6392 0.2291 -0.7341
vn 0.6394 0.2288 -0.7340
vn 0.3378 0.1100 -0.9348
vn -0.3308 0.1103 -0.9372
vn 0.3062 -0.5496 -0.7773
vn 0.3452 -0.5805 -0.7374
vn 0.2991 -0.5509 -0.7791
vn 0.2610 -0.5536 -0.7908
vn 0.2609 -0.5536 -0.7908
vn 0.3386 -0.5907 -0.7324
vn 0.2120 -0.6751 -0.7066
vn 0.1893 -0.6784 -0.7099
vn 0.1730 -0.6845 -0.7081
vn 0.1731 -0.6845 -0.7081
vn 0.3925 -0.5888 -0.7066
vn 0.4010 -0.5818 -0.7076
vn 0.5818 -0.4010 -0.7076
vn 0.5836 -0.3944 -0.7098
vn 0.6935 -0.1261 -0.7093
vn 0.6928 0.1339 -0.7086
vn 0.6800 0.2056 -0.7038
vn 0.6921 0.1416 -0.7078
vn 0.6853 0.1970 -0.7011
vn 0.4649 -0.3152 -0.8274
vn -0.3062 -0.5496 -0.7773
vn -0.3452 -0.5805 -0.7374
vn -0.3386 -0.5907 -0.7324
vn -0.2991 -0.5509 -0.7791
vn -0.2610 -0.5536 -0.7908
vn -0.2609 -0.5536 -0.7908
vn -0.2120 -0.6751 -0.7066
vn -0.1893 -0.6784 -0.7099
vn -0.1730 -0.6845 -0.7081
vn -0.1731 -0.6845 -0.7081
vn -0.3925 -0.5888 -0.7066
vn -0.4010 -0.5818 -0.7076
vn -0.5818 -0.4010 -0.7076
vn -0.5836 -0.3944 -0.7098
vn -0.6800 0.2055 -0.7038
vn -0.6928 0.1339 -0.7086
vn -0.6921 0.1416 -0.7078
vn 0.6857 -0.2443 -0.6857
vn 0.2668 -0.7691 -0.5808
vn 0.2607 -0.7742 -0.5767
vn -0.6857 -0.2443 -0.6857
vn -0.2607 -0.7742 -0.5767
vn -0.2668 -0.7691 -0.5807
vn -0.5207 -0.5285 0.6705
vn -0.7417 -0.0000 0.6707
vn -1.0000 -0.0000 -0.0000
vn -0.7071 -0.7071 -0.0000
vn -0.5207 -0.5285 -0.6705
vn -0.7417 -0.0000 -0.6707
vn 0.3062 0.5496 -0.7773
vn 0.2610 0.5536 -0.7908
vn 0.2991 0.5509 -0.7791
vn 0.2609 0.5536 -0.7908
vn 0.2838 0.5990 -0.7488
vn 0.0628 0.6899 -0.7212
vn -0.1655 0.6854 -0.7091
vn -0.1569 0.6905 -0.7061
vn -0.3468 0.6226 -0.7015
vn -0.3537 0.6209 -0.6995
vn -0.5456 0.4428 -0.7115
vn -0.5511 0.4408 -0.7085
vn -0.7033 -0.0948 -0.7045
vn -0.6928 -0.1338 -0.7086
vn -0.6995 -0.1022 -0.7073
vn -0.2991 0.5509 -0.7791
vn -0.2610 0.5536 -0.7908
vn -0.3062 0.5496 -0.7773
vn -0.2609 0.5536 -0.7908
vn -0.2838 0.5990 -0.7488
vn -0.2752 0.6054 -0.7469
vn -0.0628 0.6898 -0.7212
vn 0.1655 0.6854 -0.7091
vn 0.3468 0.6226 -0.7015
vn 0.3537 0.6209 -0.6995
vn 0.5456 0.4428 -0.7115
vn 0.5511 0.4408 -0.7085
vn 0.6935 0.1261 -0.7093
vn 0.6928 -0.1338 -0.7086
vn 0.7039 -0.0949 -0.7039
vn 0.6995 -0.1022 -0.7073
vn 0.7084 -0.0866 -0.7005
vn 0.6928 0.1338 -0.7086
vn 0.6921 0.1415 -0.7078
vn 0.6853 0.1969 -0.7011
vn 0.4876 -0.2831 -0.8259
vn 0.2127 -0.5988 -0.7721
vn 0.6936 -0.1261 0.7093
vn 0.6928 0.1338 0.7086
vn 0.6935 -0.1261 0.7093
vn 0.6921 0.1415 0.7078
vn 0.4876 -0.2831 0.8259
vn 0.6853 0.1969 0.7011
vn 0.4649 -0.3152 0.8274
vn 0.2127 -0.5988 0.7722
vn 0.7039 -0.0949 0.7039
vn 0.6935 0.1261 0.7093
vn 0.6995 -0.1021 0.7073
vn 0.7084 -0.0866 0.7005
vn 0.7156 -0.0944 0.6921
vn 0.6995 -0.1021 -0.7073
vn 0.7156 -0.0944 -0.6921
vn 0.7226 0.0079 -0.6912
vn 0.7226 0.0079 0.6912
vn 0.9697 0.2443 -0.0000
vn -0.0001 0.5215 -0.8533
vn 0.8532 0.5216 -0.0000
vn -0.0001 0.2444 -0.9697
vn -0.0000 0.2444 0.9697
vn -0.0000 0.5214 0.8533
vn 0.9737 -0.2277 -0.0000
vn 0.8764 -0.4816 -0.0000
vn -0.0000 -1.0000 -0.0000
vn 0.2119 -0.6752 -0.7066
vn 0.1731 -0.6845 0.7081
vn 0.2119 -0.6752 0.7066
vn 0.2127 -0.5988 0.7721
vn -0.2119 -0.6752 -0.7066
vn -0.2127 -0.5988 -0.7721
vn -0.2119 -0.6752 0.7066
vn -0.1731 -0.6845 0.7081
vn -0.4649 -0.3152 0.8274
vn 0.1654 -0.9612 0.2206
vn -0.2669 -0.7691 0.5807
vn 0.1655 -0.9612 0.2206
vn -0.6857 -0.2444 0.6856
vn -0.6857 -0.2444 0.6857
vn -0.5584 -0.6136 0.5584
vn -0.5584 -0.6135 0.5584
vn -0.1654 -0.9612 -0.2206
vn -0.1655 -0.9612 -0.2206
vn 0.2607 -0.7742 -0.5768
vn 0.2669 -0.7691 -0.5807
vn 0.6856 -0.2444 -0.6857
vn 0.5584 -0.6136 -0.5584
vn 0.6857 -0.2444 0.6857
vn 0.5584 -0.6135 0.5584
vn 0.2607 -0.7742 0.5768
vn -0.1654 -0.9612 0.2206
vn 0.2669 -0.7691 0.5807
vn -0.1655 -0.9612 0.2206
vn -0.2607 -0.7742 -0.5768
vn 0.1654 -0.9612 -0.2206
vn -0.2669 -0.7691 -0.5807
vn 0.1655 -0.9612 -0.2206
vn -0.5584 -0.6135 -0.5584
vn -0.6857 -0.2444 -0.6857
vn -0.5584 -0.6134 -0.5584
vn -0.6392 0.2291 0.7341
vn 0.6392 0.2291 0.7341
vn 0.3378 0.1100 0.9348
vn -0.3308 0.1103 0.9372
vn 0.3452 -0.5805 0.7374
vn 0.3386 -0.5907 0.7324
vn 0.3062 -0.5496 0.7773
vn 0.2991 -0.5509 0.7791
vn 0.2610 -0.5536 0.7908
vn 0.2609 -0.5536 0.7908
vn 0.2120 -0.6751 0.7066
vn 0.1893 -0.6784 0.7099
vn 0.1730 -0.6845 0.7081
vn 0.3925 -0.5888 0.7066
vn 0.4010 -0.5818 0.7076
vn 0.5818 -0.4010 0.7076
vn 0.5836 -0.3944 0.7098
vn 0.6921 0.1416 0.7078
vn 0.6800 0.2056 0.7038
vn 0.6928 0.1339 0.7086
vn -0.3452 -0.5805 0.7374
vn -0.3062 -0.5496 0.7773
vn -0.3386 -0.5907 0.7324
vn -0.2991 -0.5509 0.7791
vn -0.2610 -0.5536 0.7908
vn -0.2609 -0.5536 0.7908
vn -0.2120 -0.6751 0.7066
vn -0.1893 -0.6784 0.7099
vn -0.1730 -0.6845 0.7081
vn -0.3925 -0.5888 0.7066
vn -0.4010 -0.5818 0.7076
vn -0.5818 -0.4010 0.7076
vn -0.5836 -0.3944 0.7098
vn -0.6928 0.1339 0.7086
vn -0.6800 0.2056 0.7038
vn -0.6921 0.1416 0.7078
vn 0.2607 -0.7742 0.5767
vn 0.6857 -0.2443 0.6857
vn 0.2668 -0.7691 0.5807
vn 0.3062 0.5496 0.7773
vn 0.2838 0.5990 0.7488
vn 0.2991 0.5509 0.7791
vn 0.2610 0.5536 0.7908
vn 0.2609 0.5536 0.7908
vn 0.2752 0.6054 0.7469
vn 0.0628 0.6898 0.7212
vn -0.1655 0.6854 0.7091
vn -0.3468 0.6226 0.7015
vn -0.3537 0.6209 0.6995
vn -0.5455 0.4428 0.7116
vn -0.5511 0.4408 0.7085
vn -0.6995 -0.1022 0.7073
vn -0.6928 -0.1338 0.7086
vn -0.3062 0.5496 0.7773
vn -0.2838 0.5990 0.7488
vn -0.2752 0.6054 0.7469
vn -0.0628 0.6899 0.7212
vn -0.2991 0.5509 0.7791
vn -0.2610 0.5536 0.7908
vn -0.2609 0.5536 0.7908
vn 0.3468 0.6226 0.7015
vn 0.1655 0.6854 0.7091
vn 0.1569 0.6905 0.7061
vn 0.3537 0.6209 0.6995
vn 0.5455 0.4428 0.7116
vn 0.5511 0.4408 0.7085
vn 0.7033 -0.0948 0.7045
vn 0.6928 -0.1338 0.7086
vn 0.6995 -0.1022 0.7073
vn -0.0394 0.1026 -0.9939
vn -0.5207 0.5285 -0.6705
vn -0.2993 0.7166 -0.6300
vn -0.0549 0.0549 -0.9970
vn 0.2686 -0.6320 -0.7269
vn 0.4738 -0.4738 -0.7423
vn -0.0707 -0.0000 -0.9975
vn 0.6668 -0.0000 -0.7453
vn 0.4738 0.4738 -0.7423
vn -0.0549 -0.0549 -0.9970
vn 0.2671 0.6284 -0.7306
vn -0.0394 -0.1026 -0.9939
vn -0.5206 -0.5286 -0.6705
vn -0.2992 -0.7166 -0.6300
vn -0.5207 0.5285 0.6705
vn -0.3768 0.9263 -0.0000
vn -0.7071 0.7071 -0.0000
vn -0.2993 0.7166 0.6300
vn -0.5206 0.5285 -0.6705
vn -0.2992 0.7166 -0.6300
vn 0.2671 0.6285 -0.7306
vn 0.7071 0.7071 -0.0000
vn 0.3863 0.9224 -0.0000
vn 0.2671 0.6285 0.7306
vn 0.4738 0.4738 0.7423
vn 0.7111 -0.7031 -0.0000
vn 0.6668 -0.0000 -0.7452
vn 1.0000 -0.0000 -0.0000
vn 0.6668 -0.0000 0.7452
vn 0.4738 -0.4738 0.7423
vn -0.5206 0.5286 0.6705
vn -0.0394 0.1026 0.9939
vn -0.2992 0.7166 0.6300
vn -0.0550 0.0550 0.9970
vn 0.2671 -0.6284 0.7306
vn -0.2992 -0.7166 0.6300
vn -0.0394 -0.1026 0.9939
vn -0.0549 -0.0549 0.9970
vn 0.2671 0.6284 0.7306
vn -0.0707 -0.0000 0.9975
vn 0.6668 -0.0000 0.7453
vn 0.7110 -0.7032 -0.0000
vn 0.2687 -0.6321 -0.7268
vn 0.3863 -0.9224 -0.0000
vn -0.5206 -0.5285 -0.6705
vn -0.2993 -0.7166 -0.6300
vn -0.3768 -0.9263 -0.0000
vn -0.5206 -0.5285 0.6705
vt 46.000000 -3.265570
vt 46.022301 -2.734430
vt 46.000000 -2.734430
vt 46.022301 -3.265570
vt 45.977699 -3.265570
vt 45.977699 -2.734430
vt 36.000000 -0.705555
vt 35.979900 -0.653807
vt 35.979900 -0.702106
vt 36.000000 -0.648757
vt 35.984699 -0.574725
vt 36.000000 -0.499463
vt 35.988201 -0.499081
vt 35.988201 -0.489136
vt 36.020100 -0.653807
vt 36.020100 -0.702106
vt 36.015301 -0.574725
vt 36.011799 -0.499081
vt 36.011799 -0.489136
vt 36.000000 -0.417242
vt 36.031200 -0.949196
vt 36.013401 -0.417242
vt 36.000000 -0.949196
vt 36.000000 -0.658857
vt 36.000000 -0.698657
vt 36.000000 -0.498699
vt 36.000000 -0.577174
vt 36.000000 -0.488754
vt 36.000000 -0.359272
vt 35.971100 -1.499170
vt 36.000000 -1.488430
vt 35.977699 -1.488430
vt 36.022301 -1.488430
vt 36.000000 -1.499170
vt 36.028900 -1.499170
vt 35.971100 -1.708250
vt 36.000000 -1.708250
vt 36.028900 -1.708250
vt 36.000000 -1.719510
vt 35.977299 -1.719510
vt 36.022701 -1.719510
vt 36.056702 -1.000000
vt 36.041401 -1.026380
vt 36.056702 -1.023350
vt 36.083302 -1.000000
vt 36.090500 -1.023350
vt 36.056702 -0.976653
vt 36.041401 -0.973618
vt 36.090500 -0.976653
vt 35.958599 -1.026380
vt 35.943298 -1.000000
vt 35.943298 -1.023350
vt 35.916698 -1.000000
vt 35.909500 -1.023350
vt 35.958599 -0.973618
vt 35.943298 -0.976653
vt 35.909500 -0.976653
vt 36.000000 -0.405995
vt 36.053501 -0.429674
vt 36.000000 -0.280494
vt 35.946499 -0.429674
vt 35.820702 -0.501434
vt 35.858002 -0.489136
vt 35.868500 -0.359272
vt 36.179298 -0.501434
vt 36.131500 -0.359272
vt 36.141998 -0.489136
vt 35.973400 -0.805362
vt 35.958599 -0.836876
vt 35.973400 -0.851343
vt 36.000000 -0.805362
vt 36.000000 -0.860736
vt 35.958599 -0.805362
vt 35.943298 -0.826663
vt 35.943298 -0.803317
vt 35.909500 -0.800759
vt 35.902302 -0.822969
vt 35.877300 -0.786949
vt 35.863098 -0.805499
vt 35.839500 -0.754531
vt 35.822701 -0.765641
vt 35.817101 -0.702106
vt 35.797199 -0.705555
vt 35.818901 -0.653807
vt 35.828899 -0.572276
vt 35.799400 -0.648757
vt 35.844101 -0.574725
vt 35.844501 -0.499463
vt 36.026600 -0.805362
vt 36.041401 -0.836876
vt 36.041401 -0.805362
vt 36.026600 -0.851343
vt 36.056702 -0.826663
vt 36.056702 -0.803317
vt 36.090500 -0.800759
vt 36.097698 -0.822969
vt 36.122700 -0.786949
vt 36.136902 -0.805499
vt 36.160500 -0.754531
vt 36.177299 -0.765641
vt 36.182899 -0.702106
vt 36.202801 -0.705555
vt 36.171101 -0.572276
vt 36.181099 -0.653807
vt 36.200600 -0.648757
vt 36.155899 -0.574725
vt 36.155499 -0.499463
vt 35.986599 -0.417242
vt 35.968800 -0.949196
vt 40.001202 -1.006580
vt 40.001202 -1.000000
vt 40.000000 -1.000000
vt 40.000000 -1.006920
vt 39.998798 -1.006580
vt 39.998798 -1.000000
vt 35.973400 -0.759382
vt 36.000000 -0.749989
vt 35.958599 -0.773849
vt 35.943298 -0.779970
vt 35.916698 -0.778550
vt 35.891499 -0.768400
vt 35.856300 -0.743422
vt 35.836899 -0.698657
vt 35.838402 -0.658857
vt 35.859200 -0.577174
vt 35.856300 -0.499081
vt 36.026600 -0.759382
vt 36.041401 -0.773849
vt 36.056702 -0.779970
vt 36.108501 -0.768400
vt 36.083302 -0.778550
vt 36.143700 -0.743422
vt 36.163101 -0.698657
vt 36.161598 -0.658857
vt 36.140800 -0.577174
vt 36.143700 -0.499081
vt 35.977299 -1.000000
vt 36.022701 -1.000000
vt 36.000000 -0.977330
vt 36.000000 -1.022670
vt 35.902302 -1.000000
vt 35.858002 -0.988150
vt 35.820702 -1.000000
vt 35.844501 -1.000000
vt 35.858002 -1.011850
vt 36.097698 -1.000000
vt 36.179298 -1.000000
vt 36.141998 -0.988150
vt 36.155499 -1.000000
vt 36.141998 -1.011850
vt 36.000000 -1.039170
vt 36.013401 -1.000000
vt 36.000000 -1.013370
vt 36.053501 -1.000000
vt 36.000000 -1.031250
vt 36.031200 -1.000000
vt 36.022301 -1.000000
vt 36.000000 -1.022320
vt 36.000000 -0.960832
vt 35.946499 -1.000000
vt 35.986599 -1.000000
vt 36.000000 -0.986628
vt 36.000000 -0.968750
vt 35.968800 -1.000000
vt 35.977699 -1.000000
vt 36.000000 -0.977681
vt 39.995201 -0.991864
vt 40.001801 -0.993424
vt 39.995098 -0.990686
vt 40.000900 -0.994247
vt 39.995300 -0.992997
vt 40.004501 -1.000000
vt 40.000099 -0.995041
vt 40.003300 -1.000000
vt 40.002201 -1.000000
vt 40.000099 -1.004960
vt 40.000900 -1.005750
vt 39.995300 -1.007000
vt 39.995201 -1.008140
vt 40.001801 -1.006580
vt 39.995098 -1.009310
vt 40.001202 -1.001760
vt 40.000000 -0.995022
vt 40.000000 -1.002110
vt 40.001202 -0.995060
vt 39.998798 -1.001760
vt 39.998798 -0.995060
vt 39.998901 -0.995300
vt 39.998901 -1.000150
vt 40.000000 -0.999829
vt 40.000000 -0.995352
vt 40.001099 -0.995300
vt 40.001099 -1.000150
vt 40.000000 -0.995359
vt 40.001099 -1.000000
vt 40.001099 -0.995041
vt 39.998901 -1.000000
vt 39.998901 -0.995041
vt 40.000000 -1.004640
vt 40.001099 -1.004960
vt 39.998901 -1.004960
vt 39.998199 -0.993424
vt 40.004799 -0.991864
vt 40.004902 -0.990686
vt 39.999100 -0.994247
vt 40.004700 -0.992997
vt 39.995499 -1.000000
vt 39.999901 -0.995041
vt 39.998199 -1.006580
vt 40.004902 -1.009310
vt 40.004799 -1.008140
vt 39.999100 -1.005750
vt 40.004700 -1.007000
vt 39.996700 -1.000000
vt 39.997799 -1.000000
vt 39.999901 -1.004960
vt 40.001202 -0.993424
vt 40.000000 -0.993077
vt 39.998798 -0.993424
s 1
usemtl Meshpart1Mtl
f 1/1/1 2/2/1 3/3/1
f 2/2/1 1/1/1 4/4/1
f 5/1/2 6/3/2 7/5/2
f 7/5/2 6/3/2 8/6/2
f 9/4/3 10/2/3 11/1/3
f 11/1/3 10/2/3 12/3/3
f 13/6/4 14/5/4 15/3/4
f 15/3/4 14/5/4 16/1/4
usemtl Meshpart2Mtl
f 18/7/5 19/8/6 17/9/5
f 19/8/6 18/7/5 20/10/7
f 21/11/8 22/12/9 23/13/10
f 23/13/10 22/12/9 24/14/11
f 27/15/12 26/7/13 25/16/13
f 26/7/13 27/15/12 28/10/14
f 30/12/15 29/17/16 31/18/17
f 31/18/17 32/19/18 30/12/15
f 33/20/19 34/21/20 35/22/21
f 34/21/20 33/20/19 36/23/20
f 38/16/22 39/24/23 37/25/12
f 39/24/23 38/16/22 40/15/24
f 43/26/25 41/27/13 42/18/25
f 44/19/26 43/26/25 42/18/25
f 43/26/25 44/19/26 45/28/27
f 48/24/28 47/9/29 46/25/6
f 47/9/29 48/24/28 49/8/30
f 51/13/31 50/27/5 52/26/31
f 52/26/31 53/14/32 51/13/31
f 53/14/32 52/26/31 54/28/32
f 55/14/33 56/28/33 57/29/33
f 58/28/34 59/19/34 60/29/34
f 62/30/35 63/31/36 61/32/37
f 65/33/38 63/31/36 66/34/39
f 62/30/35 66/34/39 63/31/36
f 66/34/39 64/35/40 65/33/38
f 67/36/41 66/34/39 62/30/35
f 68/37/42 64/35/40 66/34/39
f 68/37/42 66/34/39 67/36/41
f 64/35/40 68/37/42 69/38/43
f 67/36/41 70/39/44 68/37/42
f 69/38/43 68/37/42 70/39/44
f 70/39/44 67/36/41 71/40/45
f 69/38/43 70/39/44 72/41/46
f 74/42/47 73/43/48 75/44/47
f 75/44/47 76/45/49 74/42/47
f 76/45/49 75/44/47 77/46/50
f 80/47/51 78/48/52 79/42/53
f 81/45/54 80/47/51 79/42/53
f 80/47/51 81/45/54 82/49/55
f 83/50/56 84/51/57 85/52/57
f 86/53/58 85/52/57 84/51/57
f 85/52/57 86/53/58 87/54/59
f 89/51/60 88/55/61 90/56/62
f 91/53/63 89/51/60 90/56/62
f 90/56/62 92/57/64 91/53/63
f 93/58/65 94/59/65 95/60/65
f 96/61/66 97/58/66 98/60/66
f 99/62/67 100/63/67 101/64/67
f 102/65/68 103/66/68 104/67/68
f 105/68/69 106/69/70 107/70/71
f 107/70/71 108/71/72 105/68/69
f 109/72/73 108/71/72 107/70/71
f 106/69/70 105/68/69 110/73/74
f 110/73/74 111/74/75 106/69/70
f 111/74/75 110/73/74 112/75/76
f 111/74/75 112/75/76 113/76/77
f 114/77/78 113/76/78 115/78/79
f 116/79/80 114/77/78 115/78/79
f 117/80/81 116/79/80 115/78/79
f 116/79/80 117/80/81 118/81/82
f 119/82/83 118/81/82 117/80/81
f 118/81/82 119/82/83 120/83/83
f 121/84/84 123/85/85 122/86/86
f 123/85/85 121/84/84 124/87/87
f 124/87/87 125/88/88 123/85/85
f 126/89/89 127/90/90 128/91/91
f 127/90/90 126/89/89 129/92/92
f 130/71/93 129/92/92 126/89/89
f 129/92/92 130/71/93 131/72/94
f 132/93/95 128/91/91 127/90/90
f 128/91/91 132/93/95 133/94/96
f 132/93/95 134/95/97 133/94/96
f 135/96/98 136/97/99 134/95/98
f 136/97/99 135/96/98 137/98/100
f 137/98/100 138/99/101 136/97/99
f 138/99/101 137/98/100 139/100/102
f 140/101/5 138/99/101 139/100/102
f 139/100/102 141/102/5 140/101/5
f 144/103/103 142/104/104 143/105/105
f 142/104/104 144/103/103 145/106/8
f 146/107/9 145/106/8 144/103/103
f 149/23/106 148/20/107 147/108/108
f 147/108/108 150/109/106 149/23/106
f 151/23/109 152/22/110 153/20/111
f 152/22/110 151/23/109 154/21/109
f 159/68/118 160/71/119 161/116/120
f 160/71/119 162/117/121 161/116/120
f 159/68/118 161/116/120 163/118/122
f 163/118/122 164/73/52 159/68/118
f 164/73/52 163/118/122 165/119/123
f 167/76/124 166/120/125 168/121/126
f 169/78/127 167/76/124 168/121/126
f 170/122/128 169/78/127 168/121/126
f 169/78/127 170/122/128 171/80/129
f 172/123/104 171/80/129 170/122/128
f 171/80/129 172/123/104 173/82/29
f 174/124/130 176/87/131 175/84/132
f 176/87/131 174/124/130 177/125/5
f 177/125/5 178/126/31 176/87/131
f 179/127/133 180/71/134 181/89/135
f 180/71/134 179/127/133 182/117/136
f 179/127/133 181/89/135 183/128/137
f 184/91/138 183/128/137 181/89/135
f 183/128/137 184/91/138 185/129/139
f 187/95/140 188/130/141 186/131/63
f 188/130/141 187/95/140 189/97/142
f 189/97/142 190/132/143 188/130/141
f 190/132/143 189/97/142 191/99/144
f 192/133/84 190/132/143 191/99/144
f 191/99/144 193/101/145 192/133/84
f 196/106/146 194/134/147 195/104/148
f 194/134/147 196/106/146 197/135/83
f 198/136/149 197/135/83 196/106/146
f 199/16/83 201/15/150 200/7/83
f 202/10/151 200/7/83 201/15/150
f 204/12/88 203/17/152 205/18/153
f 205/18/153 206/19/154 204/12/88
f 208/7/155 209/8/156 207/9/157
f 209/8/156 208/7/155 210/10/158
f 213/13/159 211/11/160 212/12/161
f 212/12/161 214/14/162 213/13/159
f 217/24/163 216/9/164 215/25/156
f 216/9/164 217/24/163 218/8/165
f 220/13/166 219/27/157 221/26/166
f 222/14/167 220/13/166 221/26/166
f 222/14/167 221/26/166 223/28/167
f 226/24/147 224/25/150 225/16/145
f 225/16/145 227/15/168 226/24/147
f 228/27/83 229/18/149 230/26/149
f 231/19/169 230/26/149 229/18/149
f 230/26/149 231/19/169 232/28/169
f 233/19/170 234/29/170 235/28/170
f 236/28/171 237/29/171 238/14/171
f 239/34/172 240/33/173 241/31/174
f 239/34/172 242/35/175 240/33/173
f 241/31/174 243/30/176 239/34/172
f 241/31/174 244/32/177 243/30/176
f 243/30/176 246/36/43 239/34/172
f 247/37/178 242/35/175 239/34/172
f 245/38/41 242/35/175 247/37/178
f 239/34/172 246/36/43 247/37/178
f 250/39/179 248/41/45 245/38/41
f 250/39/179 246/36/43 249/40/46
f 245/38/41 247/37/178 250/39/179
f 246/36/43 250/39/179 247/37/178
f 251/137/180 252/138/180 253/139/180
f 252/138/180 251/137/180 254/140/180
f 257/141/78 255/51/181 256/57/78
f 259/142/154 260/143/154 258/144/88
f 262/54/182 261/51/183 263/141/182
f 266/143/184 265/145/184 264/144/161
f 269/146/98 268/49/98 267/42/185
f 272/147/186 271/148/186 270/149/9
f 273/42/187 274/46/188 275/146/188
f 277/150/18 278/147/18 276/149/189
f 282/151/190 279/152/19 281/153/191
f 279/152/19 282/151/190 283/154/192
f 280/155/193 284/156/194 285/157/195
f 280/155/193 285/157/195 286/158/196
f 287/159/197 288/160/198 289/161/199
f 287/159/197 289/161/199 290/162/200
f 291/163/201 292/164/106 293/165/202
f 293/165/202 294/166/202 291/163/201
f 295/164/203 296/155/203 297/158/204
f 295/164/203 297/158/204 298/165/204
f 299/161/205 301/151/206 300/153/207
f 301/151/206 299/161/205 302/160/208
f 304/152/209 306/159/210 305/162/211
f 306/159/210 304/152/209 307/154/212
f 309/166/213 308/156/214 303/163/214
f 308/156/214 309/166/213 310/157/215
f 311/61/216 312/58/216 313/60/216
f 314/58/217 315/59/217 316/60/217
f 317/67/218 318/65/218 319/66/218
f 320/63/219 321/64/219 322/62/219
f 323/90/220 324/91/221 325/89/222
f 325/89/222 326/92/223 323/90/220
f 327/71/224 326/92/223 325/89/222
f 326/92/223 327/71/224 328/72/225
f 324/91/221 323/90/220 329/93/226
f 330/94/227 324/91/221 329/93/226
f 329/93/226 331/95/228 330/94/227
f 332/96/182 333/97/229 331/95/182
f 333/97/229 332/96/182 334/98/230
f 334/98/230 335/99/231 333/97/229
f 335/99/231 334/98/230 336/100/232
f 336/100/232 337/101/157 335/99/231
f 337/101/157 336/100/232 338/102/157
f 340/105/233 341/103/234 339/104/235
f 342/106/160 339/104/235 341/103/234
f 341/103/234 343/107/161 342/106/160
f 344/69/236 345/68/237 346/73/238
f 347/70/239 345/68/237 344/69/236
f 348/71/240 345/68/237 347/70/239
f 348/71/240 347/70/239 349/72/241
f 344/69/236 346/73/238 350/74/242
f 351/75/243 350/74/242 346/73/238
f 352/76/244 350/74/242 351/75/243
f 354/78/245 353/77/188 352/76/188
f 353/77/188 354/78/245 355/79/246
f 356/80/247 355/79/246 354/78/245
f 355/79/246 356/80/247 357/81/248
f 358/82/13 357/81/248 356/80/247
f 357/81/248 358/82/13 359/83/13
f 360/84/249 362/85/250 361/86/251
f 362/85/250 360/84/249 363/87/16
f 363/87/16 364/88/189 362/85/250
f 367/22/252 366/23/253 365/21/253
f 366/23/253 367/22/252 368/20/254
f 369/89/255 370/128/256 371/127/257
f 371/127/257 372/71/258 369/89/255
f 373/117/259 372/71/258 371/127/257
f 370/128/256 369/89/255 374/91/260
f 374/91/260 375/129/261 370/128/256
f 377/95/262 378/130/263 376/131/49
f 378/130/263 377/95/262 379/97/264
f 379/97/264 380/132/265 378/130/263
f 380/132/265 379/97/264 381/99/266
f 381/99/266 382/133/249 380/132/265
f 382/133/249 381/99/266 383/101/22
f 385/104/267 386/106/268 384/134/23
f 387/135/13 384/134/23 386/106/268
f 387/135/13 386/106/268 388/136/25
f 389/68/269 390/118/270 391/73/271
f 392/119/272 391/73/271 390/118/270
f 390/118/270 389/68/269 393/116/273
f 393/116/273 389/68/269 394/71/274
f 394/71/274 395/117/275 393/116/273
f 398/121/276 397/76/277 396/120/278
f 397/76/277 398/121/276 399/78/279
f 400/122/280 399/78/279 398/121/276
f 399/78/279 400/122/280 401/80/281
f 402/123/235 401/80/281 400/122/280
f 401/80/281 402/123/235 403/82/164
f 404/124/282 406/87/283 405/84/284
f 406/87/283 404/124/282 407/125/157
f 407/125/157 408/126/166 406/87/283
usemtl Meshpart3Mtl
f 480/110/112 476/111/113 475/112/114
f 475/112/114 479/113/115 480/110/112
f 475/112/114 478/114/116 479/113/115
f 478/114/116 475/112/114 477/115/117
f 411/167/285 409/168/286 410/169/287
f 409/168/286 411/167/285 412/170/288
f 413/171/289 412/170/288 411/167/285
f 414/172/117 409/168/286 412/170/288
f 412/170/288 413/171/289 415/173/290
f 416/174/291 412/170/288 415/173/290
f 414/172/117 412/170/288 416/174/291
f 416/174/291 415/173/290 417/175/292
f 418/176/293 416/174/291 417/175/292
f 419/177/294 414/172/117 416/174/291
f 416/174/291 418/176/293 419/177/294
f 420/178/295 419/177/294 418/176/293
f 419/177/294 420/178/295 421/179/296
f 414/172/117 419/177/294 422/180/297
f 421/179/296 422/180/297 419/177/294
f 422/180/297 421/179/296 423/181/298
f 424/182/299 425/183/300 426/184/301
f 425/183/300 424/182/299 427/185/302
f 425/183/300 428/186/303 426/184/301
f 428/186/303 425/183/300 429/187/304
f 432/188/305 431/189/293 430/190/306
f 430/190/306 433/191/307 432/188/305
f 430/190/306 434/192/308 433/191/307
f 434/192/308 430/190/306 435/193/309
f 438/194/310 439/195/311 437/196/290
f 439/195/311 438/194/310 440/112/312
f 441/197/313 438/194/310 436/198/314
f 438/194/310 441/197/313 440/112/312
f 442/199/306 439/195/311 440/112/312
f 441/197/313 442/199/306 440/112/312
f 439/195/311 442/199/306 443/200/293
f 442/199/306 441/197/313 444/201/309
f 445/202/315 447/203/316 446/204/317
f 447/203/316 445/202/315 448/205/318
f 448/205/318 449/206/319 447/203/316
f 450/207/113 448/205/318 445/202/315
f 449/206/319 448/205/318 451/208/314
f 454/209/112 455/210/320 456/211/321
f 454/209/112 456/211/321 457/212/322
f 457/212/322 450/207/113 454/209/112
f 457/212/322 456/211/321 453/213/323
f 450/207/113 457/212/322 458/214/324
f 448/205/318 450/207/113 458/214/324
f 458/214/324 451/208/314 448/205/318
f 451/208/314 458/214/324 452/215/325
f 459/216/309 458/214/324 457/212/322
f 457/212/322 453/213/323 459/216/309
f 458/214/324 459/216/309 452/215/325
f 464/190/326 460/188/319 461/189/314
f 462/192/327 464/190/326 463/193/290
f 460/188/319 464/190/326 465/191/328
f 464/190/326 462/192/327 465/191/328
f 466/182/329 467/185/330 468/183/331
f 468/183/331 469/184/115 466/182/329
f 468/183/331 470/186/332 469/184/115
f 470/186/332 468/183/331 471/187/320
f 475/112/114 472/217/299 473/218/301
f 475/112/114 473/218/301 474/219/286
f 472/217/299 475/112/114 476/111/113
f 474/219/286 477/115/117 475/112/114
