# Blender 5.0.1
# www.blender.org
mtllib Untitled.mtl
o Claw
v -1.915873 0.053853 1.062838
v -2.043629 0.174880 0.727382
v -2.124498 0.014855 0.925448
v -1.851356 0.247426 0.823727
v -1.760370 0.019201 1.012415
v -1.712979 0.198139 0.791556
v -1.444787 0.262238 0.888846
v -1.475149 0.051155 1.149016
v -1.321523 -0.007945 1.039560
v -1.316985 0.173647 0.816048
v -1.136962 -0.069490 0.930732
v -1.154329 0.082029 0.744536
v -1.536803 -0.859056 0.101405
v -1.721475 -0.842558 0.065593
v -1.730651 -0.916723 0.139742
v -1.545975 -0.933221 0.175556
v -1.415722 -0.928598 0.184350
v -1.406548 -0.854434 0.110202
v -2.101148 -0.691272 0.618164
v -2.089515 -0.597253 0.524163
v -1.955177 -0.648738 0.493657
v -1.966805 -0.742760 0.587659
v -1.912539 -0.633690 0.570939
v -1.924170 -0.727710 0.664940
v -1.808862 -0.678868 0.724380
v -1.797231 -0.584848 0.630380
v -1.728392 -0.500407 0.688955
v -1.737564 -0.574573 0.763104
v -1.651242 -0.546400 0.686588
v -1.660414 -0.620564 0.760736
v -1.584647 -0.537202 0.802362
v -1.287560 -0.293298 0.869476
v -1.575472 -0.463037 0.728213
v -1.278387 -0.219134 0.795325
v -1.559512 -0.515275 0.814207
v -1.342354 -0.263918 0.801547
v -1.550336 -0.441111 0.740056
v -1.351527 -0.338082 0.875698
v -1.403439 -0.361098 0.866335
v -1.370748 -0.275887 0.795759
v -1.394266 -0.286934 0.792187
v -1.379924 -0.350053 0.869909
v -1.346417 -0.702232 0.747745
v -1.183909 -0.352351 0.788382
v -1.352744 -0.351467 0.869054
v -1.157555 -0.643814 0.689342
v -0.971700 -0.522053 0.567608
v -1.403439 -0.361098 0.866335
v -1.379924 -0.350053 0.869909
v -1.559512 -0.515275 0.814207
v -1.567597 -0.702864 0.748374
v -1.584647 -0.537202 0.802362
v -1.660414 -0.620564 0.760736
v -1.785266 -0.675089 0.720602
v -1.737564 -0.574573 0.763104
v -1.767502 -0.505805 0.780881
v -1.808862 -0.678868 0.724380
v -1.924163 -0.619367 0.773161
v -1.930455 -0.611144 0.777867
v -1.801429 -0.444263 0.812851
v -1.890200 -0.322998 0.881307
v -1.840911 -0.324383 0.868502
v -1.966513 -0.539774 0.785911
v -2.213462 -0.293107 0.766979
v -2.100565 -0.567955 0.732098
v -2.180602 -0.644013 0.689528
v -2.357319 -0.602134 0.647655
v -2.213458 -0.721396 0.338603
v -1.966805 -0.742760 0.587659
v -2.101148 -0.691272 0.618164
v -2.180602 -0.644013 0.689528
v -2.357319 -0.602134 0.647655
v -1.890194 -0.835723 0.368475
v -1.930453 -0.732345 0.656644
v -1.801322 -0.766451 0.488916
v -1.840905 -0.822919 0.369866
v -1.767497 -0.735334 0.551307
v -1.924170 -0.727710 0.664940
v -1.808862 -0.678868 0.724380
v -1.785266 -0.675089 0.720602
v -1.737529 -0.717302 0.619806
v -1.660377 -0.714931 0.665791
v -1.567597 -0.702864 0.748374
v -1.584622 -0.756650 0.582529
v -1.559508 -0.768657 0.560772
v -1.346417 -0.702232 0.747745
v -1.403440 -0.820809 0.406638
v -1.352738 -0.823469 0.396956
v -1.379917 -0.824325 0.395541
v -1.183904 -0.742795 0.397858
v -1.157555 -0.643814 0.689342
v -0.971700 -0.522053 0.567608
v -2.124498 0.014855 0.925448
v -2.213462 -0.293107 0.766979
v -1.890200 -0.322998 0.881307
v -1.915873 0.053853 1.062838
v -1.870210 -0.242261 0.913908
v -1.840911 -0.324383 0.868502
v -1.755842 -0.115538 0.947081
v -1.760370 0.019201 1.012415
v -1.730638 -0.094103 0.962182
v -1.545986 -0.130091 0.978849
v -1.475149 0.051155 1.149016
v -1.415796 -0.139404 0.974743
v -1.321523 -0.007945 1.039560
v -1.342595 -0.239809 0.924476
v -1.136962 -0.069490 0.930732
v -1.287560 -0.293298 0.869476
v -1.183909 -0.352351 0.788382
v -0.959284 -0.175778 0.713147
v -1.019216 -0.344365 0.625364
v -1.352744 -0.351467 0.869054
v -1.351527 -0.338082 0.875698
v -1.379924 -0.350053 0.869909
v -2.124487 -0.879797 0.030611
v -1.890194 -0.835723 0.368475
v -2.213458 -0.721396 0.338603
v -1.915859 -1.017180 -0.008411
v -1.870261 -0.868779 0.288201
v -1.840905 -0.822919 0.369866
v -1.755833 -0.901453 0.161006
v -1.760357 -0.966760 0.026250
v -1.730651 -0.916723 0.139742
v -1.545975 -0.933221 0.175556
v -1.475134 -1.103350 -0.005727
v -1.415722 -0.928598 0.184350
v -1.321510 -0.993906 0.053395
v -1.342587 -0.878867 0.285285
v -1.136951 -0.885089 0.114966
v -1.287757 -0.825512 0.340422
v -1.183904 -0.742795 0.397858
v -0.959277 -0.667522 0.221303
v -1.019214 -0.579775 0.389907
v -1.352738 -0.823469 0.396956
v -1.351521 -0.830112 0.383568
v -1.379917 -0.824325 0.395541
v -1.136951 -0.885089 0.114966
v -1.154319 -0.698860 -0.036512
v -0.959277 -0.667522 0.221303
v -1.001376 -0.553283 0.128015
v -0.900249 -0.324132 0.369728
v -1.136962 -0.069490 0.930732
v -1.154329 0.082029 0.744536
v -0.959284 -0.175778 0.713147
v -1.001383 -0.082467 0.598929
v -0.900249 -0.324132 0.369728
v -1.721475 -0.842558 0.065593
v -1.730651 -0.916723 0.139742
v -1.746656 -0.827289 0.086855
v -1.755833 -0.901453 0.161006
v -1.861085 -0.794614 0.214050
v -1.870261 -0.868779 0.288201
v -1.831732 -0.748754 0.295716
v -1.840905 -0.822919 0.369866
v -1.792147 -0.692286 0.414766
v -1.801322 -0.766451 0.488916
v -1.758325 -0.661169 0.477157
v -1.767497 -0.735334 0.551307
v -1.728356 -0.643137 0.545656
v -1.737529 -0.717302 0.619806
v -1.183909 -0.352351 0.788382
v -0.971700 -0.522053 0.567608
v -1.019216 -0.344365 0.625364
v -0.900249 -0.324132 0.369728
v -1.183904 -0.742795 0.397858
v -0.971700 -0.522053 0.567608
v -1.019214 -0.579775 0.389907
v -0.900249 -0.324132 0.369728
v -0.959284 -0.175778 0.713147
v -1.019216 -0.344365 0.625364
v -0.900249 -0.324132 0.369728
v -0.959277 -0.667522 0.221303
v -1.019214 -0.579775 0.389907
v -0.900249 -0.324132 0.369728
v -2.100565 -0.567955 0.732098
v -2.088937 -0.473936 0.638097
v -2.168971 -0.549994 0.595528
v -2.180602 -0.644013 0.689528
v -2.101148 -0.691272 0.618164
v -2.089515 -0.597253 0.524163
v -1.831737 -0.250217 0.794353
v -1.861036 -0.168095 0.839759
v -1.870210 -0.242261 0.913908
v -1.755842 -0.115538 0.947081
v -1.840911 -0.324383 0.868502
v -1.746667 -0.041372 0.872932
v -1.792257 -0.370100 0.738703
v -1.730638 -0.094103 0.962182
v -1.801429 -0.444263 0.812851
v -1.721466 -0.019939 0.888031
v -1.758327 -0.431640 0.706732
v -1.767502 -0.505805 0.780881
v -1.728392 -0.500407 0.688955
v -1.737564 -0.574573 0.763104
v -1.316973 -0.770357 -0.128147
v -1.321510 -0.993906 0.053395
v -1.444773 -0.843137 -0.216756
v -1.475134 -1.103350 -0.005727
v -1.136951 -0.885089 0.114966
v -1.760357 -0.966760 0.026250
v -1.154319 -0.698860 -0.036512
v -1.712966 -0.745862 -0.152640
v -1.851343 -0.778025 -0.201934
v -1.915859 -1.017180 -0.008411
v -2.043618 -0.681699 -0.129371
v -2.124487 -0.879797 0.030611
v -1.278584 -0.751346 0.266273
v -1.287757 -0.825512 0.340422
v -1.342348 -0.755947 0.309418
v -1.351521 -0.830112 0.383568
v -1.370744 -0.750160 0.321391
v -1.728356 -0.643137 0.545656
v -1.379917 -0.824325 0.395541
v -1.737529 -0.717302 0.619806
v -1.394267 -0.746644 0.332488
v -1.651204 -0.640766 0.591641
v -1.403440 -0.820809 0.406638
v -1.660377 -0.714931 0.665791
v -1.550333 -0.694492 0.486623
v -1.584622 -0.756650 0.582529
v -1.559508 -0.768657 0.560772
v -1.575450 -0.682487 0.508380
v -1.912535 -0.525347 0.679161
v -1.808862 -0.678868 0.724380
v -1.924163 -0.619367 0.773161
v -1.797231 -0.584848 0.630380
v -1.966513 -0.539774 0.785911
v -1.954882 -0.445751 0.691907
v -2.100565 -0.567955 0.732098
v -2.088937 -0.473936 0.638097
v -1.730638 -0.094103 0.962182
v -1.721466 -0.019939 0.888031
v -1.536814 -0.055927 0.904698
v -1.545986 -0.130091 0.978849
v -1.415796 -0.139404 0.974743
v -1.406621 -0.065240 0.900592
v -2.213462 -0.293107 0.766979
v -2.213458 -0.721396 0.338603
v -2.357319 -0.602134 0.647655
v -1.712966 -0.745862 -0.152640
v -1.712979 0.198139 0.791556
v -1.001376 -0.553283 0.128015
v -1.154319 -0.698860 -0.036512
v -1.316973 -0.770357 -0.128147
v -1.444773 -0.843137 -0.216756
v -1.001383 -0.082467 0.598929
v -0.900249 -0.324132 0.369728
v -1.154329 0.082029 0.744536
v -1.316985 0.173647 0.816048
v -1.444787 0.262238 0.888846
v -2.043618 -0.681699 -0.129371
v -1.851343 -0.778025 -0.201934
v -2.043629 0.174880 0.727382
v -1.851356 0.247426 0.823727
v -2.043618 -0.681699 -0.129371
v -2.213462 -0.293107 0.766979
v -2.043629 0.174880 0.727382
v -2.124498 0.014855 0.925448
v -2.213458 -0.721396 0.338603
v -2.124487 -0.879797 0.030611
v -1.415722 -0.928598 0.184350
v -1.406548 -0.854434 0.110202
v -1.333414 -0.804701 0.211136
v -1.342587 -0.878867 0.285285
v -1.278584 -0.751346 0.266273
v -1.287757 -0.825512 0.340422
v -1.651204 -0.640766 0.591641
v -1.660377 -0.714931 0.665791
v -1.584622 -0.756650 0.582529
v -1.575450 -0.682487 0.508380
v -1.912535 -0.525347 0.679161
v -1.924163 -0.619367 0.773161
v -1.930455 -0.611144 0.777867
v -1.918825 -0.517123 0.683868
v -1.966513 -0.539774 0.785911
v -1.954882 -0.445751 0.691907
v -1.955177 -0.648738 0.493657
v -1.966805 -0.742760 0.587659
v -1.918823 -0.638323 0.562642
v -1.930453 -0.732345 0.656644
v -1.912539 -0.633690 0.570939
v -1.924170 -0.727710 0.664940
v -1.415796 -0.139404 0.974743
v -1.406621 -0.065240 0.900592
v -1.651242 -0.546400 0.686588
v -1.333422 -0.165644 0.850325
v -1.660414 -0.620564 0.760736
v -1.342595 -0.239809 0.924476
v -1.584647 -0.537202 0.802362
v -1.287560 -0.293298 0.869476
v -1.575472 -0.463037 0.728213
v -1.278387 -0.219134 0.795325
v -1.929227 0.468025 0.603917
v -1.929187 -0.461849 0.603825
v -1.671822 -0.461839 0.603838
v -1.671862 0.468035 0.603929
v -1.929174 -0.599753 0.465894
v -1.671808 -0.599743 0.465907
v -1.671860 0.605966 0.466025
v -1.929225 0.605956 0.466013
v -1.929227 0.468025 0.603917
v -1.671862 0.468035 0.603929
v -1.671804 0.375155 -0.481217
v -1.929169 0.375144 -0.481232
v -1.671773 -0.368745 -0.481290
v -1.929138 -0.368756 -0.481304
v -1.671764 -0.599651 -0.463967
v -1.929129 -0.599663 -0.463978
v -1.929174 -0.599753 0.465894
v -1.671808 -0.599743 0.465907
v -1.929216 0.485394 0.373015
v -1.929180 0.485466 -0.370886
v -1.671815 0.485476 -0.370873
v -1.671804 0.375155 -0.481217
v -1.671851 0.485405 0.373026
v -1.929216 0.375049 0.483336
v -1.671851 0.375060 0.483348
v -1.929169 0.375144 -0.481232
v -1.671815 0.485476 -0.370873
v -1.671804 0.375155 -0.481217
v -1.671802 0.468153 -0.601779
v -1.671815 0.606057 -0.463849
v -1.671762 -0.461721 -0.601870
v -1.671860 0.605966 0.466025
v -1.671773 -0.368745 -0.481290
v -1.671851 0.485405 0.373026
v -1.671862 0.468035 0.603929
v -1.671851 0.375060 0.483348
v -1.671773 -0.479089 -0.370969
v -1.671764 -0.599651 -0.463967
v -1.671811 -0.479162 0.372932
v -1.671808 -0.599743 0.465907
v -1.671820 -0.368840 0.483277
v -1.671851 0.375060 0.483348
v -1.671862 0.468035 0.603929
v -1.671822 -0.461839 0.603838
v -1.671811 -0.479162 0.372932
v -1.671808 -0.599743 0.465907
v -1.929127 -0.461731 -0.601883
v -1.929167 0.468143 -0.601793
v -1.671802 0.468153 -0.601779
v -1.929180 0.606047 -0.463862
v -1.671762 -0.461721 -0.601870
v -1.671815 0.606057 -0.463849
v -1.671764 -0.599651 -0.463967
v -1.929129 -0.599663 -0.463978
v -1.671820 -0.368840 0.483277
v -1.929185 -0.368850 0.483263
v -1.671851 0.375060 0.483348
v -1.929216 0.375049 0.483336
v -1.929180 0.606047 -0.463862
v -1.671815 0.606057 -0.463849
v -1.671860 0.605966 0.466025
v -1.929225 0.605956 0.466013
v -1.671773 -0.368745 -0.481290
v -1.929138 -0.368756 -0.481304
v -1.671773 -0.479089 -0.370969
v -1.929138 -0.479101 -0.370980
v -1.671811 -0.479162 0.372932
v -1.929176 -0.479174 0.372920
v -1.671820 -0.368840 0.483277
v -1.929176 -0.479174 0.372920
v -1.929185 -0.368850 0.483263
v -1.671811 -0.479162 0.372932
v -1.929180 0.606047 -0.463862
v -1.929216 0.485394 0.373015
v -1.929225 0.605956 0.466013
v -1.929227 0.468025 0.603917
v -1.929216 0.375049 0.483336
v -1.929180 0.485466 -0.370886
v -1.929167 0.468143 -0.601793
v -1.929169 0.375144 -0.481232
v -1.929138 -0.368756 -0.481304
v -1.929127 -0.461731 -0.601883
v -1.929138 -0.479101 -0.370980
v -1.929129 -0.599663 -0.463978
v -1.929174 -0.599753 0.465894
v -1.929176 -0.479174 0.372920
v -1.929216 0.375049 0.483336
v -1.929185 -0.368850 0.483263
v -1.929187 -0.461849 0.603825
v -1.929227 0.468025 0.603917
v -1.929176 -0.479174 0.372920
v -1.929174 -0.599753 0.465894
v 1.882502 0.505141 0.504981
v 1.882525 -0.499616 0.504898
v 1.882525 0.505224 -0.499777
v 1.882547 -0.499534 -0.499859
v -2.136504 -0.499717 0.504800
v 1.882525 -0.499616 0.504898
v -2.136529 0.505040 0.504882
v 1.882502 0.505141 0.504981
v 1.882525 -0.499616 0.504898
v -2.136504 -0.499717 0.504800
v 1.882547 -0.499534 -0.499859
v -2.136480 -0.499634 -0.499956
v -2.136504 -0.499717 0.504800
v -2.136529 0.505040 0.504882
v -2.136480 -0.499634 -0.499956
v -2.136504 0.505122 -0.499873
v -2.136504 0.505122 -0.499873
v 1.882525 0.505224 -0.499777
v -2.136480 -0.499634 -0.499956
v 1.882547 -0.499534 -0.499859
v -2.136529 0.505040 0.504882
v 1.882502 0.505141 0.504981
v -2.136504 0.505122 -0.499873
v 1.882525 0.505224 -0.499777
v -2.168927 -0.550184 0.595475
v -1.931241 -0.606512 0.651795
v -2.088892 -0.474126 0.638045
v -2.089473 -0.597443 0.524111
v -1.918780 -0.517313 0.683815
v -1.954840 -0.445943 0.691856
v -1.912490 -0.525539 0.679110
v -1.797187 -0.585040 0.630328
v -1.912495 -0.633880 0.570887
v -1.918778 -0.638513 0.562589
v -1.955132 -0.648928 0.493605
v -1.542784 -0.267122 0.801128
v -1.406577 -0.065430 0.900539
v -1.536769 -0.056119 0.904647
v -1.333378 -0.165834 0.850272
v -1.746623 -0.041565 0.872880
v -1.721421 -0.020131 0.887979
v -1.342310 -0.264107 0.801496
v -1.278343 -0.219324 0.795273
v -1.370704 -0.276078 0.795707
v -1.394222 -0.287126 0.792136
v -1.550293 -0.441301 0.740003
v -1.739518 -0.253000 0.770359
v -1.860991 -0.168287 0.839708
v -1.831694 -0.250409 0.794301
v -1.792212 -0.370290 0.738650
v -1.575428 -0.463227 0.728160
v -1.758285 -0.431830 0.706680
v -1.728347 -0.500597 0.688902
v -1.651198 -0.546590 0.686536
v -1.575405 -0.682677 0.508328
v -1.758280 -0.661359 0.477105
v -1.739511 -0.725000 0.298260
v -1.728312 -0.643327 0.545603
v -1.651160 -0.640958 0.591590
v -1.792103 -0.692476 0.414714
v -1.831688 -0.748944 0.295664
v -1.861042 -0.794803 0.214000
v -1.550289 -0.694682 0.486570
v -1.746614 -0.827480 0.086805
v -1.542778 -0.755773 0.312377
v -1.394223 -0.746836 0.332437
v -1.370700 -0.750349 0.321339
v -1.536758 -0.859246 0.101353
v -1.721432 -0.842748 0.065540
v -1.406504 -0.854626 0.110151
v -1.333370 -0.804893 0.211084
v -1.342304 -0.756137 0.309365
v -1.278540 -0.751538 0.266221
v -2.286479 -0.059360 0.847461
v -2.114871 0.066963 0.887655
v -2.209068 0.058204 0.820847
v -2.202890 -0.111986 0.940715
v -1.991562 -0.131765 0.910663
v -2.360429 -0.375420 0.840871
v -2.194110 -0.244471 0.812756
v -2.360433 -0.195136 0.768788
v -3.877012 -0.187105 0.544529
v -2.289638 -0.444935 0.899336
v -2.020314 -0.467028 0.808353
v -0.924285 -0.197598 0.496340
v -0.841448 -0.295375 0.511354
v -0.837429 -0.215653 0.478273
v -0.770593 -0.208166 0.485767
v -0.934221 -0.295867 0.536946
v -0.980777 -0.162663 0.531291
v -0.993821 -0.289848 0.582803
v -0.770753 -0.315445 0.534218
v -0.634709 -0.168734 0.525203
v -0.616778 -0.254092 0.570526
v -0.588397 -0.256695 0.547676
v -0.602535 -0.185694 0.508240
v -2.360427 -0.623141 0.506555
v -2.180874 -0.563645 0.368333
v -2.360429 -0.550735 0.326452
v -3.884782 -0.523416 0.315116
v -2.266837 -0.660674 0.568337
v -2.014844 -0.759830 0.490645
v -2.167652 -0.680603 0.071740
v -2.166638 -0.744343 0.268936
v -2.078615 -0.691246 0.090001
v -1.991554 -0.864906 0.177379
v -2.245065 -0.707242 0.189295
v -2.294559 -0.649315 0.038847
v -2.273468 -0.529939 0.701947
v -2.360429 -0.375420 0.840871
v -2.360429 -0.472529 0.661101
v -3.877012 -0.187105 0.544529
v -2.289638 -0.444935 0.899336
v -2.020314 -0.467028 0.808353
v -2.360427 -0.623141 0.506555
v -2.360425 -0.782129 0.424459
v -2.283415 -0.854350 0.475233
v -3.884782 -0.523416 0.315116
v -2.266837 -0.660674 0.568337
v -2.014844 -0.759830 0.490645
v -2.166645 -0.223302 0.790082
v -2.202890 -0.111986 0.940715
v -1.991562 -0.131765 0.910663
v -2.166638 -0.744343 0.268936
v -2.202881 -0.894953 0.157586
v -1.991554 -0.864906 0.177379
v -0.938724 -0.409727 0.495875
v -0.837168 -0.429744 0.389815
v -0.841341 -0.387707 0.478363
v -0.757383 -0.433175 0.494078
v -0.935154 -0.461600 0.386303
v -0.999729 -0.439285 0.528902
v -0.995044 -0.507360 0.385100
v -0.738315 -0.486478 0.382936
v -0.652409 -0.370928 0.460589
v -0.620317 -0.336396 0.542317
v -0.616487 -0.348813 0.460996
v -0.591185 -0.321581 0.525428
v -0.934221 -0.295867 0.536946
v -0.938724 -0.409727 0.495875
v -0.841448 -0.295375 0.511354
v -0.999729 -0.439285 0.528902
v -0.993821 -0.289848 0.582803
v -0.841341 -0.387707 0.478363
v -0.770753 -0.315445 0.534218
v -0.757383 -0.433175 0.494078
v -0.620317 -0.336396 0.542317
v -0.616778 -0.254092 0.570526
v -0.588397 -0.256695 0.547676
v -0.591185 -0.321581 0.525428
v -0.602535 -0.185694 0.508240
v -0.616487 -0.348813 0.460996
v -0.607304 -0.312111 0.381798
v -0.588397 -0.256695 0.547676
v -0.591185 -0.321581 0.525428
v -0.724715 -0.436056 0.257835
v -0.738315 -0.486478 0.382936
v -0.640756 -0.329073 0.364838
v -0.652409 -0.370928 0.460589
v -2.197453 -0.757320 0.275227
v -2.180874 -0.563645 0.368333
v -2.014844 -0.759830 0.490645
v -2.114857 -0.841854 -0.021350
v -2.078615 -0.691246 0.090001
v -1.991554 -0.864906 0.177379
v -2.114871 0.066963 0.887655
v -2.078624 -0.044355 0.737022
v -1.991562 -0.131765 0.910663
v -2.194110 -0.244471 0.812756
v -2.177940 -0.329475 0.615364
v -2.020314 -0.467028 0.808353
v -2.209057 -0.775049 -0.012576
v -2.114857 -0.841854 -0.021350
v -2.286468 -0.801684 0.104976
v -2.202881 -0.894953 0.157586
v -1.991554 -0.864906 0.177379
v -2.360425 -0.782129 0.424459
v -2.360427 -0.709724 0.244355
v -2.197453 -0.757320 0.275227
v -3.884782 -0.523416 0.315116
v -2.283415 -0.854350 0.475233
v -2.014844 -0.759830 0.490645
v -0.935154 -0.461600 0.386303
v -0.925604 -0.421287 0.272606
v -0.837168 -0.429744 0.389815
v -0.982512 -0.456225 0.237659
v -0.995044 -0.507360 0.385100
v -0.831369 -0.396588 0.297301
v -0.724715 -0.436056 0.257835
v -0.738315 -0.486478 0.382936
v -0.640756 -0.329073 0.364838
v -0.652409 -0.370928 0.460589
v -0.616487 -0.348813 0.460996
v -0.607304 -0.312111 0.381798
v -2.177940 -0.329475 0.615364
v -2.360429 -0.472529 0.661101
v -2.360431 -0.292251 0.589019
v -3.877012 -0.187105 0.544529
v -2.273468 -0.529939 0.701947
v -2.020314 -0.467028 0.808353
v -2.167661 -0.026089 0.726380
v -2.078624 -0.044355 0.737022
v -2.166645 -0.223302 0.790082
v -1.991562 -0.131765 0.910663
v -2.245070 -0.143653 0.752994
v -2.294566 0.006810 0.695099
v -0.831369 -0.396588 0.297301
v -0.770593 -0.208166 0.485767
v -0.640756 -0.329073 0.364838
v -0.724715 -0.436056 0.257835
v -0.607304 -0.312111 0.381798
v -0.602535 -0.185694 0.508240
v -0.634709 -0.168734 0.525203
v -0.837429 -0.215653 0.478273
v -0.924285 -0.197598 0.496340
v -0.925604 -0.421287 0.272606
v -0.980777 -0.162663 0.531291
v -0.982512 -0.456225 0.237659
v -2.360429 -0.550735 0.326452
v -2.197453 -0.757320 0.275227
v -2.360427 -0.709724 0.244355
v -3.884782 -0.523416 0.315116
v -2.180874 -0.563645 0.368333
v -2.167652 -0.680603 0.071740
v -2.114857 -0.841854 -0.021350
v -2.209057 -0.775049 -0.012576
v -2.294559 -0.649315 0.038847
v -2.078615 -0.691246 0.090001
v -2.167661 -0.026089 0.726380
v -2.114871 0.066963 0.887655
v -2.078624 -0.044355 0.737022
v -2.209068 0.058204 0.820847
v -2.294566 0.006810 0.695099
v -2.360431 -0.292251 0.589019
v -2.194110 -0.244471 0.812756
v -2.177940 -0.329475 0.615364
v -2.360433 -0.195136 0.768788
v -3.877012 -0.187105 0.544529
v -2.209057 -0.775049 -0.012576
v -2.286468 -0.801684 0.104976
v -2.294559 -0.649315 0.038847
v -2.286479 -0.059360 0.847461
v -2.209068 0.058204 0.820847
v -2.294566 0.006810 0.695099
v -2.273468 -0.529939 0.701947
v -2.360429 -0.375420 0.840871
v -2.289638 -0.444935 0.899336
v -2.360427 -0.623141 0.506555
v -2.360425 -0.782129 0.424459
v -2.283415 -0.854350 0.475233
v -2.166645 -0.223302 0.790082
v -2.286479 -0.059360 0.847461
v -2.245070 -0.143653 0.752994
v -2.294566 0.006810 0.695099
v -2.202890 -0.111986 0.940715
v -2.166638 -0.744343 0.268936
v -2.286468 -0.801684 0.104976
v -2.202881 -0.894953 0.157586
v -2.245065 -0.707242 0.189295
v -2.294559 -0.649315 0.038847
vn -0.0868 0.7989 0.5952
vn -0.4726 0.7542 0.4559
vn -0.4725 0.7543 0.4559
vn -0.0316 0.7908 0.6112
vn 0.0236 0.7690 0.6388
vn -0.0158 0.7692 0.6388
vn 0.1652 0.7668 0.6202
vn 0.1262 0.7759 0.6181
vn 0.6016 0.6091 0.5168
vn 0.5968 0.6149 0.5155
vn 0.6613 0.6181 0.4250
vn 0.6771 0.6102 0.4114
vn -0.0709 0.7123 0.6983
vn 0.3465 0.6409 0.6850
vn 0.3697 0.6362 0.6772
vn -0.5049 0.6425 0.5765
vn -0.4652 0.6540 0.5966
vn 0.5651 0.5469 0.6177
vn 0.5834 0.5335 0.6124
vn -0.1176 0.7091 0.6952
vn -0.3795 0.6754 0.6324
vn -0.5501 0.6215 0.5578
vn -0.7012 0.5464 0.4580
vn -0.6857 0.5544 0.4717
vn 0.7254 0.4415 0.5281
vn 0.6070 0.5199 0.6011
vn -0.2448 0.6983 0.6727
vn -0.2282 0.6996 0.6771
vn -0.6935 0.5504 0.4648
vn -0.7253 0.5280 0.4417
vn -0.7400 0.5194 0.4274
vn -0.4088 0.6677 0.6221
vn -0.9075 0.3465 0.2373
vn -0.9955 0.0861 -0.0406
vn -0.5907 0.6070 0.5317
vn -0.5289 0.6350 0.5631
vn 0.1890 -0.3076 0.9325
vn 0.5043 -0.2289 0.8327
vn 0.1880 -0.3126 0.9311
vn 0.5125 -0.2223 0.8294
vn 0.7782 -0.0470 0.6262
vn 0.0080 -0.3281 0.9446
vn 0.0079 -0.3282 0.9446
vn -0.0315 -0.3280 0.9441
vn -0.0786 -0.3271 0.9417
vn -0.1660 -0.3195 0.9329
vn 0.0395 -0.3441 0.9381
vn 0.1502 -0.3517 0.9240
vn 0.2120 -0.3534 0.9111
vn 0.1023 -0.3425 0.9339
vn -0.0394 -0.3174 0.9475
vn -0.3070 -0.2518 0.9178
vn -0.3070 -0.2517 0.9178
vn -0.3069 -0.2518 0.9178
vn -0.3161 -0.9163 0.2461
vn -0.3160 -0.9163 0.2461
vn -0.0394 -0.9495 0.3113
vn 0.1027 -0.9351 0.3391
vn 0.2120 -0.9110 0.3536
vn 0.1573 -0.9230 0.3512
vn 0.0394 -0.9389 0.3420
vn -0.1653 -0.9328 0.3204
vn -0.0790 -0.9423 0.3253
vn -0.1653 -0.9328 0.3203
vn -0.0315 -0.9443 0.3275
vn 0.1892 -0.9316 0.3102
vn 0.0078 -0.9448 0.3277
vn 0.1893 -0.9316 0.3102
vn 0.0079 -0.9448 0.3277
vn 0.5041 -0.8334 0.2264
vn 0.5133 -0.8287 0.2231
vn 0.7776 -0.6272 0.0446
vn -0.3935 -0.3799 0.8372
vn -0.3934 -0.3799 0.8372
vn -0.0790 -0.4162 0.9058
vn -0.1025 -0.4153 0.9039
vn 0.2048 -0.4162 0.8859
vn 0.0864 -0.4611 0.8831
vn -0.0236 -0.4970 0.8674
vn -0.2599 -0.5525 0.7920
vn -0.0947 -0.5806 0.8087
vn -0.0473 -0.5909 0.8053
vn 0.1105 -0.5996 0.7927
vn 0.2047 -0.5511 0.8090
vn 0.3061 -0.4890 0.8169
vn 0.4405 -0.4650 0.7680
vn 0.3541 -0.4552 0.8170
vn 0.4894 -0.4687 0.7354
vn 0.6671 -0.4755 0.5735
vn 0.7251 -0.4789 0.4949
vn 0.1892 -0.4528 0.8713
vn 0.2435 -0.4590 0.8544
vn 0.0078 -0.4472 0.8944
vn -0.3944 -0.8357 0.3822
vn -0.0788 -0.9067 0.4143
vn -0.3943 -0.8357 0.3822
vn -0.1022 -0.9048 0.4134
vn 0.2045 -0.8877 0.4125
vn 0.2045 -0.8877 0.4126
vn 0.0869 -0.8855 0.4564
vn -0.0236 -0.8697 0.4930
vn -0.2603 -0.7940 0.5494
vn -0.0943 -0.8066 0.5836
vn -0.0473 -0.8093 0.5855
vn 0.1104 -0.7907 0.6021
vn 0.2047 -0.8101 0.5494
vn 0.3067 -0.8163 0.4894
vn 0.4408 -0.7694 0.4623
vn 0.3537 -0.8178 0.4540
vn 0.4873 -0.7359 0.4702
vn 0.6693 -0.5712 0.4752
vn 0.7244 -0.4970 0.4778
vn 0.1884 -0.8695 0.4566
vn 0.2443 -0.8551 0.4573
vn 0.0078 -0.8957 0.4445
vn 0.6740 -0.4158 -0.6106
vn 0.8495 -0.1778 -0.4968
vn 0.6611 -0.4283 -0.6160
vn 0.8605 -0.1529 -0.4860
vn 0.9173 0.0149 -0.3979
vn 0.6771 0.6102 0.4113
vn 0.6614 0.6180 0.4250
vn 0.8485 0.4997 0.1742
vn 0.8610 0.4866 0.1478
vn 0.9167 0.3994 -0.0134
vn 0.7178 0.4455 0.5351
vn 0.3697 0.6361 0.6772
vn 0.3465 0.6409 0.6849
vn 0.9404 0.1767 0.2904
vn 0.9935 -0.0073 0.1135
vn 0.9394 -0.2936 -0.1769
vn 0.9168 -0.3352 -0.2172
vn 0.9075 -0.3466 -0.2373
vn 0.8753 -0.3915 -0.2839
vn 0.7254 -0.5280 -0.4416
vn 0.6080 -0.6006 -0.5193
vn 0.7783 -0.0470 0.6262
vn 0.7698 -0.0498 0.6364
vn 0.8995 0.0998 0.4253
vn 0.5042 -0.8334 0.2264
vn 0.7710 -0.6350 0.0486
vn 0.9001 -0.4235 -0.1020
vn 0.7252 -0.4788 0.4948
vn 0.8142 -0.4682 0.3433
vn 0.7244 -0.4969 0.4778
vn 0.8143 -0.3402 0.4702
vn 0.9962 -0.0708 0.0499
vn 0.5591 -0.6187 -0.5520
vn 0.5820 -0.6101 -0.5377
vn 0.9961 -0.0487 0.0737
vn 0.5836 0.5348 0.6110
vn 0.9405 0.1767 0.2904
vn 0.9394 -0.2935 -0.1770
vn 0.9936 -0.1125 0.0103
vn 0.7179 -0.5323 -0.4487
vn 0.9152 0.2217 0.3366
vn 0.3700 -0.6766 -0.6366
vn 0.9047 0.2396 0.3522
vn 0.3469 -0.6815 -0.6444
vn 0.8754 0.2815 0.3930
vn 0.7254 0.4414 0.5281
vn 0.6070 0.5199 0.6010
vn 0.5990 -0.5169 -0.6116
vn 0.1651 -0.6167 -0.7697
vn 0.1255 -0.6195 -0.7749
vn 0.6611 -0.4283 -0.6161
vn 0.0236 -0.6423 -0.7661
vn -0.0158 -0.6364 -0.7712
vn -0.0315 -0.6110 -0.7910
vn -0.0864 -0.5966 -0.7979
vn -0.4722 -0.4543 -0.7555
vn -0.4721 -0.4543 -0.7555
vn -0.9077 -0.2365 -0.3465
vn -0.4092 -0.6217 -0.6679
vn -0.9953 0.0407 -0.0874
vn -0.4092 -0.6217 -0.6678
vn -0.4092 -0.6218 -0.6678
vn -0.5263 -0.5659 -0.6347
vn -0.2436 -0.6686 -0.7026
vn 0.6079 -0.6006 -0.5193
vn 0.7253 -0.5281 -0.4416
vn -0.5924 -0.5318 -0.6052
vn -0.2283 -0.6767 -0.7000
vn -0.6935 -0.4638 -0.5513
vn -0.6935 -0.4638 -0.5512
vn -0.7254 -0.4414 -0.5281
vn -0.7411 -0.4267 -0.5184
vn -0.7014 -0.4599 -0.5445
vn -0.5500 -0.5582 -0.6213
vn -0.6855 -0.4677 -0.5580
vn 0.5819 -0.6101 -0.5378
vn -0.0947 -0.7001 -0.7077
vn -0.3932 -0.6252 -0.6742
vn 0.5590 -0.6187 -0.5520
vn -0.0707 -0.7002 -0.7105
vn 0.3700 -0.6766 -0.6367
vn -0.0706 -0.7001 -0.7105
vn -0.5048 -0.5791 -0.6402
vn -0.4642 -0.5962 -0.6551
vn -0.8944 0.3149 -0.3177
vn 0.0867 0.7029 -0.7060
vn 0.0867 0.7028 -0.7060
vn 0.0867 0.7028 -0.7061
vn -0.8944 0.3148 -0.3177
vn -0.8944 0.3149 -0.3176
vn -0.8104 0.4621 0.3601
vn -0.4652 0.6539 0.5966
vn -0.9953 0.0408 -0.0874
vn -0.2282 -0.6767 -0.7000
vn -0.2435 -0.6686 -0.7026
vn -0.8133 -0.3566 -0.4597
vn -0.7015 -0.4599 -0.5444
vn -0.0947 -0.7002 -0.7077
vn -0.1176 0.7092 0.6952
vn -0.3794 0.6754 0.6324
vn -0.8104 0.4622 0.3600
vn -0.7013 0.5464 0.4579
vn -0.8096 -0.3589 -0.4644
vn -0.5048 -0.5790 -0.6402
vn -0.2281 0.6997 0.6770
vn -0.9075 0.3466 0.2373
vn -0.7253 0.5280 0.4416
vn -0.9955 0.0861 -0.0405
vn -0.0000 0.3796 0.9251
vn -0.0000 -0.3856 0.9227
vn -0.0000 -0.9251 0.3797
vn -0.0000 0.3797 0.9251
vn -0.0000 0.9226 0.3857
vn -0.0001 0.3797 0.9251
vn -0.0001 0.3796 0.9251
vn -0.0000 -0.9251 0.3796
vn -0.0000 -0.9227 -0.3856
vn -0.0000 -0.3856 0.9226
vn 0.0001 -0.3797 -0.9251
vn -0.0000 -0.3797 -0.9251
vn 1.0000 -0.0000 0.0001
vn 1.0000 -0.0000 -0.0000
vn 1.0000 0.0001 0.0001
vn 1.0000 0.0001 -0.0000
vn -0.0000 0.3856 -0.9227
vn -0.0000 0.9251 -0.3797
vn -0.0000 -0.3796 -0.9251
vn -0.0000 -0.9226 -0.3857
vn 0.0001 -0.9226 -0.3857
vn 0.0001 -0.3796 -0.9251
vn -0.0000 0.9251 -0.3796
vn -0.0001 0.9227 0.3856
vn -0.0000 0.9227 0.3856
vn -0.0000 0.3857 -0.9226
vn -1.0000 -0.0000 -0.0001
vn -1.0000 -0.0000 -0.0000
vn -1.0000 -0.0001 -0.0001
vn -1.0000 -0.0001 -0.0000
vn -0.0000 -0.0034 1.0000
vn -0.0000 -1.0000 -0.0034
vn -0.0000 0.0034 -1.0000
vn -0.0000 1.0000 0.0034
vn -0.3305 -0.6501 0.6842
vn -0.0709 -0.6983 0.7123
vn -0.2998 -0.2524 0.9200
vn -0.2834 -0.9137 0.2911
vn -0.1893 -0.2864 0.9392
vn 0.2045 -0.3540 0.9126
vn 0.2199 -0.6906 0.6889
vn 0.2045 -0.9125 0.3542
vn -0.1816 -0.9330 0.3106
vn -0.2834 -0.9138 0.2911
vn -0.0785 -0.3844 0.9198
vn -0.0000 -0.4472 0.8944
vn -0.0868 -0.4416 0.8930
vn 0.0945 -0.4511 0.8875
vn -0.0709 -0.4363 0.8970
vn -0.1652 -0.4333 0.8860
vn 0.1255 -0.4495 0.8844
vn 0.3859 -0.4419 0.8098
vn -0.0000 -0.4216 0.9068
vn 0.0158 -0.3281 0.9445
vn -0.1258 -0.3207 0.9388
vn 0.0158 -0.3856 0.9225
vn 0.2123 -0.4155 0.8845
vn 0.2206 -0.3948 0.8919
vn 0.2282 -0.3475 0.9095
vn -0.1652 -0.3139 0.9350
vn -0.0941 -0.3267 0.9404
vn -0.1024 -0.9403 0.3245
vn 0.0158 -0.9220 0.3868
vn 0.2195 -0.9095 0.3530
vn 0.2133 -0.8928 0.3968
vn 0.2121 -0.8829 0.4189
vn -0.1257 -0.9378 0.3237
vn -0.0711 -0.8972 0.4359
vn -0.0785 -0.9193 0.3857
vn 0.0157 -0.9421 0.3349
vn 0.0078 -0.9059 0.4234
vn -0.0867 -0.8961 0.4353
vn -0.1653 -0.8874 0.4305
vn -0.0000 -0.8958 0.4445
vn 0.0868 -0.8891 0.4494
vn 0.1180 -0.8862 0.4480
vn 0.3535 -0.8254 0.4402
vn -0.5825 0.5105 0.6325
vn -0.3698 0.4369 0.8200
vn -0.6869 0.5486 0.4766
vn -0.0552 0.3111 0.9488
vn 0.1581 0.2101 0.9648
vn -0.1648 0.4021 0.9006
vn -0.0393 0.3793 0.9244
vn -0.1491 0.3816 0.9122
vn -0.1335 0.3681 0.9202
vn 0.1648 0.3058 0.9377
vn 0.3295 0.2376 0.9138
vn 0.4480 0.3039 0.8408
vn 0.0236 0.3867 0.9219
vn 0.0550 0.3791 0.9237
vn -0.2597 0.3914 0.8828
vn 0.4882 0.2927 0.8222
vn 0.6142 0.2426 0.7510
vn -0.2836 0.3880 0.8769
vn 0.0707 0.4850 0.8716
vn -0.0157 0.4724 0.8813
vn 0.5850 0.4784 0.6549
vn 0.0157 0.9182 0.3957
vn 0.1178 0.8852 0.4500
vn 0.0157 0.9225 0.3856
vn 0.0158 0.9267 0.3754
vn 0.3073 0.8037 0.5096
vn 0.4477 0.7116 0.5415
vn 0.1259 0.9423 0.3102
vn 0.4968 0.7375 0.4575
vn 0.2366 0.9013 0.3628
vn 0.6522 0.5753 0.4936
vn 0.1020 0.9467 0.3055
vn 0.1498 0.9373 0.3147
vn -0.4164 -0.8335 0.3632
vn -0.4962 -0.7780 0.3854
vn -0.3628 -0.8297 0.4243
vn -0.1975 -0.8643 0.4625
vn -0.4163 -0.8335 0.3632
vn 0.0630 -0.9142 0.4004
vn -0.2521 -0.8878 0.3851
vn -0.4328 -0.3957 0.8100
vn -0.3166 -0.4244 0.8483
vn -0.1416 -0.4544 0.8795
vn -0.3167 -0.4244 0.8483
vn -0.1968 -0.4268 0.8827
vn -0.3231 -0.4077 0.8540
vn 0.1025 -0.4409 0.8917
vn -0.3929 -0.7884 0.4733
vn 0.0079 -0.8009 0.5988
vn -0.2827 -0.8062 0.5198
vn -0.3629 -0.4897 0.7928
vn -0.2981 -0.5142 0.8042
vn 0.0079 -0.5999 0.8000
vn 0.4495 -0.8033 0.3908
vn -0.0631 -0.9077 0.4147
vn -0.0709 -0.9073 0.4145
vn 0.1258 -0.9182 0.3757
vn 0.3950 -0.8253 0.4034
vn 0.5595 -0.7403 0.3727
vn -0.0471 -0.9241 0.3792
vn 0.5437 -0.8003 0.2527
vn 0.5421 -0.8058 0.2384
vn 0.5197 -0.8412 0.1492
vn 0.3770 -0.3245 0.8675
vn 0.4418 -0.3173 0.8391
vn -0.0000 -0.3490 0.9371
vn 0.5592 -0.2995 0.7730
vn 0.5592 -0.2995 0.7731
vn -0.0710 -0.3435 0.9365
vn -0.2287 -0.3266 0.9171
vn -0.2124 -0.3327 0.9188
vn 0.0790 -0.3328 0.9397
vn 0.2988 -0.3266 0.8967
vn 0.5832 -0.2899 0.7588
vn 0.5832 -0.2900 0.7588
vn 0.9903 -0.0328 -0.1354
vn 0.9903 -0.0328 -0.1353
vn 0.9902 -0.0328 -0.1354
vn 0.7171 -0.6655 -0.2072
vn 0.3865 -0.8730 -0.2975
vn 0.2124 -0.9188 -0.3327
vn 0.7395 -0.6457 -0.1903
vn 0.5187 0.3474 -0.7812
vn 0.4084 0.3830 -0.8286
vn 0.7406 0.2377 -0.6285
vn 0.5505 0.4182 -0.7226
vn 0.4982 0.4479 -0.7424
vn 0.8439 0.1709 -0.5085
vn 0.5798 0.7095 -0.4005
vn 0.8466 0.5037 -0.1720
vn 0.4815 0.7469 -0.4585
vn 0.5748 0.7574 -0.3099
vn 0.7715 0.6056 -0.1950
vn 0.4262 0.8265 -0.3677
vn -0.6841 -0.4803 -0.5489
vn -0.3777 -0.8160 -0.4376
vn -0.5825 -0.6369 -0.5050
vn -0.0551 -0.9468 -0.3172
vn 0.1576 -0.9656 -0.2069
vn -0.2282 -0.8784 -0.4198
vn -0.1807 -0.9001 -0.3965
vn -0.1263 -0.8987 -0.4200
vn -0.1259 -0.9213 -0.3679
vn 0.1261 -0.9253 -0.3576
vn 0.3312 -0.8971 -0.2924
vn 0.4981 -0.8299 -0.2514
vn 0.4729 -0.8418 -0.2602
vn -0.0944 -0.9308 -0.3532
vn 0.5981 -0.7711 -0.2182
vn -0.0710 -0.9326 -0.3539
vn 0.2125 -0.9188 -0.3327
vn 0.7170 -0.6655 -0.2072
vn 0.5274 -0.7970 -0.2943
vn 0.7394 -0.6458 -0.1904
vn 0.1654 -0.4375 -0.8839
vn 0.0629 -0.3933 -0.9173
vn 0.0315 -0.3867 -0.9217
vn -0.0000 -0.3724 -0.9281
vn 0.3303 -0.4922 -0.8054
vn 0.4392 -0.5218 -0.7313
vn 0.1262 -0.3075 -0.9431
vn 0.2292 -0.3656 -0.9021
vn 0.4968 -0.4542 -0.7395
vn 0.6552 -0.4940 -0.5716
vn 0.1021 -0.3099 -0.9453
vn 0.1497 -0.3138 -0.9376
vn -0.0000 0.7069 -0.7073
vn -0.0000 0.7068 -0.7074
vn -0.0001 0.7071 -0.7071
vn -0.0000 0.7072 -0.7070
vn -0.0000 0.7069 -0.7074
vn 0.1264 0.4456 -0.8863
vn 0.5186 0.3475 -0.7813
vn 0.1495 0.4442 -0.8834
vn 0.0157 0.4568 -0.8894
vn 0.4083 0.3830 -0.8286
vn 0.2981 0.5434 -0.7847
vn 0.5504 0.4182 -0.7226
vn 0.2910 0.5447 -0.7865
vn 0.3305 0.5462 -0.7697
vn 0.4981 0.4479 -0.7425
vn 0.2987 0.7844 -0.5436
vn 0.5797 0.7096 -0.4006
vn 0.4815 0.7470 -0.4585
vn 0.2915 0.7862 -0.5448
vn 0.3316 0.7702 -0.5449
vn 0.1655 0.8768 -0.4515
vn 0.5747 0.7574 -0.3100
vn 0.4261 0.8266 -0.3677
vn 0.2049 0.8739 -0.4408
vn 0.0707 0.8792 -0.4712
vn -0.6841 -0.4802 -0.5490
vn -0.7702 -0.2842 -0.5710
vn -0.6870 0.5486 0.4765
vn -0.7708 0.5671 0.2902
vn -0.5825 0.5106 0.6324
vn -0.4963 -0.7779 0.3854
vn -0.2521 -0.8877 0.3851
vn -0.4329 -0.3957 0.8100
vn -0.3930 -0.7884 0.4733
vn -0.8358 -0.5324 0.1344
vn -0.8429 -0.5262 0.1127
vn -0.9318 -0.3491 -0.0994
vn -0.8442 -0.1171 0.5231
vn -0.2982 -0.5142 0.8042
vn -0.8343 -0.1265 0.5365
vn -0.9344 0.0979 0.3424
vt 32.016102 -20.999701
vt 32.023201 -21.017799
vt 32.027802 -21.003599
vt 32.012501 -21.016800
vt 32.007401 -21.000299
vt 32.004700 -21.016199
vt 31.989700 -21.014900
vt 31.991400 -20.996201
vt 31.982800 -20.998199
vt 31.982500 -21.014200
vt 31.972500 -21.000099
vt 31.973400 -21.013399
vt 31.994900 -21.001600
vt 32.005199 -21.003700
vt 32.005699 -20.997801
vt 31.995399 -20.995800
vt 31.988100 -20.995600
vt 31.987600 -21.001499
vt 32.025799 -20.995300
vt 32.026402 -20.987801
vt 32.018299 -20.994400
vt 32.018902 -20.987000
vt 32.010101 -20.984100
vt 32.015900 -20.992001
vt 32.016499 -20.984501
vt 32.009399 -20.991600
vt 32.005600 -20.992599
vt 32.006100 -20.986700
vt 32.001301 -20.990801
vt 32.001801 -20.985001
vt 31.996099 -20.987000
vt 31.997000 -20.992500
vt 31.997499 -20.986601
vt 31.983999 -20.997499
vt 31.980900 -20.993601
vt 31.980400 -20.999500
vt 31.995600 -20.992901
vt 31.984501 -20.991600
vt 31.987400 -20.991100
vt 31.985600 -20.997200
vt 31.986900 -20.996901
vt 31.986099 -20.991400
vt 32.000000 -20.984200
vt 31.984501 -20.975100
vt 31.981300 -20.984501
vt 32.000000 -20.973600
vt 32.000000 -20.963200
vt 31.981800 -20.987400
vt 31.981199 -20.986099
vt 31.990000 -20.996099
vt 32.000000 -20.996599
vt 31.991301 -20.997499
vt 31.996300 -21.001801
vt 32.000000 -21.008801
vt 31.994301 -21.006100
vt 31.990900 -21.007799
vt 32.000000 -21.010099
vt 31.995701 -21.016500
vt 31.995199 -21.016899
vt 31.987200 -21.009701
vt 31.979700 -21.014601
vt 31.980301 -21.011900
vt 31.992100 -21.018900
vt 31.983000 -21.032700
vt 31.995300 -21.026400
vt 32.000000 -21.030899
vt 32.000000 -21.040800
vt 32.016998 -21.032700
vt 32.007900 -21.018900
vt 32.004700 -21.026400
vt 32.020302 -21.014601
vt 32.004799 -21.016899
vt 32.012798 -21.009701
vt 32.019699 -21.011900
vt 32.009102 -21.007799
vt 32.004299 -21.016500
vt 32.005699 -21.006100
vt 32.003700 -21.001801
vt 32.008701 -20.997499
vt 32.009998 -20.996099
vt 32.018200 -20.987400
vt 32.018700 -20.984501
vt 32.018799 -20.986099
vt 32.015499 -20.975100
vt 31.964600 -21.027800
vt 31.957600 -21.016100
vt 31.975201 -21.013500
vt 31.968901 -21.007099
vt 31.961000 -21.007401
vt 31.967400 -21.005699
vt 31.968201 -20.995399
vt 31.954300 -20.991400
vt 31.968700 -20.988100
vt 31.961000 -20.982800
vt 31.974701 -20.983999
vt 31.967699 -20.972500
vt 31.979000 -20.980900
vt 31.980499 -20.962500
vt 31.990700 -20.965900
vt 31.980499 -20.984501
vt 32.035400 -21.027800
vt 32.042400 -21.016100
vt 32.024799 -21.013500
vt 32.031101 -21.007099
vt 32.039001 -21.007401
vt 32.032600 -21.005699
vt 32.031799 -20.995399
vt 32.045700 -20.991400
vt 32.031300 -20.988100
vt 32.039001 -20.982800
vt 32.025299 -20.983999
vt 32.032299 -20.972500
vt 32.021000 -20.980900
vt 32.019501 -20.962500
vt 32.009300 -20.965900
vt 32.019501 -20.984501
vt 31.969101 -21.013399
vt 31.980499 -21.004499
vt 31.967699 -21.000099
vt 31.981400 -21.012699
vt 32.000000 -21.012199
vt 32.030899 -21.013399
vt 32.032299 -21.000099
vt 32.019501 -21.004499
vt 32.018600 -21.012699
vt 31.968901 -21.003500
vt 31.967400 -20.997801
vt 31.967400 -21.003700
vt 31.968901 -20.997601
vt 31.975201 -20.999701
vt 31.975201 -20.993900
vt 31.980301 -20.998301
vt 31.980301 -20.992399
vt 31.987200 -20.995800
vt 31.987200 -20.990000
vt 31.990900 -20.994600
vt 31.990900 -20.988701
vt 31.994301 -20.992599
vt 31.994301 -20.986700
vt 32.015499 -20.994499
vt 32.000000 -20.996500
vt 32.009300 -21.001301
vt 31.984501 -20.994499
vt 31.990700 -21.001301
vt 32.000000 -20.994301
vt 32.004700 -20.995600
vt 32.004700 -20.988199
vt 32.000000 -20.986900
vt 31.995300 -20.987801
vt 31.995300 -20.995300
vt 32.019699 -20.998301
vt 32.024799 -20.999800
vt 32.024799 -20.993900
vt 32.031101 -20.997601
vt 32.019699 -20.992399
vt 32.031101 -21.003500
vt 32.012798 -20.995800
vt 32.032600 -20.997801
vt 32.012798 -20.989901
vt 32.032600 -21.003700
vt 32.009102 -20.994600
vt 32.009102 -20.988701
vt 32.005699 -20.992599
vt 32.005699 -20.986700
vt 32.017502 -21.014200
vt 32.017200 -20.998199
vt 32.010300 -21.014900
vt 32.008598 -20.996201
vt 32.027500 -21.000099
vt 31.992599 -21.000299
vt 32.026600 -21.013399
vt 31.995300 -21.016199
vt 31.987499 -21.016800
vt 31.983900 -20.999701
vt 31.976801 -21.017799
vt 31.972200 -21.003599
vt 32.019100 -20.993500
vt 32.015999 -20.997499
vt 32.019600 -20.999399
vt 32.015499 -20.991600
vt 32.014400 -20.997200
vt 32.013901 -20.991400
vt 32.013100 -20.996901
vt 31.998699 -20.990900
vt 31.993900 -20.986700
vt 31.994400 -20.992599
vt 32.012600 -20.991100
vt 31.998199 -20.985001
vt 32.004398 -20.992901
vt 32.003899 -20.987000
vt 32.002998 -20.992500
vt 32.002499 -20.986601
vt 31.984100 -20.992001
vt 31.989901 -20.984100
vt 31.983500 -20.984501
vt 31.990601 -20.991600
vt 31.973600 -20.988199
vt 31.981701 -20.994600
vt 31.981100 -20.987200
vt 31.974199 -20.995600
vt 32.005100 -21.001600
vt 31.994301 -20.997801
vt 31.994801 -21.003700
vt 32.004601 -20.995800
vt 32.011902 -20.995600
vt 32.012402 -21.001400
vt 31.962601 -21.004700
vt 32.037399 -21.004700
vt 31.981400 -20.964899
vt 31.969101 -20.973400
vt 31.962601 -20.982500
vt 31.956200 -20.989700
vt 32.018600 -20.964899
vt 32.000000 -20.959200
vt 32.030899 -20.973400
vt 32.037399 -20.982500
vt 32.043800 -20.989700
vt 31.966101 -21.023199
vt 31.959400 -21.012501
vt 32.033901 -21.023199
vt 32.040600 -21.012501
vt 32.033901 -21.017799
vt 31.983000 -20.997700
vt 31.966101 -21.017799
vt 31.964600 -21.003599
vt 32.016998 -20.997700
vt 32.035400 -21.003599
vt 32.031300 -20.995600
vt 32.025299 -20.999399
vt 32.031300 -21.001499
vt 32.025299 -20.993601
vt 32.021000 -20.999399
vt 32.021000 -20.993500
vt 32.003700 -20.985001
vt 32.003700 -20.990900
vt 32.008701 -20.986601
vt 32.008701 -20.992500
vt 31.995199 -20.984699
vt 31.995701 -20.992001
vt 31.995701 -20.984501
vt 31.995199 -20.992100
vt 31.992100 -20.987200
vt 31.992100 -20.994600
vt 32.007900 -20.994400
vt 32.007900 -20.987000
vt 32.004799 -20.992100
vt 32.004799 -20.984699
vt 32.004299 -20.992001
vt 32.004299 -20.984501
vt 31.974701 -20.999399
vt 31.968700 -20.995600
vt 31.968700 -21.001400
vt 31.974701 -20.993601
vt 31.991301 -20.986601
vt 31.996300 -20.990801
vt 31.996300 -20.985001
vt 31.979000 -20.993601
vt 31.991301 -20.992500
vt 31.979000 -20.999500
vt 20.007200 0.973971
vt 20.007200 1.026030
vt 19.992800 1.026030
vt 19.992800 0.973971
vt 20.007200 1.033750
vt 19.992800 1.033750
vt 19.992800 0.966250
vt 20.007200 0.966250
vt 20.007200 0.979177
vt 19.992800 1.020820
vt 19.992800 0.979177
vt 20.007200 1.020820
vt 19.974001 0.992796
vt 20.025999 0.992796
vt 20.025999 1.007200
vt 19.974001 1.007200
vt 19.979200 0.992796
vt 20.020800 0.992796
vt 20.020800 1.007200
vt 20.027000 1.007200
vt 19.979200 1.007200
vt 19.973000 0.992796
vt 19.973000 1.007200
vt 20.027000 0.992796
vt 19.979200 0.973000
vt 19.973000 0.979177
vt 19.966200 0.973971
vt 19.974001 0.966250
vt 19.966200 1.026030
vt 20.025999 0.966250
vt 19.973000 1.020820
vt 20.020800 0.973000
vt 20.033800 0.973971
vt 20.027000 0.979177
vt 19.979200 1.027000
vt 19.974001 1.033750
vt 20.020800 1.027000
vt 20.025999 1.033750
vt 20.027000 1.020820
vt 20.033800 1.026030
vt 3.806250 0.250000
vt 3.750000 0.250000
vt 3.806250 0.193750
vt 3.750000 0.193750
vt 3.975000 0.250000
vt 3.975000 0.193750
vt 0.502616 0.733280
vt 0.502616 0.746587
vt 0.497920 0.737761
vt 0.507312 0.737728
vt 0.497818 0.747284
vt 0.494675 0.745266
vt 0.498330 0.747637
vt 0.502616 0.754092
vt 0.506903 0.747636
vt 0.507415 0.747284
vt 0.510558 0.745249
vt 0.483270 0.768334
vt 0.471351 0.775960
vt 0.470820 0.768671
vt 0.477316 0.780058
vt 0.471502 0.756923
vt 0.470055 0.758334
vt 0.483137 0.779558
vt 0.481610 0.783139
vt 0.483840 0.777968
vt 0.484418 0.776651
vt 0.492585 0.767914
vt 0.483930 0.757320
vt 0.477831 0.750520
vt 0.482879 0.752160
vt 0.489827 0.754370
vt 0.493922 0.766507
vt 0.493529 0.756270
vt 0.496955 0.757946
vt 0.498869 0.762265
vt 0.511311 0.766508
vt 0.511703 0.756270
vt 0.521303 0.757320
vt 0.508278 0.757947
vt 0.506363 0.762267
vt 0.515405 0.754376
vt 0.522354 0.752160
vt 0.527402 0.750517
vt 0.512648 0.767914
vt 0.533731 0.756923
vt 0.521962 0.768334
vt 0.520814 0.776651
vt 0.521393 0.777968
vt 0.534413 0.768671
vt 0.535177 0.758333
vt 0.533881 0.775963
vt 0.527917 0.780058
vt 0.522096 0.779558
vt 0.523622 0.783127
vt 22.002800 -3.004330
vt 21.993200 -3.007740
vt 21.998501 -3.010040
vt 21.998100 -2.998560
vt 21.986300 -2.998970
vt 22.006901 -2.992080
vt 21.997601 -2.998380
vt 22.006901 -3.002070
vt 22.091801 -3.011270
vt 22.003000 -2.987020
vt 21.987900 -2.989740
vt 21.926500 -3.012760
vt 21.921900 -3.008290
vt 21.921700 -3.012760
vt 21.917900 -3.012760
vt 21.927099 -3.007260
vt 21.929701 -3.012760
vt 21.930401 -3.005680
vt 21.917900 -3.006590
vt 21.910299 -3.012760
vt 21.909300 -3.007590
vt 21.907700 -3.008390
vt 21.908501 -3.012760
vt 22.006901 -2.995510
vt 21.996901 -3.003330
vt 22.006901 -3.005500
vt 22.092300 -3.007030
vt 22.001699 -2.991580
vt 21.987600 -2.990730
vt 21.996099 -3.010440
vt 21.996099 -3.000110
vt 21.991199 -3.009300
vt 22.000500 -3.004740
vt 22.003201 -3.012980
vt 21.995001 -3.002060
vt 21.983400 -3.006930
vt 21.994301 -3.006930
vt 21.987700 -3.091840
vt 21.988300 -2.987890
vt 21.983801 -3.002970
vt 22.016001 -3.006930
vt 22.006399 -3.006930
vt 22.010099 -3.092270
vt 22.016800 -3.002620
vt 22.005501 -3.001690
vt 22.012501 -2.987590
vt 21.979401 -2.996080
vt 21.971001 -2.986280
vt 21.969000 -2.998110
vt 22.020599 -2.996080
vt 22.031000 -2.998110
vt 22.028999 -2.986280
vt 21.998400 -2.927340
vt 22.003401 -2.921660
vt 21.998199 -2.921890
vt 21.999399 -2.917190
vt 22.004801 -2.927140
vt 21.998301 -2.930760
vt 22.006599 -2.930490
vt 22.005899 -2.916120
vt 21.998301 -2.911310
vt 21.993700 -2.909520
vt 21.997400 -2.909300
vt 21.993700 -2.907880
vt 21.992300 -2.927090
vt 21.993299 -2.921890
vt 21.990200 -2.930430
vt 21.993099 -2.917940
vt 21.989300 -2.909320
vt 21.990299 -2.907730
vt 22.011000 -3.012760
vt 22.002600 -3.008170
vt 22.000900 -3.012760
vt 22.009701 -3.008390
vt 22.006300 -3.006700
vt 21.999599 -3.012760
vt 21.994101 -3.005810
vt 21.991100 -3.012760
vt 22.001699 -3.007310
vt 21.979099 -2.999350
vt 21.990499 -3.003330
vt 21.987499 -2.990730
vt 21.964001 -3.007740
vt 21.974400 -3.009300
vt 21.971001 -2.998970
vt 22.035999 -3.007740
vt 22.028999 -2.998970
vt 22.025600 -3.009300
vt 22.020700 -2.998380
vt 22.011700 -2.989740
vt 22.009501 -3.002830
vt 22.001499 -3.010040
vt 22.006800 -3.007740
vt 21.997200 -3.004330
vt 22.001900 -2.998560
vt 22.013700 -2.998970
vt 21.993099 -2.992460
vt 21.993099 -3.002460
vt 22.002199 -2.999350
vt 21.907700 -3.007030
vt 21.997400 -2.987590
vt 22.012400 -2.990730
vt 22.072901 -3.006660
vt 22.073400 -3.012760
vt 22.078300 -3.007780
vt 22.070200 -3.012760
vt 22.069500 -3.004900
vt 22.078699 -3.012760
vt 22.084600 -3.012760
vt 22.083900 -3.005810
vt 22.089300 -3.012760
vt 22.090700 -3.008170
vt 22.088699 -3.007310
vt 22.091200 -3.012760
vt 22.003300 -3.002830
vt 21.993099 -2.995350
vt 21.993099 -3.005340
vt 21.908199 -3.011270
vt 21.997900 -2.991460
vt 22.012100 -2.989740
vt 22.003901 -3.010440
vt 22.008801 -3.009300
vt 22.003901 -3.000110
vt 21.999500 -3.004740
vt 21.996799 -3.012980
vt 21.994301 -2.921330
vt 22.009199 -2.917930
vt 21.999599 -2.910660
vt 21.991100 -2.915360
vt 22.000900 -2.908790
vt 22.011000 -2.908520
vt 22.012300 -2.910320
vt 22.008600 -2.921670
vt 22.010000 -2.926530
vt 21.992300 -2.926610
vt 22.012800 -2.929690
vt 21.989500 -2.929790
vt 21.989300 -3.006930
vt 21.979099 -2.997810
vt 21.979799 -3.006930
vt 21.989901 -3.092270
vt 21.990499 -2.996880
vt 21.974100 -2.996140
vt 21.964001 -2.993190
vt 21.966999 -2.998460
vt 21.974001 -3.003250
vt 21.974400 -2.991160
vt 22.025900 -2.996140
vt 22.035999 -2.993190
vt 22.025600 -2.991160
vt 22.033001 -2.998460
vt 22.025999 -3.003250
vt 22.009899 -3.006930
vt 22.020700 -2.997620
vt 22.009501 -2.996720
vt 22.020901 -3.006930
vt 22.012300 -3.091840
vt 22.033001 -3.010040
vt 22.029400 -3.004330
vt 22.025999 -3.012980
vt 21.966999 -3.010040
vt 21.974001 -3.012980
vt 21.970600 -3.004330
vt 21.983400 -2.992080
vt 21.995001 -2.991460
vt 21.983801 -2.987020
vt 22.006399 -2.995510
vt 22.016001 -2.992460
vt 22.016800 -2.987590
vt 21.979401 -3.000110
vt 21.977699 -3.004740
vt 21.969000 -2.998560
vt 22.020599 -3.000110
vt 22.031000 -2.998560
vt 22.022301 -3.004740
s 1
usemtl Meshpart1Mtl.001
f 1/1/1 2/2/2 3/3/3
f 2/2/2 1/1/1 4/4/4
f 4/4/4 1/1/1 5/5/5
f 4/4/4 5/5/5 6/6/6
f 6/6/6 5/5/5 7/7/7
f 5/5/5 8/8/8 7/7/7
f 9/9/9 7/7/7 8/8/8
f 7/7/7 9/9/9 10/10/10
f 9/9/9 11/11/11 10/10/10
f 10/10/10 11/11/11 12/12/12
f 13/13/13 14/14/14 15/15/15
f 15/15/15 16/16/13 13/13/13
f 17/17/16 13/13/13 16/16/13
f 13/13/13 17/17/16 18/18/17
f 20/19/18 19/20/19 21/21/20
f 19/20/19 22/22/21 21/21/20
f 25/23/22 23/24/23 24/25/24
f 23/24/23 25/23/22 26/26/22
f 27/27/25 28/28/26 29/29/27
f 28/28/26 30/30/28 29/29/27
f 35/31/29 33/32/30 31/33/31
f 36/34/32 32/35/33 34/36/34
f 33/32/30 35/31/29 37/37/29
f 32/35/33 36/34/32 38/38/32
f 39/39/35 37/37/29 35/31/29
f 40/40/32 38/38/32 36/34/32
f 37/37/29 39/39/35 41/41/36
f 38/38/32 40/40/32 42/42/32
f 42/42/32 41/41/36 39/39/35
f 41/41/36 42/42/32 40/40/32
f 43/43/37 44/44/38 45/45/39
f 44/44/38 43/43/37 46/46/40
f 47/47/41 44/44/38 46/46/40
f 45/45/39 48/48/42 43/43/37
f 48/48/42 45/45/39 49/49/43
f 43/43/37 48/48/42 50/50/44
f 51/51/45 43/43/37 50/50/44
f 51/51/45 50/50/44 52/52/46
f 51/51/45 52/52/46 53/53/46
f 53/53/46 54/54/47 51/51/45
f 54/54/47 53/53/46 55/55/46
f 56/56/48 54/54/47 55/55/46
f 56/56/48 57/57/49 54/54/47
f 57/57/49 56/56/48 58/58/49
f 58/58/49 56/56/48 59/59/50
f 59/59/50 56/56/48 60/60/49
f 60/60/49 61/61/51 59/59/50
f 61/61/51 60/60/49 62/62/49
f 59/59/50 61/61/51 63/63/52
f 64/64/52 63/63/52 61/61/51
f 63/63/52 64/64/52 65/65/53
f 65/65/53 64/64/52 66/66/54
f 64/64/52 67/67/54 66/66/54
f 68/68/55 69/69/55 70/70/55
f 71/66/55 68/68/55 70/70/55
f 68/68/55 71/66/55 72/67/56
f 69/69/55 68/68/55 73/71/57
f 73/71/57 74/72/58 69/69/55
f 73/71/57 75/73/59 74/72/58
f 75/73/59 73/71/57 76/74/59
f 77/75/60 74/72/58 75/73/59
f 74/72/58 77/75/60 78/76/59
f 77/75/60 79/57/59 78/76/59
f 79/57/59 77/75/60 80/54/61
f 80/54/61 77/75/60 81/77/62
f 82/78/62 80/54/61 81/77/62
f 80/54/61 82/78/62 83/51/63
f 83/51/63 82/78/62 84/79/64
f 83/51/63 84/79/64 85/80/65
f 85/80/65 86/43/66 83/51/63
f 87/81/67 86/43/66 85/80/65
f 86/43/66 87/81/67 88/82/68
f 88/82/68 87/81/67 89/83/69
f 88/82/68 90/84/70 86/43/66
f 86/43/66 90/84/70 91/46/71
f 90/84/70 92/47/72 91/46/71
f 93/85/73 94/64/74 95/61/75
f 95/61/75 96/86/76 93/85/73
f 96/86/76 95/61/75 97/87/77
f 98/62/77 97/87/77 95/61/75
f 99/88/78 96/86/76 97/87/77
f 96/86/76 99/88/78 100/89/79
f 100/89/79 99/88/78 101/90/80
f 102/91/81 100/89/79 101/90/80
f 100/89/79 102/91/81 103/92/82
f 104/93/83 103/92/82 102/91/81
f 103/92/82 104/93/83 105/94/84
f 104/93/83 106/95/85 105/94/84
f 106/95/85 107/96/86 105/94/84
f 107/96/86 106/95/85 108/97/87
f 107/96/86 108/97/87 109/44/88
f 109/44/88 110/98/89 107/96/86
f 110/98/89 109/44/88 111/99/90
f 108/97/87 112/45/91 109/44/88
f 112/45/91 108/97/87 113/100/92
f 113/100/92 114/49/93 112/45/91
f 115/101/94 116/71/95 117/68/96
f 116/71/95 115/101/94 118/102/97
f 116/71/95 118/102/97 119/103/98
f 116/71/95 119/103/98 120/74/99
f 119/103/98 118/102/97 121/104/100
f 118/102/97 122/105/101 121/104/100
f 121/104/100 122/105/101 123/106/102
f 123/106/102 122/105/101 124/107/103
f 122/105/101 125/108/104 124/107/103
f 124/107/103 125/108/104 126/109/105
f 127/110/106 126/109/105 125/108/104
f 126/109/105 127/110/106 128/111/107
f 128/111/107 127/110/106 129/112/108
f 130/113/109 128/111/107 129/112/108
f 130/113/109 129/112/108 131/84/110
f 132/114/111 131/84/110 129/112/108
f 131/84/110 132/114/111 133/115/112
f 131/84/110 134/82/113 130/113/109
f 135/116/114 130/113/109 134/82/113
f 136/83/115 135/116/114 134/82/113
f 138/117/116 139/118/117 137/119/118
f 139/118/117 138/117/116 140/120/119
f 139/118/117 140/120/119 141/121/120
f 143/122/121 142/123/122 144/124/123
f 145/125/124 143/122/121 144/124/123
f 145/125/124 144/124/123 146/121/125
f 149/126/126 148/127/127 147/128/128
f 148/127/127 149/126/126 150/129/126
f 151/130/129 150/129/126 149/126/126
f 150/129/126 151/130/129 152/131/130
f 153/132/131 152/131/130 151/130/129
f 152/131/130 153/132/131 154/133/131
f 155/134/132 154/133/131 153/132/131
f 154/133/131 155/134/132 156/135/133
f 157/136/134 156/135/133 155/134/132
f 156/135/133 157/136/134 158/137/134
f 159/138/135 158/137/134 157/136/134
f 158/137/134 159/138/135 160/139/136
f 161/140/38 162/141/137 163/142/138
f 163/142/138 162/141/137 164/121/139
f 166/141/72 165/143/140 167/144/141
f 166/141/72 167/144/141 168/121/142
f 169/124/89 170/142/143 171/121/144
f 173/144/145 172/118/111 174/121/146
f 177/145/147 176/146/148 175/147/149
f 177/145/147 175/147/149 178/148/150
f 179/149/151 177/145/147 178/148/150
f 177/145/147 179/149/151 180/150/18
f 181/151/152 182/152/153 183/153/154
f 182/152/153 184/154/155 183/153/154
f 181/151/152 183/153/154 185/155/152
f 182/152/153 186/156/155 184/154/155
f 187/157/156 181/151/152 185/155/152
f 186/156/155 188/158/157 184/154/155
f 187/157/156 185/155/152 189/159/158
f 190/160/159 188/158/157 186/156/155
f 191/161/160 187/157/156 189/159/158
f 191/161/160 189/159/158 192/162/160
f 193/163/161 191/161/160 192/162/160
f 193/163/161 192/162/160 194/164/162
f 195/165/163 196/166/163 197/167/164
f 198/168/165 197/167/164 196/166/163
f 195/165/163 199/169/166 196/166/163
f 200/170/167 197/167/164 198/168/165
f 199/169/166 195/165/163 201/171/116
f 197/167/164 200/170/167 202/172/168
f 200/170/167 203/173/169 202/172/168
f 203/173/169 200/170/167 204/174/170
f 204/174/170 205/175/171 203/173/169
f 205/175/171 204/174/170 206/176/172
f 208/177/173 209/178/174 207/179/175
f 210/180/176 209/178/174 208/177/173
f 210/180/176 211/181/176 209/178/174
f 211/181/176 210/180/176 213/182/177
f 213/182/177 215/183/178 211/181/176
f 216/184/179 214/185/180 212/186/181
f 215/183/178 213/182/177 217/187/182
f 214/185/180 216/184/179 218/188/183
f 217/187/182 219/189/184 215/183/178
f 219/189/184 217/187/182 221/190/185
f 221/190/185 222/191/186 219/189/184
f 222/191/186 221/190/185 220/192/187
f 223/193/188 224/194/189 225/195/190
f 224/194/189 223/193/188 226/196/189
f 229/197/191 228/198/192 227/199/193
f 228/198/192 229/197/191 230/200/194
f 233/201/195 231/202/196 232/203/159
f 231/202/196 233/201/195 234/204/197
f 233/201/195 235/205/198 234/204/197
f 235/205/198 233/201/195 236/206/199
f 237/68/200 238/64/200 239/67/200
f 240/207/201 241/208/202 242/209/202
f 243/210/203 240/207/201 242/209/202
f 240/207/201 243/210/203 244/211/203
f 244/211/203 245/212/203 240/207/201
f 242/209/202 246/213/202 247/214/203
f 242/209/202 241/208/202 246/213/202
f 246/213/202 241/208/202 248/215/202
f 248/215/202 241/208/202 249/216/202
f 241/208/202 250/217/202 249/216/202
f 241/208/202 240/207/201 251/218/201
f 240/207/201 252/219/202 251/218/201
f 241/208/202 251/218/201 253/220/203
f 253/220/203 254/221/201 241/208/202
f 255/222/204 256/223/200 257/224/205
f 257/224/205 256/223/200 258/225/205
f 259/226/205 256/223/200 255/222/204
f 255/222/204 260/227/205 259/226/205
f 261/228/16 263/229/206 262/230/207
f 264/231/206 263/229/206 261/228/16
f 264/231/206 265/232/208 263/229/206
f 266/233/173 265/232/208 264/231/206
f 268/234/209 267/235/210 269/236/187
f 269/236/187 267/235/210 270/237/186
f 273/238/211 271/239/212 272/240/190
f 271/239/212 273/238/211 274/241/211
f 275/242/193 274/241/211 273/238/211
f 274/241/211 275/242/193 276/243/213
f 277/244/214 278/245/215 279/246/216
f 280/247/216 279/246/216 278/245/215
f 280/247/216 281/248/217 279/246/216
f 282/249/24 281/248/217 280/247/216
f 286/250/218 283/251/219 284/252/199
f 283/251/219 286/250/218 288/253/218
f 289/254/31 285/255/27 287/256/220
f 288/253/218 286/250/218 290/257/221
f 285/255/27 289/254/31 291/258/222
f 290/257/221 286/250/218 292/259/223
usemtl Meshpart2Mtl
f 293/260/224 294/261/225 295/262/225
f 293/260/224 295/262/225 296/263/224
f 295/262/225 294/261/225 297/264/226
f 297/264/226 298/265/226 295/262/225
f 301/260/227 299/266/228 300/267/228
f 299/266/228 301/260/227 302/263/229
f 304/268/225 305/269/230 303/270/225
f 305/269/230 304/268/225 306/271/224
f 309/272/231 308/273/232 307/274/232
f 309/272/231 307/274/232 310/275/231
f 311/276/232 312/277/226 313/278/226
f 312/277/226 314/279/233 313/278/226
f 311/276/232 313/278/226 315/280/232
f 311/276/232 315/280/232 316/281/234
f 316/281/234 315/280/232 317/282/235
f 318/283/233 314/279/233 312/277/226
f 319/284/236 320/285/236 321/286/236
f 321/286/236 322/287/236 319/284/236
f 320/285/236 323/288/236 321/286/236
f 324/289/237 319/284/236 322/287/236
f 323/288/236 320/285/236 325/290/236
f 319/284/236 324/289/237 326/291/237
f 327/292/236 326/291/237 324/289/237
f 326/291/237 327/292/236 328/293/238
f 329/294/236 323/288/236 325/290/236
f 323/288/236 329/294/236 330/295/236
f 331/296/239 330/295/236 329/294/236
f 330/295/236 331/296/239 332/297/239
f 333/298/237 334/293/236 335/292/236
f 335/292/236 336/299/237 333/298/237
f 336/299/237 337/296/237 333/298/237
f 337/296/237 336/299/237 338/297/239
f 339/262/235 340/263/240 341/260/240
f 341/260/240 340/263/240 342/266/241
f 339/262/235 341/260/240 343/261/242
f 342/266/241 344/267/241 341/260/240
f 345/264/243 339/262/235 343/261/242
f 339/262/235 345/264/243 346/265/244
f 348/269/240 349/268/245 347/271/240
f 349/268/245 348/269/240 350/270/242
f 351/272/246 353/274/247 352/275/246
f 351/272/246 354/273/248 353/274/247
f 356/281/229 357/280/248 355/282/227
f 358/276/248 357/280/248 356/281/229
f 358/276/248 359/278/246 357/280/248
f 358/276/248 360/277/246 359/278/246
f 361/279/249 362/277/241 363/283/249
f 362/277/241 361/279/249 364/278/241
f 365/289/250 366/284/251 367/287/251
f 366/284/251 368/286/250 367/287/251
f 368/286/250 366/284/251 369/285/252
f 366/284/251 365/289/250 370/291/250
f 371/292/250 370/291/250 365/289/250
f 370/291/250 371/292/250 372/293/250
f 371/292/250 373/298/250 372/293/250
f 373/298/250 371/292/250 374/299/250
f 375/296/251 373/298/250 374/299/250
f 374/299/250 376/297/251 375/296/251
f 377/295/252 375/296/251 376/297/251
f 375/296/251 377/295/252 378/294/252
f 379/285/250 380/290/251 381/288/251
f 381/288/251 382/286/250 379/285/250
f 383/294/251 381/288/251 380/290/251
f 381/288/251 383/294/251 384/295/253
usemtl Primary1Mtl
f 385/300/237 386/301/237 387/302/237
f 387/302/237 386/301/237 388/303/237
f 389/304/254 390/301/254 391/305/254
f 391/305/254 390/301/254 392/303/254
f 393/304/255 394/301/255 395/305/255
f 395/305/255 394/301/255 396/303/255
f 397/300/251 398/301/251 399/302/251
f 399/302/251 398/301/251 400/303/251
f 401/304/256 402/301/256 403/305/256
f 403/305/256 402/301/256 404/303/256
f 405/304/257 406/301/257 407/305/257
f 407/305/257 406/301/257 408/303/257
usemtl Meshpart3Mtl
f 409/306/258 410/307/259 411/308/260
f 412/309/261 410/307/259 409/306/258
f 411/308/260 413/310/262 414/311/260
f 413/310/262 411/308/260 410/307/259
f 413/310/262 410/307/259 415/312/263
f 415/312/263 410/307/259 416/313/264
f 410/307/259 417/314/265 416/313/264
f 410/307/259 418/315/266 417/314/265
f 410/307/259 412/309/261 418/315/266
f 418/315/266 412/309/261 419/316/267
f 420/317/268 421/318/269 422/319/270
f 421/318/269 420/317/268 423/320/271
f 424/321/272 422/319/270 425/322/273
f 422/319/270 424/321/272 420/317/268
f 426/323/274 427/324/275 423/320/271
f 423/320/271 428/325/276 426/323/274
f 423/320/271 420/317/268 428/325/276
f 428/325/276 420/317/268 429/326/277
f 420/317/268 430/327/278 429/326/277
f 420/317/268 424/321/272 431/328/279
f 431/328/279 430/327/278 420/317/268
f 431/328/279 424/321/272 432/329/280
f 431/328/279 432/329/280 433/330/281
f 433/330/281 434/331/282 431/328/279
f 430/327/278 431/328/279 435/332/283
f 436/333/284 431/328/279 434/331/282
f 435/332/283 431/328/279 436/333/284
f 437/334/283 435/332/283 436/333/284
f 435/332/283 437/334/283 438/335/283
f 439/336/64 440/337/285 441/338/286
f 440/337/285 439/336/64 442/339/62
f 442/339/62 439/336/64 443/340/62
f 441/338/286 440/337/285 444/341/287
f 444/341/287 445/342/288 441/338/286
f 446/343/289 441/338/286 445/342/288
f 439/336/64 441/338/286 447/344/290
f 441/338/286 446/343/289 448/345/291
f 447/344/290 441/338/286 449/346/292
f 441/338/286 448/345/291 449/346/292
f 450/347/293 447/344/290 449/346/292
f 449/346/292 451/348/294 450/347/293
f 448/345/291 452/349/295 449/346/292
f 452/349/295 448/345/291 453/350/296
f 454/351/297 449/346/292 452/349/295
f 455/352/298 449/346/292 454/351/297
f 455/352/298 451/348/294 449/346/292
f 451/348/294 455/352/298 456/353/299
f 455/352/298 457/354/300 456/353/299
usemtl Meshpart4Mtl
f 458/355/301 459/356/302 460/357/303
f 459/356/302 458/355/301 461/358/304
f 461/358/304 462/359/305 459/356/302
f 463/360/306 464/361/307 465/362/308
f 465/362/308 466/363/309 463/360/306
f 467/364/310 464/361/307 463/360/306
f 467/364/310 468/365/311 464/361/307
f 469/366/312 470/367/313 471/368/314
f 470/367/313 472/369/315 471/368/314
f 470/367/313 469/366/312 473/370/316
f 474/371/317 473/370/316 469/366/312
f 474/371/317 475/372/317 473/370/316
f 472/369/315 470/367/313 476/373/318
f 476/373/318 477/374/319 472/369/315
f 477/374/319 476/373/318 478/375/320
f 479/376/321 477/374/319 478/375/320
f 477/374/319 479/376/321 480/377/321
f 481/378/322 482/379/323 483/380/324
f 481/378/322 483/380/324 484/381/325
f 482/379/323 481/378/322 485/382/326
f 482/379/323 485/382/326 486/383/327
f 487/384/328 488/385/329 489/386/330
f 489/386/330 488/385/329 490/359/331
f 488/385/329 487/384/328 491/387/332
f 491/387/332 487/384/328 492/388/333
f 493/389/334 494/390/335 495/391/336
f 494/390/335 496/392/337 495/391/336
f 493/389/338 498/393/339 497/394/340
f 500/395/341 499/396/342 502/397/343
f 499/396/344 501/398/345 503/399/346
f 503/399/346 501/398/345 504/400/347
f 505/401/348 507/402/349 506/403/350
f 508/404/351 509/405/352 510/406/353
f 511/407/354 512/408/355 513/409/356
f 512/408/355 514/410/357 513/409/356
f 512/408/355 511/407/354 515/411/358
f 516/412/359 515/411/358 511/407/354
f 516/412/359 517/413/359 515/411/358
f 514/410/357 512/408/355 518/414/360
f 519/415/361 514/410/357 518/414/360
f 514/410/357 519/415/361 520/416/362
f 520/416/362 519/415/361 521/417/363
f 520/416/362 521/417/363 522/418/363
f 523/419/364 524/407/365 525/420/366
f 523/419/364 526/412/367 524/407/365
f 526/412/367 523/419/364 527/421/368
f 524/407/365 528/409/369 525/420/366
f 528/409/369 529/422/370 525/420/366
f 529/422/370 528/409/369 530/410/371
f 531/416/372 529/422/370 530/410/371
f 529/422/370 531/416/372 532/423/373
f 531/416/372 533/424/374 532/423/373
f 533/424/374 531/416/372 534/418/375
f 535/425/376 536/426/377 537/427/377
f 536/426/377 535/425/376 538/428/378
f 536/426/377 538/428/378 539/429/378
f 542/430/379 541/431/380 540/432/381
f 541/431/380 542/430/379 543/433/382
f 544/434/383 545/435/384 546/436/385
f 547/437/386 548/438/387 549/439/388
f 550/440/389 552/441/390 551/442/391
f 553/443/392 555/444/393 554/445/394
f 556/446/395 557/447/396 558/448/397
f 557/447/396 559/449/398 558/448/397
f 559/449/398 557/447/396 560/450/399
f 561/451/400 562/452/401 563/453/402
f 562/452/401 561/451/400 564/454/403
f 563/453/402 565/455/404 561/451/400
f 565/455/404 563/453/402 566/456/405
f 567/457/406 568/458/407 569/459/408
f 567/457/406 570/460/409 568/458/407
f 570/460/409 567/457/406 571/461/409
f 568/458/407 572/462/410 569/459/408
f 573/463/411 569/459/408 572/462/410
f 569/459/408 573/463/411 574/464/380
f 575/465/412 577/466/413 576/467/414
f 577/466/413 575/465/412 578/468/413
f 579/469/415 580/470/416 581/471/417
f 580/470/416 582/472/418 581/471/417
f 580/470/416 579/469/415 583/473/419
f 579/469/415 584/474/420 583/473/419
f 585/475/421 586/476/422 587/477/423
f 586/476/422 588/450/424 587/477/423
f 587/477/423 589/478/425 585/475/421
f 589/478/425 590/479/426 585/475/421
f 591/480/427 592/481/428 593/482/427
f 591/480/427 593/482/427 594/483/428
f 592/481/428 595/484/429 593/482/427
f 595/484/429 592/481/428 596/485/427
f 596/485/427 592/481/428 597/486/428
f 592/481/428 591/480/427 598/487/430
f 591/480/427 599/488/431 598/487/430
f 599/488/431 591/480/427 600/489/427
f 600/489/427 601/490/427 599/488/431
f 602/491/431 601/490/427 600/489/427
f 603/492/432 604/493/433 605/494/434
f 603/492/432 605/494/434 606/495/435
f 604/493/433 603/492/432 607/496/436
f 608/497/437 609/498/438 610/499/439
f 608/497/437 610/499/439 611/500/440
f 609/498/438 608/497/437 612/501/441
f 613/502/442 614/503/443 615/504/444
f 614/503/443 613/502/442 616/505/445
f 613/502/442 617/506/446 616/505/445
f 618/507/447 619/508/448 620/509/449
f 619/508/448 618/507/447 621/510/450
f 618/507/447 622/511/451 621/510/450
f 623/512/452 624/513/397 625/514/453
f 627/515/454 628/516/455 626/517/456
f 630/518/457 629/519/334 631/520/458
f 632/521/344 633/522/459 634/523/345
f 635/524/460 636/517/461 637/525/462
f 636/517/461 638/516/463 637/525/462
f 636/517/461 635/524/460 639/526/350
f 640/527/351 641/513/464 642/528/465
f 641/513/464 640/527/351 643/529/466
f 641/513/464 643/529/466 644/514/467
