# This file is brought to you by Roblox Corporation
# Generated by Roblox Studio

mtllib Blade.mtl

g Meshpart1

v 0.258926 1.84974 -0.0379564 
v 0.390162 1.63909 0.0275189 
v 0.390162 1.63909 -0.0379564 
v 0.258926 1.84974 0.0275189 
v 0.189186 2.02836 -0.0379564 
v 0.189186 2.02836 0.0275189 
v 0.169811 2.14426 -0.0379564 
v 0.169811 2.14426 0.0275189 
v 0.174585 2.29097 -0.0220476 
v 0.174585 2.29097 0.0116133 
v 0.17606 2.33628 0.0275189 
v 0.17606 2.33628 -0.0379564 
v 0.207306 2.50444 -0.0209502 
v 0.207306 2.50444 0.0105127 
v 0.253551 2.64364 -0.00521876 
v 0.341302 0.265494 -0.0379564 
v 0.402796 0.365711 -0.0379564 
v 0.341302 0.265494 0.0275189 
v 0.402796 0.365711 0.0275189 
v 0.335303 0.170734 0.0275189 
v 0.335303 0.170734 -0.0379564 
v 0.385697 0.0439267 0.0275189 
v 0.385697 0.0439267 -0.0379564 
v 0.384797 -0.078787 0.0275189 
v 0.384797 -0.078787 -0.0379564 
v 0.354198 -0.189229 0.0275189 
v 0.354198 -0.189229 -0.0379564 
v 0.402796 0.365711 -0.0379564 
v 0.315921 0.803947 -0.0379564 
v 0.315921 0.803947 0.0275189 
v 0.402796 0.365711 0.0275189 
v 0.301672 0.980518 -0.0379564 
v 0.301672 0.980518 0.0275189 
v 0.30617 1.14891 -0.0379564 
v 0.30617 1.14891 0.0275189 
v 0.31967 1.31457 -0.0379564 
v 0.31967 1.31457 0.0275189 
v 0.354165 1.48978 -0.0379564 
v 0.354165 1.48978 0.0275189 
v 0.390162 1.63909 -0.0379564 
v 0.390162 1.63909 0.0275189 
v -0.0127827 1.9057 0.0144258 
v 0.0262337 1.68856 0.0144258 
v -0.0127827 1.9057 -0.02486 
v 0.0262337 1.68856 -0.02486 
v 0.0567701 0.855629 -0.02486 
v -0.105765 1.47777 -0.00521876 
v 0.0985004 0.606381 -0.0220476 
v 0.0940911 0.673706 0.0144258 
v 0.0211444 2.11945 0.0144258 
v 0.128784 1.79731 0.0116133 
v 0.0262337 1.68856 0.0144258 
v 0.05677 0.855629 0.0144258 
v 0.0262337 1.68856 -0.02486 
v 0.0567701 0.855629 -0.02486 
v 0.05677 0.855629 0.0144258 
v 0.0940911 0.673706 0.0144258 
v 0.0567701 0.855629 -0.02486 
v 0.0940911 0.673706 -0.02486 
v 0.0211444 2.11945 0.0144258 
v -0.0127827 1.9057 0.0144258 
v 0.0211444 2.11945 -0.02486 
v -0.0127827 1.9057 -0.02486 
v 0.100876 2.40444 0.0144258 
v 0.0211444 2.11945 0.0144258 
v 0.100876 2.40444 -0.02486 
v 0.0211444 2.11945 -0.02486 
v 0.253551 2.64364 -0.00521876 
v 0.100876 2.40444 0.0144258 
v 0.100876 2.40444 -0.02486 
v 0.261512 -0.251402 -0.0379564 
v 0.16252 -0.26122 0.0275189 
v 0.0869285 -0.235043 0.0275189 
v 0.0383346 -0.165504 -0.0379564 
v -0.0422544 0.641336 -0.00521876 
v 0.0193899 0.615938 -0.0379564 
v 0.0940911 0.673706 0.0144258 
v -0.377516 0.0979089 -0.0379564 
v -0.279248 0.14994 0.0275189 
v -0.279248 0.14994 -0.0379564 
v -0.377516 0.0979089 0.0275189 
v -0.153981 0.133252 -0.0379564 
v -0.0546313 0.047843 0.0275189 
v -0.0546313 0.047843 -0.0379564 
v -0.153981 0.133252 0.0275189 
v -0.279248 0.14994 -0.0379564 
v -0.153981 0.133252 0.0275189 
v -0.153981 0.133252 -0.0379564 
v -0.279248 0.14994 0.0275189 
v -0.0546313 0.047843 -0.0379564 
v -0.0351937 0.047843 0.0275189 
v -0.0351937 0.047843 -0.0379564 
v -0.0546313 0.047843 0.0275189 
v 0.261512 -0.251402 -0.0379564 
v 0.354198 -0.189229 -0.0379564 
v 0.354198 -0.189229 0.0275189 
v 0.0869285 -0.235043 0.0275189 
v 0.0383346 -0.165504 -0.0379564 
v -0.0633545 -0.133597 0.0275189 
v -0.382257 0.0697118 0.0275189 
v -0.0589518 -0.0218608 -0.0379564 
v 0.390162 1.63909 0.0275189 
v 0.390162 1.63909 -0.0379564 
v 0.258926 1.84974 0.0275189 
v 0.189186 2.02836 0.0275189 
v 0.169811 2.14426 0.0275189 
v 0.174585 2.29097 0.0116133 
v 0.207306 2.50444 -0.0209502 
v 0.253551 2.64364 -0.00521876 
v 0.341302 0.265494 -0.0379564 
v 0.402796 0.365711 -0.0379564 
v 0.341302 0.265494 0.0275189 
v 0.402796 0.365711 0.0275189 
v 0.335303 0.170734 0.0275189 
v 0.385697 0.0439267 0.0275189 
v 0.384797 -0.078787 0.0275189 
v -0.377516 0.0979089 0.0275189 
v 0.315921 0.803947 -0.0379564 
v 0.301672 0.980518 0.0275189 
v 0.30617 1.14891 0.0275189 
v 0.31967 1.31457 -0.0379564 
v 0.354165 1.48978 -0.0379564 
v -0.0422544 0.641336 -0.00521876 
v -0.0632691 0.523971 -0.0379564 
v -0.0632691 0.523971 0.0275189 
v -0.0556137 0.36945 0.0275189 
v -0.0902668 0.257927 -0.0379564 
v -0.0773084 0.141105 -0.0379564 
v -0.0773084 0.141105 0.0275189 
v -0.0351937 0.047843 -0.0379564 
v -0.0127827 1.9057 0.0144258 
v 0.0262337 1.68856 0.0144258 
v -0.0127827 1.9057 -0.02486 
v 0.0567701 0.855629 -0.02486 
v -0.105765 1.47777 -0.00521876 
v -0.0280114 0.720864 -0.00521876 
v -0.153278 1.80566 -0.00521876 
v 0.0193899 0.615938 -0.0379564 
v 0.0985004 0.606381 -0.0220476 
v -0.165152 2.00961 -0.00521876 
v 0.0211444 2.11945 -0.02486 
v -0.139531 2.1613 -0.00521876 
v -0.0707865 2.33117 -0.00521876 
v 0.100876 2.40444 -0.02486 
v 0.0448236 2.48627 -0.00521876 
v -0.105765 1.47777 -0.00521876 
v 0.05677 0.855629 0.0144258 
v 0.0262337 1.68856 0.0144258 
v -0.0280114 0.720864 -0.00521876 
v -0.153278 1.80566 -0.00521876 
v 0.0940911 0.673706 0.0144258 
v -0.0127827 1.9057 0.0144258 
v -0.0422544 0.641336 -0.00521876 
v 0.0194161 0.615925 0.0275189 
v 0.0985004 0.606381 0.0116133 
v -0.165152 2.00961 -0.00521876 
v 0.0211444 2.11945 0.0144258 
v -0.139531 2.1613 -0.00521876 
v -0.0707865 2.33117 -0.00521876 
v 0.100876 2.40444 0.0144258 
v 0.0448236 2.48627 -0.00521876 
v 0.253551 2.64364 -0.00521876 
v -0.151822 0.0566781 0.0275189 
v -0.153981 0.133252 0.0275189 
v -0.251169 0.0841652 0.0275189 
v -0.279248 0.14994 0.0275189 
v -0.0546313 0.047843 0.0275189 
v -0.356998 0.0606042 0.0275189 
v -0.377516 0.0979089 0.0275189 
v -0.382257 0.0697118 0.0275189 
v -0.0589518 -0.0218608 0.0275189 
v -0.0351937 0.047843 0.0275189 
v -0.0459934 -0.0827265 0.0275189 
v 0.0383346 -0.165504 0.0275189 
v -0.0633545 -0.133597 0.0275189 
v 0.0869285 -0.235043 0.0275189 
v 0.16252 -0.26122 0.0275189 
v 0.261512 -0.251402 0.0275189 
v 0.384797 -0.078787 0.0275189 
v 0.354198 -0.189229 0.0275189 
v -0.0546313 0.047843 -0.0379564 
v -0.279248 0.14994 -0.0379564 
v 0.385697 0.0439267 0.0275189 
v 0.335303 0.170734 0.0275189 
v -0.0773084 0.141105 0.0275189 
v -0.0902668 0.257927 0.0275189 
v 0.341302 0.265494 0.0275189 
v -0.0556137 0.36945 0.0275189 
v 0.0985004 0.606381 0.0116133 
v 0.402796 0.365711 0.0275189 
v -0.0632691 0.523971 0.0275189 
v 0.0194161 0.615925 0.0275189 
v -0.0422544 0.641336 -0.00521876 
v 0.174174 0.64865 0.0116133 
v 0.315921 0.803947 0.0275189 
v 0.165313 0.687508 0.0116133 
v 0.301672 0.980518 0.0275189 
v 0.30617 1.14891 0.0275189 
v 0.128784 1.79731 0.0116133 
v 0.31967 1.31457 0.0275189 
v 0.354165 1.48978 0.0275189 
v 0.390162 1.63909 0.0275189 
v 0.258926 1.84974 0.0275189 
v 0.11182 2.01276 0.0116133 
v 0.189186 2.02836 0.0275189 
v 0.169811 2.14426 0.0275189 
v 0.174585 2.29097 0.0116133 
v 0.174174 0.64865 0.0116133 
v 0.0940911 0.673706 0.0144258 
v 0.0985004 0.606381 0.0116133 
v 0.165313 0.687508 0.0116133 
v 0.05677 0.855629 0.0144258 
v 0.128784 1.79731 0.0116133 
v 0.0262337 1.68856 0.0144258 
v -0.0127827 1.9057 0.0144258 
v 0.11182 2.01276 0.0116133 
v 0.0211444 2.11945 0.0144258 
v 0.174585 2.29097 0.0116133 
v 0.100876 2.40444 0.0144258 
v 0.17606 2.33628 0.0275189 
v 0.207306 2.50444 0.0105127 
v 0.253551 2.64364 -0.00521876 
v 0.0383346 -0.165504 -0.0379564 
v 0.0869285 -0.235043 -0.0379564 
v 0.0383346 -0.165504 0.0275189 
v 0.0869285 -0.235043 0.0275189 
v 0.341302 0.265494 0.0275189 
v -0.0459934 -0.0827265 -0.0379564 
v -0.0589518 -0.0218608 0.0275189 
v -0.0589518 -0.0218608 -0.0379564 
v -0.0459934 -0.0827265 0.0275189 
v -0.382257 0.0697118 -0.0379564 
v -0.377516 0.0979089 0.0275189 
v -0.377516 0.0979089 -0.0379564 
v -0.382257 0.0697118 0.0275189 
v 0.30617 1.14891 0.0275189 
v 0.31967 1.31457 -0.0379564 
v -0.0422544 0.641336 -0.00521876 
v -0.0632691 0.523971 -0.0379564 
v -0.0632691 0.523971 0.0275189 
v -0.0556137 0.36945 -0.0379564 
v -0.0556137 0.36945 0.0275189 
v -0.0902668 0.257927 -0.0379564 
v -0.0902668 0.257927 0.0275189 
v -0.0773084 0.141105 -0.0379564 
v -0.0773084 0.141105 0.0275189 
v -0.0351937 0.047843 -0.0379564 
v -0.0351937 0.047843 0.0275189 
v 0.0262337 1.68856 0.0144258 
v -0.0127827 1.9057 -0.02486 
v 0.0567701 0.855629 -0.02486 
v -0.105765 1.47777 -0.00521876 
v 0.0985004 0.606381 -0.0220476 
v 0.0940911 0.673706 0.0144258 
v 0.0211444 2.11945 0.0144258 
v 0.128784 1.79731 0.0116133 
v 0.0985004 0.606381 0.0116133 
v 0.0940911 0.673706 -0.02486 
v 0.0985004 0.606381 -0.0220476 
v 0.0940911 0.673706 0.0144258 
v -0.0459934 -0.0827265 -0.0379564 
v -0.0633545 -0.133597 -0.0379564 
v -0.0633545 -0.133597 0.0275189 
v -0.0459934 -0.0827265 0.0275189 
v 0.261512 -0.251402 -0.0379564 
v 0.354198 -0.189229 -0.0379564 
v 0.261512 -0.251402 0.0275189 
v 0.354198 -0.189229 0.0275189 
v 0.16252 -0.26122 0.0275189 
v 0.16252 -0.26122 -0.0379564 
v 0.0869285 -0.235043 0.0275189 
v 0.0869285 -0.235043 -0.0379564 
v -0.0633545 -0.133597 -0.0379564 
v 0.0383346 -0.165504 -0.0379564 
v -0.0633545 -0.133597 0.0275189 
v 0.0383346 -0.165504 0.0275189 
v -0.356998 0.0606042 -0.0379564 
v -0.382257 0.0697118 0.0275189 
v -0.382257 0.0697118 -0.0379564 
v -0.356998 0.0606042 0.0275189 
v -0.251169 0.0841652 -0.0379564 
v -0.356998 0.0606042 0.0275189 
v -0.356998 0.0606042 -0.0379564 
v -0.251169 0.0841652 0.0275189 
v -0.151822 0.0566781 -0.0379564 
v -0.151822 0.0566781 0.0275189 
v -0.0589518 -0.0218608 -0.0379564 
v -0.0589518 -0.0218608 0.0275189 
v 0.261512 -0.251402 -0.0379564 
v 0.354198 -0.189229 -0.0379564 
v 0.354198 -0.189229 0.0275189 
v 0.0869285 -0.235043 0.0275189 
v 0.0383346 -0.165504 -0.0379564 
v -0.0633545 -0.133597 0.0275189 
v -0.382257 0.0697118 0.0275189 
v -0.0589518 -0.0218608 -0.0379564 
v 0.390162 1.63909 0.0275189 
v 0.390162 1.63909 -0.0379564 
v 0.258926 1.84974 0.0275189 
v 0.189186 2.02836 0.0275189 
v 0.169811 2.14426 0.0275189 
v 0.174585 2.29097 0.0116133 
v 0.207306 2.50444 -0.0209502 
v 0.253551 2.64364 -0.00521876 
v 0.341302 0.265494 -0.0379564 
v 0.402796 0.365711 -0.0379564 
v 0.341302 0.265494 0.0275189 
v 0.402796 0.365711 0.0275189 
v 0.335303 0.170734 0.0275189 
v 0.385697 0.0439267 0.0275189 
v 0.384797 -0.078787 0.0275189 
v -0.377516 0.0979089 0.0275189 
v 0.315921 0.803947 -0.0379564 
v 0.301672 0.980518 0.0275189 
v 0.30617 1.14891 0.0275189 
v 0.31967 1.31457 -0.0379564 
v 0.354165 1.48978 -0.0379564 
v -0.0422544 0.641336 -0.00521876 
v -0.0632691 0.523971 -0.0379564 
v -0.0632691 0.523971 0.0275189 
v -0.0556137 0.36945 0.0275189 
v -0.0902668 0.257927 -0.0379564 
v -0.0773084 0.141105 -0.0379564 
v -0.0773084 0.141105 0.0275189 
v -0.0351937 0.047843 -0.0379564 
v -0.0127827 1.9057 0.0144258 
v 0.0262337 1.68856 0.0144258 
v -0.0127827 1.9057 -0.02486 
v 0.0262337 1.68856 -0.02486 
v 0.0567701 0.855629 -0.02486 
v -0.105765 1.47777 -0.00521876 
v -0.0280114 0.720864 -0.00521876 
v -0.153278 1.80566 -0.00521876 
v 0.0940911 0.673706 -0.02486 
v -0.0127827 1.9057 -0.02486 
v -0.0422544 0.641336 -0.00521876 
v 0.0193899 0.615938 -0.0379564 
v 0.0985004 0.606381 -0.0220476 
v -0.165152 2.00961 -0.00521876 
v 0.0211444 2.11945 -0.02486 
v -0.139531 2.1613 -0.00521876 
v -0.0707865 2.33117 -0.00521876 
v 0.100876 2.40444 -0.02486 
v 0.0448236 2.48627 -0.00521876 
v 0.253551 2.64364 -0.00521876 
v 0.0940911 0.673706 0.0144258 
v 0.0211444 2.11945 0.0144258 
v 0.100876 2.40444 0.0144258 
v -0.0546313 0.047843 0.0275189 
v -0.153981 0.133252 -0.0379564 
v -0.0546313 0.047843 -0.0379564 
v -0.151822 0.0566781 -0.0379564 
v -0.0589518 -0.0218608 -0.0379564 
v -0.251169 0.0841652 -0.0379564 
v -0.279248 0.14994 -0.0379564 
v -0.356998 0.0606042 -0.0379564 
v -0.377516 0.0979089 -0.0379564 
v -0.382257 0.0697118 -0.0379564 
v -0.0351937 0.047843 -0.0379564 
v -0.0459934 -0.0827265 -0.0379564 
v 0.0383346 -0.165504 -0.0379564 
v -0.0633545 -0.133597 -0.0379564 
v 0.385697 0.0439267 -0.0379564 
v 0.335303 0.170734 -0.0379564 
v -0.0773084 0.141105 -0.0379564 
v 0.384797 -0.078787 -0.0379564 
v -0.0902668 0.257927 -0.0379564 
v 0.341302 0.265494 -0.0379564 
v -0.0556137 0.36945 -0.0379564 
v 0.261512 -0.251402 -0.0379564 
v 0.354198 -0.189229 -0.0379564 
v 0.16252 -0.26122 -0.0379564 
v 0.0869285 -0.235043 -0.0379564 
v 0.0985004 0.606381 -0.0220476 
v 0.402796 0.365711 -0.0379564 
v -0.0632691 0.523971 -0.0379564 
v 0.0193899 0.615938 -0.0379564 
v -0.0422544 0.641336 -0.00521876 
v 0.174174 0.64865 -0.0220476 
v 0.315921 0.803947 -0.0379564 
v 0.165313 0.687508 -0.0220476 
v 0.301672 0.980518 -0.0379564 
v 0.30617 1.14891 -0.0379564 
v 0.128784 1.79731 -0.0220476 
v 0.31967 1.31457 -0.0379564 
v 0.354165 1.48978 -0.0379564 
v 0.390162 1.63909 -0.0379564 
v 0.258926 1.84974 -0.0379564 
v 0.11182 2.01276 -0.0220476 
v 0.189186 2.02836 -0.0379564 
v 0.169811 2.14426 -0.0379564 
v 0.174585 2.29097 -0.0220476 
v 0.165313 0.687508 0.0116133 
v 0.128784 1.79731 0.0116133 
v 0.11182 2.01276 0.0116133 
v 0.0940911 0.673706 -0.02486 
v 0.174174 0.64865 -0.0220476 
v 0.0985004 0.606381 -0.0220476 
v 0.165313 0.687508 -0.0220476 
v 0.0567701 0.855629 -0.02486 
v 0.128784 1.79731 -0.0220476 
v 0.0262337 1.68856 -0.02486 
v -0.0127827 1.9057 -0.02486 
v 0.11182 2.01276 -0.0220476 
v 0.0211444 2.11945 -0.02486 
v 0.174585 2.29097 -0.0220476 
v 0.100876 2.40444 -0.02486 
v 0.17606 2.33628 -0.0379564 
v 0.207306 2.50444 -0.0209502 
v 0.253551 2.64364 -0.00521876 

vn 0.897638 0.448819 0 
vn 0.850394 0.527559 0 
vn 0.850394 0.527559 0 
vn 0.897638 0.448819 0 
vn 0.96063 0.267717 0 
vn 0.96063 0.267717 0 
vn 1 0.0708661 0 
vn 1 0.0708661 0 
vn 1 -0.0314961 0 
vn 1 -0.0314961 0 
vn 0.992126 -0.11811 0 
vn 0.992126 -0.11811 0 
vn 0.968504 -0.244094 0 
vn 0.968504 -0.244094 0 
vn 0.952756 -0.314961 0 
vn 0.952756 -0.299213 0 
vn 0.850394 -0.519685 0 
vn 0.952756 -0.299213 0 
vn 0.850394 -0.519685 0 
vn 0.984252 0.15748 0 
vn 0.984252 0.15748 0 
vn 0.984252 0.181102 0 
vn 0.984252 0.181102 0 
vn 0.992126 -0.141732 0 
vn 0.992126 -0.141732 0 
vn 0.96063 -0.267717 0 
vn 0.96063 -0.267717 0 
vn 0.984252 0.19685 0 
vn 0.992126 0.133858 0 
vn 0.992126 0.133858 0 
vn 0.984252 0.19685 0 
vn 1 0.023622 0 
vn 1 0.023622 0 
vn 1 -0.0551181 0 
vn 1 -0.0551181 0 
vn 0.992126 -0.133858 0 
vn 0.992126 -0.133858 0 
vn 0.976378 -0.212598 0 
vn 0.976378 -0.212598 0 
vn 0.968504 -0.23622 0 
vn 0.968504 -0.23622 0 
vn 0.984252 0.173228 0 
vn 0.984252 0.173228 0 
vn 0.984252 0.173228 0 
vn 0.984252 0.173228 0 
vn -0.165354 -0.015748 -0.984252 
vn -0.149606 -0.015748 -0.992126 
vn -0.0472441 0.275591 -0.96063 
vn -0.110236 0.125984 0.984252 
vn -0.11811 0.023622 0.992126 
vn -0.0393701 0.00787402 1 
vn 1 0.0393701 0 
vn 1 0.0393701 0 
vn 1 0.0393701 0 
vn 1 0.0393701 0 
vn 0.976378 0.204724 0 
vn 0.976378 0.204724 0 
vn 0.976378 0.204724 0 
vn 0.976378 0.204724 0 
vn 0.984252 -0.15748 0 
vn 0.984252 -0.15748 0 
vn 0.984252 -0.15748 0 
vn 0.984252 -0.15748 0 
vn 0.96063 -0.267717 0 
vn 0.96063 -0.267717 0 
vn 0.96063 -0.267717 0 
vn 0.96063 -0.267717 0 
vn 0.84252 -0.535433 0 
vn 0.84252 -0.535433 0 
vn 0.84252 -0.535433 0 
vn 0.338583 -0.944882 0 
vn -0.11811 -0.992126 0 
vn -0.330709 -0.944882 0 
vn -0.299213 -0.952756 0 
vn -0.984252 0.173228 0 
vn -0.0472441 0.275591 -0.96063 
vn -0.110236 0.125984 0.984252 
vn -0.464567 0.88189 0 
vn -0.464567 0.88189 0 
vn -0.464567 0.88189 0 
vn -0.464567 0.88189 0 
vn 0.653543 0.755906 0 
vn 0.653543 0.755906 0 
vn 0.653543 0.755906 0 
vn 0.653543 0.755906 0 
vn 0.133858 0.992126 0 
vn 0.133858 0.992126 0 
vn 0.133858 0.992126 0 
vn 0.133858 0.992126 0 
vn 0 1 0 
vn 0 1 0 
vn 0 1 0 
vn 0 1 0 
vn 0.338583 -0.944882 0 
vn 0.559055 -0.826772 0 
vn 0.559055 -0.826772 0 
vn -0.330709 -0.944882 0 
vn -0.299213 -0.952756 0 
vn -0.299213 -0.952756 0 
vn -0.338583 -0.937008 0 
vn -0.645669 -0.76378 0 
vn 0.850394 0.527559 0 
vn 0.850394 0.527559 0 
vn 0.897638 0.448819 0 
vn 0.96063 0.267717 0 
vn 1 0.0708661 0 
vn 1 -0.0314961 0 
vn 0.968504 -0.244094 0 
vn 0.952756 -0.314961 0 
vn 0.952756 -0.299213 0 
vn 0.850394 -0.519685 0 
vn 0.952756 -0.299213 0 
vn 0.850394 -0.519685 0 
vn 0.984252 0.15748 0 
vn 0.984252 0.181102 0 
vn 0.992126 -0.141732 0 
vn -0.984252 0.165354 0 
vn 0.992126 0.133858 0 
vn 1 0.023622 0 
vn 1 -0.0551181 0 
vn 0.992126 -0.133858 0 
vn 0.976378 -0.212598 0 
vn -0.984252 0.173228 0 
vn -1 0.0551181 0 
vn -1 0.0551181 0 
vn -0.992126 0.125984 0 
vn -0.992126 0.0944882 0 
vn -0.96063 -0.267717 0 
vn -0.96063 -0.267717 0 
vn -0.913386 -0.409449 0 
vn 0.984252 0.173228 0 
vn 0.984252 0.173228 0 
vn 0.984252 0.173228 0 
vn -0.165354 -0.015748 -0.984252 
vn -0.149606 -0.015748 -0.992126 
vn -0.15748 -0.00787402 -0.984252 
vn -0.125984 -0.00787402 -0.992126 
vn -0.0472441 0.275591 -0.96063 
vn -0.0472441 0.275591 -0.96063 
vn -0.11811 0.00787402 -0.992126 
vn -0.11811 0.023622 -0.992126 
vn -0.11811 0.0314961 -0.992126 
vn -0.125984 0.0551181 -0.992126 
vn -0.133858 0.110236 -0.984252 
vn -0.141732 0.141732 -0.976378 
vn -0.149606 -0.015748 0.992126 
vn -0.165354 -0.015748 0.984252 
vn -0.125984 -0.015748 0.992126 
vn -0.15748 -0.00787402 0.984252 
vn -0.125984 -0.00787402 0.992126 
vn -0.110236 0.125984 0.984252 
vn -0.125984 0 0.992126 
vn -0.110236 0.11811 0.984252 
vn -0.0472441 0.275591 0.96063 
vn -0.0472441 0.275591 0.96063 
vn -0.11811 0.00787402 0.992126 
vn -0.11811 0.023622 0.992126 
vn -0.11811 0.0314961 0.992126 
vn -0.125984 0.0551181 0.992126 
vn -0.133858 0.110236 0.984252 
vn -0.141732 0.141732 0.976378 
vn -0.11811 0.15748 0.984252 
vn -0.0393701 0.00787402 1 
vn -0.0393701 0.00787402 1 
vn -0.0393701 0.00787402 1 
vn -0.0393701 0.00787402 1 
vn -0.0393701 0.00787402 1 
vn -0.0393701 0.00787402 1 
vn -0.0393701 0.00787402 1 
vn -0.0393701 0.00787402 1 
vn -0.0393701 0.00787402 1 
vn -0.0393701 0.00787402 1 
vn -0.0393701 0.00787402 1 
vn -0.0393701 0.00787402 1 
vn -0.0393701 0.00787402 1 
vn -0.0393701 0.00787402 1 
vn -0.0393701 0.00787402 1 
vn -0.0393701 0.00787402 1 
vn -0.0393701 0.00787402 1 
vn -0.0393701 0.00787402 1 
vn -0.0393701 0.00787402 -1 
vn -0.0393701 0.00787402 -1 
vn -0.0393701 0.00787402 1 
vn -0.0393701 0.00787402 1 
vn -0.0393701 0.00787402 1 
vn -0.0393701 0.00787402 1 
vn -0.0393701 0.00787402 1 
vn -0.0393701 0.00787402 1 
vn -0.0393701 0.00787402 1 
vn -0.0393701 0.00787402 1 
vn -0.0393701 0.00787402 1 
vn -0.0393701 0.00787402 1 
vn -0.0393701 0.00787402 1 
vn -0.0393701 0.00787402 1 
vn -0.0393701 0.00787402 1 
vn -0.0393701 0.00787402 1 
vn -0.0393701 0.00787402 1 
vn -0.0393701 0.00787402 1 
vn -0.0393701 0.00787402 1 
vn -0.0393701 0.00787402 1 
vn -0.0393701 0.00787402 1 
vn -0.0393701 0.00787402 1 
vn -0.0393701 0.00787402 1 
vn -0.0393701 0.00787402 1 
vn -0.0393701 0.00787402 1 
vn -0.0393701 0.00787402 1 
vn -0.0393701 0.00787402 1 
vn 0.0314961 -0.023622 1 
vn 0.0314961 -0.00787402 1 
vn 0.0314961 -0.023622 1 
vn 0.0314961 -0.00787402 1 
vn 0.0314961 0 1 
vn 0.023622 0 1 
vn 0.023622 0 1 
vn 0.023622 0 1 
vn 0.00787402 0 1 
vn -0.00787402 0.00787402 1 
vn -0.023622 0.015748 1 
vn -0.023622 0.015748 1 
vn -0.023622 0.015748 1 
vn -0.023622 0.015748 1 
vn -0.023622 0.015748 1 
vn -0.818898 -0.574803 0 
vn -0.818898 -0.574803 0 
vn -0.818898 -0.574803 0 
vn -0.818898 -0.574803 0 
vn 0.952756 -0.299213 0 
vn -0.976378 -0.204724 0 
vn -0.976378 -0.204724 0 
vn -0.976378 -0.204724 0 
vn -0.976378 -0.204724 0 
vn -0.984252 0.165354 0 
vn -0.984252 0.165354 0 
vn -0.984252 0.165354 0 
vn -0.984252 0.165354 0 
vn 1 -0.0551181 0 
vn 0.992126 -0.133858 0 
vn -0.984252 0.173228 0 
vn -1 0.0551181 0 
vn -1 0.0551181 0 
vn -0.992126 0.125984 0 
vn -0.992126 0.125984 0 
vn -0.992126 0.0944882 0 
vn -0.992126 0.0944882 0 
vn -0.96063 -0.267717 0 
vn -0.96063 -0.267717 0 
vn -0.913386 -0.409449 0 
vn -0.913386 -0.409449 0 
vn 0.984252 0.173228 0 
vn 0.984252 0.173228 0 
vn -0.165354 -0.015748 -0.984252 
vn -0.149606 -0.015748 -0.992126 
vn -0.0472441 0.275591 -0.96063 
vn -0.110236 0.125984 0.984252 
vn -0.11811 0.023622 0.992126 
vn -0.0393701 0.00787402 1 
vn -1 -0.0629921 0 
vn -1 -0.0629921 0 
vn -1 -0.0629921 0 
vn -1 -0.0629921 0 
vn -0.944882 0.322835 0 
vn -0.944882 0.322835 0 
vn -0.944882 0.322835 0 
vn -0.944882 0.322835 0 
vn 0.338583 -0.944882 0 
vn 0.559055 -0.826772 0 
vn 0.338583 -0.944882 0 
vn 0.559055 -0.826772 0 
vn -0.11811 -0.992126 0 
vn -0.11811 -0.992126 0 
vn -0.330709 -0.944882 0 
vn -0.330709 -0.944882 0 
vn -0.299213 -0.952756 0 
vn -0.299213 -0.952756 0 
vn -0.299213 -0.952756 0 
vn -0.299213 -0.952756 0 
vn -0.338583 -0.937008 0 
vn -0.338583 -0.937008 0 
vn -0.338583 -0.937008 0 
vn -0.338583 -0.937008 0 
vn -0.023622 -1 0 
vn 0.220472 -0.976378 0 
vn 0.220472 -0.976378 0 
vn -0.023622 -1 0 
vn -0.464567 -0.88189 0 
vn -0.464567 -0.88189 0 
vn -0.645669 -0.76378 0 
vn -0.645669 -0.76378 0 
vn 0.338583 -0.944882 0 
vn 0.559055 -0.826772 0 
vn 0.559055 -0.826772 0 
vn -0.330709 -0.944882 0 
vn -0.299213 -0.952756 0 
vn -0.299213 -0.952756 0 
vn -0.338583 -0.937008 0 
vn -0.645669 -0.76378 0 
vn 0.850394 0.527559 0 
vn 0.850394 0.527559 0 
vn 0.897638 0.448819 0 
vn 0.96063 0.267717 0 
vn 1 0.0708661 0 
vn 1 -0.0314961 0 
vn 0.968504 -0.244094 0 
vn 0.952756 -0.314961 0 
vn 0.952756 -0.299213 0 
vn 0.850394 -0.519685 0 
vn 0.952756 -0.299213 0 
vn 0.850394 -0.519685 0 
vn 0.984252 0.15748 0 
vn 0.984252 0.181102 0 
vn 0.992126 -0.141732 0 
vn -0.984252 0.165354 0 
vn 0.992126 0.133858 0 
vn 1 0.023622 0 
vn 1 -0.0551181 0 
vn 0.992126 -0.133858 0 
vn 0.976378 -0.212598 0 
vn -0.984252 0.173228 0 
vn -1 0.0551181 0 
vn -1 0.0551181 0 
vn -0.992126 0.125984 0 
vn -0.992126 0.0944882 0 
vn -0.96063 -0.267717 0 
vn -0.96063 -0.267717 0 
vn -0.913386 -0.409449 0 
vn 0.984252 0.173228 0 
vn 0.984252 0.173228 0 
vn 0.984252 0.173228 0 
vn -0.125984 -0.015748 -0.992126 
vn -0.165354 -0.015748 -0.984252 
vn -0.149606 -0.015748 -0.992126 
vn -0.15748 -0.00787402 -0.984252 
vn -0.125984 -0.00787402 -0.992126 
vn -0.110236 0.125984 -0.984252 
vn -0.125984 0 -0.992126 
vn -0.110236 0.11811 -0.984252 
vn -0.0472441 0.275591 -0.96063 
vn -0.0472441 0.275591 -0.96063 
vn -0.11811 0.00787402 -0.992126 
vn -0.11811 0.023622 -0.992126 
vn -0.11811 0.0314961 -0.992126 
vn -0.125984 0.0551181 -0.992126 
vn -0.133858 0.110236 -0.984252 
vn -0.141732 0.141732 -0.976378 
vn -0.11811 0.15748 -0.984252 
vn -0.110236 0.125984 0.984252 
vn -0.11811 0.023622 0.992126 
vn -0.133858 0.110236 0.984252 
vn -0.0393701 0.00787402 1 
vn -0.0393701 0.00787402 -1 
vn -0.0393701 0.00787402 -1 
vn -0.0393701 0.00787402 -1 
vn -0.0393701 0.00787402 -1 
vn -0.0393701 0.00787402 -1 
vn -0.0393701 0.00787402 -1 
vn -0.0393701 0.00787402 -1 
vn -0.0393701 0.00787402 -1 
vn -0.0393701 0.00787402 -1 
vn -0.0393701 0.00787402 -1 
vn -0.0393701 0.00787402 -1 
vn -0.0393701 0.00787402 -1 
vn -0.0393701 0.00787402 -1 
vn -0.0393701 0.00787402 -1 
vn -0.0393701 0.00787402 -1 
vn -0.0393701 0.00787402 -1 
vn -0.0393701 0.00787402 -1 
vn -0.0393701 0.00787402 -1 
vn -0.0393701 0.00787402 -1 
vn -0.0393701 0.00787402 -1 
vn -0.0393701 0.00787402 -1 
vn -0.0393701 0.00787402 -1 
vn -0.0393701 0.00787402 -1 
vn -0.0393701 0.00787402 -1 
vn -0.0393701 0.00787402 -1 
vn -0.0393701 0.00787402 -1 
vn -0.0393701 0.00787402 -1 
vn -0.0393701 0.00787402 -1 
vn -0.0393701 0.00787402 -1 
vn -0.0393701 0.00787402 -1 
vn -0.0393701 0.00787402 -1 
vn -0.0393701 0.00787402 -1 
vn -0.0393701 0.00787402 -1 
vn -0.0393701 0.00787402 -1 
vn -0.0393701 0.00787402 -1 
vn -0.0393701 0.00787402 -1 
vn -0.0393701 0.00787402 -1 
vn -0.0393701 0.00787402 -1 
vn -0.0393701 0.00787402 -1 
vn -0.0393701 0.00787402 -1 
vn -0.0393701 0.00787402 -1 
vn -0.0393701 0.00787402 -1 
vn -0.0393701 0.00787402 -1 
vn -0.0393701 0.00787402 1 
vn -0.0393701 0.00787402 1 
vn -0.0393701 0.00787402 1 
vn 0.0314961 -0.00787402 -1 
vn 0.0314961 -0.023622 -1 
vn 0.0314961 -0.023622 -1 
vn 0.0314961 -0.00787402 -1 
vn 0.0314961 0 -1 
vn 0.023622 0 -1 
vn 0.023622 0 -1 
vn 0.023622 0 -1 
vn 0.00787402 0 -1 
vn -0.00787402 0.00787402 -1 
vn -0.023622 0.015748 -1 
vn -0.023622 0.015748 -1 
vn -0.023622 0.015748 -1 
vn -0.023622 0.015748 -1 
vn -0.023622 0.015748 -1 

vt 1.68592 -0.784408 
vt 1.67774 -0.810741 
vt 1.68592 -0.810741 
vt 1.67774 -0.784408 
vt 1.68592 -0.762082 
vt 1.67774 -0.762082 
vt 1.68592 -0.747594 
vt 1.67774 -0.747594 
vt 1.68393 -0.729256 
vt 1.67972 -0.729256 
vt 1.67774 -0.723591 
vt 1.68592 -0.723591 
vt 1.6838 -0.702571 
vt 1.67986 -0.702571 
vt 1.68183 -0.685172 
vt 1.68592 -0.98244 
vt 1.68592 -0.969913 
vt 1.67774 -0.98244 
vt 1.67774 -0.969913 
vt 1.67774 -0.994285 
vt 1.68592 -0.994285 
vt 1.67774 -1.01014 
vt 1.68592 -1.01014 
vt 1.67774 -1.02547 
vt 1.68592 -1.02547 
vt 1.67774 -1.03928 
vt 1.68592 -1.03928 
vt 1.68592 -0.969913 
vt 1.68592 -0.915133 
vt 1.67774 -0.915133 
vt 1.67774 -0.969913 
vt 1.68592 -0.893062 
vt 1.67774 -0.893062 
vt 1.68592 -0.872013 
vt 1.67774 -0.872013 
vt 1.68592 -0.851305 
vt 1.67774 -0.851305 
vt 1.68592 -0.829404 
vt 1.67774 -0.829404 
vt 1.68592 -0.810741 
vt 1.67774 -0.810741 
vt 1.67937 -0.777414 
vt 1.67937 -0.804556 
vt 1.68428 -0.777414 
vt 1.68428 -0.804556 
vt 1.68428 -0.908673 
vt 1.68183 -0.830906 
vt 1.68393 -0.939829 
vt 1.67937 -0.931413 
vt 1.67937 -0.750696 
vt 1.67972 -0.790962 
vt 1.67937 -0.804556 
vt 1.67937 -0.908673 
vt 1.68428 -0.804556 
vt 1.68428 -0.908673 
vt 1.67937 -0.908673 
vt 1.67937 -0.931413 
vt 1.68428 -0.908673 
vt 1.68428 -0.931413 
vt 1.67937 -0.750696 
vt 1.67937 -0.777414 
vt 1.68428 -0.750696 
vt 1.68428 -0.777414 
vt 1.67937 -0.715071 
vt 1.67937 -0.750696 
vt 1.68428 -0.715071 
vt 1.68428 -0.750696 
vt 1.68183 -0.685172 
vt 1.67937 -0.715071 
vt 1.68428 -0.715071 
vt 1.65042 -0.870818 
vt 1.6628 -0.862633 
vt 1.67225 -0.862633 
vt 1.67832 -0.870818 
vt 1.68839 -0.866725 
vt 1.68069 -0.870818 
vt 1.67135 -0.86427 
vt 1.7303 -0.870818 
vt 1.71802 -0.862633 
vt 1.71802 -0.870818 
vt 1.7303 -0.862633 
vt 1.70236 -0.870818 
vt 1.68994 -0.862633 
vt 1.68994 -0.870818 
vt 1.70236 -0.862633 
vt 1.71802 -0.870818 
vt 1.70236 -0.862633 
vt 1.70236 -0.870818 
vt 1.71802 -0.862633 
vt 1.68994 -0.870818 
vt 1.68751 -0.862633 
vt 1.68751 -0.870818 
vt 1.68994 -0.862633 
vt 1.71323 -1.04705 
vt 1.72482 -1.03928 
vt 1.72482 -1.03928 
vt 1.69141 -1.04501 
vt 1.68534 -1.03631 
vt 1.67263 -1.03233 
vt 1.63276 -1.00691 
vt 1.67318 -1.01836 
vt 1.72932 -0.810741 
vt 1.72932 -0.810741 
vt 1.71291 -0.784408 
vt 1.70419 -0.762082 
vt 1.70177 -0.747594 
vt 1.70237 -0.729256 
vt 1.70646 -0.702571 
vt 1.71224 -0.685172 
vt 1.72321 -0.98244 
vt 1.73089 -0.969913 
vt 1.72321 -0.98244 
vt 1.73089 -0.969913 
vt 1.72246 -0.994285 
vt 1.72876 -1.01014 
vt 1.72864 -1.02547 
vt 1.63336 -1.00339 
vt 1.72004 -0.915133 
vt 1.71825 -0.893062 
vt 1.71882 -0.872013 
vt 1.7205 -0.851305 
vt 1.72482 -0.829404 
vt 1.67526 -0.935459 
vt 1.67264 -0.95013 
vt 1.67264 -0.95013 
vt 1.67359 -0.969445 
vt 1.66926 -0.983386 
vt 1.67088 -0.997988 
vt 1.67088 -0.997988 
vt 1.67615 -1.00965 
vt 1.67895 -0.777414 
vt 1.68382 -0.804556 
vt 1.67895 -0.777414 
vt 1.68764 -0.908673 
vt 1.66732 -0.830906 
vt 1.67704 -0.925518 
vt 1.66139 -0.789919 
vt 1.68297 -0.938634 
vt 1.69286 -0.939829 
vt 1.6599 -0.764425 
vt 1.68319 -0.750696 
vt 1.6631 -0.745464 
vt 1.6717 -0.72423 
vt 1.69315 -0.715071 
vt 1.68615 -0.704843 
vt 1.66732 -0.830906 
vt 1.68764 -0.908673 
vt 1.68382 -0.804556 
vt 1.67704 -0.925518 
vt 1.66139 -0.789919 
vt 1.69231 -0.931413 
vt 1.67895 -0.777414 
vt 1.67526 -0.935459 
vt 1.68297 -0.938636 
vt 1.69286 -0.939829 
vt 1.6599 -0.764425 
vt 1.68319 -0.750696 
vt 1.6631 -0.745464 
vt 1.6717 -0.72423 
vt 1.69315 -0.715071 
vt 1.68615 -0.704843 
vt 1.71224 -0.685172 
vt 1.66157 -1.00854 
vt 1.6613 -0.99897 
vt 1.64915 -1.00511 
vt 1.64564 -0.996884 
vt 1.67372 -1.00965 
vt 1.63592 -1.00805 
vt 1.63336 -1.00339 
vt 1.63276 -1.00691 
vt 1.67318 -1.01836 
vt 1.67615 -1.00965 
vt 1.6748 -1.02597 
vt 1.68534 -1.03631 
vt 1.67263 -1.03233 
vt 1.69141 -1.04501 
vt 1.70086 -1.04828 
vt 1.71323 -1.04705 
vt 1.72864 -1.02547 
vt 1.72482 -1.03928 
vt 1.67372 -1.00965 
vt 1.64564 -0.996884 
vt 1.72876 -1.01014 
vt 1.72246 -0.994285 
vt 1.67088 -0.997988 
vt 1.66926 -0.983386 
vt 1.72321 -0.98244 
vt 1.67359 -0.969445 
vt 1.69286 -0.939829 
vt 1.73089 -0.969913 
vt 1.67264 -0.95013 
vt 1.68297 -0.938636 
vt 1.67526 -0.935459 
vt 1.70232 -0.934545 
vt 1.72004 -0.915133 
vt 1.70121 -0.929688 
vt 1.71825 -0.893062 
vt 1.71882 -0.872013 
vt 1.69664 -0.790962 
vt 1.7205 -0.851305 
vt 1.72482 -0.829404 
vt 1.72932 -0.810741 
vt 1.71291 -0.784408 
vt 1.69452 -0.764032 
vt 1.70419 -0.762082 
vt 1.70177 -0.747594 
vt 1.70237 -0.729256 
vt 1.70232 -0.934545 
vt 1.69231 -0.931413 
vt 1.69286 -0.939829 
vt 1.70121 -0.929688 
vt 1.68764 -0.908673 
vt 1.69664 -0.790962 
vt 1.68382 -0.804556 
vt 1.67895 -0.777414 
vt 1.69452 -0.764032 
vt 1.68319 -0.750696 
vt 1.70237 -0.729256 
vt 1.69315 -0.715071 
vt 1.70255 -0.723591 
vt 1.70646 -0.702571 
vt 1.71224 -0.685172 
vt 1.67774 -1.03631 
vt 1.67774 -1.04501 
vt 1.68592 -1.03631 
vt 1.68592 -1.04501 
vt 1.68592 -0.98244 
vt 1.67774 -1.02597 
vt 1.68592 -1.01836 
vt 1.67774 -1.01836 
vt 1.68592 -1.02597 
vt 1.67774 -1.00691 
vt 1.68592 -1.00339 
vt 1.67774 -1.00339 
vt 1.68592 -1.00691 
vt 1.68592 -0.872013 
vt 1.67774 -0.851305 
vt 1.68183 -0.935459 
vt 1.67774 -0.95013 
vt 1.68592 -0.95013 
vt 1.67774 -0.969445 
vt 1.68592 -0.969445 
vt 1.67774 -0.983386 
vt 1.68592 -0.983386 
vt 1.67774 -0.997988 
vt 1.68592 -0.997988 
vt 1.67774 -1.00965 
vt 1.68592 -1.00965 
vt 1.68428 -0.804556 
vt 1.67937 -0.777414 
vt 1.67937 -0.908673 
vt 1.68183 -0.830906 
vt 1.67973 -0.939829 
vt 1.68428 -0.931413 
vt 1.68428 -0.750696 
vt 1.68393 -0.790962 
vt 1.68393 -0.939829 
vt 1.67937 -0.931413 
vt 1.67973 -0.939829 
vt 1.68428 -0.931413 
vt 1.67774 -1.02597 
vt 1.67774 -1.03233 
vt 1.68592 -1.03233 
vt 1.68592 -1.02597 
vt 1.71323 -0.870818 
vt 1.72482 -0.870818 
vt 1.71323 -0.862633 
vt 1.72482 -0.862633 
vt 1.70086 -0.862633 
vt 1.70086 -0.870818 
vt 1.69141 -0.862633 
vt 1.69141 -0.870818 
vt 1.67263 -0.870818 
vt 1.68534 -0.870818 
vt 1.67263 -0.862633 
vt 1.68534 -0.862633 
vt 1.63592 -0.870818 
vt 1.63276 -0.862633 
vt 1.63276 -0.870818 
vt 1.63592 -0.862633 
vt 1.64915 -0.870818 
vt 1.63592 -0.862633 
vt 1.63592 -0.870818 
vt 1.64915 -0.862633 
vt 1.66157 -0.870818 
vt 1.66157 -0.862633 
vt 1.67318 -0.870818 
vt 1.67318 -0.862633 
vt 1.65042 -1.04705 
vt 1.63884 -1.03928 
vt 1.63884 -1.03928 
vt 1.67225 -1.04501 
vt 1.67832 -1.03631 
vt 1.69103 -1.03233 
vt 1.73089 -1.00691 
vt 1.69048 -1.01836 
vt 1.63434 -0.810741 
vt 1.63434 -0.810741 
vt 1.65075 -0.784408 
vt 1.65946 -0.762082 
vt 1.66189 -0.747594 
vt 1.66129 -0.729256 
vt 1.6572 -0.702571 
vt 1.65142 -0.685172 
vt 1.64045 -0.98244 
vt 1.63276 -0.969913 
vt 1.64045 -0.98244 
vt 1.63276 -0.969913 
vt 1.6412 -0.994285 
vt 1.6349 -1.01014 
vt 1.63501 -1.02547 
vt 1.7303 -1.00339 
vt 1.64362 -0.915133 
vt 1.6454 -0.893062 
vt 1.64484 -0.872013 
vt 1.64315 -0.851305 
vt 1.63884 -0.829404 
vt 1.68839 -0.935459 
vt 1.69102 -0.95013 
vt 1.69102 -0.95013 
vt 1.69006 -0.969445 
vt 1.6944 -0.983386 
vt 1.69278 -0.997988 
vt 1.69278 -0.997988 
vt 1.68751 -1.00965 
vt 1.68471 -0.777414 
vt 1.67983 -0.804556 
vt 1.68471 -0.777414 
vt 1.67983 -0.804556 
vt 1.67602 -0.908673 
vt 1.69633 -0.830906 
vt 1.68661 -0.925518 
vt 1.70227 -0.789919 
vt 1.67135 -0.931413 
vt 1.68471 -0.777414 
vt 1.68839 -0.935459 
vt 1.68069 -0.938634 
vt 1.6708 -0.939829 
vt 1.70376 -0.764425 
vt 1.68047 -0.750696 
vt 1.70055 -0.745464 
vt 1.69196 -0.72423 
vt 1.6705 -0.715071 
vt 1.67751 -0.704843 
vt 1.65142 -0.685172 
vt 1.67135 -0.931413 
vt 1.68047 -0.750696 
vt 1.6705 -0.715071 
vt 1.68994 -1.00965 
vt 1.70236 -0.99897 
vt 1.68994 -1.00965 
vt 1.70209 -1.00854 
vt 1.69048 -1.01836 
vt 1.71451 -1.00511 
vt 1.71802 -0.996884 
vt 1.72774 -1.00805 
vt 1.7303 -1.00339 
vt 1.73089 -1.00691 
vt 1.68751 -1.00965 
vt 1.68886 -1.02597 
vt 1.67832 -1.03631 
vt 1.69103 -1.03233 
vt 1.6349 -1.01014 
vt 1.6412 -0.994285 
vt 1.69278 -0.997988 
vt 1.63501 -1.02547 
vt 1.6944 -0.983386 
vt 1.64045 -0.98244 
vt 1.69006 -0.969445 
vt 1.65042 -1.04705 
vt 1.63884 -1.03928 
vt 1.6628 -1.04828 
vt 1.67225 -1.04501 
vt 1.6708 -0.939829 
vt 1.63276 -0.969913 
vt 1.69102 -0.95013 
vt 1.68069 -0.938634 
vt 1.68839 -0.935459 
vt 1.66134 -0.934545 
vt 1.64362 -0.915133 
vt 1.66245 -0.929688 
vt 1.6454 -0.893062 
vt 1.64484 -0.872013 
vt 1.66701 -0.790962 
vt 1.64315 -0.851305 
vt 1.63884 -0.829404 
vt 1.63434 -0.810741 
vt 1.65075 -0.784408 
vt 1.66914 -0.764032 
vt 1.65946 -0.762082 
vt 1.66189 -0.747594 
vt 1.66129 -0.729256 
vt 1.66245 -0.929688 
vt 1.66701 -0.790962 
vt 1.66914 -0.764032 
vt 1.67135 -0.931413 
vt 1.66134 -0.934545 
vt 1.6708 -0.939829 
vt 1.66245 -0.929688 
vt 1.67602 -0.908673 
vt 1.66701 -0.790962 
vt 1.67983 -0.804556 
vt 1.68471 -0.777414 
vt 1.66914 -0.764032 
vt 1.68047 -0.750696 
vt 1.66129 -0.729256 
vt 1.6705 -0.715071 
vt 1.66111 -0.723591 
vt 1.6572 -0.702571 
vt 1.65142 -0.685172 

usemtl Meshpart1Mtl

f 1/1/1 2/2/2 3/3/3 
f 2/2/2 1/1/1 4/4/4 
f 5/5/5 4/4/4 1/1/1 
f 4/4/4 5/5/5 6/6/6 
f 7/7/7 6/6/6 5/5/5 
f 6/6/6 7/7/7 8/8/8 
f 9/9/9 8/8/8 7/7/7 
f 8/8/8 9/9/9 10/10/10 
f 9/9/9 11/11/11 10/10/10 
f 11/11/11 9/9/9 12/12/12 
f 13/13/13 11/11/11 12/12/12 
f 11/11/11 13/13/13 14/14/14 
f 14/14/14 13/13/13 15/15/15 
f 16/16/16 17/17/17 18/18/18 
f 17/17/17 19/19/19 18/18/18 
f 16/16/16 18/18/18 20/20/20 
f 21/21/21 16/16/16 20/20/20 
f 20/20/20 22/22/22 21/21/21 
f 23/23/23 21/21/21 22/22/22 
f 22/22/22 24/24/24 23/23/23 
f 25/25/25 23/23/23 24/24/24 
f 25/25/25 24/24/24 26/26/26 
f 27/27/27 25/25/25 26/26/26 
f 28/28/28 29/29/29 30/30/30 
f 28/28/28 30/30/30 31/31/31 
f 32/32/32 30/30/30 29/29/29 
f 30/30/30 32/32/32 33/33/33 
f 34/34/34 33/33/33 32/32/32 
f 33/33/33 34/34/34 35/35/35 
f 36/36/36 35/35/35 34/34/34 
f 35/35/35 36/36/36 37/37/37 
f 38/38/38 37/37/37 36/36/36 
f 37/37/37 38/38/38 39/39/39 
f 40/40/40 39/39/39 38/38/38 
f 39/39/39 40/40/40 41/41/41 
f 42/42/42 43/43/43 44/44/44 
f 45/45/45 44/44/44 43/43/43 
f 52/52/52 53/53/53 54/54/54 
f 55/55/55 54/54/54 53/53/53 
f 56/56/56 57/57/57 58/58/58 
f 59/59/59 58/58/58 57/57/57 
f 60/60/60 61/61/61 62/62/62 
f 63/63/63 62/62/62 61/61/61 
f 64/64/64 65/65/65 66/66/66 
f 67/67/67 66/66/66 65/65/65 
f 68/68/68 69/69/69 70/70/70 
f 78/78/78 79/79/79 80/80/80 
f 79/79/79 78/78/78 81/81/81 
f 82/82/82 83/83/83 84/84/84 
f 83/83/83 82/82/82 85/85/85 
f 86/86/86 87/87/87 88/88/88 
f 87/87/87 86/86/86 89/89/89 
f 90/90/90 91/91/91 92/92/92 
f 91/91/91 90/90/90 93/93/93 
f 146/146/146 147/147/147 148/148/148 
f 147/147/147 146/146/146 149/149/149 
f 148/148/148 150/150/150 146/146/146 
f 147/147/147 149/149/149 151/151/151 
f 150/150/150 148/148/148 152/152/152 
f 151/151/151 149/149/149 153/153/153 
f 154/154/154 151/151/151 153/153/153 
f 151/151/151 154/154/154 155/155/155 
f 152/152/152 156/156/156 150/150/150 
f 156/156/156 152/152/152 157/157/157 
f 157/157/157 158/158/158 156/156/156 
f 157/157/157 159/159/159 158/158/158 
f 159/159/159 157/157/157 160/160/160 
f 161/161/161 159/159/159 160/160/160 
f 162/162/162 161/161/161 160/160/160 
f 163/163/163 164/164/164 165/165/165 
f 166/166/166 165/165/165 164/164/164 
f 167/167/167 164/164/164 163/163/163 
f 165/165/165 166/166/166 168/168/168 
f 169/169/169 168/168/168 166/166/166 
f 168/168/168 169/169/169 170/170/170 
f 171/171/171 167/167/167 163/163/163 
f 171/171/171 172/172/172 167/167/167 
f 173/173/173 172/172/172 171/171/171 
f 174/174/174 172/172/172 173/173/173 
f 173/173/173 175/175/175 174/174/174 
f 174/174/174 176/176/176 177/177/177 
f 178/178/178 174/174/174 177/177/177 
f 178/178/178 179/179/179 174/174/174 
f 179/179/179 178/178/178 180/180/180 
f 174/174/174 183/183/183 172/172/172 
f 172/172/172 183/183/183 184/184/184 
f 183/183/183 174/174/174 179/179/179 
f 184/184/184 185/185/185 172/172/172 
f 184/184/184 186/186/186 185/185/185 
f 187/187/187 186/186/186 184/184/184 
f 186/186/186 187/187/187 188/188/188 
f 188/188/188 187/187/187 189/189/189 
f 190/190/190 189/189/189 187/187/187 
f 188/188/188 189/189/189 191/191/191 
f 191/191/191 189/189/189 192/192/192 
f 191/191/191 192/192/192 193/193/193 
f 189/189/189 190/190/190 194/194/194 
f 194/194/194 190/190/190 195/195/195 
f 194/194/194 195/195/195 196/196/196 
f 197/197/197 196/196/196 195/195/195 
f 198/198/198 196/196/196 197/197/197 
f 196/196/196 198/198/198 199/199/199 
f 199/199/199 198/198/198 200/200/200 
f 201/201/201 199/199/199 200/200/200 
f 202/202/202 199/199/199 201/201/201 
f 199/199/199 202/202/202 203/203/203 
f 199/199/199 203/203/203 204/204/204 
f 204/204/204 203/203/203 205/205/205 
f 206/206/206 204/204/204 205/205/205 
f 207/207/207 204/204/204 206/206/206 
f 208/208/208 209/209/209 210/210/210 
f 209/209/209 208/208/208 211/211/211 
f 211/211/211 212/212/212 209/209/209 
f 211/211/211 213/213/213 212/212/212 
f 213/213/213 214/214/214 212/212/212 
f 213/213/213 215/215/215 214/214/214 
f 215/215/215 213/213/213 216/216/216 
f 216/216/216 217/217/217 215/215/215 
f 218/218/218 217/217/217 216/216/216 
f 217/217/217 218/218/218 219/219/219 
f 219/219/219 218/218/218 220/220/220 
f 221/221/221 219/219/219 220/220/220 
f 222/222/222 219/219/219 221/221/221 
f 223/223/223 224/224/224 225/225/225 
f 224/224/224 226/226/226 225/225/225 
f 228/228/228 229/229/229 230/230/230 
f 229/229/229 228/228/228 231/231/231 
f 232/232/232 233/233/233 234/234/234 
f 233/233/233 232/232/232 235/235/235 
f 238/238/238 239/239/239 240/240/240 
f 241/241/241 240/240/240 239/239/239 
f 240/240/240 241/241/241 242/242/242 
f 243/243/243 242/242/242 241/241/241 
f 242/242/242 243/243/243 244/244/244 
f 245/245/245 244/244/244 243/243/243 
f 244/244/244 245/245/245 246/246/246 
f 247/247/247 246/246/246 245/245/245 
f 246/246/246 247/247/247 248/248/248 
f 257/257/257 258/258/258 259/259/259 
f 258/258/258 257/257/257 260/260/260 
f 261/261/261 262/262/262 263/263/263 
f 261/261/261 263/263/263 264/264/264 
f 265/265/265 266/266/266 267/267/267 
f 266/266/266 268/268/268 267/267/267 
f 265/265/265 267/267/267 269/269/269 
f 270/270/270 265/265/265 269/269/269 
f 270/270/270 269/269/269 271/271/271 
f 272/272/272 270/270/270 271/271/271 
f 273/273/273 274/274/274 275/275/275 
f 274/274/274 276/276/276 275/275/275 
f 277/277/277 278/278/278 279/279/279 
f 278/278/278 277/277/277 280/280/280 
f 281/281/281 282/282/282 283/283/283 
f 282/282/282 281/281/281 284/284/284 
f 285/285/285 284/284/284 281/281/281 
f 284/284/284 285/285/285 286/286/286 
f 287/287/287 286/286/286 285/285/285 
f 286/286/286 287/287/287 288/288/288 
f 329/329/329 330/330/330 331/331/331 
f 332/332/332 331/331/331 330/330/330 
f 331/331/331 333/333/333 329/329/329 
f 332/332/332 330/330/330 334/334/334 
f 335/335/335 329/329/329 333/333/333 
f 336/336/336 332/332/332 334/334/334 
f 336/336/336 334/334/334 337/337/337 
f 337/337/337 334/334/334 338/338/338 
f 333/333/333 339/339/339 335/335/335 
f 340/340/340 335/335/335 339/339/339 
f 340/340/340 339/339/339 341/341/341 
f 342/342/342 340/340/340 341/341/341 
f 340/340/340 342/342/342 343/343/343 
f 343/343/343 342/342/342 344/344/344 
f 345/345/345 343/343/343 344/344/344 
f 350/350/350 351/351/351 352/352/352 
f 353/353/353 352/352/352 351/351/351 
f 354/354/354 350/350/350 352/352/352 
f 350/350/350 354/354/354 355/355/355 
f 356/356/356 355/355/355 354/354/354 
f 355/355/355 356/356/356 357/357/357 
f 357/357/357 356/356/356 358/358/358 
f 359/359/359 353/353/353 351/351/351 
f 359/359/359 360/360/360 353/353/353 
f 360/360/360 359/359/359 361/361/361 
f 361/361/361 362/362/362 360/360/360 
f 361/361/361 359/359/359 363/363/363 
f 364/364/364 363/363/363 359/359/359 
f 365/365/365 364/364/364 359/359/359 
f 361/361/361 363/363/363 366/366/366 
f 367/367/367 364/364/364 365/365/365 
f 364/364/364 367/367/367 368/368/368 
f 368/368/368 367/367/367 369/369/369 
f 370/370/370 361/361/361 366/366/366 
f 370/370/370 366/366/366 371/371/371 
f 361/361/361 370/370/370 372/372/372 
f 361/361/361 372/372/372 373/373/373 
f 369/369/369 374/374/374 368/368/368 
f 368/368/368 374/374/374 375/375/375 
f 376/376/376 374/374/374 369/369/369 
f 374/374/374 376/376/376 377/377/377 
f 376/376/376 378/378/378 377/377/377 
f 375/375/375 374/374/374 379/379/379 
f 375/375/375 379/379/379 380/380/380 
f 381/381/381 380/380/380 379/379/379 
f 380/380/380 381/381/381 382/382/382 
f 381/381/381 383/383/383 382/382/382 
f 383/383/383 381/381/381 384/384/384 
f 383/383/383 384/384/384 385/385/385 
f 384/384/384 386/386/386 385/385/385 
f 384/384/384 387/387/387 386/386/386 
f 387/387/387 384/384/384 388/388/388 
f 389/389/389 388/388/388 384/384/384 
f 388/388/388 389/389/389 390/390/390 
f 390/390/390 389/389/389 391/391/391 
f 389/389/389 392/392/392 391/391/391 
f 396/396/396 397/397/397 398/398/398 
f 397/397/397 396/396/396 399/399/399 
f 399/399/399 396/396/396 400/400/400 
f 401/401/401 399/399/399 400/400/400 
f 401/401/401 400/400/400 402/402/402 
f 403/403/403 401/401/401 402/402/402 
f 401/401/401 403/403/403 404/404/404 
f 405/405/405 404/404/404 403/403/403 
f 406/406/406 404/404/404 405/405/405 
f 407/407/407 406/406/406 405/405/405 
f 406/406/406 407/407/407 408/408/408 
f 407/407/407 409/409/409 408/408/408 
f 407/407/407 410/410/410 409/409/409 

g Meshpart2

v 0.158219 -0.109689 0.0401629 
v 0.158219 -0.109689 -0.0495929 
v 0.169301 -0.13645 0.0401629 
v 0.169301 -0.13645 -0.0495929 
v 0.158219 -0.163208 0.0401629 
v 0.158219 -0.163208 -0.0495929 
v 0.0988678 0.360995 0.0384183 
v 0.124597 0.350337 0.0384183 
v 0.124597 0.350337 -0.0495929 
v 0.135256 0.324607 0.0384183 
v 0.135256 0.324607 -0.0495929 
v 0.124597 0.298878 0.0384183 
v 0.124597 0.298878 -0.0495929 
v 0.104696 -0.109689 -0.0495929 
v 0.131458 -0.0986064 0.0401629 
v 0.131458 -0.0986065 -0.0495929 
v 0.158219 -0.109689 0.0401629 
v 0.104696 -0.109689 0.0401629 
v 0.158219 -0.109689 -0.0495929 
v 0.104696 -0.163208 -0.0495929 
v 0.158219 -0.163208 0.0401629 
v 0.0731384 0.350337 -0.0495929 
v 0.0988678 0.360995 0.0384183 
v 0.0988678 0.360995 -0.0495929 
v 0.124597 0.350337 0.0384183 
v 0.0731384 0.350337 0.0384183 
v 0.124597 0.350337 -0.0495929 
v 0.131458 -0.174293 0.0401629 
v 0.131458 -0.0986064 0.0401629 
v 0.0936142 -0.13645 0.0401629 
v 0.104696 -0.109689 0.0401629 
v 0.104696 -0.163208 0.0401629 
v 0.169301 -0.13645 0.0401629 
v 0.158219 -0.109689 0.0401629 
v 0.158219 -0.163208 0.0401629 
v 0.0731384 0.298878 0.0384183 
v 0.0731384 0.350337 0.0384183 
v 0.0624799 0.324607 0.0384183 
v 0.124597 0.298878 0.0384183 
v 0.0988678 0.28822 0.0384183 
v 0.124597 0.350337 0.0384183 
v 0.0988678 0.360995 0.0384183 
v 0.135256 0.324607 0.0384183 
v 0.104696 -0.109689 -0.0495929 
v 0.104696 -0.109689 0.0401629 
v 0.0936142 -0.13645 -0.0495929 
v 0.0936142 -0.13645 0.0401629 
v 0.104696 -0.163208 -0.0495929 
v 0.104696 -0.163208 0.0401629 
v 0.0731384 0.350337 -0.0495929 
v 0.0988678 0.360995 0.0384183 
v 0.0731384 0.350337 0.0384183 
v 0.0624799 0.324607 -0.0495929 
v 0.0624799 0.324607 0.0384183 
v 0.0731384 0.298878 -0.0495929 
v 0.0731384 0.298878 0.0384183 
v 0.158219 -0.109689 -0.0495929 
v 0.104696 -0.163208 -0.0495929 
v 0.158219 -0.163208 0.0401629 
v 0.104696 -0.163208 0.0401629 
v 0.158219 -0.163208 -0.0495929 
v 0.131458 -0.174293 -0.0495929 
v 0.131458 -0.174293 0.0401629 
v 0.0988678 0.360995 0.0384183 
v 0.0624799 0.324607 -0.0495929 
v 0.135256 0.324607 -0.0495929 
v 0.0731384 0.298878 -0.0495929 
v 0.124597 0.298878 0.0384183 
v 0.0731384 0.298878 0.0384183 
v 0.124597 0.298878 -0.0495929 
v 0.0988678 0.28822 -0.0495929 
v 0.0988678 0.28822 0.0384183 
v 0.169301 -0.13645 -0.0495929 
v 0.131458 -0.0986065 -0.0495929 
v 0.158219 -0.109689 -0.0495929 
v 0.131458 -0.174293 -0.0495929 
v 0.158219 -0.163208 -0.0495929 
v 0.0936142 -0.13645 -0.0495929 
v 0.104696 -0.109689 -0.0495929 
v 0.104696 -0.163208 -0.0495929 
v 0.124597 0.298878 -0.0495929 
v 0.0731384 0.350337 -0.0495929 
v 0.124597 0.350337 -0.0495929 
v 0.0988678 0.360995 -0.0495929 
v 0.135256 0.324607 -0.0495929 
v 0.0731384 0.298878 -0.0495929 
v 0.0624799 0.324607 -0.0495929 
v 0.0988678 0.28822 -0.0495929 

vn 0.708661 0.708661 0 
vn 0.708661 0.708661 0 
vn 1 0 0 
vn 1 0 0 
vn 0.708661 -0.708661 0 
vn 0.708661 -0.708661 0 
vn 0 1 0 
vn 0.708661 0.708661 0 
vn 0.708661 0.708661 0 
vn 1 0 0 
vn 1 0 0 
vn 0.708661 -0.708661 0 
vn 0.708661 -0.708661 0 
vn -0.708661 0.708661 0 
vn 0 1 0 
vn 0 1 0 
vn 0.708661 0.708661 0 
vn -0.708661 0.708661 0 
vn 0.708661 0.708661 0 
vn -0.708661 -0.708661 0 
vn 0.708661 -0.708661 0 
vn -0.708661 0.708661 0 
vn 0 1 0 
vn 0 1 0 
vn 0.708661 0.708661 0 
vn -0.708661 0.708661 0 
vn 0.708661 0.708661 0 
vn 0 0 1 
vn 0 0 1 
vn 0 0 1 
vn 0 0 1 
vn 0 0 1 
vn 0 0 1 
vn 0 0 1 
vn 0 0 1 
vn 0 0 1 
vn 0 0 1 
vn 0 0 1 
vn 0 0 1 
vn 0 0 1 
vn 0 0 1 
vn 0 0 1 
vn 0 0 1 
vn -0.708661 0.708661 0 
vn -0.708661 0.708661 0 
vn -1 0 0 
vn -1 0 0 
vn -0.708661 -0.708661 0 
vn -0.708661 -0.708661 0 
vn -0.708661 0.708661 0 
vn 0 1 0 
vn -0.708661 0.708661 0 
vn -1 0 0 
vn -1 0 0 
vn -0.708661 -0.708661 0 
vn -0.708661 -0.708661 0 
vn 0.708661 0.708661 0 
vn -0.708661 -0.708661 0 
vn 0.708661 -0.708661 0 
vn -0.708661 -0.708661 0 
vn 0.708661 -0.708661 0 
vn 0 -1 0 
vn 0 -1 0 
vn 0 1 0 
vn -1 0 0 
vn 1 0 0 
vn -0.708661 -0.708661 0 
vn 0.708661 -0.708661 0 
vn -0.708661 -0.708661 0 
vn 0.708661 -0.708661 0 
vn 0 -1 0 
vn 0 -1 0 
vn 0 0 -1 
vn 0 0 -1 
vn 0 0 -1 
vn 0 0 -1 
vn 0 0 -1 
vn 0 0 -1 
vn 0 0 -1 
vn 0 0 -1 
vn 0 0 -1 
vn 0 0 -1 
vn 0 0 -1 
vn 0 0 -1 
vn 0 0 -1 
vn 0 0 -1 
vn 0 0 -1 
vn 0 0 -1 

vt -0.0583172 0.670214 
vt -0.0470978 0.670214 
vt -0.0583172 0.666869 
vt -0.0470978 0.666869 
vt -0.0583172 0.663524 
vt -0.0470978 0.663524 
vt -0.0580991 0.729049 
vt -0.0580991 0.727717 
vt -0.0470978 0.727717 
vt -0.0580991 0.724501 
vt -0.0470978 0.724501 
vt -0.0580991 0.721285 
vt -0.0470978 0.721285 
vt -0.0513082 0.689984 
vt -0.0546534 0.701203 
vt -0.0546534 0.689984 
vt -0.0579985 0.701203 
vt -0.0513082 0.701203 
vt -0.0579985 0.689984 
vt -0.0513082 0.689984 
vt -0.0579985 0.701203 
vt -0.0473635 0.689984 
vt -0.0505797 0.700985 
vt -0.0505797 0.689984 
vt -0.0537958 0.700985 
vt -0.0473635 0.700985 
vt -0.0537958 0.689984 
vt -0.0507616 0.662138 
vt -0.0507616 0.671599 
vt -0.055492 0.666869 
vt -0.0541067 0.670214 
vt -0.0541067 0.663524 
vt -0.0460312 0.666869 
vt -0.0474165 0.670214 
vt -0.0474165 0.663524 
vt -0.0580515 0.721285 
vt -0.0580515 0.727717 
vt -0.0593838 0.724501 
vt -0.0516191 0.721285 
vt -0.0548353 0.719952 
vt -0.0516191 0.727717 
vt -0.0548353 0.729049 
vt -0.0502868 0.724501 
vt -0.0583172 0.670214 
vt -0.0470978 0.670214 
vt -0.0583172 0.666869 
vt -0.0470978 0.666869 
vt -0.0583172 0.663524 
vt -0.0470978 0.663524 
vt -0.0583172 0.727717 
vt -0.0473158 0.729049 
vt -0.0473158 0.727717 
vt -0.0583172 0.724501 
vt -0.0473158 0.724501 
vt -0.0583172 0.721285 
vt -0.0473158 0.721285 
vt -0.0474165 0.689984 
vt -0.0541067 0.689984 
vt -0.0474165 0.701203 
vt -0.0541067 0.701203 
vt -0.0474165 0.689984 
vt -0.0507616 0.689984 
vt -0.0507616 0.701203 
vt -0.0548353 0.700985 
vt -0.0593838 0.689984 
vt -0.0502868 0.689984 
vt -0.0580515 0.689984 
vt -0.0516191 0.700985 
vt -0.0580515 0.700985 
vt -0.0516191 0.689984 
vt -0.0548353 0.689984 
vt -0.0548353 0.700985 
vt -0.0593838 0.666869 
vt -0.0546534 0.671599 
vt -0.0579985 0.670214 
vt -0.0546534 0.662138 
vt -0.0579985 0.663524 
vt -0.049923 0.666869 
vt -0.0513082 0.670214 
vt -0.0513082 0.663524 
vt -0.0537958 0.721285 
vt -0.0473635 0.727717 
vt -0.0537958 0.727717 
vt -0.0505797 0.729049 
vt -0.0551281 0.724501 
vt -0.0473635 0.721285 
vt -0.0460312 0.724501 
vt -0.0505797 0.719952 

usemtl Meshpart2Mtl

f 413/413/413 412/412/412 411/411/411 
f 412/412/412 413/413/413 414/414/414 
f 415/415/415 414/414/414 413/413/413 
f 414/414/414 415/415/415 416/416/416 
f 420/420/420 419/419/419 418/418/418 
f 419/419/419 420/420/420 421/421/421 
f 422/422/422 421/421/421 420/420/420 
f 421/421/421 422/422/422 423/423/423 
f 424/424/424 425/425/425 426/426/426 
f 427/427/427 426/426/426 425/425/425 
f 425/425/425 424/424/424 428/428/428 
f 426/426/426 427/427/427 429/429/429 
f 432/432/432 433/433/433 434/434/434 
f 435/435/435 434/434/434 433/433/433 
f 433/433/433 432/432/432 436/436/436 
f 434/434/434 435/435/435 437/437/437 
f 438/438/438 439/439/439 440/440/440 
f 440/440/440 439/439/439 441/441/441 
f 438/438/438 440/440/440 442/442/442 
f 438/438/438 443/443/443 439/439/439 
f 439/439/439 443/443/443 444/444/444 
f 443/443/443 438/438/438 445/445/445 
f 446/446/446 447/447/447 448/448/448 
f 447/447/447 446/446/446 449/449/449 
f 449/449/449 446/446/446 450/450/450 
f 449/449/449 451/451/451 447/447/447 
f 447/447/447 451/451/451 452/452/452 
f 451/451/451 449/449/449 453/453/453 
f 456/456/456 455/455/455 454/454/454 
f 455/455/455 456/456/456 457/457/457 
f 458/458/458 457/457/457 456/456/456 
f 457/457/457 458/458/458 459/459/459 
f 463/463/463 462/462/462 460/460/460 
f 462/462/462 463/463/463 464/464/464 
f 465/465/465 464/464/464 463/463/463 
f 464/464/464 465/465/465 466/466/466 
f 472/472/472 470/470/470 468/468/468 
f 473/473/473 471/471/471 469/469/469 
f 470/470/470 472/472/472 473/473/473 
f 471/471/471 473/473/473 472/472/472 
f 481/481/481 479/479/479 477/477/477 
f 482/482/482 480/480/480 478/478/478 
f 479/479/479 481/481/481 482/482/482 
f 480/480/480 482/482/482 481/481/481 
f 483/483/483 484/484/484 485/485/485 
f 484/484/484 483/483/483 486/486/486 
f 486/486/486 483/483/483 487/487/487 
f 486/486/486 488/488/488 484/484/484 
f 484/484/484 488/488/488 489/489/489 
f 488/488/488 486/486/486 490/490/490 
f 491/491/491 492/492/492 493/493/493 
f 493/493/493 492/492/492 494/494/494 
f 491/491/491 493/493/493 495/495/495 
f 491/491/491 496/496/496 492/492/492 
f 492/492/492 496/496/496 497/497/497 
f 496/496/496 491/491/491 498/498/498 

